<svg width="44" height="44" viewBox="0 0 44 44" fill="none" xmlns="http://www.w3.org/2000/svg">
<circle cx="22" cy="22" r="22" fill="url(#paint0_radial)"/>
<path d="M27.136 16.992C26.688 16.384 26.104 15.944 25.384 15.672C24.664 15.384 23.96 15.24 23.272 15.24C22.392 15.24 21.592 15.4 20.872 15.72C20.152 16.04 19.528 16.48 19 17.04C18.488 17.6 18.088 18.256 17.8 19.008C17.528 19.76 17.392 20.576 17.392 21.456C17.392 22.384 17.528 23.232 17.8 24C18.072 24.768 18.456 25.432 18.952 25.992C19.464 26.536 20.072 26.96 20.776 27.264C21.48 27.568 22.272 27.72 23.152 27.72C24.064 27.72 24.872 27.544 25.576 27.192C26.28 26.824 26.848 26.344 27.28 25.752L29.704 27.456C28.952 28.4 28.032 29.136 26.944 29.664C25.856 30.176 24.584 30.432 23.128 30.432C21.8 30.432 20.576 30.216 19.456 29.784C18.352 29.336 17.4 28.72 16.6 27.936C15.8 27.136 15.176 26.192 14.728 25.104C14.28 24 14.056 22.784 14.056 21.456C14.056 20.096 14.288 18.872 14.752 17.784C15.232 16.68 15.88 15.744 16.696 14.976C17.528 14.208 18.504 13.616 19.624 13.2C20.744 12.784 21.96 12.576 23.272 12.576C23.816 12.576 24.384 12.632 24.976 12.744C25.568 12.84 26.136 13 26.68 13.224C27.224 13.432 27.736 13.696 28.216 14.016C28.696 14.336 29.104 14.72 29.44 15.168L27.136 16.992Z" fill="white"/>
<defs>
<radialGradient id="paint0_radial" cx="0" cy="0" r="1" gradientUnits="userSpaceOnUse" gradientTransform="translate(22) scale(44)">
<stop stop-color="#00A2B8"/>
<stop offset="1" stop-color="#00F9D2"/>
</radialGradient>
</defs>
</svg>
