<svg width="673" height="398" viewBox="0 0 673 398" fill="none" xmlns="http://www.w3.org/2000/svg">
<g clip-path="url(#clip0)">
<rect width="673" height="398" fill="white"/>
<path d="M479 202.625C477.93 202.625 477.062 201.757 477.062 200.688C477.062 197.484 474.456 194.875 471.25 194.875H465.438C464.368 194.875 463.5 194.007 463.5 192.938C463.5 191.868 464.368 191 465.438 191H471.25C476.592 191 480.938 195.348 480.938 200.688C480.938 201.757 480.07 202.625 479 202.625Z" fill="black"/>
<path d="M479 202.625C477.93 202.625 477.062 201.757 477.062 200.688C477.062 195.348 481.408 191 486.75 191H492.562C493.632 191 494.5 191.868 494.5 192.938C494.5 194.007 493.632 194.875 492.562 194.875H486.75C483.544 194.875 480.938 197.484 480.938 200.688C480.938 201.757 480.07 202.625 479 202.625Z" fill="black"/>
<path d="M471.25 253H465.438C464.368 253 463.5 252.132 463.5 251.062C463.5 249.993 464.368 249.125 465.438 249.125H471.25C474.456 249.125 477.062 246.516 477.062 243.312C477.062 242.243 477.93 241.375 479 241.375C480.07 241.375 480.938 242.243 480.938 243.312C480.938 248.652 476.592 253 471.25 253Z" fill="black"/>
<path d="M492.562 253H486.75C481.408 253 477.062 248.652 477.062 243.312C477.062 242.243 477.93 241.375 479 241.375C480.07 241.375 480.938 242.243 480.938 243.312C480.938 246.516 483.544 249.125 486.75 249.125H492.562C493.632 249.125 494.5 249.993 494.5 251.062C494.5 252.132 493.632 253 492.562 253Z" fill="black"/>
<path d="M479 245.25C477.93 245.25 477.062 244.382 477.062 243.312V200.688C477.062 199.618 477.93 198.75 479 198.75C480.07 198.75 480.938 199.618 480.938 200.688V243.312C480.938 244.382 480.07 245.25 479 245.25Z" fill="black"/>
<path d="M52.072 35.12C51.432 34.288 50.52 33.6 49.336 33.056C48.184 32.48 47.016 32.192 45.832 32.192C45.128 32.192 44.424 32.288 43.72 32.48C43.016 32.64 42.376 32.912 41.8 33.296C41.224 33.648 40.744 34.128 40.36 34.736C40.008 35.312 39.832 36.016 39.832 36.848C39.832 37.616 39.992 38.272 40.312 38.816C40.632 39.36 41.064 39.824 41.608 40.208C42.184 40.592 42.872 40.928 43.672 41.216C44.472 41.504 45.352 41.792 46.312 42.08C47.4 42.432 48.52 42.832 49.672 43.28C50.856 43.728 51.928 44.32 52.888 45.056C53.88 45.792 54.68 46.72 55.288 47.84C55.928 48.96 56.248 50.352 56.248 52.016C56.248 53.84 55.912 55.44 55.24 56.816C54.568 58.16 53.672 59.28 52.552 60.176C51.432 61.072 50.12 61.744 48.616 62.192C47.112 62.64 45.528 62.864 43.864 62.864C41.656 62.864 39.496 62.464 37.384 61.664C35.272 60.832 33.544 59.616 32.2 58.016L36.52 53.984C37.352 55.136 38.456 56.048 39.832 56.72C41.24 57.392 42.616 57.728 43.96 57.728C44.664 57.728 45.384 57.648 46.12 57.488C46.856 57.296 47.512 56.992 48.088 56.576C48.696 56.16 49.176 55.648 49.528 55.04C49.912 54.4 50.104 53.616 50.104 52.688C50.104 51.792 49.896 51.056 49.48 50.48C49.064 49.872 48.504 49.36 47.8 48.944C47.096 48.496 46.264 48.112 45.304 47.792C44.344 47.472 43.336 47.136 42.28 46.784C41.256 46.464 40.232 46.08 39.208 45.632C38.184 45.184 37.256 44.592 36.424 43.856C35.624 43.12 34.968 42.224 34.456 41.168C33.944 40.08 33.688 38.736 33.688 37.136C33.688 35.408 34.04 33.92 34.744 32.672C35.48 31.424 36.424 30.4 37.576 29.6C38.76 28.768 40.088 28.16 41.56 27.776C43.064 27.36 44.584 27.152 46.12 27.152C47.848 27.152 49.592 27.456 51.352 28.064C53.144 28.672 54.696 29.584 56.008 30.8L52.072 35.12ZM76.3225 59.072H76.1785C75.6025 60.096 74.6745 60.944 73.3945 61.616C72.1145 62.256 70.6585 62.576 69.0265 62.576C68.0985 62.576 67.1225 62.448 66.0985 62.192C65.1065 61.968 64.1785 61.584 63.3145 61.04C62.4825 60.464 61.7785 59.728 61.2025 58.832C60.6585 57.904 60.3865 56.768 60.3865 55.424C60.3865 53.696 60.8665 52.32 61.8265 51.296C62.8185 50.272 64.0825 49.488 65.6185 48.944C67.1545 48.4 68.8505 48.048 70.7065 47.888C72.5945 47.696 74.4345 47.6 76.2265 47.6V47.024C76.2265 45.584 75.6985 44.528 74.6425 43.856C73.6185 43.152 72.3865 42.8 70.9465 42.8C69.7305 42.8 68.5625 43.056 67.4425 43.568C66.3225 44.08 65.3945 44.704 64.6585 45.44L61.6825 41.936C62.9945 40.72 64.4985 39.808 66.1945 39.2C67.9225 38.592 69.6665 38.288 71.4265 38.288C73.4745 38.288 75.1545 38.576 76.4665 39.152C77.8105 39.728 78.8665 40.48 79.6345 41.408C80.4025 42.336 80.9305 43.376 81.2185 44.528C81.5385 45.68 81.6985 46.832 81.6985 47.984V62H76.3225V59.072ZM76.2265 51.488H74.9305C74.0025 51.488 73.0265 51.536 72.0025 51.632C70.9785 51.696 70.0345 51.872 69.1705 52.16C68.3065 52.416 67.5865 52.8 67.0105 53.312C66.4345 53.792 66.1465 54.464 66.1465 55.328C66.1465 55.872 66.2585 56.336 66.4825 56.72C66.7385 57.072 67.0585 57.36 67.4425 57.584C67.8265 57.808 68.2585 57.968 68.7385 58.064C69.2185 58.16 69.6985 58.208 70.1785 58.208C72.1625 58.208 73.6665 57.68 74.6905 56.624C75.7145 55.568 76.2265 54.128 76.2265 52.304V51.488ZM88.5051 25.712H94.2651V62H88.5051V25.712ZM117.477 48.176C117.477 47.44 117.365 46.736 117.141 46.064C116.949 45.392 116.629 44.8 116.181 44.288C115.733 43.776 115.157 43.376 114.453 43.088C113.781 42.768 112.981 42.608 112.053 42.608C110.325 42.608 108.853 43.136 107.637 44.192C106.453 45.216 105.797 46.544 105.669 48.176H117.477ZM123.237 50.768C123.237 51.024 123.237 51.28 123.237 51.536C123.237 51.792 123.221 52.048 123.189 52.304H105.669C105.733 53.136 105.941 53.904 106.293 54.608C106.677 55.28 107.173 55.872 107.781 56.384C108.389 56.864 109.077 57.248 109.845 57.536C110.613 57.824 111.413 57.968 112.245 57.968C113.685 57.968 114.901 57.712 115.893 57.2C116.885 56.656 117.701 55.92 118.341 54.992L122.181 58.064C119.909 61.136 116.613 62.672 112.293 62.672C110.501 62.672 108.853 62.4 107.349 61.856C105.845 61.28 104.533 60.48 103.413 59.456C102.325 58.432 101.461 57.184 100.821 55.712C100.213 54.208 99.9089 52.512 99.9089 50.624C99.9089 48.768 100.213 47.088 100.821 45.584C101.461 44.048 102.325 42.752 103.413 41.696C104.501 40.608 105.781 39.776 107.253 39.2C108.757 38.592 110.373 38.288 112.101 38.288C113.701 38.288 115.173 38.56 116.517 39.104C117.893 39.616 119.077 40.4 120.069 41.456C121.061 42.48 121.829 43.776 122.373 45.344C122.949 46.88 123.237 48.688 123.237 50.768ZM141.439 45.104C140.927 44.432 140.223 43.856 139.327 43.376C138.431 42.864 137.455 42.608 136.399 42.608C135.471 42.608 134.623 42.8 133.855 43.184C133.087 43.568 132.703 44.208 132.703 45.104C132.703 46 133.119 46.64 133.951 47.024C134.815 47.376 136.063 47.744 137.695 48.128C138.559 48.32 139.423 48.576 140.287 48.896C141.183 49.216 141.983 49.648 142.687 50.192C143.423 50.704 144.015 51.36 144.463 52.16C144.911 52.928 145.135 53.872 145.135 54.992C145.135 56.4 144.863 57.6 144.319 58.592C143.807 59.552 143.103 60.336 142.207 60.944C141.343 61.552 140.319 61.984 139.135 62.24C137.983 62.528 136.783 62.672 135.535 62.672C133.743 62.672 131.999 62.352 130.303 61.712C128.607 61.04 127.199 60.096 126.079 58.88L129.871 55.328C130.511 56.16 131.343 56.848 132.367 57.392C133.391 57.936 134.527 58.208 135.775 58.208C136.191 58.208 136.607 58.16 137.023 58.064C137.471 57.968 137.871 57.824 138.223 57.632C138.607 57.408 138.911 57.12 139.135 56.768C139.359 56.416 139.471 55.984 139.471 55.472C139.471 54.512 139.023 53.824 138.127 53.408C137.263 52.992 135.951 52.576 134.191 52.16C133.327 51.968 132.479 51.728 131.647 51.44C130.847 51.12 130.127 50.72 129.487 50.24C128.847 49.728 128.335 49.104 127.951 48.368C127.567 47.632 127.375 46.72 127.375 45.632C127.375 44.352 127.631 43.248 128.143 42.32C128.687 41.392 129.391 40.64 130.255 40.064C131.119 39.456 132.095 39.008 133.183 38.72C134.271 38.432 135.391 38.288 136.543 38.288C138.207 38.288 139.823 38.576 141.391 39.152C142.991 39.728 144.255 40.608 145.183 41.792L141.439 45.104ZM174.768 45.104C174.256 44.432 173.552 43.856 172.656 43.376C171.76 42.864 170.784 42.608 169.728 42.608C168.8 42.608 167.952 42.8 167.184 43.184C166.416 43.568 166.032 44.208 166.032 45.104C166.032 46 166.448 46.64 167.28 47.024C168.144 47.376 169.392 47.744 171.023 48.128C171.888 48.32 172.752 48.576 173.616 48.896C174.512 49.216 175.312 49.648 176.016 50.192C176.752 50.704 177.344 51.36 177.792 52.16C178.24 52.928 178.464 53.872 178.464 54.992C178.464 56.4 178.192 57.6 177.648 58.592C177.136 59.552 176.432 60.336 175.536 60.944C174.672 61.552 173.648 61.984 172.464 62.24C171.312 62.528 170.112 62.672 168.864 62.672C167.072 62.672 165.328 62.352 163.632 61.712C161.936 61.04 160.528 60.096 159.408 58.88L163.2 55.328C163.84 56.16 164.672 56.848 165.696 57.392C166.72 57.936 167.856 58.208 169.104 58.208C169.52 58.208 169.936 58.16 170.352 58.064C170.8 57.968 171.2 57.824 171.552 57.632C171.936 57.408 172.24 57.12 172.464 56.768C172.688 56.416 172.799 55.984 172.799 55.472C172.799 54.512 172.352 53.824 171.456 53.408C170.592 52.992 169.28 52.576 167.52 52.16C166.656 51.968 165.808 51.728 164.976 51.44C164.176 51.12 163.456 50.72 162.816 50.24C162.176 49.728 161.664 49.104 161.28 48.368C160.896 47.632 160.704 46.72 160.704 45.632C160.704 44.352 160.96 43.248 161.472 42.32C162.016 41.392 162.72 40.64 163.584 40.064C164.448 39.456 165.424 39.008 166.512 38.72C167.6 38.432 168.72 38.288 169.872 38.288C171.536 38.288 173.152 38.576 174.72 39.152C176.32 39.728 177.584 40.608 178.512 41.792L174.768 45.104ZM180.16 43.568V38.96H184.192V32.288H189.856V38.96H195.616V43.568H189.856V54.272C189.856 55.296 190.032 56.144 190.384 56.816C190.768 57.488 191.6 57.824 192.88 57.824C193.264 57.824 193.68 57.792 194.128 57.728C194.576 57.632 194.976 57.504 195.328 57.344L195.52 61.856C195.008 62.048 194.4 62.192 193.696 62.288C192.992 62.416 192.32 62.48 191.68 62.48C190.144 62.48 188.896 62.272 187.936 61.856C186.976 61.408 186.208 60.816 185.632 60.08C185.088 59.312 184.704 58.448 184.48 57.488C184.288 56.496 184.192 55.44 184.192 54.32V43.568H180.16ZM199.784 38.96H205.304V42.8H205.4C206.04 41.456 206.936 40.368 208.088 39.536C209.24 38.704 210.584 38.288 212.12 38.288C212.344 38.288 212.584 38.304 212.84 38.336C213.096 38.336 213.32 38.368 213.512 38.432V43.712C213.128 43.616 212.792 43.552 212.504 43.52C212.248 43.488 211.992 43.472 211.736 43.472C210.424 43.472 209.368 43.712 208.568 44.192C207.768 44.672 207.144 45.248 206.696 45.92C206.248 46.592 205.944 47.28 205.784 47.984C205.624 48.688 205.544 49.248 205.544 49.664V62H199.784V38.96ZM230.963 59.072H230.819C230.243 60.096 229.315 60.944 228.035 61.616C226.755 62.256 225.299 62.576 223.667 62.576C222.739 62.576 221.763 62.448 220.739 62.192C219.747 61.968 218.819 61.584 217.955 61.04C217.123 60.464 216.419 59.728 215.843 58.832C215.299 57.904 215.027 56.768 215.027 55.424C215.027 53.696 215.507 52.32 216.467 51.296C217.459 50.272 218.723 49.488 220.259 48.944C221.795 48.4 223.491 48.048 225.347 47.888C227.235 47.696 229.075 47.6 230.867 47.6V47.024C230.867 45.584 230.339 44.528 229.283 43.856C228.259 43.152 227.027 42.8 225.587 42.8C224.371 42.8 223.203 43.056 222.083 43.568C220.963 44.08 220.035 44.704 219.299 45.44L216.323 41.936C217.635 40.72 219.139 39.808 220.835 39.2C222.563 38.592 224.307 38.288 226.067 38.288C228.115 38.288 229.795 38.576 231.107 39.152C232.451 39.728 233.507 40.48 234.275 41.408C235.043 42.336 235.571 43.376 235.859 44.528C236.179 45.68 236.339 46.832 236.339 47.984V62H230.963V59.072ZM230.867 51.488H229.571C228.643 51.488 227.667 51.536 226.643 51.632C225.619 51.696 224.675 51.872 223.811 52.16C222.947 52.416 222.227 52.8 221.651 53.312C221.075 53.792 220.787 54.464 220.787 55.328C220.787 55.872 220.899 56.336 221.123 56.72C221.379 57.072 221.699 57.36 222.083 57.584C222.467 57.808 222.899 57.968 223.379 58.064C223.859 58.16 224.339 58.208 224.819 58.208C226.803 58.208 228.307 57.68 229.331 56.624C230.355 55.568 230.867 54.128 230.867 52.304V51.488ZM239.269 43.568V38.96H243.301V32.288H248.965V38.96H254.725V43.568H248.965V54.272C248.965 55.296 249.141 56.144 249.493 56.816C249.877 57.488 250.709 57.824 251.989 57.824C252.373 57.824 252.789 57.792 253.237 57.728C253.685 57.632 254.085 57.504 254.437 57.344L254.629 61.856C254.117 62.048 253.509 62.192 252.805 62.288C252.101 62.416 251.429 62.48 250.789 62.48C249.253 62.48 248.005 62.272 247.045 61.856C246.085 61.408 245.317 60.816 244.741 60.08C244.197 59.312 243.813 58.448 243.589 57.488C243.397 56.496 243.301 55.44 243.301 54.32V43.568H239.269ZM275.118 48.176C275.118 47.44 275.006 46.736 274.782 46.064C274.59 45.392 274.27 44.8 273.822 44.288C273.374 43.776 272.798 43.376 272.094 43.088C271.422 42.768 270.622 42.608 269.694 42.608C267.966 42.608 266.494 43.136 265.278 44.192C264.094 45.216 263.438 46.544 263.31 48.176H275.118ZM280.878 50.768C280.878 51.024 280.878 51.28 280.878 51.536C280.878 51.792 280.862 52.048 280.83 52.304H263.31C263.374 53.136 263.582 53.904 263.934 54.608C264.318 55.28 264.814 55.872 265.422 56.384C266.03 56.864 266.718 57.248 267.486 57.536C268.254 57.824 269.054 57.968 269.886 57.968C271.326 57.968 272.542 57.712 273.534 57.2C274.526 56.656 275.342 55.92 275.982 54.992L279.822 58.064C277.55 61.136 274.254 62.672 269.934 62.672C268.142 62.672 266.494 62.4 264.99 61.856C263.486 61.28 262.174 60.48 261.054 59.456C259.966 58.432 259.102 57.184 258.462 55.712C257.854 54.208 257.55 52.512 257.55 50.624C257.55 48.768 257.854 47.088 258.462 45.584C259.102 44.048 259.966 42.752 261.054 41.696C262.142 40.608 263.422 39.776 264.894 39.2C266.398 38.592 268.014 38.288 269.742 38.288C271.342 38.288 272.814 38.56 274.158 39.104C275.534 39.616 276.718 40.4 277.71 41.456C278.702 42.48 279.47 43.776 280.014 45.344C280.59 46.88 280.878 48.688 280.878 50.768ZM309.88 38.96V59.936C309.88 62.016 309.624 63.888 309.112 65.552C308.6 67.248 307.8 68.672 306.712 69.824C305.656 71.008 304.312 71.92 302.68 72.56C301.048 73.2 299.112 73.52 296.872 73.52C295.944 73.52 294.952 73.44 293.896 73.28C292.872 73.12 291.848 72.88 290.824 72.56C289.832 72.24 288.872 71.84 287.944 71.36C287.016 70.88 286.184 70.336 285.448 69.728L288.76 65.264C289.88 66.32 291.144 67.12 292.552 67.664C293.96 68.24 295.384 68.528 296.824 68.528C298.2 68.528 299.352 68.32 300.28 67.904C301.24 67.52 301.992 66.976 302.536 66.272C303.112 65.568 303.512 64.736 303.736 63.776C303.992 62.816 304.12 61.76 304.12 60.608V58.928H304.024C303.192 60.048 302.12 60.912 300.808 61.52C299.528 62.096 298.088 62.384 296.488 62.384C294.76 62.384 293.192 62.064 291.784 61.424C290.376 60.784 289.176 59.92 288.184 58.832C287.224 57.744 286.472 56.48 285.928 55.04C285.384 53.568 285.112 52.016 285.112 50.384C285.112 48.72 285.368 47.152 285.88 45.68C286.424 44.208 287.176 42.928 288.136 41.84C289.128 40.752 290.312 39.888 291.688 39.248C293.096 38.608 294.664 38.288 296.392 38.288C298.024 38.288 299.544 38.624 300.952 39.296C302.36 39.968 303.48 41.008 304.312 42.416H304.408V38.96H309.88ZM297.592 42.992C296.536 42.992 295.592 43.184 294.76 43.568C293.96 43.952 293.272 44.48 292.696 45.152C292.152 45.792 291.72 46.56 291.4 47.456C291.112 48.352 290.968 49.312 290.968 50.336C290.968 51.264 291.112 52.16 291.4 53.024C291.72 53.888 292.152 54.672 292.696 55.376C293.272 56.048 293.96 56.592 294.76 57.008C295.592 57.424 296.52 57.632 297.544 57.632C298.6 57.632 299.544 57.44 300.376 57.056C301.24 56.64 301.96 56.096 302.536 55.424C303.144 54.752 303.608 53.984 303.928 53.12C304.248 52.224 304.408 51.296 304.408 50.336C304.408 49.344 304.248 48.4 303.928 47.504C303.608 46.608 303.144 45.824 302.536 45.152C301.96 44.48 301.256 43.952 300.424 43.568C299.592 43.184 298.648 42.992 297.592 42.992ZM313.328 38.96H319.712L326.144 55.712H326.24L331.952 38.96H337.952L327.056 66.944C326.64 68 326.192 68.928 325.712 69.728C325.232 70.56 324.656 71.248 323.984 71.792C323.312 72.368 322.512 72.8 321.584 73.088C320.688 73.376 319.6 73.52 318.32 73.52C317.84 73.52 317.344 73.488 316.832 73.424C316.352 73.392 315.856 73.312 315.344 73.184L315.824 68.192C316.208 68.32 316.576 68.4 316.928 68.432C317.312 68.496 317.664 68.528 317.984 68.528C318.592 68.528 319.104 68.448 319.52 68.288C319.936 68.16 320.288 67.936 320.576 67.616C320.864 67.328 321.12 66.96 321.344 66.512C321.568 66.064 321.808 65.536 322.064 64.928L323.216 62L313.328 38.96ZM363.378 52.64H351.858V47.744H363.378V52.64ZM381.057 28.016H394.305C395.585 28.016 396.849 28.176 398.097 28.496C399.345 28.784 400.449 29.28 401.409 29.984C402.401 30.656 403.201 31.536 403.809 32.624C404.417 33.712 404.721 35.024 404.721 36.56C404.721 38.48 404.177 40.064 403.089 41.312C402.001 42.56 400.577 43.456 398.817 44V44.096C400.961 44.384 402.721 45.216 404.097 46.592C405.473 47.968 406.161 49.808 406.161 52.112C406.161 53.968 405.793 55.536 405.057 56.816C404.321 58.064 403.345 59.072 402.129 59.84C400.945 60.608 399.569 61.168 398.001 61.52C396.465 61.84 394.897 62 393.297 62H381.057V28.016ZM387.105 41.84H392.481C394.497 41.84 396.033 41.44 397.089 40.64C398.145 39.84 398.673 38.704 398.673 37.232C398.673 35.696 398.129 34.608 397.041 33.968C395.953 33.328 394.257 33.008 391.953 33.008H387.105V41.84ZM387.105 56.912H392.529C393.297 56.912 394.129 56.864 395.025 56.768C395.921 56.64 396.737 56.4 397.473 56.048C398.241 55.696 398.865 55.184 399.345 54.512C399.857 53.84 400.113 52.944 400.113 51.824C400.113 50.032 399.505 48.784 398.289 48.08C397.073 47.376 395.233 47.024 392.769 47.024H387.105V56.912ZM411.703 56.72L424.807 43.856C425.863 42.832 426.695 41.808 427.303 40.784C427.943 39.728 428.263 38.528 428.263 37.184C428.263 35.584 427.735 34.32 426.679 33.392C425.655 32.432 424.375 31.952 422.839 31.952C421.207 31.952 419.895 32.512 418.903 33.632C417.911 34.72 417.303 36.096 417.079 37.76L411.463 36.896C411.623 35.488 412.023 34.192 412.663 33.008C413.303 31.824 414.119 30.8 415.111 29.936C416.103 29.072 417.255 28.4 418.567 27.92C419.911 27.408 421.367 27.152 422.935 27.152C424.407 27.152 425.815 27.36 427.159 27.776C428.535 28.192 429.751 28.832 430.807 29.696C431.863 30.528 432.695 31.568 433.303 32.816C433.943 34.032 434.263 35.456 434.263 37.088C434.263 38.176 434.119 39.2 433.831 40.16C433.543 41.088 433.143 41.968 432.631 42.8C432.151 43.632 431.575 44.432 430.903 45.2C430.263 45.936 429.559 46.656 428.791 47.36L418.999 56.72H434.311V62H411.703V56.72ZM441.432 28.016H454.68C455.96 28.016 457.224 28.176 458.472 28.496C459.72 28.784 460.824 29.28 461.784 29.984C462.776 30.656 463.576 31.536 464.184 32.624C464.792 33.712 465.096 35.024 465.096 36.56C465.096 38.48 464.552 40.064 463.464 41.312C462.376 42.56 460.952 43.456 459.192 44V44.096C461.336 44.384 463.096 45.216 464.472 46.592C465.848 47.968 466.536 49.808 466.536 52.112C466.536 53.968 466.168 55.536 465.432 56.816C464.696 58.064 463.72 59.072 462.504 59.84C461.32 60.608 459.944 61.168 458.376 61.52C456.84 61.84 455.272 62 453.672 62H441.432V28.016ZM447.48 41.84H452.856C454.872 41.84 456.408 41.44 457.464 40.64C458.52 39.84 459.048 38.704 459.048 37.232C459.048 35.696 458.504 34.608 457.416 33.968C456.328 33.328 454.632 33.008 452.328 33.008H447.48V41.84ZM447.48 56.912H452.904C453.672 56.912 454.504 56.864 455.4 56.768C456.296 56.64 457.112 56.4 457.848 56.048C458.616 55.696 459.24 55.184 459.72 54.512C460.232 53.84 460.488 52.944 460.488 51.824C460.488 50.032 459.88 48.784 458.664 48.08C457.448 47.376 455.608 47.024 453.144 47.024H447.48V56.912ZM501.838 35.12C501.198 34.288 500.286 33.6 499.102 33.056C497.95 32.48 496.782 32.192 495.598 32.192C494.894 32.192 494.19 32.288 493.486 32.48C492.782 32.64 492.142 32.912 491.566 33.296C490.99 33.648 490.51 34.128 490.126 34.736C489.774 35.312 489.598 36.016 489.598 36.848C489.598 37.616 489.758 38.272 490.078 38.816C490.398 39.36 490.83 39.824 491.374 40.208C491.95 40.592 492.638 40.928 493.438 41.216C494.238 41.504 495.118 41.792 496.078 42.08C497.166 42.432 498.286 42.832 499.438 43.28C500.622 43.728 501.694 44.32 502.654 45.056C503.646 45.792 504.446 46.72 505.054 47.84C505.694 48.96 506.014 50.352 506.014 52.016C506.014 53.84 505.678 55.44 505.006 56.816C504.334 58.16 503.438 59.28 502.318 60.176C501.198 61.072 499.886 61.744 498.382 62.192C496.878 62.64 495.294 62.864 493.63 62.864C491.422 62.864 489.262 62.464 487.15 61.664C485.038 60.832 483.31 59.616 481.966 58.016L486.286 53.984C487.118 55.136 488.222 56.048 489.598 56.72C491.006 57.392 492.382 57.728 493.726 57.728C494.43 57.728 495.15 57.648 495.886 57.488C496.622 57.296 497.278 56.992 497.854 56.576C498.462 56.16 498.942 55.648 499.294 55.04C499.678 54.4 499.87 53.616 499.87 52.688C499.87 51.792 499.662 51.056 499.246 50.48C498.83 49.872 498.27 49.36 497.566 48.944C496.862 48.496 496.03 48.112 495.07 47.792C494.11 47.472 493.102 47.136 492.046 46.784C491.022 46.464 489.998 46.08 488.974 45.632C487.95 45.184 487.022 44.592 486.19 43.856C485.39 43.12 484.734 42.224 484.222 41.168C483.71 40.08 483.454 38.736 483.454 37.136C483.454 35.408 483.806 33.92 484.51 32.672C485.246 31.424 486.19 30.4 487.342 29.6C488.526 28.768 489.854 28.16 491.326 27.776C492.83 27.36 494.35 27.152 495.886 27.152C497.614 27.152 499.358 27.456 501.118 28.064C502.91 28.672 504.462 29.584 505.774 30.8L501.838 35.12ZM526.088 59.072H525.944C525.368 60.096 524.44 60.944 523.16 61.616C521.88 62.256 520.424 62.576 518.792 62.576C517.864 62.576 516.888 62.448 515.864 62.192C514.872 61.968 513.944 61.584 513.08 61.04C512.248 60.464 511.544 59.728 510.968 58.832C510.424 57.904 510.152 56.768 510.152 55.424C510.152 53.696 510.632 52.32 511.592 51.296C512.584 50.272 513.848 49.488 515.384 48.944C516.92 48.4 518.616 48.048 520.472 47.888C522.36 47.696 524.2 47.6 525.992 47.6V47.024C525.992 45.584 525.464 44.528 524.408 43.856C523.384 43.152 522.152 42.8 520.712 42.8C519.496 42.8 518.328 43.056 517.208 43.568C516.088 44.08 515.16 44.704 514.424 45.44L511.448 41.936C512.76 40.72 514.264 39.808 515.96 39.2C517.688 38.592 519.432 38.288 521.192 38.288C523.24 38.288 524.92 38.576 526.232 39.152C527.576 39.728 528.632 40.48 529.4 41.408C530.168 42.336 530.696 43.376 530.984 44.528C531.304 45.68 531.464 46.832 531.464 47.984V62H526.088V59.072ZM525.992 51.488H524.696C523.768 51.488 522.792 51.536 521.768 51.632C520.744 51.696 519.8 51.872 518.936 52.16C518.072 52.416 517.352 52.8 516.776 53.312C516.2 53.792 515.912 54.464 515.912 55.328C515.912 55.872 516.024 56.336 516.248 56.72C516.504 57.072 516.824 57.36 517.208 57.584C517.592 57.808 518.024 57.968 518.504 58.064C518.984 58.16 519.464 58.208 519.944 58.208C521.928 58.208 523.432 57.68 524.456 56.624C525.48 55.568 525.992 54.128 525.992 52.304V51.488ZM552.479 59.072H552.335C551.759 60.096 550.831 60.944 549.551 61.616C548.271 62.256 546.815 62.576 545.183 62.576C544.255 62.576 543.279 62.448 542.255 62.192C541.263 61.968 540.335 61.584 539.471 61.04C538.639 60.464 537.935 59.728 537.359 58.832C536.815 57.904 536.543 56.768 536.543 55.424C536.543 53.696 537.023 52.32 537.983 51.296C538.975 50.272 540.239 49.488 541.775 48.944C543.311 48.4 545.007 48.048 546.863 47.888C548.751 47.696 550.591 47.6 552.383 47.6V47.024C552.383 45.584 551.855 44.528 550.799 43.856C549.775 43.152 548.543 42.8 547.103 42.8C545.887 42.8 544.719 43.056 543.599 43.568C542.479 44.08 541.551 44.704 540.815 45.44L537.839 41.936C539.151 40.72 540.655 39.808 542.351 39.2C544.079 38.592 545.823 38.288 547.583 38.288C549.631 38.288 551.311 38.576 552.623 39.152C553.967 39.728 555.023 40.48 555.791 41.408C556.559 42.336 557.087 43.376 557.375 44.528C557.695 45.68 557.855 46.832 557.855 47.984V62H552.479V59.072ZM552.383 51.488H551.087C550.159 51.488 549.183 51.536 548.159 51.632C547.135 51.696 546.191 51.872 545.327 52.16C544.463 52.416 543.743 52.8 543.167 53.312C542.591 53.792 542.303 54.464 542.303 55.328C542.303 55.872 542.415 56.336 542.639 56.72C542.895 57.072 543.215 57.36 543.599 57.584C543.983 57.808 544.415 57.968 544.895 58.064C545.375 58.16 545.855 58.208 546.335 58.208C548.319 58.208 549.823 57.68 550.847 56.624C551.871 55.568 552.383 54.128 552.383 52.304V51.488ZM582.181 35.12C581.541 34.288 580.629 33.6 579.445 33.056C578.293 32.48 577.125 32.192 575.941 32.192C575.237 32.192 574.533 32.288 573.829 32.48C573.125 32.64 572.485 32.912 571.909 33.296C571.333 33.648 570.853 34.128 570.469 34.736C570.117 35.312 569.941 36.016 569.941 36.848C569.941 37.616 570.101 38.272 570.421 38.816C570.741 39.36 571.173 39.824 571.717 40.208C572.293 40.592 572.981 40.928 573.781 41.216C574.581 41.504 575.461 41.792 576.421 42.08C577.509 42.432 578.629 42.832 579.781 43.28C580.965 43.728 582.037 44.32 582.997 45.056C583.989 45.792 584.789 46.72 585.397 47.84C586.037 48.96 586.357 50.352 586.357 52.016C586.357 53.84 586.021 55.44 585.349 56.816C584.677 58.16 583.781 59.28 582.661 60.176C581.541 61.072 580.229 61.744 578.725 62.192C577.221 62.64 575.637 62.864 573.973 62.864C571.765 62.864 569.605 62.464 567.493 61.664C565.381 60.832 563.653 59.616 562.309 58.016L566.629 53.984C567.461 55.136 568.565 56.048 569.941 56.72C571.349 57.392 572.725 57.728 574.069 57.728C574.773 57.728 575.493 57.648 576.229 57.488C576.965 57.296 577.621 56.992 578.197 56.576C578.805 56.16 579.285 55.648 579.637 55.04C580.021 54.4 580.213 53.616 580.213 52.688C580.213 51.792 580.005 51.056 579.589 50.48C579.173 49.872 578.613 49.36 577.909 48.944C577.205 48.496 576.373 48.112 575.413 47.792C574.453 47.472 573.445 47.136 572.389 46.784C571.365 46.464 570.341 46.08 569.317 45.632C568.293 45.184 567.365 44.592 566.533 43.856C565.733 43.12 565.077 42.224 564.565 41.168C564.053 40.08 563.797 38.736 563.797 37.136C563.797 35.408 564.149 33.92 564.853 32.672C565.589 31.424 566.533 30.4 567.685 29.6C568.869 28.768 570.197 28.16 571.669 27.776C573.173 27.36 574.693 27.152 576.229 27.152C577.957 27.152 579.701 27.456 581.461 28.064C583.253 28.672 584.805 29.584 586.117 30.8L582.181 35.12Z" fill="black"/>
<path d="M46.732 118.616C46.18 117.848 45.472 117.236 44.608 116.78C43.744 116.3 42.7 116.06 41.476 116.06C40.852 116.06 40.216 116.156 39.568 116.348C38.92 116.54 38.332 116.84 37.804 117.248C37.276 117.632 36.844 118.124 36.508 118.724C36.196 119.324 36.04 120.032 36.04 120.848C36.04 121.664 36.196 122.336 36.508 122.864C36.82 123.392 37.228 123.848 37.732 124.232C38.26 124.592 38.848 124.892 39.496 125.132C40.168 125.372 40.864 125.612 41.584 125.852C42.472 126.14 43.36 126.452 44.248 126.788C45.16 127.124 45.976 127.568 46.696 128.12C47.416 128.648 48.004 129.332 48.46 130.172C48.916 130.988 49.144 132.032 49.144 133.304C49.144 134.576 48.892 135.68 48.388 136.616C47.908 137.528 47.272 138.284 46.48 138.884C45.712 139.484 44.824 139.928 43.816 140.216C42.832 140.504 41.836 140.648 40.828 140.648C40.06 140.648 39.292 140.564 38.524 140.396C37.756 140.252 37.024 140.024 36.328 139.712C35.632 139.4 34.984 139.004 34.384 138.524C33.784 138.044 33.256 137.492 32.8 136.868L35.032 135.212C35.584 136.124 36.352 136.892 37.336 137.516C38.344 138.116 39.52 138.416 40.864 138.416C41.512 138.416 42.172 138.32 42.844 138.128C43.516 137.912 44.116 137.6 44.644 137.192C45.196 136.76 45.64 136.244 45.976 135.644C46.336 135.02 46.516 134.3 46.516 133.484C46.516 132.596 46.336 131.864 45.976 131.288C45.64 130.688 45.184 130.196 44.608 129.812C44.032 129.404 43.372 129.068 42.628 128.804C41.884 128.54 41.104 128.276 40.288 128.012C39.448 127.748 38.62 127.448 37.804 127.112C36.988 126.776 36.256 126.344 35.608 125.816C34.96 125.264 34.432 124.592 34.024 123.8C33.64 123.008 33.448 122.036 33.448 120.884C33.448 119.66 33.688 118.604 34.168 117.716C34.672 116.828 35.32 116.096 36.112 115.52C36.904 114.944 37.78 114.524 38.74 114.26C39.7 113.996 40.648 113.864 41.584 113.864C43.312 113.864 44.788 114.176 46.012 114.8C47.236 115.4 48.16 116.12 48.784 116.96L46.732 118.616ZM61.9454 125.204H57.1934V135.032C57.1934 135.656 57.2534 136.172 57.3734 136.58C57.4934 136.988 57.6614 137.312 57.8774 137.552C58.1174 137.768 58.3934 137.924 58.7054 138.02C59.0174 138.092 59.3534 138.128 59.7134 138.128C60.0494 138.128 60.3974 138.08 60.7574 137.984C61.1414 137.888 61.5014 137.756 61.8374 137.588L61.9454 139.712C61.5134 139.88 61.0574 140 60.5774 140.072C60.1214 140.168 59.6174 140.216 59.0654 140.216C58.6094 140.216 58.1294 140.156 57.6254 140.036C57.1214 139.916 56.6534 139.688 56.2214 139.352C55.7894 139.016 55.4294 138.56 55.1414 137.984C54.8774 137.408 54.7454 136.652 54.7454 135.716V125.204H51.2534V123.152H54.7454V118.4H57.1934V123.152H61.9454V125.204ZM78.6272 130.28C78.5552 128.696 78.0392 127.388 77.0792 126.356C76.1432 125.3 74.7992 124.772 73.0472 124.772C72.2312 124.772 71.4752 124.928 70.7792 125.24C70.0832 125.528 69.4712 125.936 68.9432 126.464C68.4152 126.968 67.9952 127.556 67.6832 128.228C67.3712 128.876 67.1912 129.56 67.1432 130.28H78.6272ZM81.1112 131.072C81.1112 131.24 81.1112 131.42 81.1112 131.612C81.1112 131.804 81.0992 132.008 81.0752 132.224H67.1072C67.1312 133.064 67.2992 133.856 67.6112 134.6C67.9232 135.344 68.3552 135.992 68.9072 136.544C69.4592 137.096 70.1072 137.54 70.8512 137.876C71.5952 138.188 72.3992 138.344 73.2632 138.344C74.5352 138.344 75.6272 138.056 76.5392 137.48C77.4752 136.88 78.1832 136.196 78.6632 135.428L80.4992 136.868C79.4912 138.14 78.3752 139.052 77.1512 139.604C75.9512 140.156 74.6552 140.432 73.2632 140.432C72.0152 140.432 70.8512 140.216 69.7712 139.784C68.7152 139.328 67.8032 138.704 67.0352 137.912C66.2672 137.12 65.6552 136.184 65.1992 135.104C64.7672 134.024 64.5512 132.848 64.5512 131.576C64.5512 130.304 64.7672 129.128 65.1992 128.048C65.6312 126.968 66.2312 126.032 66.9992 125.24C67.7672 124.448 68.6672 123.836 69.6992 123.404C70.7312 122.948 71.8472 122.72 73.0472 122.72C74.3672 122.72 75.5312 122.948 76.5392 123.404C77.5472 123.836 78.3872 124.436 79.0592 125.204C79.7312 125.948 80.2352 126.824 80.5712 127.832C80.9312 128.84 81.1112 129.92 81.1112 131.072ZM88.8247 148.64H86.3767V123.152H88.8247V126.068H88.9327C89.6287 124.964 90.5527 124.136 91.7047 123.584C92.8807 123.008 94.0687 122.72 95.2687 122.72C96.5887 122.72 97.7767 122.948 98.8327 123.404C99.9127 123.86 100.825 124.484 101.569 125.276C102.337 126.068 102.925 127.004 103.333 128.084C103.765 129.164 103.981 130.328 103.981 131.576C103.981 132.824 103.765 133.988 103.333 135.068C102.925 136.148 102.337 137.084 101.569 137.876C100.825 138.668 99.9127 139.292 98.8327 139.748C97.7767 140.204 96.5887 140.432 95.2687 140.432C94.0687 140.432 92.8807 140.156 91.7047 139.604C90.5527 139.028 89.6287 138.212 88.9327 137.156H88.8247V148.64ZM101.389 131.576C101.389 130.64 101.245 129.764 100.957 128.948C100.669 128.108 100.249 127.388 99.6967 126.788C99.1687 126.164 98.5087 125.672 97.7167 125.312C96.9247 124.952 96.0247 124.772 95.0167 124.772C94.0807 124.772 93.2167 124.952 92.4247 125.312C91.6327 125.648 90.9487 126.128 90.3727 126.752C89.7967 127.352 89.3407 128.072 89.0047 128.912C88.6927 129.728 88.5367 130.616 88.5367 131.576C88.5367 132.536 88.6927 133.436 89.0047 134.276C89.3407 135.092 89.7967 135.8 90.3727 136.4C90.9487 137 91.6327 137.48 92.4247 137.84C93.2167 138.176 94.0807 138.344 95.0167 138.344C96.0247 138.344 96.9247 138.176 97.7167 137.84C98.5087 137.48 99.1687 137 99.6967 136.4C100.249 135.776 100.669 135.056 100.957 134.24C101.245 133.4 101.389 132.512 101.389 131.576ZM120.424 123.152C120.472 123.608 120.508 124.112 120.532 124.664C120.556 125.216 120.568 125.672 120.568 126.032H120.64C121.12 125.048 121.9 124.256 122.98 123.656C124.06 123.032 125.2 122.72 126.4 122.72C128.536 122.72 130.132 123.356 131.188 124.628C132.268 125.9 132.808 127.58 132.808 129.668V140H130.36V130.676C130.36 129.788 130.288 128.984 130.144 128.264C130 127.544 129.748 126.932 129.388 126.428C129.052 125.9 128.584 125.492 127.984 125.204C127.408 124.916 126.676 124.772 125.788 124.772C125.14 124.772 124.504 124.904 123.88 125.168C123.28 125.432 122.74 125.84 122.26 126.392C121.78 126.92 121.396 127.604 121.108 128.444C120.82 129.26 120.676 130.232 120.676 131.36V140H118.228V126.86C118.228 126.404 118.216 125.816 118.192 125.096C118.168 124.376 118.132 123.728 118.084 123.152H120.424ZM155.886 131.576C155.886 132.848 155.658 134.024 155.202 135.104C154.77 136.184 154.158 137.12 153.366 137.912C152.574 138.704 151.626 139.328 150.522 139.784C149.418 140.216 148.206 140.432 146.886 140.432C145.59 140.432 144.39 140.216 143.286 139.784C142.182 139.328 141.234 138.704 140.442 137.912C139.65 137.12 139.026 136.184 138.57 135.104C138.138 134.024 137.922 132.848 137.922 131.576C137.922 130.304 138.138 129.128 138.57 128.048C139.026 126.968 139.65 126.032 140.442 125.24C141.234 124.448 142.182 123.836 143.286 123.404C144.39 122.948 145.59 122.72 146.886 122.72C148.206 122.72 149.418 122.948 150.522 123.404C151.626 123.836 152.574 124.448 153.366 125.24C154.158 126.032 154.77 126.968 155.202 128.048C155.658 129.128 155.886 130.304 155.886 131.576ZM153.294 131.576C153.294 130.64 153.138 129.764 152.826 128.948C152.538 128.108 152.118 127.388 151.566 126.788C151.014 126.164 150.342 125.672 149.55 125.312C148.758 124.952 147.87 124.772 146.886 124.772C145.902 124.772 145.014 124.952 144.222 125.312C143.454 125.672 142.794 126.164 142.242 126.788C141.69 127.388 141.258 128.108 140.946 128.948C140.658 129.764 140.514 130.64 140.514 131.576C140.514 132.512 140.658 133.4 140.946 134.24C141.258 135.056 141.69 135.776 142.242 136.4C142.794 137 143.454 137.48 144.222 137.84C145.014 138.176 145.902 138.344 146.886 138.344C147.87 138.344 148.758 138.176 149.55 137.84C150.342 137.48 151.014 137 151.566 136.4C152.118 135.776 152.538 135.056 152.826 134.24C153.138 133.4 153.294 132.512 153.294 131.576ZM164.116 138.272C164.116 138.776 163.936 139.232 163.576 139.64C163.216 140.024 162.748 140.216 162.172 140.216C161.596 140.216 161.128 140.024 160.768 139.64C160.408 139.232 160.228 138.776 160.228 138.272C160.228 137.768 160.408 137.324 160.768 136.94C161.128 136.532 161.596 136.328 162.172 136.328C162.748 136.328 163.216 136.532 163.576 136.94C163.936 137.324 164.116 137.768 164.116 138.272Z" fill="black"/>
<path d="M42.556 234H39.964V210.816H31.432V208.512H51.088V210.816H42.556V234ZM56.8334 234H54.3854V217.152H56.8334V234ZM57.3374 210.672C57.3374 211.176 57.1574 211.596 56.7974 211.932C56.4374 212.244 56.0414 212.4 55.6094 212.4C55.1774 212.4 54.7814 212.244 54.4214 211.932C54.0614 211.596 53.8814 211.176 53.8814 210.672C53.8814 210.168 54.0614 209.76 54.4214 209.448C54.7814 209.112 55.1774 208.944 55.6094 208.944C56.0414 208.944 56.4374 209.112 56.7974 209.448C57.1574 209.76 57.3374 210.168 57.3374 210.672ZM70.9454 219.204H66.1934V229.032C66.1934 229.656 66.2534 230.172 66.3734 230.58C66.4934 230.988 66.6614 231.312 66.8774 231.552C67.1174 231.768 67.3934 231.924 67.7054 232.02C68.0174 232.092 68.3534 232.128 68.7134 232.128C69.0494 232.128 69.3974 232.08 69.7574 231.984C70.1414 231.888 70.5014 231.756 70.8374 231.588L70.9454 233.712C70.5134 233.88 70.0574 234 69.5774 234.072C69.1214 234.168 68.6174 234.216 68.0654 234.216C67.6094 234.216 67.1294 234.156 66.6254 234.036C66.1214 233.916 65.6534 233.688 65.2214 233.352C64.7894 233.016 64.4294 232.56 64.1414 231.984C63.8774 231.408 63.7454 230.652 63.7454 229.716V219.204H60.2534V217.152H63.7454V212.4H66.1934V217.152H70.9454V219.204ZM77.2952 234H74.8472V206.784H77.2952V234ZM96.6975 224.28C96.6255 222.696 96.1095 221.388 95.1495 220.356C94.2135 219.3 92.8695 218.772 91.1175 218.772C90.3015 218.772 89.5455 218.928 88.8495 219.24C88.1535 219.528 87.5415 219.936 87.0135 220.464C86.4855 220.968 86.0655 221.556 85.7535 222.228C85.4415 222.876 85.2615 223.56 85.2135 224.28H96.6975ZM99.1815 225.072C99.1815 225.24 99.1815 225.42 99.1815 225.612C99.1815 225.804 99.1695 226.008 99.1455 226.224H85.1775C85.2015 227.064 85.3695 227.856 85.6815 228.6C85.9935 229.344 86.4255 229.992 86.9775 230.544C87.5295 231.096 88.1775 231.54 88.9215 231.876C89.6655 232.188 90.4695 232.344 91.3335 232.344C92.6055 232.344 93.6975 232.056 94.6095 231.48C95.5455 230.88 96.2535 230.196 96.7335 229.428L98.5695 230.868C97.5615 232.14 96.4455 233.052 95.2215 233.604C94.0215 234.156 92.7255 234.432 91.3335 234.432C90.0855 234.432 88.9215 234.216 87.8415 233.784C86.7855 233.328 85.8735 232.704 85.1055 231.912C84.3375 231.12 83.7255 230.184 83.2695 229.104C82.8375 228.024 82.6215 226.848 82.6215 225.576C82.6215 224.304 82.8375 223.128 83.2695 222.048C83.7015 220.968 84.3015 220.032 85.0695 219.24C85.8375 218.448 86.7375 217.836 87.7695 217.404C88.8015 216.948 89.9175 216.72 91.1175 216.72C92.4375 216.72 93.6015 216.948 94.6095 217.404C95.6175 217.836 96.4575 218.436 97.1295 219.204C97.8015 219.948 98.3055 220.824 98.6415 221.832C99.0015 222.84 99.1815 223.92 99.1815 225.072Z" fill="black"/>
<rect x="176" y="100" width="59" height="57" rx="28.5" fill="#F9AF20"/>
<path d="M203.39 125.7H204.32C204.92 125.7 205.5 125.65 206.06 125.55C206.64 125.43 207.15 125.24 207.59 124.98C208.03 124.7 208.38 124.33 208.64 123.87C208.92 123.41 209.06 122.84 209.06 122.16C209.06 121.62 208.96 121.14 208.76 120.72C208.56 120.28 208.28 119.91 207.92 119.61C207.58 119.31 207.18 119.08 206.72 118.92C206.28 118.74 205.81 118.65 205.31 118.65C204.41 118.65 203.64 118.88 203 119.34C202.38 119.8 201.91 120.44 201.59 121.26L198.95 120.33C199.47 119.05 200.3 118.05 201.44 117.33C202.6 116.59 203.93 116.22 205.43 116.22C206.31 116.22 207.14 116.35 207.92 116.61C208.72 116.85 209.42 117.21 210.02 117.69C210.62 118.17 211.09 118.77 211.43 119.49C211.79 120.21 211.97 121.04 211.97 121.98C211.97 122.58 211.87 123.14 211.67 123.66C211.49 124.18 211.23 124.65 210.89 125.07C210.57 125.49 210.18 125.85 209.72 126.15C209.26 126.45 208.76 126.67 208.22 126.81V126.87C208.84 126.99 209.41 127.2 209.93 127.5C210.47 127.8 210.93 128.18 211.31 128.64C211.69 129.08 211.99 129.59 212.21 130.17C212.43 130.75 212.54 131.38 212.54 132.06C212.54 133.12 212.34 134.06 211.94 134.88C211.54 135.68 211.01 136.35 210.35 136.89C209.69 137.43 208.93 137.84 208.07 138.12C207.21 138.4 206.33 138.54 205.43 138.54C203.75 138.54 202.27 138.16 200.99 137.4C199.71 136.64 198.78 135.46 198.2 133.86L200.9 132.96C201.22 133.88 201.76 134.63 202.52 135.21C203.3 135.79 204.25 136.08 205.37 136.08C205.91 136.08 206.43 136 206.93 135.84C207.45 135.66 207.91 135.4 208.31 135.06C208.71 134.72 209.03 134.3 209.27 133.8C209.51 133.3 209.63 132.71 209.63 132.03C209.63 131.29 209.47 130.67 209.15 130.17C208.83 129.67 208.41 129.27 207.89 128.97C207.39 128.65 206.82 128.43 206.18 128.31C205.54 128.17 204.91 128.1 204.29 128.1H203.39V125.7Z" fill="white"/>
<rect x="225" y="318" width="260" height="57" rx="28.5" fill="#9A20F9"/>
<path d="M257.79 352.7C256.95 353.84 255.86 354.77 254.52 355.49C253.18 356.19 251.57 356.54 249.69 356.54C248.07 356.54 246.57 356.27 245.19 355.73C243.83 355.17 242.65 354.4 241.65 353.42C240.67 352.42 239.9 351.24 239.34 349.88C238.78 348.5 238.5 346.99 238.5 345.35C238.5 343.69 238.78 342.18 239.34 340.82C239.92 339.44 240.71 338.27 241.71 337.31C242.73 336.33 243.93 335.57 245.31 335.03C246.69 334.49 248.19 334.22 249.81 334.22C250.53 334.22 251.26 334.29 252 334.43C252.74 334.57 253.45 334.78 254.13 335.06C254.81 335.34 255.43 335.69 255.99 336.11C256.55 336.51 257.03 336.98 257.43 337.52L255.09 339.32C254.57 338.6 253.83 338.01 252.87 337.55C251.93 337.07 250.91 336.83 249.81 336.83C248.57 336.83 247.45 337.06 246.45 337.52C245.47 337.96 244.63 338.57 243.93 339.35C243.23 340.13 242.69 341.04 242.31 342.08C241.93 343.1 241.74 344.19 241.74 345.35C241.74 346.55 241.92 347.67 242.28 348.71C242.66 349.75 243.19 350.66 243.87 351.44C244.57 352.2 245.41 352.8 246.39 353.24C247.39 353.68 248.5 353.9 249.72 353.9C250.92 353.9 252.01 353.66 252.99 353.18C253.97 352.7 254.78 352 255.42 351.08L257.79 352.7ZM260.67 344.84C260.67 344.46 260.66 343.97 260.64 343.37C260.62 342.77 260.59 342.24 260.55 341.78H263.22C263.26 342.14 263.29 342.56 263.31 343.04C263.33 343.5 263.34 343.88 263.34 344.18H263.43C263.83 343.34 264.41 342.67 265.17 342.17C265.95 341.65 266.82 341.39 267.78 341.39C268.22 341.39 268.59 341.43 268.89 341.51L268.77 344.12C268.37 344.02 267.94 343.97 267.48 343.97C266.8 343.97 266.21 344.1 265.71 344.36C265.21 344.6 264.79 344.93 264.45 345.35C264.13 345.77 263.89 346.26 263.73 346.82C263.57 347.36 263.49 347.93 263.49 348.53V356H260.67V344.84ZM281.422 347.63C281.402 347.07 281.302 346.55 281.122 346.07C280.962 345.57 280.712 345.14 280.372 344.78C280.052 344.42 279.642 344.14 279.142 343.94C278.662 343.72 278.092 343.61 277.432 343.61C276.832 343.61 276.262 343.72 275.722 343.94C275.202 344.14 274.742 344.42 274.342 344.78C273.962 345.14 273.642 345.57 273.382 346.07C273.142 346.55 273.002 347.07 272.962 347.63H281.422ZM284.272 348.77C284.272 348.93 284.272 349.09 284.272 349.25C284.272 349.41 284.262 349.57 284.242 349.73H272.962C272.982 350.33 273.112 350.9 273.352 351.44C273.612 351.96 273.952 352.42 274.372 352.82C274.792 353.2 275.272 353.5 275.812 353.72C276.372 353.94 276.962 354.05 277.582 354.05C278.542 354.05 279.372 353.84 280.072 353.42C280.772 353 281.322 352.49 281.722 351.89L283.702 353.48C282.942 354.48 282.042 355.22 281.002 355.7C279.982 356.16 278.842 356.39 277.582 356.39C276.502 356.39 275.502 356.21 274.582 355.85C273.662 355.49 272.872 354.99 272.212 354.35C271.552 353.69 271.032 352.9 270.652 351.98C270.272 351.06 270.082 350.04 270.082 348.92C270.082 347.82 270.262 346.81 270.622 345.89C271.002 344.95 271.522 344.15 272.182 343.49C272.842 342.83 273.622 342.32 274.522 341.96C275.422 341.58 276.392 341.39 277.432 341.39C278.472 341.39 279.412 341.56 280.252 341.9C281.112 342.24 281.832 342.73 282.412 343.37C283.012 344.01 283.472 344.79 283.792 345.71C284.112 346.61 284.272 347.63 284.272 348.77ZM296.884 346.79C296.884 345.73 296.564 344.95 295.924 344.45C295.284 343.93 294.434 343.67 293.374 343.67C292.574 343.67 291.814 343.83 291.094 344.15C290.394 344.45 289.804 344.84 289.324 345.32L287.824 343.52C288.524 342.86 289.374 342.34 290.374 341.96C291.394 341.58 292.484 341.39 293.644 341.39C294.664 341.39 295.544 341.54 296.284 341.84C297.044 342.12 297.664 342.51 298.144 343.01C298.624 343.51 298.984 344.1 299.224 344.78C299.464 345.46 299.584 346.19 299.584 346.97V353.18C299.584 353.66 299.594 354.17 299.614 354.71C299.654 355.23 299.714 355.66 299.794 356H297.244C297.084 355.32 297.004 354.64 297.004 353.96H296.914C296.394 354.72 295.734 355.31 294.934 355.73C294.154 356.15 293.224 356.36 292.144 356.36C291.584 356.36 290.994 356.28 290.374 356.12C289.774 355.98 289.224 355.74 288.724 355.4C288.224 355.06 287.804 354.61 287.464 354.05C287.144 353.49 286.984 352.8 286.984 351.98C286.984 350.9 287.274 350.05 287.854 349.43C288.434 348.79 289.194 348.31 290.134 347.99C291.074 347.65 292.134 347.43 293.314 347.33C294.494 347.23 295.684 347.18 296.884 347.18V346.79ZM296.194 349.22C295.494 349.22 294.764 349.25 294.004 349.31C293.264 349.37 292.584 349.49 291.964 349.67C291.364 349.85 290.864 350.12 290.464 350.48C290.064 350.84 289.864 351.32 289.864 351.92C289.864 352.34 289.944 352.69 290.104 352.97C290.284 353.25 290.514 353.48 290.794 353.66C291.074 353.84 291.384 353.97 291.724 354.05C292.064 354.11 292.414 354.14 292.774 354.14C294.094 354.14 295.104 353.75 295.804 352.97C296.524 352.17 296.884 351.17 296.884 349.97V349.22H296.194ZM310.96 344.09H307.18V351.5C307.18 352.36 307.34 352.98 307.66 353.36C307.98 353.72 308.49 353.9 309.19 353.9C309.45 353.9 309.73 353.87 310.03 353.81C310.33 353.75 310.6 353.66 310.84 353.54L310.93 355.85C310.59 355.97 310.21 356.06 309.79 356.12C309.39 356.2 308.97 356.24 308.53 356.24C307.19 356.24 306.16 355.87 305.44 355.13C304.74 354.39 304.39 353.28 304.39 351.8V344.09H301.66V341.78H304.39V337.7H307.18V341.78H310.96V344.09ZM324.283 347.63C324.263 347.07 324.163 346.55 323.983 346.07C323.823 345.57 323.573 345.14 323.233 344.78C322.913 344.42 322.503 344.14 322.003 343.94C321.523 343.72 320.953 343.61 320.293 343.61C319.693 343.61 319.123 343.72 318.583 343.94C318.063 344.14 317.603 344.42 317.203 344.78C316.823 345.14 316.503 345.57 316.243 346.07C316.003 346.55 315.863 347.07 315.823 347.63H324.283ZM327.133 348.77C327.133 348.93 327.133 349.09 327.133 349.25C327.133 349.41 327.123 349.57 327.103 349.73H315.823C315.843 350.33 315.973 350.9 316.213 351.44C316.473 351.96 316.813 352.42 317.233 352.82C317.653 353.2 318.133 353.5 318.673 353.72C319.233 353.94 319.823 354.05 320.443 354.05C321.403 354.05 322.233 353.84 322.933 353.42C323.633 353 324.183 352.49 324.583 351.89L326.563 353.48C325.803 354.48 324.903 355.22 323.863 355.7C322.843 356.16 321.703 356.39 320.443 356.39C319.363 356.39 318.363 356.21 317.443 355.85C316.523 355.49 315.733 354.99 315.073 354.35C314.413 353.69 313.893 352.9 313.513 351.98C313.133 351.06 312.943 350.04 312.943 348.92C312.943 347.82 313.123 346.81 313.483 345.89C313.863 344.95 314.383 344.15 315.043 343.49C315.703 342.83 316.483 342.32 317.383 341.96C318.283 341.58 319.253 341.39 320.293 341.39C321.333 341.39 322.273 341.56 323.113 341.9C323.973 342.24 324.693 342.73 325.273 343.37C325.873 344.01 326.333 344.79 326.653 345.71C326.973 346.61 327.133 347.63 327.133 348.77ZM341.121 341.78C341.161 342.14 341.191 342.55 341.211 343.01C341.231 343.45 341.241 343.82 341.241 344.12H341.331C341.511 343.74 341.751 343.39 342.051 343.07C342.371 342.73 342.731 342.44 343.131 342.2C343.531 341.94 343.971 341.74 344.451 341.6C344.931 341.46 345.431 341.39 345.951 341.39C346.871 341.39 347.661 341.55 348.321 341.87C348.981 342.17 349.531 342.58 349.971 343.1C350.411 343.62 350.731 344.23 350.931 344.93C351.151 345.63 351.261 346.38 351.261 347.18V356H348.441V348.11C348.441 347.53 348.391 346.98 348.291 346.46C348.211 345.94 348.051 345.48 347.811 345.08C347.571 344.68 347.241 344.36 346.821 344.12C346.401 343.88 345.861 343.76 345.201 343.76C344.081 343.76 343.161 344.19 342.441 345.05C341.741 345.89 341.391 347.02 341.391 348.44V356H338.571V344.84C338.571 344.46 338.561 343.97 338.541 343.37C338.521 342.77 338.491 342.24 338.451 341.78H341.121ZM366.442 347.63C366.422 347.07 366.322 346.55 366.142 346.07C365.982 345.57 365.732 345.14 365.392 344.78C365.072 344.42 364.662 344.14 364.162 343.94C363.682 343.72 363.112 343.61 362.452 343.61C361.852 343.61 361.282 343.72 360.742 343.94C360.222 344.14 359.762 344.42 359.362 344.78C358.982 345.14 358.662 345.57 358.402 346.07C358.162 346.55 358.022 347.07 357.982 347.63H366.442ZM369.292 348.77C369.292 348.93 369.292 349.09 369.292 349.25C369.292 349.41 369.282 349.57 369.262 349.73H357.982C358.002 350.33 358.132 350.9 358.372 351.44C358.632 351.96 358.972 352.42 359.392 352.82C359.812 353.2 360.292 353.5 360.832 353.72C361.392 353.94 361.982 354.05 362.602 354.05C363.562 354.05 364.392 353.84 365.092 353.42C365.792 353 366.342 352.49 366.742 351.89L368.722 353.48C367.962 354.48 367.062 355.22 366.022 355.7C365.002 356.16 363.862 356.39 362.602 356.39C361.522 356.39 360.522 356.21 359.602 355.85C358.682 355.49 357.892 354.99 357.232 354.35C356.572 353.69 356.052 352.9 355.672 351.98C355.292 351.06 355.102 350.04 355.102 348.92C355.102 347.82 355.282 346.81 355.642 345.89C356.022 344.95 356.542 344.15 357.202 343.49C357.862 342.83 358.642 342.32 359.542 341.96C360.442 341.58 361.412 341.39 362.452 341.39C363.492 341.39 364.432 341.56 365.272 341.9C366.132 342.24 366.852 342.73 367.432 343.37C368.032 344.01 368.492 344.79 368.812 345.71C369.132 346.61 369.292 347.63 369.292 348.77ZM374.279 341.78L377.489 352.64H377.549L380.939 341.78H383.909L387.359 352.64H387.419L390.629 341.78H393.599L388.889 356H385.949L382.439 345.32H382.379L378.899 356H375.959L371.219 341.78H374.279ZM411.612 345.38C411.292 344.86 410.842 344.44 410.262 344.12C409.682 343.78 409.032 343.61 408.312 343.61C407.992 343.61 407.672 343.65 407.352 343.73C407.032 343.79 406.742 343.9 406.482 344.06C406.242 344.2 406.042 344.39 405.882 344.63C405.742 344.85 405.672 345.13 405.672 345.47C405.672 346.07 405.942 346.52 406.482 346.82C407.022 347.1 407.832 347.36 408.912 347.6C409.592 347.76 410.222 347.95 410.802 348.17C411.382 348.39 411.882 348.67 412.302 349.01C412.742 349.33 413.082 349.72 413.322 350.18C413.562 350.64 413.682 351.18 413.682 351.8C413.682 352.64 413.522 353.35 413.202 353.93C412.882 354.51 412.452 354.99 411.912 355.37C411.392 355.73 410.792 355.99 410.112 356.15C409.432 356.31 408.732 356.39 408.012 356.39C406.932 356.39 405.872 356.18 404.832 355.76C403.812 355.34 402.962 354.7 402.282 353.84L404.292 352.13C404.672 352.69 405.192 353.16 405.852 353.54C406.532 353.92 407.272 354.11 408.072 354.11C408.432 354.11 408.772 354.08 409.092 354.02C409.432 353.94 409.732 353.82 409.992 353.66C410.272 353.5 410.492 353.29 410.652 353.03C410.812 352.77 410.892 352.44 410.892 352.04C410.892 351.38 410.572 350.89 409.932 350.57C409.312 350.25 408.392 349.95 407.172 349.67C406.692 349.55 406.202 349.41 405.702 349.25C405.222 349.07 404.782 348.83 404.382 348.53C403.982 348.23 403.652 347.86 403.392 347.42C403.152 346.96 403.032 346.4 403.032 345.74C403.032 344.98 403.182 344.33 403.482 343.79C403.802 343.23 404.212 342.78 404.712 342.44C405.212 342.08 405.782 341.82 406.422 341.66C407.062 341.48 407.722 341.39 408.402 341.39C409.422 341.39 410.402 341.59 411.342 341.99C412.302 342.39 413.042 342.97 413.562 343.73L411.612 345.38ZM424.222 344.09H420.442V351.5C420.442 352.36 420.602 352.98 420.922 353.36C421.242 353.72 421.752 353.9 422.452 353.9C422.712 353.9 422.992 353.87 423.292 353.81C423.592 353.75 423.862 353.66 424.102 353.54L424.192 355.85C423.852 355.97 423.472 356.06 423.052 356.12C422.652 356.2 422.232 356.24 421.792 356.24C420.452 356.24 419.422 355.87 418.702 355.13C418.002 354.39 417.652 353.28 417.652 351.8V344.09H414.922V341.78H417.652V337.7H420.442V341.78H424.222V344.09ZM437.545 347.63C437.525 347.07 437.425 346.55 437.245 346.07C437.085 345.57 436.835 345.14 436.495 344.78C436.175 344.42 435.765 344.14 435.265 343.94C434.785 343.72 434.215 343.61 433.555 343.61C432.955 343.61 432.385 343.72 431.845 343.94C431.325 344.14 430.865 344.42 430.465 344.78C430.085 345.14 429.765 345.57 429.505 346.07C429.265 346.55 429.125 347.07 429.085 347.63H437.545ZM440.395 348.77C440.395 348.93 440.395 349.09 440.395 349.25C440.395 349.41 440.385 349.57 440.365 349.73H429.085C429.105 350.33 429.235 350.9 429.475 351.44C429.735 351.96 430.075 352.42 430.495 352.82C430.915 353.2 431.395 353.5 431.935 353.72C432.495 353.94 433.085 354.05 433.705 354.05C434.665 354.05 435.495 353.84 436.195 353.42C436.895 353 437.445 352.49 437.845 351.89L439.825 353.48C439.065 354.48 438.165 355.22 437.125 355.7C436.105 356.16 434.965 356.39 433.705 356.39C432.625 356.39 431.625 356.21 430.705 355.85C429.785 355.49 428.995 354.99 428.335 354.35C427.675 353.69 427.155 352.9 426.775 351.98C426.395 351.06 426.205 350.04 426.205 348.92C426.205 347.82 426.385 346.81 426.745 345.89C427.125 344.95 427.645 344.15 428.305 343.49C428.965 342.83 429.745 342.32 430.645 341.96C431.545 341.58 432.515 341.39 433.555 341.39C434.595 341.39 435.535 341.56 436.375 341.9C437.235 342.24 437.955 342.73 438.535 343.37C439.135 344.01 439.595 344.79 439.915 345.71C440.235 346.61 440.395 347.63 440.395 348.77ZM447.152 363.2H444.332V341.78H447.092V344H447.182C447.642 343.24 448.312 342.62 449.192 342.14C450.092 341.64 451.132 341.39 452.312 341.39C453.372 341.39 454.332 341.58 455.192 341.96C456.072 342.34 456.822 342.87 457.442 343.55C458.082 344.23 458.572 345.03 458.912 345.95C459.252 346.85 459.422 347.82 459.422 348.86C459.422 349.9 459.252 350.88 458.912 351.8C458.572 352.72 458.092 353.52 457.472 354.2C456.852 354.88 456.102 355.42 455.222 355.82C454.342 356.2 453.352 356.39 452.252 356.39C451.232 356.39 450.272 356.17 449.372 355.73C448.472 355.29 447.762 354.67 447.242 353.87H447.152V363.2ZM456.512 348.86C456.512 348.2 456.412 347.56 456.212 346.94C456.012 346.32 455.712 345.77 455.312 345.29C454.912 344.81 454.412 344.43 453.812 344.15C453.232 343.87 452.552 343.73 451.772 343.73C451.052 343.73 450.392 343.87 449.792 344.15C449.212 344.43 448.712 344.81 448.292 345.29C447.872 345.77 447.542 346.32 447.302 346.94C447.082 347.56 446.972 348.21 446.972 348.89C446.972 349.57 447.082 350.22 447.302 350.84C447.542 351.46 447.872 352.01 448.292 352.49C448.712 352.95 449.212 353.32 449.792 353.6C450.392 353.88 451.052 354.02 451.772 354.02C452.552 354.02 453.232 353.88 453.812 353.6C454.412 353.3 454.912 352.91 455.312 352.43C455.712 351.95 456.012 351.4 456.212 350.78C456.412 350.16 456.512 349.52 456.512 348.86Z" fill="white"/>
<path d="M159.14 214.69C158.72 214.11 158.15 213.64 157.43 213.28C156.71 212.9 155.9 212.71 155 212.71C154.52 212.71 154.03 212.78 153.53 212.92C153.05 213.04 152.61 213.25 152.21 213.55C151.81 213.83 151.48 214.19 151.22 214.63C150.98 215.05 150.86 215.56 150.86 216.16C150.86 216.74 150.97 217.23 151.19 217.63C151.43 218.01 151.74 218.34 152.12 218.62C152.52 218.88 152.98 219.11 153.5 219.31C154.04 219.49 154.61 219.68 155.21 219.88C155.93 220.1 156.66 220.35 157.4 220.63C158.14 220.91 158.81 221.28 159.41 221.74C160.01 222.2 160.5 222.78 160.88 223.48C161.26 224.16 161.45 225.03 161.45 226.09C161.45 227.19 161.24 228.15 160.82 228.97C160.42 229.77 159.88 230.44 159.2 230.98C158.52 231.5 157.73 231.89 156.83 232.15C155.95 232.41 155.04 232.54 154.1 232.54C152.76 232.54 151.46 232.28 150.2 231.76C148.96 231.24 147.93 230.47 147.11 229.45L149.42 227.5C149.92 228.24 150.59 228.84 151.43 229.3C152.27 229.76 153.18 229.99 154.16 229.99C154.66 229.99 155.16 229.92 155.66 229.78C156.16 229.64 156.61 229.42 157.01 229.12C157.43 228.82 157.77 228.45 158.03 228.01C158.29 227.55 158.42 227 158.42 226.36C158.42 225.72 158.28 225.19 158 224.77C157.74 224.33 157.38 223.96 156.92 223.66C156.46 223.36 155.92 223.11 155.3 222.91C154.7 222.69 154.06 222.47 153.38 222.25C152.7 222.05 152.03 221.81 151.37 221.53C150.71 221.23 150.12 220.86 149.6 220.42C149.08 219.96 148.66 219.4 148.34 218.74C148.02 218.08 147.86 217.26 147.86 216.28C147.86 215.22 148.07 214.31 148.49 213.55C148.93 212.79 149.49 212.16 150.17 211.66C150.87 211.16 151.65 210.8 152.51 210.58C153.39 210.34 154.27 210.22 155.15 210.22C156.39 210.22 157.55 210.44 158.63 210.88C159.71 211.32 160.58 211.91 161.24 212.65L159.14 214.69ZM172.294 220.09H168.514V227.5C168.514 228.36 168.674 228.98 168.994 229.36C169.314 229.72 169.824 229.9 170.524 229.9C170.784 229.9 171.064 229.87 171.364 229.81C171.664 229.75 171.934 229.66 172.174 229.54L172.264 231.85C171.924 231.97 171.544 232.06 171.124 232.12C170.724 232.2 170.304 232.24 169.864 232.24C168.524 232.24 167.494 231.87 166.774 231.13C166.074 230.39 165.724 229.28 165.724 227.8V220.09H162.994V217.78H165.724V213.7H168.514V217.78H172.294V220.09ZM184.057 222.79C184.057 221.73 183.737 220.95 183.097 220.45C182.457 219.93 181.607 219.67 180.547 219.67C179.747 219.67 178.987 219.83 178.267 220.15C177.567 220.45 176.977 220.84 176.497 221.32L174.997 219.52C175.697 218.86 176.547 218.34 177.547 217.96C178.567 217.58 179.657 217.39 180.817 217.39C181.837 217.39 182.717 217.54 183.457 217.84C184.217 218.12 184.837 218.51 185.317 219.01C185.797 219.51 186.157 220.1 186.397 220.78C186.637 221.46 186.757 222.19 186.757 222.97V229.18C186.757 229.66 186.767 230.17 186.787 230.71C186.827 231.23 186.887 231.66 186.967 232H184.417C184.257 231.32 184.177 230.64 184.177 229.96H184.087C183.567 230.72 182.907 231.31 182.107 231.73C181.327 232.15 180.397 232.36 179.317 232.36C178.757 232.36 178.167 232.28 177.547 232.12C176.947 231.98 176.397 231.74 175.897 231.4C175.397 231.06 174.977 230.61 174.637 230.05C174.317 229.49 174.157 228.8 174.157 227.98C174.157 226.9 174.447 226.05 175.027 225.43C175.607 224.79 176.367 224.31 177.307 223.99C178.247 223.65 179.307 223.43 180.487 223.33C181.667 223.23 182.857 223.18 184.057 223.18V222.79ZM183.367 225.22C182.667 225.22 181.937 225.25 181.177 225.31C180.437 225.37 179.757 225.49 179.137 225.67C178.537 225.85 178.037 226.12 177.637 226.48C177.237 226.84 177.037 227.32 177.037 227.92C177.037 228.34 177.117 228.69 177.277 228.97C177.457 229.25 177.687 229.48 177.967 229.66C178.247 229.84 178.557 229.97 178.897 230.05C179.237 230.11 179.587 230.14 179.947 230.14C181.267 230.14 182.277 229.75 182.977 228.97C183.697 228.17 184.057 227.17 184.057 225.97V225.22H183.367ZM191.467 220.84C191.467 220.46 191.457 219.97 191.437 219.37C191.417 218.77 191.387 218.24 191.347 217.78H194.017C194.057 218.14 194.087 218.56 194.107 219.04C194.127 219.5 194.137 219.88 194.137 220.18H194.227C194.627 219.34 195.207 218.67 195.967 218.17C196.747 217.65 197.617 217.39 198.577 217.39C199.017 217.39 199.387 217.43 199.687 217.51L199.567 220.12C199.167 220.02 198.737 219.97 198.277 219.97C197.597 219.97 197.007 220.1 196.507 220.36C196.007 220.6 195.587 220.93 195.247 221.35C194.927 221.77 194.687 222.26 194.527 222.82C194.367 223.36 194.287 223.93 194.287 224.53V232H191.467V220.84ZM208.945 220.09H205.165V227.5C205.165 228.36 205.325 228.98 205.645 229.36C205.965 229.72 206.475 229.9 207.175 229.9C207.435 229.9 207.715 229.87 208.015 229.81C208.315 229.75 208.585 229.66 208.825 229.54L208.915 231.85C208.575 231.97 208.195 232.06 207.775 232.12C207.375 232.2 206.955 232.24 206.515 232.24C205.175 232.24 204.145 231.87 203.425 231.13C202.725 230.39 202.375 229.28 202.375 227.8V220.09H199.645V217.78H202.375V213.7H205.165V217.78H208.945V220.09ZM229.768 223.63C229.748 223.07 229.648 222.55 229.468 222.07C229.308 221.57 229.058 221.14 228.718 220.78C228.398 220.42 227.988 220.14 227.488 219.94C227.008 219.72 226.438 219.61 225.778 219.61C225.178 219.61 224.608 219.72 224.068 219.94C223.548 220.14 223.088 220.42 222.688 220.78C222.308 221.14 221.988 221.57 221.728 222.07C221.488 222.55 221.348 223.07 221.308 223.63H229.768ZM232.618 224.77C232.618 224.93 232.618 225.09 232.618 225.25C232.618 225.41 232.608 225.57 232.588 225.73H221.308C221.328 226.33 221.458 226.9 221.698 227.44C221.958 227.96 222.298 228.42 222.718 228.82C223.138 229.2 223.618 229.5 224.158 229.72C224.718 229.94 225.308 230.05 225.928 230.05C226.888 230.05 227.718 229.84 228.418 229.42C229.118 229 229.668 228.49 230.068 227.89L232.048 229.48C231.288 230.48 230.388 231.22 229.348 231.7C228.328 232.16 227.188 232.39 225.928 232.39C224.848 232.39 223.848 232.21 222.928 231.85C222.008 231.49 221.218 230.99 220.558 230.35C219.898 229.69 219.378 228.9 218.998 227.98C218.618 227.06 218.428 226.04 218.428 224.92C218.428 223.82 218.608 222.81 218.968 221.89C219.348 220.95 219.868 220.15 220.528 219.49C221.188 218.83 221.968 218.32 222.868 217.96C223.768 217.58 224.738 217.39 225.778 217.39C226.818 217.39 227.758 217.56 228.598 217.9C229.458 218.24 230.178 218.73 230.758 219.37C231.358 220.01 231.818 220.79 232.138 221.71C232.458 222.61 232.618 223.63 232.618 224.77ZM239.315 220.12C239.675 219.36 240.245 218.72 241.025 218.2C241.825 217.66 242.765 217.39 243.845 217.39C244.805 217.39 245.665 217.61 246.425 218.05C247.205 218.49 247.815 219.22 248.255 220.24C248.735 219.32 249.405 218.62 250.265 218.14C251.125 217.64 252.065 217.39 253.085 217.39C254.005 217.39 254.795 217.55 255.455 217.87C256.115 218.17 256.665 218.58 257.105 219.1C257.545 219.62 257.865 220.23 258.065 220.93C258.285 221.63 258.395 222.38 258.395 223.18V232H255.575V224.11C255.575 223.53 255.525 222.98 255.425 222.46C255.325 221.94 255.155 221.48 254.915 221.08C254.675 220.68 254.355 220.36 253.955 220.12C253.555 219.88 253.045 219.76 252.425 219.76C251.785 219.76 251.235 219.9 250.775 220.18C250.315 220.44 249.935 220.79 249.635 221.23C249.355 221.65 249.145 222.13 249.005 222.67C248.885 223.21 248.825 223.76 248.825 224.32V232H246.005V223.54C246.005 222.98 245.955 222.47 245.855 222.01C245.755 221.55 245.585 221.16 245.345 220.84C245.105 220.5 244.795 220.24 244.415 220.06C244.035 219.86 243.565 219.76 243.005 219.76C241.965 219.76 241.095 220.19 240.395 221.05C239.715 221.89 239.375 223.02 239.375 224.44V232H236.555V220.84C236.555 220.46 236.545 219.97 236.525 219.37C236.505 218.77 236.475 218.24 236.435 217.78H239.105C239.145 218.14 239.175 218.55 239.195 219.01C239.215 219.45 239.225 219.82 239.225 220.12H239.315ZM272.007 222.79C272.007 221.73 271.687 220.95 271.047 220.45C270.407 219.93 269.557 219.67 268.497 219.67C267.697 219.67 266.937 219.83 266.217 220.15C265.517 220.45 264.927 220.84 264.447 221.32L262.947 219.52C263.647 218.86 264.497 218.34 265.497 217.96C266.517 217.58 267.607 217.39 268.767 217.39C269.787 217.39 270.667 217.54 271.407 217.84C272.167 218.12 272.787 218.51 273.267 219.01C273.747 219.51 274.107 220.1 274.347 220.78C274.587 221.46 274.707 222.19 274.707 222.97V229.18C274.707 229.66 274.717 230.17 274.737 230.71C274.777 231.23 274.837 231.66 274.917 232H272.367C272.207 231.32 272.127 230.64 272.127 229.96H272.037C271.517 230.72 270.857 231.31 270.057 231.73C269.277 232.15 268.347 232.36 267.267 232.36C266.707 232.36 266.117 232.28 265.497 232.12C264.897 231.98 264.347 231.74 263.847 231.4C263.347 231.06 262.927 230.61 262.587 230.05C262.267 229.49 262.107 228.8 262.107 227.98C262.107 226.9 262.397 226.05 262.977 225.43C263.557 224.79 264.317 224.31 265.257 223.99C266.197 223.65 267.257 223.43 268.437 223.33C269.617 223.23 270.807 223.18 272.007 223.18V222.79ZM271.317 225.22C270.617 225.22 269.887 225.25 269.127 225.31C268.387 225.37 267.707 225.49 267.087 225.67C266.487 225.85 265.987 226.12 265.587 226.48C265.187 226.84 264.987 227.32 264.987 227.92C264.987 228.34 265.067 228.69 265.227 228.97C265.407 229.25 265.637 229.48 265.917 229.66C266.197 229.84 266.507 229.97 266.847 230.05C267.187 230.11 267.537 230.14 267.897 230.14C269.217 230.14 270.227 229.75 270.927 228.97C271.647 228.17 272.007 227.17 272.007 225.97V225.22H271.317ZM282.266 232H279.446V217.78H282.266V232ZM282.746 212.65C282.746 213.17 282.556 213.6 282.176 213.94C281.816 214.28 281.376 214.45 280.856 214.45C280.336 214.45 279.896 214.28 279.536 213.94C279.176 213.58 278.996 213.15 278.996 212.65C278.996 212.13 279.176 211.7 279.536 211.36C279.896 211 280.336 210.82 280.856 210.82C281.376 210.82 281.816 211 282.176 211.36C282.556 211.7 282.746 212.13 282.746 212.65ZM290.06 232H287.24V209.32H290.06V232ZM312.433 221.38C312.133 220.92 311.683 220.54 311.083 220.24C310.483 219.92 309.843 219.76 309.163 219.76C308.423 219.76 307.763 219.9 307.183 220.18C306.623 220.46 306.143 220.84 305.743 221.32C305.343 221.78 305.033 222.32 304.813 222.94C304.613 223.56 304.513 224.21 304.513 224.89C304.513 225.57 304.613 226.22 304.813 226.84C305.033 227.46 305.343 228.01 305.743 228.49C306.143 228.95 306.633 229.32 307.213 229.6C307.793 229.88 308.453 230.02 309.193 230.02C309.913 230.02 310.563 229.88 311.143 229.6C311.743 229.32 312.233 228.94 312.613 228.46L314.503 230.17C313.903 230.87 313.153 231.42 312.253 231.82C311.353 232.2 310.333 232.39 309.193 232.39C308.093 232.39 307.073 232.21 306.133 231.85C305.213 231.49 304.413 230.99 303.733 230.35C303.053 229.69 302.513 228.9 302.113 227.98C301.733 227.06 301.543 226.03 301.543 224.89C301.543 223.77 301.733 222.75 302.113 221.83C302.493 220.91 303.023 220.12 303.703 219.46C304.383 218.8 305.183 218.29 306.103 217.93C307.043 217.57 308.053 217.39 309.133 217.39C310.133 217.39 311.123 217.59 312.103 217.99C313.103 218.39 313.893 218.97 314.473 219.73L312.433 221.38ZM326.147 222.79C326.147 221.73 325.827 220.95 325.187 220.45C324.547 219.93 323.697 219.67 322.637 219.67C321.837 219.67 321.077 219.83 320.357 220.15C319.657 220.45 319.067 220.84 318.587 221.32L317.087 219.52C317.787 218.86 318.637 218.34 319.637 217.96C320.657 217.58 321.747 217.39 322.907 217.39C323.927 217.39 324.807 217.54 325.547 217.84C326.307 218.12 326.927 218.51 327.407 219.01C327.887 219.51 328.247 220.1 328.487 220.78C328.727 221.46 328.847 222.19 328.847 222.97V229.18C328.847 229.66 328.857 230.17 328.877 230.71C328.917 231.23 328.977 231.66 329.057 232H326.507C326.347 231.32 326.267 230.64 326.267 229.96H326.177C325.657 230.72 324.997 231.31 324.197 231.73C323.417 232.15 322.487 232.36 321.407 232.36C320.847 232.36 320.257 232.28 319.637 232.12C319.037 231.98 318.487 231.74 317.987 231.4C317.487 231.06 317.067 230.61 316.727 230.05C316.407 229.49 316.247 228.8 316.247 227.98C316.247 226.9 316.537 226.05 317.117 225.43C317.697 224.79 318.457 224.31 319.397 223.99C320.337 223.65 321.397 223.43 322.577 223.33C323.757 223.23 324.947 223.18 326.147 223.18V222.79ZM325.457 225.22C324.757 225.22 324.027 225.25 323.267 225.31C322.527 225.37 321.847 225.49 321.227 225.67C320.627 225.85 320.127 226.12 319.727 226.48C319.327 226.84 319.127 227.32 319.127 227.92C319.127 228.34 319.207 228.69 319.367 228.97C319.547 229.25 319.777 229.48 320.057 229.66C320.337 229.84 320.647 229.97 320.987 230.05C321.327 230.11 321.677 230.14 322.037 230.14C323.357 230.14 324.367 229.75 325.067 228.97C325.787 228.17 326.147 227.17 326.147 225.97V225.22H325.457ZM336.317 220.12C336.677 219.36 337.247 218.72 338.027 218.2C338.827 217.66 339.767 217.39 340.847 217.39C341.807 217.39 342.667 217.61 343.427 218.05C344.207 218.49 344.817 219.22 345.257 220.24C345.737 219.32 346.407 218.62 347.267 218.14C348.127 217.64 349.067 217.39 350.087 217.39C351.007 217.39 351.797 217.55 352.457 217.87C353.117 218.17 353.667 218.58 354.107 219.1C354.547 219.62 354.867 220.23 355.067 220.93C355.287 221.63 355.397 222.38 355.397 223.18V232H352.577V224.11C352.577 223.53 352.527 222.98 352.427 222.46C352.327 221.94 352.157 221.48 351.917 221.08C351.677 220.68 351.357 220.36 350.957 220.12C350.557 219.88 350.047 219.76 349.427 219.76C348.787 219.76 348.237 219.9 347.777 220.18C347.317 220.44 346.937 220.79 346.637 221.23C346.357 221.65 346.147 222.13 346.007 222.67C345.887 223.21 345.827 223.76 345.827 224.32V232H343.007V223.54C343.007 222.98 342.957 222.47 342.857 222.01C342.757 221.55 342.587 221.16 342.347 220.84C342.107 220.5 341.797 220.24 341.417 220.06C341.037 219.86 340.567 219.76 340.007 219.76C338.967 219.76 338.097 220.19 337.397 221.05C336.717 221.89 336.377 223.02 336.377 224.44V232H333.557V220.84C333.557 220.46 333.547 219.97 333.527 219.37C333.507 218.77 333.477 218.24 333.437 217.78H336.107C336.147 218.14 336.177 218.55 336.197 219.01C336.217 219.45 336.227 219.82 336.227 220.12H336.317ZM362.979 239.2H360.159V217.78H362.919V220H363.009C363.469 219.24 364.139 218.62 365.019 218.14C365.919 217.64 366.959 217.39 368.139 217.39C369.199 217.39 370.159 217.58 371.019 217.96C371.899 218.34 372.649 218.87 373.269 219.55C373.909 220.23 374.399 221.03 374.739 221.95C375.079 222.85 375.249 223.82 375.249 224.86C375.249 225.9 375.079 226.88 374.739 227.8C374.399 228.72 373.919 229.52 373.299 230.2C372.679 230.88 371.929 231.42 371.049 231.82C370.169 232.2 369.179 232.39 368.079 232.39C367.059 232.39 366.099 232.17 365.199 231.73C364.299 231.29 363.589 230.67 363.069 229.87H362.979V239.2ZM372.339 224.86C372.339 224.2 372.239 223.56 372.039 222.94C371.839 222.32 371.539 221.77 371.139 221.29C370.739 220.81 370.239 220.43 369.639 220.15C369.059 219.87 368.379 219.73 367.599 219.73C366.879 219.73 366.219 219.87 365.619 220.15C365.039 220.43 364.539 220.81 364.119 221.29C363.699 221.77 363.369 222.32 363.129 222.94C362.909 223.56 362.799 224.21 362.799 224.89C362.799 225.57 362.909 226.22 363.129 226.84C363.369 227.46 363.699 228.01 364.119 228.49C364.539 228.95 365.039 229.32 365.619 229.6C366.219 229.88 366.879 230.02 367.599 230.02C368.379 230.02 369.059 229.88 369.639 229.6C370.239 229.3 370.739 228.91 371.139 228.43C371.539 227.95 371.839 227.4 372.039 226.78C372.239 226.16 372.339 225.52 372.339 224.86ZM388.022 222.79C388.022 221.73 387.702 220.95 387.062 220.45C386.422 219.93 385.572 219.67 384.512 219.67C383.712 219.67 382.952 219.83 382.232 220.15C381.532 220.45 380.942 220.84 380.462 221.32L378.962 219.52C379.662 218.86 380.512 218.34 381.512 217.96C382.532 217.58 383.622 217.39 384.782 217.39C385.802 217.39 386.682 217.54 387.422 217.84C388.182 218.12 388.802 218.51 389.282 219.01C389.762 219.51 390.122 220.1 390.362 220.78C390.602 221.46 390.722 222.19 390.722 222.97V229.18C390.722 229.66 390.732 230.17 390.752 230.71C390.792 231.23 390.852 231.66 390.932 232H388.382C388.222 231.32 388.142 230.64 388.142 229.96H388.052C387.532 230.72 386.872 231.31 386.072 231.73C385.292 232.15 384.362 232.36 383.282 232.36C382.722 232.36 382.132 232.28 381.512 232.12C380.912 231.98 380.362 231.74 379.862 231.4C379.362 231.06 378.942 230.61 378.602 230.05C378.282 229.49 378.122 228.8 378.122 227.98C378.122 226.9 378.412 226.05 378.992 225.43C379.572 224.79 380.332 224.31 381.272 223.99C382.212 223.65 383.272 223.43 384.452 223.33C385.632 223.23 386.822 223.18 388.022 223.18V222.79ZM387.332 225.22C386.632 225.22 385.902 225.25 385.142 225.31C384.402 225.37 383.722 225.49 383.102 225.67C382.502 225.85 382.002 226.12 381.602 226.48C381.202 226.84 381.002 227.32 381.002 227.92C381.002 228.34 381.082 228.69 381.242 228.97C381.422 229.25 381.652 229.48 381.932 229.66C382.212 229.84 382.522 229.97 382.862 230.05C383.202 230.11 383.552 230.14 383.912 230.14C385.232 230.14 386.242 229.75 386.942 228.97C387.662 228.17 388.022 227.17 388.022 225.97V225.22H387.332ZM398.282 232H395.462V217.78H398.282V232ZM398.762 212.65C398.762 213.17 398.572 213.6 398.192 213.94C397.832 214.28 397.392 214.45 396.872 214.45C396.352 214.45 395.912 214.28 395.552 213.94C395.192 213.58 395.012 213.15 395.012 212.65C395.012 212.13 395.192 211.7 395.552 211.36C395.912 211 396.352 210.82 396.872 210.82C397.392 210.82 397.832 211 398.192 211.36C398.572 211.7 398.762 212.13 398.762 212.65ZM404.306 234.43C404.926 235.13 405.696 235.69 406.616 236.11C407.556 236.53 408.516 236.74 409.496 236.74C410.436 236.74 411.226 236.6 411.866 236.32C412.506 236.06 413.016 235.69 413.396 235.21C413.796 234.75 414.076 234.2 414.236 233.56C414.416 232.92 414.506 232.23 414.506 231.49V229.66H414.446C413.926 230.46 413.216 231.07 412.316 231.49C411.416 231.91 410.456 232.12 409.436 232.12C408.356 232.12 407.366 231.93 406.466 231.55C405.586 231.17 404.836 230.65 404.216 229.99C403.596 229.33 403.116 228.56 402.776 227.68C402.436 226.78 402.266 225.82 402.266 224.8C402.266 223.78 402.436 222.82 402.776 221.92C403.116 221.02 403.596 220.24 404.216 219.58C404.836 218.9 405.586 218.37 406.466 217.99C407.346 217.59 408.326 217.39 409.406 217.39C410.426 217.39 411.396 217.61 412.316 218.05C413.256 218.49 413.996 219.16 414.536 220.06H414.596V217.78H417.326V231.28C417.326 232.32 417.196 233.31 416.936 234.25C416.676 235.21 416.236 236.05 415.616 236.77C414.996 237.51 414.186 238.1 413.186 238.54C412.186 238.98 410.946 239.2 409.466 239.2C408.226 239.2 406.976 238.97 405.716 238.51C404.476 238.07 403.406 237.44 402.506 236.62L404.306 234.43ZM405.176 224.74C405.176 225.4 405.276 226.03 405.476 226.63C405.696 227.23 406.006 227.76 406.406 228.22C406.826 228.68 407.326 229.05 407.906 229.33C408.486 229.61 409.146 229.75 409.886 229.75C410.606 229.75 411.266 229.62 411.866 229.36C412.466 229.1 412.976 228.75 413.396 228.31C413.816 227.85 414.136 227.32 414.356 226.72C414.596 226.1 414.716 225.44 414.716 224.74C414.716 224.06 414.596 223.42 414.356 222.82C414.136 222.22 413.806 221.69 413.366 221.23C412.946 220.77 412.436 220.41 411.836 220.15C411.256 219.87 410.606 219.73 409.886 219.73C409.146 219.73 408.486 219.87 407.906 220.15C407.326 220.41 406.826 220.77 406.406 221.23C406.006 221.67 405.696 222.2 405.476 222.82C405.276 223.42 405.176 224.06 405.176 224.74ZM424.701 217.78C424.741 218.14 424.771 218.55 424.791 219.01C424.811 219.45 424.821 219.82 424.821 220.12H424.911C425.091 219.74 425.331 219.39 425.631 219.07C425.951 218.73 426.311 218.44 426.711 218.2C427.111 217.94 427.551 217.74 428.031 217.6C428.511 217.46 429.011 217.39 429.531 217.39C430.451 217.39 431.241 217.55 431.901 217.87C432.561 218.17 433.111 218.58 433.551 219.1C433.991 219.62 434.311 220.23 434.511 220.93C434.731 221.63 434.841 222.38 434.841 223.18V232H432.021V224.11C432.021 223.53 431.971 222.98 431.871 222.46C431.791 221.94 431.631 221.48 431.391 221.08C431.151 220.68 430.821 220.36 430.401 220.12C429.981 219.88 429.441 219.76 428.781 219.76C427.661 219.76 426.741 220.19 426.021 221.05C425.321 221.89 424.971 223.02 424.971 224.44V232H422.151V220.84C422.151 220.46 422.141 219.97 422.121 219.37C422.101 218.77 422.071 218.24 422.031 217.78H424.701ZM453.802 220.09H450.502V232H447.682V220.09H444.862V217.78H447.682V214.81C447.682 213.97 447.772 213.2 447.952 212.5C448.152 211.78 448.462 211.16 448.882 210.64C449.322 210.12 449.872 209.71 450.532 209.41C451.212 209.11 452.032 208.96 452.992 208.96C453.672 208.96 454.262 209.03 454.762 209.17L454.432 211.6C454.212 211.54 453.992 211.49 453.772 211.45C453.552 211.41 453.302 211.39 453.022 211.39C452.482 211.39 452.042 211.49 451.702 211.69C451.382 211.87 451.132 212.12 450.952 212.44C450.772 212.76 450.652 213.13 450.592 213.55C450.532 213.95 450.502 214.37 450.502 214.81V217.78H453.802V220.09ZM470.799 224.86C470.799 225.96 470.599 226.97 470.199 227.89C469.819 228.81 469.279 229.61 468.579 230.29C467.899 230.95 467.089 231.47 466.149 231.85C465.209 232.21 464.199 232.39 463.119 232.39C462.039 232.39 461.029 232.21 460.089 231.85C459.149 231.47 458.339 230.95 457.659 230.29C456.979 229.61 456.439 228.81 456.039 227.89C455.659 226.97 455.469 225.96 455.469 224.86C455.469 223.76 455.659 222.76 456.039 221.86C456.439 220.94 456.979 220.15 457.659 219.49C458.339 218.83 459.149 218.32 460.089 217.96C461.029 217.58 462.039 217.39 463.119 217.39C464.199 217.39 465.209 217.58 466.149 217.96C467.089 218.32 467.899 218.83 468.579 219.49C469.279 220.15 469.819 220.94 470.199 221.86C470.599 222.76 470.799 223.76 470.799 224.86ZM467.859 224.86C467.859 224.18 467.749 223.53 467.529 222.91C467.329 222.29 467.029 221.75 466.629 221.29C466.229 220.81 465.729 220.43 465.129 220.15C464.549 219.87 463.879 219.73 463.119 219.73C462.359 219.73 461.679 219.87 461.079 220.15C460.499 220.43 460.009 220.81 459.609 221.29C459.209 221.75 458.899 222.29 458.679 222.91C458.479 223.53 458.379 224.18 458.379 224.86C458.379 225.54 458.479 226.19 458.679 226.81C458.899 227.43 459.209 227.98 459.609 228.46C460.009 228.94 460.499 229.32 461.079 229.6C461.679 229.88 462.359 230.02 463.119 230.02C463.879 230.02 464.549 229.88 465.129 229.6C465.729 229.32 466.229 228.94 466.629 228.46C467.029 227.98 467.329 227.43 467.529 226.81C467.749 226.19 467.859 225.54 467.859 224.86Z" fill="black"/>
<rect x="127.5" y="188.5" width="587" height="67" rx="8.5" stroke="#C1C1C1"/>
<path d="M523.38 388.285L510.842 375.747L519.787 370.58C520.486 370.177 520.893 369.409 520.834 368.604C520.776 367.799 520.263 367.098 519.514 366.799L479.628 350.889C478.846 350.577 477.954 350.761 477.358 351.356C476.763 351.951 476.579 352.844 476.891 353.626L492.799 393.516C493.098 394.266 493.799 394.779 494.604 394.837C495.409 394.895 496.177 394.489 496.58 393.789L501.746 384.845L514.283 397.383C514.678 397.778 515.214 398 515.773 398C516.331 398 516.867 397.778 517.262 397.383L523.38 391.264C524.203 390.441 524.203 389.107 523.38 388.285Z" fill="black"/>
<path d="M470.251 341.269C469.428 340.446 468.094 340.446 467.271 341.269C466.448 342.091 466.448 343.425 467.271 344.248L471.952 348.93C472.364 349.341 472.903 349.547 473.442 349.547C473.981 349.547 474.52 349.341 474.932 348.93C475.754 348.107 475.754 346.773 474.932 345.95L470.251 341.269Z" fill="black"/>
<path d="M471.837 355.833C471.837 354.67 470.894 353.727 469.73 353.727H463.11C461.946 353.727 461.003 354.67 461.003 355.833C461.003 356.997 461.946 357.94 463.11 357.94H469.73C470.894 357.94 471.837 356.997 471.837 355.833Z" fill="black"/>
<path d="M470.983 362.336L466.301 367.018C465.478 367.84 465.478 369.174 466.301 369.997C466.713 370.408 467.252 370.614 467.791 370.614C468.33 370.614 468.869 370.408 469.28 369.997L473.962 365.316C474.785 364.493 474.785 363.159 473.962 362.336C473.14 361.514 471.806 361.513 470.983 362.336Z" fill="black"/>
<path d="M481.835 345.835C482.999 345.835 483.942 344.891 483.942 343.728V337.107C483.942 335.943 482.999 335 481.835 335C480.672 335 479.728 335.943 479.728 337.107V343.728C479.728 344.891 480.672 345.835 481.835 345.835Z" fill="black"/>
<path d="M489.826 348.577C490.366 348.577 490.905 348.371 491.316 347.96L495.997 343.279C496.82 342.456 496.82 341.122 495.997 340.299C495.174 339.477 493.84 339.477 493.017 340.299L488.336 344.981C487.514 345.803 487.514 347.137 488.336 347.96C488.748 348.371 489.287 348.577 489.826 348.577Z" fill="black"/>
</g>
<defs>
<clipPath id="clip0">
<rect width="673" height="398" fill="white"/>
</clipPath>
</defs>
</svg>
