<svg width="673" height="398" viewBox="0 0 673 398" fill="none" xmlns="http://www.w3.org/2000/svg">
<rect width="673" height="398" fill="white"/>
<path d="M31.288 28.016H37.912L44.488 52.976H44.584L52.072 28.016H58.312L65.656 52.976H65.752L72.472 28.016H78.904L68.968 62H63.112L55.144 36.512H55.048L47.08 62H41.224L31.288 28.016ZM95.4595 38.288C96.9635 38.288 98.2435 38.56 99.2995 39.104C100.388 39.616 101.268 40.304 101.94 41.168C102.644 42.032 103.156 43.024 103.476 44.144C103.796 45.264 103.956 46.416 103.956 47.6V62H98.1955V49.328C98.1955 48.656 98.1475 47.968 98.0515 47.264C97.9555 46.528 97.7475 45.872 97.4275 45.296C97.1395 44.688 96.7075 44.192 96.1315 43.808C95.5875 43.424 94.8515 43.232 93.9235 43.232C92.9955 43.232 92.1955 43.408 91.5235 43.76C90.8515 44.112 90.2915 44.592 89.8435 45.2C89.3955 45.776 89.0595 46.432 88.8355 47.168C88.6115 47.904 88.4995 48.656 88.4995 49.424V62H82.7395V25.712H88.4995V42.176H88.5955C88.8195 41.696 89.1395 41.232 89.5555 40.784C90.0035 40.304 90.5155 39.888 91.0915 39.536C91.6675 39.152 92.3235 38.848 93.0595 38.624C93.7955 38.4 94.5955 38.288 95.4595 38.288ZM110.771 38.96H116.531V62H110.771V38.96ZM109.955 31.136C109.955 30.208 110.291 29.408 110.963 28.736C111.667 28.032 112.547 27.68 113.603 27.68C114.659 27.68 115.539 28.016 116.243 28.688C116.979 29.328 117.347 30.144 117.347 31.136C117.347 32.128 116.979 32.96 116.243 33.632C115.539 34.272 114.659 34.592 113.603 34.592C112.547 34.592 111.667 34.256 110.963 33.584C110.291 32.88 109.955 32.064 109.955 31.136ZM139.263 45.344C138.815 44.704 138.143 44.176 137.247 43.76C136.351 43.312 135.439 43.088 134.511 43.088C133.455 43.088 132.527 43.312 131.727 43.76C130.927 44.176 130.255 44.736 129.711 45.44C129.199 46.144 128.815 46.944 128.559 47.84C128.303 48.704 128.175 49.584 128.175 50.48C128.175 51.376 128.303 52.272 128.559 53.168C128.847 54.032 129.263 54.816 129.807 55.52C130.351 56.224 131.023 56.8 131.823 57.248C132.655 57.664 133.615 57.872 134.703 57.872C135.599 57.872 136.495 57.696 137.391 57.344C138.287 56.992 139.007 56.48 139.551 55.808L143.151 59.456C142.191 60.48 140.959 61.28 139.455 61.856C137.983 62.4 136.383 62.672 134.655 62.672C132.959 62.672 131.343 62.4 129.807 61.856C128.303 61.312 126.975 60.512 125.823 59.456C124.703 58.4 123.807 57.12 123.135 55.616C122.495 54.112 122.175 52.4 122.175 50.48C122.175 48.624 122.495 46.944 123.135 45.44C123.807 43.936 124.703 42.656 125.823 41.6C126.943 40.544 128.239 39.728 129.711 39.152C131.215 38.576 132.815 38.288 134.511 38.288C136.207 38.288 137.839 38.608 139.407 39.248C141.007 39.888 142.271 40.768 143.199 41.888L139.263 45.344ZM159.772 38.288C161.276 38.288 162.556 38.56 163.612 39.104C164.7 39.616 165.58 40.304 166.252 41.168C166.956 42.032 167.468 43.024 167.788 44.144C168.108 45.264 168.268 46.416 168.268 47.6V62H162.508V49.328C162.508 48.656 162.46 47.968 162.364 47.264C162.268 46.528 162.06 45.872 161.74 45.296C161.452 44.688 161.02 44.192 160.444 43.808C159.9 43.424 159.164 43.232 158.236 43.232C157.308 43.232 156.508 43.408 155.836 43.76C155.164 44.112 154.604 44.592 154.156 45.2C153.708 45.776 153.372 46.432 153.148 47.168C152.924 47.904 152.812 48.656 152.812 49.424V62H147.052V25.712H152.812V42.176H152.908C153.132 41.696 153.452 41.232 153.868 40.784C154.316 40.304 154.828 39.888 155.404 39.536C155.98 39.152 156.636 38.848 157.372 38.624C158.108 38.4 158.908 38.288 159.772 38.288ZM183.723 38.96H189.963L194.763 55.472H194.859L199.803 38.96H205.947L210.939 55.472H211.035L215.931 38.96H221.931L213.963 62H208.107L202.875 45.872H202.779L197.595 62H191.739L183.723 38.96ZM224.221 50.384C224.221 48.56 224.541 46.912 225.181 45.44C225.853 43.936 226.749 42.656 227.869 41.6C228.989 40.544 230.317 39.728 231.853 39.152C233.389 38.576 235.021 38.288 236.749 38.288C238.477 38.288 240.109 38.576 241.645 39.152C243.181 39.728 244.509 40.544 245.629 41.6C246.749 42.656 247.629 43.936 248.269 45.44C248.941 46.912 249.277 48.56 249.277 50.384C249.277 52.208 248.941 53.872 248.269 55.376C247.629 56.88 246.749 58.176 245.629 59.264C244.509 60.32 243.181 61.152 241.645 61.76C240.109 62.368 238.477 62.672 236.749 62.672C235.021 62.672 233.389 62.368 231.853 61.76C230.317 61.152 228.989 60.32 227.869 59.264C226.749 58.176 225.853 56.88 225.181 55.376C224.541 53.872 224.221 52.208 224.221 50.384ZM230.077 50.384C230.077 51.28 230.205 52.176 230.461 53.072C230.749 53.968 231.165 54.768 231.709 55.472C232.253 56.176 232.941 56.752 233.773 57.2C234.605 57.648 235.597 57.872 236.749 57.872C237.901 57.872 238.893 57.648 239.725 57.2C240.557 56.752 241.245 56.176 241.789 55.472C242.333 54.768 242.733 53.968 242.989 53.072C243.277 52.176 243.421 51.28 243.421 50.384C243.421 49.488 243.277 48.608 242.989 47.744C242.733 46.848 242.333 46.048 241.789 45.344C241.245 44.64 240.557 44.08 239.725 43.664C238.893 43.216 237.901 42.992 236.749 42.992C235.597 42.992 234.605 43.216 233.773 43.664C232.941 44.08 232.253 44.64 231.709 45.344C231.165 46.048 230.749 46.848 230.461 47.744C230.205 48.608 230.077 49.488 230.077 50.384ZM275.886 62H270.414V58.304H270.318C269.806 59.456 268.91 60.48 267.63 61.376C266.382 62.24 264.894 62.672 263.166 62.672C261.662 62.672 260.366 62.416 259.278 61.904C258.222 61.36 257.342 60.656 256.638 59.792C255.966 58.928 255.47 57.936 255.15 56.816C254.83 55.696 254.67 54.544 254.67 53.36V38.96H260.43V51.728C260.43 52.4 260.478 53.104 260.574 53.84C260.67 54.576 260.878 55.248 261.198 55.856C261.518 56.432 261.95 56.912 262.494 57.296C263.07 57.68 263.822 57.872 264.75 57.872C265.646 57.872 266.43 57.696 267.102 57.344C267.806 56.96 268.366 56.48 268.782 55.904C269.23 55.328 269.566 54.672 269.79 53.936C270.014 53.168 270.126 52.4 270.126 51.632V38.96H275.886V62ZM282.896 25.712H288.656V62H282.896V25.712ZM319.068 62H313.596V58.544H313.5C312.7 59.888 311.58 60.912 310.14 61.616C308.732 62.32 307.212 62.672 305.58 62.672C303.82 62.672 302.236 62.352 300.828 61.712C299.452 61.04 298.268 60.16 297.276 59.072C296.316 57.952 295.564 56.656 295.02 55.184C294.508 53.68 294.252 52.08 294.252 50.384C294.252 48.688 294.524 47.104 295.068 45.632C295.612 44.16 296.38 42.88 297.372 41.792C298.364 40.704 299.548 39.856 300.924 39.248C302.3 38.608 303.804 38.288 305.436 38.288C306.492 38.288 307.436 38.416 308.268 38.672C309.1 38.896 309.82 39.184 310.428 39.536C311.068 39.888 311.612 40.272 312.06 40.688C312.508 41.104 312.876 41.504 313.164 41.888H313.308V25.712H319.068V62ZM300.108 50.384C300.108 51.28 300.236 52.176 300.492 53.072C300.78 53.968 301.196 54.768 301.74 55.472C302.284 56.176 302.972 56.752 303.804 57.2C304.636 57.648 305.612 57.872 306.732 57.872C307.788 57.872 308.732 57.664 309.564 57.248C310.396 56.8 311.1 56.224 311.676 55.52C312.284 54.816 312.732 54.032 313.02 53.168C313.34 52.272 313.5 51.376 313.5 50.48C313.5 49.584 313.34 48.688 313.02 47.792C312.732 46.896 312.284 46.096 311.676 45.392C311.1 44.688 310.396 44.112 309.564 43.664C308.732 43.216 307.788 42.992 306.732 42.992C305.612 42.992 304.636 43.216 303.804 43.664C302.972 44.08 302.284 44.64 301.74 45.344C301.196 46.048 300.78 46.848 300.492 47.744C300.236 48.608 300.108 49.488 300.108 50.384ZM334.609 38.96H340.993L347.425 55.712H347.521L353.233 38.96H359.233L348.337 66.944C347.921 68 347.473 68.928 346.993 69.728C346.513 70.56 345.937 71.248 345.265 71.792C344.593 72.368 343.793 72.8 342.865 73.088C341.969 73.376 340.881 73.52 339.601 73.52C339.121 73.52 338.625 73.488 338.113 73.424C337.633 73.392 337.137 73.312 336.625 73.184L337.105 68.192C337.489 68.32 337.857 68.4 338.209 68.432C338.593 68.496 338.945 68.528 339.265 68.528C339.873 68.528 340.385 68.448 340.801 68.288C341.217 68.16 341.569 67.936 341.857 67.616C342.145 67.328 342.401 66.96 342.625 66.512C342.849 66.064 343.089 65.536 343.345 64.928L344.497 62L334.609 38.96ZM361.331 50.384C361.331 48.56 361.651 46.912 362.291 45.44C362.963 43.936 363.859 42.656 364.979 41.6C366.099 40.544 367.427 39.728 368.963 39.152C370.499 38.576 372.131 38.288 373.859 38.288C375.587 38.288 377.219 38.576 378.755 39.152C380.291 39.728 381.619 40.544 382.739 41.6C383.859 42.656 384.739 43.936 385.379 45.44C386.051 46.912 386.387 48.56 386.387 50.384C386.387 52.208 386.051 53.872 385.379 55.376C384.739 56.88 383.859 58.176 382.739 59.264C381.619 60.32 380.291 61.152 378.755 61.76C377.219 62.368 375.587 62.672 373.859 62.672C372.131 62.672 370.499 62.368 368.963 61.76C367.427 61.152 366.099 60.32 364.979 59.264C363.859 58.176 362.963 56.88 362.291 55.376C361.651 53.872 361.331 52.208 361.331 50.384ZM367.187 50.384C367.187 51.28 367.315 52.176 367.571 53.072C367.859 53.968 368.275 54.768 368.819 55.472C369.363 56.176 370.051 56.752 370.883 57.2C371.715 57.648 372.707 57.872 373.859 57.872C375.011 57.872 376.003 57.648 376.835 57.2C377.667 56.752 378.355 56.176 378.899 55.472C379.443 54.768 379.843 53.968 380.099 53.072C380.387 52.176 380.531 51.28 380.531 50.384C380.531 49.488 380.387 48.608 380.099 47.744C379.843 46.848 379.443 46.048 378.899 45.344C378.355 44.64 377.667 44.08 376.835 43.664C376.003 43.216 375.011 42.992 373.859 42.992C372.707 42.992 371.715 43.216 370.883 43.664C370.051 44.08 369.363 44.64 368.819 45.344C368.275 46.048 367.859 46.848 367.571 47.744C367.315 48.608 367.187 49.488 367.187 50.384ZM412.996 62H407.524V58.304H407.428C406.916 59.456 406.02 60.48 404.74 61.376C403.492 62.24 402.004 62.672 400.276 62.672C398.772 62.672 397.476 62.416 396.388 61.904C395.332 61.36 394.452 60.656 393.748 59.792C393.076 58.928 392.58 57.936 392.26 56.816C391.94 55.696 391.78 54.544 391.78 53.36V38.96H397.54V51.728C397.54 52.4 397.588 53.104 397.684 53.84C397.78 54.576 397.988 55.248 398.308 55.856C398.628 56.432 399.06 56.912 399.604 57.296C400.18 57.68 400.932 57.872 401.86 57.872C402.756 57.872 403.54 57.696 404.212 57.344C404.916 56.96 405.476 56.48 405.892 55.904C406.34 55.328 406.676 54.672 406.9 53.936C407.124 53.168 407.236 52.4 407.236 51.632V38.96H412.996V62ZM432.821 43.568H428.453V38.96H432.821V35.552C432.821 34.176 432.965 32.864 433.253 31.616C433.573 30.336 434.085 29.216 434.789 28.256C435.525 27.296 436.485 26.544 437.669 26C438.853 25.424 440.341 25.136 442.133 25.136C442.773 25.136 443.301 25.168 443.717 25.232C444.165 25.264 444.613 25.344 445.061 25.472L444.677 30.368C444.357 30.272 444.005 30.192 443.621 30.128C443.269 30.064 442.885 30.032 442.469 30.032C441.637 30.032 440.965 30.192 440.453 30.512C439.941 30.832 439.541 31.248 439.253 31.76C438.997 32.272 438.821 32.832 438.725 33.44C438.629 34.048 438.581 34.64 438.581 35.216V38.96H443.909V43.568H438.581V62H432.821V43.568ZM461.776 59.072H461.632C461.056 60.096 460.128 60.944 458.848 61.616C457.568 62.256 456.112 62.576 454.48 62.576C453.552 62.576 452.576 62.448 451.552 62.192C450.56 61.968 449.632 61.584 448.768 61.04C447.936 60.464 447.232 59.728 446.656 58.832C446.112 57.904 445.84 56.768 445.84 55.424C445.84 53.696 446.32 52.32 447.28 51.296C448.272 50.272 449.536 49.488 451.072 48.944C452.608 48.4 454.304 48.048 456.16 47.888C458.048 47.696 459.888 47.6 461.68 47.6V47.024C461.68 45.584 461.152 44.528 460.096 43.856C459.072 43.152 457.84 42.8 456.4 42.8C455.184 42.8 454.016 43.056 452.896 43.568C451.776 44.08 450.848 44.704 450.112 45.44L447.136 41.936C448.448 40.72 449.952 39.808 451.648 39.2C453.376 38.592 455.12 38.288 456.88 38.288C458.928 38.288 460.608 38.576 461.92 39.152C463.264 39.728 464.32 40.48 465.088 41.408C465.856 42.336 466.384 43.376 466.672 44.528C466.992 45.68 467.152 46.832 467.152 47.984V62H461.776V59.072ZM461.68 51.488H460.384C459.456 51.488 458.48 51.536 457.456 51.632C456.432 51.696 455.488 51.872 454.624 52.16C453.76 52.416 453.04 52.8 452.464 53.312C451.888 53.792 451.6 54.464 451.6 55.328C451.6 55.872 451.712 56.336 451.936 56.72C452.192 57.072 452.512 57.36 452.896 57.584C453.28 57.808 453.712 57.968 454.192 58.064C454.672 58.16 455.152 58.208 455.632 58.208C457.616 58.208 459.12 57.68 460.144 56.624C461.168 55.568 461.68 54.128 461.68 52.304V51.488ZM470.406 38.96H476.694L482.742 55.76H482.838L488.934 38.96H495.03L485.862 62H479.718L470.406 38.96ZM497.128 50.384C497.128 48.56 497.448 46.912 498.088 45.44C498.76 43.936 499.656 42.656 500.776 41.6C501.896 40.544 503.224 39.728 504.76 39.152C506.296 38.576 507.928 38.288 509.656 38.288C511.384 38.288 513.016 38.576 514.552 39.152C516.088 39.728 517.416 40.544 518.536 41.6C519.656 42.656 520.536 43.936 521.176 45.44C521.848 46.912 522.184 48.56 522.184 50.384C522.184 52.208 521.848 53.872 521.176 55.376C520.536 56.88 519.656 58.176 518.536 59.264C517.416 60.32 516.088 61.152 514.552 61.76C513.016 62.368 511.384 62.672 509.656 62.672C507.928 62.672 506.296 62.368 504.76 61.76C503.224 61.152 501.896 60.32 500.776 59.264C499.656 58.176 498.76 56.88 498.088 55.376C497.448 53.872 497.128 52.208 497.128 50.384ZM502.984 50.384C502.984 51.28 503.112 52.176 503.368 53.072C503.656 53.968 504.072 54.768 504.616 55.472C505.16 56.176 505.848 56.752 506.68 57.2C507.512 57.648 508.504 57.872 509.656 57.872C510.808 57.872 511.8 57.648 512.632 57.2C513.464 56.752 514.152 56.176 514.696 55.472C515.24 54.768 515.64 53.968 515.896 53.072C516.184 52.176 516.328 51.28 516.328 50.384C516.328 49.488 516.184 48.608 515.896 47.744C515.64 46.848 515.24 46.048 514.696 45.344C514.152 44.64 513.464 44.08 512.632 43.664C511.8 43.216 510.808 42.992 509.656 42.992C508.504 42.992 507.512 43.216 506.68 43.664C505.848 44.08 505.16 44.64 504.616 45.344C504.072 46.048 503.656 46.848 503.368 47.744C503.112 48.608 502.984 49.488 502.984 50.384ZM527.769 38.96H533.289V42.8H533.385C534.025 41.456 534.921 40.368 536.073 39.536C537.225 38.704 538.569 38.288 540.105 38.288C540.329 38.288 540.569 38.304 540.825 38.336C541.081 38.336 541.305 38.368 541.497 38.432V43.712C541.113 43.616 540.777 43.552 540.489 43.52C540.233 43.488 539.977 43.472 539.721 43.472C538.409 43.472 537.353 43.712 536.553 44.192C535.753 44.672 535.129 45.248 534.681 45.92C534.233 46.592 533.929 47.28 533.769 47.984C533.609 48.688 533.529 49.248 533.529 49.664V62H527.769V38.96ZM551.877 51.968V50.144C551.877 49.376 551.925 48.688 552.021 48.08C552.149 47.472 552.325 46.896 552.549 46.352C552.805 45.808 553.125 45.28 553.509 44.768C553.925 44.256 554.437 43.712 555.045 43.136L557.205 41.072C557.813 40.528 558.325 39.92 558.741 39.248C559.189 38.576 559.413 37.76 559.413 36.8C559.413 35.552 559.013 34.512 558.213 33.68C557.445 32.816 556.341 32.384 554.901 32.384C554.165 32.384 553.493 32.528 552.885 32.816C552.309 33.072 551.797 33.44 551.349 33.92C550.933 34.368 550.613 34.896 550.389 35.504C550.165 36.112 550.037 36.736 550.005 37.376L544.101 36.848C544.293 35.312 544.693 33.952 545.301 32.768C545.941 31.552 546.757 30.528 547.749 29.696C548.741 28.864 549.877 28.24 551.157 27.824C552.437 27.376 553.813 27.152 555.285 27.152C556.661 27.152 557.957 27.36 559.173 27.776C560.421 28.16 561.509 28.752 562.437 29.552C563.397 30.32 564.149 31.28 564.693 32.432C565.237 33.584 565.509 34.912 565.509 36.416C565.509 37.44 565.397 38.336 565.173 39.104C564.949 39.872 564.629 40.576 564.213 41.216C563.797 41.856 563.285 42.48 562.677 43.088C562.101 43.664 561.445 44.272 560.709 44.912C560.069 45.456 559.541 45.936 559.125 46.352C558.741 46.768 558.421 47.184 558.165 47.6C557.941 48.016 557.781 48.464 557.685 48.944C557.589 49.424 557.541 50.016 557.541 50.72V51.968H551.877ZM550.917 58.64C550.917 57.616 551.285 56.736 552.021 56C552.789 55.264 553.701 54.896 554.757 54.896C555.781 54.896 556.677 55.248 557.445 55.952C558.213 56.656 558.597 57.52 558.597 58.544C558.597 59.568 558.213 60.448 557.445 61.184C556.709 61.92 555.813 62.288 554.757 62.288C554.245 62.288 553.749 62.192 553.269 62C552.821 61.808 552.421 61.552 552.069 61.232C551.717 60.912 551.429 60.528 551.205 60.08C551.013 59.632 550.917 59.152 550.917 58.64Z" fill="black"/>
<path d="M36.976 144H34.384V118.512H36.976V144ZM51.1876 129.204H46.4356V139.032C46.4356 139.656 46.4956 140.172 46.6156 140.58C46.7356 140.988 46.9036 141.312 47.1196 141.552C47.3596 141.768 47.6356 141.924 47.9476 142.02C48.2596 142.092 48.5956 142.128 48.9556 142.128C49.2916 142.128 49.6396 142.08 49.9996 141.984C50.3836 141.888 50.7436 141.756 51.0796 141.588L51.1876 143.712C50.7556 143.88 50.2996 144 49.8196 144.072C49.3636 144.168 48.8596 144.216 48.3076 144.216C47.8516 144.216 47.3716 144.156 46.8676 144.036C46.3636 143.916 45.8956 143.688 45.4636 143.352C45.0316 143.016 44.6716 142.56 44.3836 141.984C44.1196 141.408 43.9876 140.652 43.9876 139.716V129.204H40.4956V127.152H43.9876V122.4H46.4356V127.152H51.1876V129.204ZM67.8693 134.28C67.7973 132.696 67.2813 131.388 66.3213 130.356C65.3853 129.3 64.0413 128.772 62.2893 128.772C61.4733 128.772 60.7173 128.928 60.0213 129.24C59.3253 129.528 58.7133 129.936 58.1853 130.464C57.6573 130.968 57.2373 131.556 56.9253 132.228C56.6133 132.876 56.4333 133.56 56.3853 134.28H67.8693ZM70.3533 135.072C70.3533 135.24 70.3533 135.42 70.3533 135.612C70.3533 135.804 70.3413 136.008 70.3173 136.224H56.3493C56.3733 137.064 56.5413 137.856 56.8533 138.6C57.1653 139.344 57.5973 139.992 58.1493 140.544C58.7013 141.096 59.3493 141.54 60.0933 141.876C60.8373 142.188 61.6413 142.344 62.5053 142.344C63.7773 142.344 64.8693 142.056 65.7813 141.48C66.7173 140.88 67.4253 140.196 67.9053 139.428L69.7413 140.868C68.7333 142.14 67.6173 143.052 66.3933 143.604C65.1933 144.156 63.8973 144.432 62.5053 144.432C61.2573 144.432 60.0933 144.216 59.0133 143.784C57.9573 143.328 57.0453 142.704 56.2773 141.912C55.5093 141.12 54.8973 140.184 54.4413 139.104C54.0093 138.024 53.7933 136.848 53.7933 135.576C53.7933 134.304 54.0093 133.128 54.4413 132.048C54.8733 130.968 55.4733 130.032 56.2413 129.24C57.0093 128.448 57.9093 127.836 58.9413 127.404C59.9733 126.948 61.0893 126.72 62.2893 126.72C63.6093 126.72 64.7733 126.948 65.7813 127.404C66.7893 127.836 67.6293 128.436 68.3013 129.204C68.9733 129.948 69.4773 130.824 69.8133 131.832C70.1733 132.84 70.3533 133.92 70.3533 135.072ZM78.0309 130.032C78.5109 129.048 79.2429 128.256 80.2269 127.656C81.2349 127.032 82.3509 126.72 83.5749 126.72C84.0309 126.72 84.4989 126.768 84.9789 126.864C85.4829 126.96 85.9629 127.152 86.4189 127.44C86.8989 127.704 87.3309 128.064 87.7149 128.52C88.1229 128.976 88.4709 129.564 88.7589 130.284C89.3349 129.132 90.1149 128.256 91.0989 127.656C92.1069 127.032 93.2949 126.72 94.6629 126.72C96.7989 126.72 98.3949 127.356 99.4509 128.628C100.531 129.9 101.071 131.58 101.071 133.668V144H98.6229V134.676C98.6229 132.9 98.2869 131.472 97.6149 130.392C96.9669 129.312 95.8509 128.772 94.2669 128.772C93.3789 128.772 92.6229 128.952 91.9989 129.312C91.3989 129.672 90.9069 130.152 90.5229 130.752C90.1629 131.328 89.8989 131.988 89.7309 132.732C89.5629 133.476 89.4789 134.244 89.4789 135.036V144H87.0309V134.172C87.0309 133.356 86.9709 132.612 86.8509 131.94C86.7309 131.268 86.5149 130.704 86.2029 130.248C85.9149 129.768 85.5069 129.408 84.9789 129.168C84.4509 128.904 83.7789 128.772 82.9629 128.772C82.3869 128.772 81.7989 128.904 81.1989 129.168C80.6229 129.432 80.0949 129.84 79.6149 130.392C79.1589 130.92 78.7869 131.604 78.4989 132.444C78.2109 133.26 78.0669 134.232 78.0669 135.36V144H75.6189V130.86C75.6189 130.404 75.6069 129.816 75.5829 129.096C75.5589 128.376 75.5229 127.728 75.4749 127.152H77.8149C77.8629 127.608 77.8989 128.112 77.9229 128.664C77.9469 129.216 77.9589 129.672 77.9589 130.032H78.0309ZM126.048 144H123.456V121.716L118.848 125.64L117.264 123.84L123.744 118.512H126.048V144Z" fill="black"/>
<rect x="176" y="100" width="205" height="57" rx="28.5" fill="#F92054"/>
<path d="M208.37 138H205.46V120.3L201.44 123.66L199.73 121.65L205.76 116.76H208.37V138ZM230.502 138H216.642V135.21L225.102 126.81C225.742 126.15 226.292 125.46 226.752 124.74C227.212 124.02 227.442 123.21 227.442 122.31C227.442 121.75 227.342 121.25 227.142 120.81C226.942 120.35 226.672 119.96 226.332 119.64C225.992 119.32 225.592 119.08 225.132 118.92C224.672 118.74 224.182 118.65 223.662 118.65C222.582 118.65 221.692 119 220.992 119.7C220.292 120.38 219.852 121.26 219.672 122.34L216.822 121.86C216.942 121.06 217.192 120.32 217.572 119.64C217.972 118.94 218.472 118.34 219.072 117.84C219.672 117.32 220.362 116.92 221.142 116.64C221.942 116.36 222.792 116.22 223.692 116.22C224.572 116.22 225.412 116.35 226.212 116.61C227.032 116.87 227.752 117.25 228.372 117.75C228.992 118.25 229.482 118.88 229.842 119.64C230.222 120.4 230.412 121.27 230.412 122.25C230.412 122.93 230.322 123.56 230.142 124.14C229.962 124.72 229.712 125.27 229.392 125.79C229.092 126.31 228.732 126.81 228.312 127.29C227.892 127.75 227.452 128.21 226.992 128.67L220.092 135.39H230.502V138Z" fill="white"/>
<path d="M36.976 221H34.384V195.512H36.976V221ZM51.1876 206.204H46.4356V216.032C46.4356 216.656 46.4956 217.172 46.6156 217.58C46.7356 217.988 46.9036 218.312 47.1196 218.552C47.3596 218.768 47.6356 218.924 47.9476 219.02C48.2596 219.092 48.5956 219.128 48.9556 219.128C49.2916 219.128 49.6396 219.08 49.9996 218.984C50.3836 218.888 50.7436 218.756 51.0796 218.588L51.1876 220.712C50.7556 220.88 50.2996 221 49.8196 221.072C49.3636 221.168 48.8596 221.216 48.3076 221.216C47.8516 221.216 47.3716 221.156 46.8676 221.036C46.3636 220.916 45.8956 220.688 45.4636 220.352C45.0316 220.016 44.6716 219.56 44.3836 218.984C44.1196 218.408 43.9876 217.652 43.9876 216.716V206.204H40.4956V204.152H43.9876V199.4H46.4356V204.152H51.1876V206.204ZM67.8693 211.28C67.7973 209.696 67.2813 208.388 66.3213 207.356C65.3853 206.3 64.0413 205.772 62.2893 205.772C61.4733 205.772 60.7173 205.928 60.0213 206.24C59.3253 206.528 58.7133 206.936 58.1853 207.464C57.6573 207.968 57.2373 208.556 56.9253 209.228C56.6133 209.876 56.4333 210.56 56.3853 211.28H67.8693ZM70.3533 212.072C70.3533 212.24 70.3533 212.42 70.3533 212.612C70.3533 212.804 70.3413 213.008 70.3173 213.224H56.3493C56.3733 214.064 56.5413 214.856 56.8533 215.6C57.1653 216.344 57.5973 216.992 58.1493 217.544C58.7013 218.096 59.3493 218.54 60.0933 218.876C60.8373 219.188 61.6413 219.344 62.5053 219.344C63.7773 219.344 64.8693 219.056 65.7813 218.48C66.7173 217.88 67.4253 217.196 67.9053 216.428L69.7413 217.868C68.7333 219.14 67.6173 220.052 66.3933 220.604C65.1933 221.156 63.8973 221.432 62.5053 221.432C61.2573 221.432 60.0933 221.216 59.0133 220.784C57.9573 220.328 57.0453 219.704 56.2773 218.912C55.5093 218.12 54.8973 217.184 54.4413 216.104C54.0093 215.024 53.7933 213.848 53.7933 212.576C53.7933 211.304 54.0093 210.128 54.4413 209.048C54.8733 207.968 55.4733 207.032 56.2413 206.24C57.0093 205.448 57.9093 204.836 58.9413 204.404C59.9733 203.948 61.0893 203.72 62.2893 203.72C63.6093 203.72 64.7733 203.948 65.7813 204.404C66.7893 204.836 67.6293 205.436 68.3013 206.204C68.9733 206.948 69.4773 207.824 69.8133 208.832C70.1733 209.84 70.3533 210.92 70.3533 212.072ZM78.0309 207.032C78.5109 206.048 79.2429 205.256 80.2269 204.656C81.2349 204.032 82.3509 203.72 83.5749 203.72C84.0309 203.72 84.4989 203.768 84.9789 203.864C85.4829 203.96 85.9629 204.152 86.4189 204.44C86.8989 204.704 87.3309 205.064 87.7149 205.52C88.1229 205.976 88.4709 206.564 88.7589 207.284C89.3349 206.132 90.1149 205.256 91.0989 204.656C92.1069 204.032 93.2949 203.72 94.6629 203.72C96.7989 203.72 98.3949 204.356 99.4509 205.628C100.531 206.9 101.071 208.58 101.071 210.668V221H98.6229V211.676C98.6229 209.9 98.2869 208.472 97.6149 207.392C96.9669 206.312 95.8509 205.772 94.2669 205.772C93.3789 205.772 92.6229 205.952 91.9989 206.312C91.3989 206.672 90.9069 207.152 90.5229 207.752C90.1629 208.328 89.8989 208.988 89.7309 209.732C89.5629 210.476 89.4789 211.244 89.4789 212.036V221H87.0309V211.172C87.0309 210.356 86.9709 209.612 86.8509 208.94C86.7309 208.268 86.5149 207.704 86.2029 207.248C85.9149 206.768 85.5069 206.408 84.9789 206.168C84.4509 205.904 83.7789 205.772 82.9629 205.772C82.3869 205.772 81.7989 205.904 81.1989 206.168C80.6229 206.432 80.0949 206.84 79.6149 207.392C79.1589 207.92 78.7869 208.604 78.4989 209.444C78.2109 210.26 78.0669 211.232 78.0669 212.36V221H75.6189V207.86C75.6189 207.404 75.6069 206.816 75.5829 206.096C75.5589 205.376 75.5229 204.728 75.4749 204.152H77.8149C77.8629 204.608 77.8989 205.112 77.9229 205.664C77.9469 206.216 77.9589 206.672 77.9589 207.032H78.0309ZM131.304 221H114.996V218.3L125.436 207.752C125.82 207.368 126.192 206.96 126.552 206.528C126.936 206.072 127.272 205.604 127.56 205.124C127.848 204.644 128.076 204.14 128.244 203.612C128.412 203.06 128.496 202.496 128.496 201.92C128.496 201.176 128.364 200.504 128.1 199.904C127.836 199.304 127.464 198.8 126.984 198.392C126.528 197.96 125.988 197.636 125.364 197.42C124.764 197.18 124.128 197.06 123.456 197.06C122.088 197.06 120.936 197.492 120 198.356C119.064 199.196 118.464 200.276 118.2 201.596L115.644 201.092C115.812 200.204 116.124 199.376 116.58 198.608C117.06 197.84 117.636 197.18 118.308 196.628C119.004 196.076 119.784 195.644 120.648 195.332C121.512 195.02 122.448 194.864 123.456 194.864C124.488 194.864 125.46 195.02 126.372 195.332C127.308 195.62 128.124 196.064 128.82 196.664C129.516 197.24 130.068 197.972 130.476 198.86C130.908 199.724 131.124 200.732 131.124 201.884C131.124 202.7 131.004 203.456 130.764 204.152C130.548 204.848 130.248 205.508 129.864 206.132C129.504 206.756 129.072 207.356 128.568 207.932C128.064 208.484 127.536 209.036 126.984 209.588L117.804 218.696H131.304V221Z" fill="black"/>
<rect x="176" y="177" width="376" height="57" rx="28.5" fill="#F92054"/>
<path d="M203.39 202.7H204.32C204.92 202.7 205.5 202.65 206.06 202.55C206.64 202.43 207.15 202.24 207.59 201.98C208.03 201.7 208.38 201.33 208.64 200.87C208.92 200.41 209.06 199.84 209.06 199.16C209.06 198.62 208.96 198.14 208.76 197.72C208.56 197.28 208.28 196.91 207.92 196.61C207.58 196.31 207.18 196.08 206.72 195.92C206.28 195.74 205.81 195.65 205.31 195.65C204.41 195.65 203.64 195.88 203 196.34C202.38 196.8 201.91 197.44 201.59 198.26L198.95 197.33C199.47 196.05 200.3 195.05 201.44 194.33C202.6 193.59 203.93 193.22 205.43 193.22C206.31 193.22 207.14 193.35 207.92 193.61C208.72 193.85 209.42 194.21 210.02 194.69C210.62 195.17 211.09 195.77 211.43 196.49C211.79 197.21 211.97 198.04 211.97 198.98C211.97 199.58 211.87 200.14 211.67 200.66C211.49 201.18 211.23 201.65 210.89 202.07C210.57 202.49 210.18 202.85 209.72 203.15C209.26 203.45 208.76 203.67 208.22 203.81V203.87C208.84 203.99 209.41 204.2 209.93 204.5C210.47 204.8 210.93 205.18 211.31 205.64C211.69 206.08 211.99 206.59 212.21 207.17C212.43 207.75 212.54 208.38 212.54 209.06C212.54 210.12 212.34 211.06 211.94 211.88C211.54 212.68 211.01 213.35 210.35 213.89C209.69 214.43 208.93 214.84 208.07 215.12C207.21 215.4 206.33 215.54 205.43 215.54C203.75 215.54 202.27 215.16 200.99 214.4C199.71 213.64 198.78 212.46 198.2 210.86L200.9 209.96C201.22 210.88 201.76 211.63 202.52 212.21C203.3 212.79 204.25 213.08 205.37 213.08C205.91 213.08 206.43 213 206.93 212.84C207.45 212.66 207.91 212.4 208.31 212.06C208.71 211.72 209.03 211.3 209.27 210.8C209.51 210.3 209.63 209.71 209.63 209.03C209.63 208.29 209.47 207.67 209.15 207.17C208.83 206.67 208.41 206.27 207.89 205.97C207.39 205.65 206.82 205.43 206.18 205.31C205.54 205.17 204.91 205.1 204.29 205.1H203.39V202.7ZM228.372 207.74H231.432V210.23H228.372V215H225.552V210.23H215.772V207.59L224.802 193.76H228.372V207.74ZM225.552 197.09H225.492L218.772 207.74H225.552V197.09Z" fill="white"/>
<path d="M36.976 298H34.384V272.512H36.976V298ZM51.1876 283.204H46.4356V293.032C46.4356 293.656 46.4956 294.172 46.6156 294.58C46.7356 294.988 46.9036 295.312 47.1196 295.552C47.3596 295.768 47.6356 295.924 47.9476 296.02C48.2596 296.092 48.5956 296.128 48.9556 296.128C49.2916 296.128 49.6396 296.08 49.9996 295.984C50.3836 295.888 50.7436 295.756 51.0796 295.588L51.1876 297.712C50.7556 297.88 50.2996 298 49.8196 298.072C49.3636 298.168 48.8596 298.216 48.3076 298.216C47.8516 298.216 47.3716 298.156 46.8676 298.036C46.3636 297.916 45.8956 297.688 45.4636 297.352C45.0316 297.016 44.6716 296.56 44.3836 295.984C44.1196 295.408 43.9876 294.652 43.9876 293.716V283.204H40.4956V281.152H43.9876V276.4H46.4356V281.152H51.1876V283.204ZM67.8693 288.28C67.7973 286.696 67.2813 285.388 66.3213 284.356C65.3853 283.3 64.0413 282.772 62.2893 282.772C61.4733 282.772 60.7173 282.928 60.0213 283.24C59.3253 283.528 58.7133 283.936 58.1853 284.464C57.6573 284.968 57.2373 285.556 56.9253 286.228C56.6133 286.876 56.4333 287.56 56.3853 288.28H67.8693ZM70.3533 289.072C70.3533 289.24 70.3533 289.42 70.3533 289.612C70.3533 289.804 70.3413 290.008 70.3173 290.224H56.3493C56.3733 291.064 56.5413 291.856 56.8533 292.6C57.1653 293.344 57.5973 293.992 58.1493 294.544C58.7013 295.096 59.3493 295.54 60.0933 295.876C60.8373 296.188 61.6413 296.344 62.5053 296.344C63.7773 296.344 64.8693 296.056 65.7813 295.48C66.7173 294.88 67.4253 294.196 67.9053 293.428L69.7413 294.868C68.7333 296.14 67.6173 297.052 66.3933 297.604C65.1933 298.156 63.8973 298.432 62.5053 298.432C61.2573 298.432 60.0933 298.216 59.0133 297.784C57.9573 297.328 57.0453 296.704 56.2773 295.912C55.5093 295.12 54.8973 294.184 54.4413 293.104C54.0093 292.024 53.7933 290.848 53.7933 289.576C53.7933 288.304 54.0093 287.128 54.4413 286.048C54.8733 284.968 55.4733 284.032 56.2413 283.24C57.0093 282.448 57.9093 281.836 58.9413 281.404C59.9733 280.948 61.0893 280.72 62.2893 280.72C63.6093 280.72 64.7733 280.948 65.7813 281.404C66.7893 281.836 67.6293 282.436 68.3013 283.204C68.9733 283.948 69.4773 284.824 69.8133 285.832C70.1733 286.84 70.3533 287.92 70.3533 289.072ZM78.0309 284.032C78.5109 283.048 79.2429 282.256 80.2269 281.656C81.2349 281.032 82.3509 280.72 83.5749 280.72C84.0309 280.72 84.4989 280.768 84.9789 280.864C85.4829 280.96 85.9629 281.152 86.4189 281.44C86.8989 281.704 87.3309 282.064 87.7149 282.52C88.1229 282.976 88.4709 283.564 88.7589 284.284C89.3349 283.132 90.1149 282.256 91.0989 281.656C92.1069 281.032 93.2949 280.72 94.6629 280.72C96.7989 280.72 98.3949 281.356 99.4509 282.628C100.531 283.9 101.071 285.58 101.071 287.668V298H98.6229V288.676C98.6229 286.9 98.2869 285.472 97.6149 284.392C96.9669 283.312 95.8509 282.772 94.2669 282.772C93.3789 282.772 92.6229 282.952 91.9989 283.312C91.3989 283.672 90.9069 284.152 90.5229 284.752C90.1629 285.328 89.8989 285.988 89.7309 286.732C89.5629 287.476 89.4789 288.244 89.4789 289.036V298H87.0309V288.172C87.0309 287.356 86.9709 286.612 86.8509 285.94C86.7309 285.268 86.5149 284.704 86.2029 284.248C85.9149 283.768 85.5069 283.408 84.9789 283.168C84.4509 282.904 83.7789 282.772 82.9629 282.772C82.3869 282.772 81.7989 282.904 81.1989 283.168C80.6229 283.432 80.0949 283.84 79.6149 284.392C79.1589 284.92 78.7869 285.604 78.4989 286.444C78.2109 287.26 78.0669 288.232 78.0669 289.36V298H75.6189V284.86C75.6189 284.404 75.6069 283.816 75.5829 283.096C75.5589 282.376 75.5229 281.728 75.4749 281.152H77.8149C77.8629 281.608 77.8989 282.112 77.9229 282.664C77.9469 283.216 77.9589 283.672 77.9589 284.032H78.0309ZM120.864 283.528H121.98C122.796 283.528 123.564 283.444 124.284 283.276C125.004 283.108 125.628 282.844 126.156 282.484C126.708 282.1 127.14 281.608 127.452 281.008C127.764 280.408 127.92 279.688 127.92 278.848C127.92 278.128 127.788 277.48 127.524 276.904C127.26 276.304 126.888 275.8 126.408 275.392C125.952 274.96 125.412 274.636 124.788 274.42C124.188 274.18 123.552 274.06 122.88 274.06C121.8 274.06 120.84 274.312 120 274.816C119.184 275.32 118.524 276.064 118.02 277.048L115.824 275.896C116.616 274.528 117.624 273.52 118.848 272.872C120.072 272.2 121.464 271.864 123.024 271.864C124.032 271.864 124.98 272.02 125.868 272.332C126.78 272.62 127.572 273.052 128.244 273.628C128.94 274.204 129.48 274.924 129.864 275.788C130.272 276.628 130.476 277.6 130.476 278.704C130.476 280.216 130.056 281.488 129.216 282.52C128.376 283.528 127.32 284.2 126.048 284.536V284.608C127.512 284.92 128.736 285.628 129.72 286.732C130.704 287.812 131.196 289.216 131.196 290.944C131.196 292.168 130.968 293.26 130.512 294.22C130.08 295.156 129.492 295.96 128.748 296.632C128.004 297.28 127.128 297.772 126.12 298.108C125.136 298.468 124.092 298.648 122.988 298.648C121.116 298.648 119.484 298.204 118.092 297.316C116.7 296.404 115.644 295.108 114.924 293.428L117.372 292.528C117.804 293.752 118.524 294.712 119.532 295.408C120.54 296.08 121.692 296.416 122.988 296.416C123.708 296.416 124.404 296.296 125.076 296.056C125.772 295.792 126.372 295.432 126.876 294.976C127.404 294.496 127.824 293.92 128.136 293.248C128.448 292.576 128.604 291.808 128.604 290.944C128.604 289.984 128.412 289.18 128.028 288.532C127.668 287.86 127.176 287.32 126.552 286.912C125.928 286.504 125.22 286.216 124.428 286.048C123.636 285.856 122.82 285.76 121.98 285.76H120.864V283.528Z" fill="black"/>
<rect x="176" y="254" width="149" height="57" rx="28.5" fill="#F92054"/>
<path d="M207.95 283.42L207.92 283.39C207.62 283.57 207.21 283.71 206.69 283.81C206.45 283.85 206.2 283.89 205.94 283.93C205.7 283.95 205.47 283.96 205.25 283.96C204.31 283.96 203.44 283.8 202.64 283.48C201.84 283.14 201.14 282.68 200.54 282.1C199.94 281.5 199.47 280.79 199.13 279.97C198.79 279.15 198.62 278.26 198.62 277.3C198.62 276.24 198.8 275.28 199.16 274.42C199.54 273.54 200.06 272.79 200.72 272.17C201.38 271.55 202.16 271.07 203.06 270.73C203.96 270.39 204.93 270.22 205.97 270.22C207.01 270.22 207.98 270.4 208.88 270.76C209.78 271.1 210.55 271.58 211.19 272.2C211.85 272.82 212.36 273.56 212.72 274.42C213.1 275.28 213.29 276.21 213.29 277.21C213.29 278.37 213.1 279.42 212.72 280.36C212.34 281.3 211.85 282.26 211.25 283.24L205.7 292H202.25L207.95 283.42ZM210.38 277.18C210.38 276.56 210.27 275.98 210.05 275.44C209.85 274.88 209.55 274.4 209.15 274C208.77 273.58 208.31 273.25 207.77 273.01C207.23 272.77 206.63 272.65 205.97 272.65C205.31 272.65 204.71 272.77 204.17 273.01C203.63 273.23 203.16 273.54 202.76 273.94C202.38 274.34 202.08 274.82 201.86 275.38C201.66 275.94 201.56 276.55 201.56 277.21C201.56 277.85 201.66 278.44 201.86 278.98C202.08 279.52 202.38 279.99 202.76 280.39C203.14 280.79 203.6 281.1 204.14 281.32C204.68 281.54 205.28 281.65 205.94 281.65C206.6 281.65 207.2 281.54 207.74 281.32C208.3 281.1 208.77 280.79 209.15 280.39C209.55 279.99 209.85 279.52 210.05 278.98C210.27 278.44 210.38 277.84 210.38 277.18Z" fill="white"/>
<rect x="424" y="311" width="112" height="57" rx="28.5" fill="#20C5F9"/>
<path d="M445.63 345.16H445.72L452.11 327.76H455.32L446.98 349H444.22L435.94 327.76H439.24L445.63 345.16ZM470.818 341.86C470.818 342.96 470.618 343.97 470.218 344.89C469.838 345.81 469.298 346.61 468.598 347.29C467.918 347.95 467.108 348.47 466.168 348.85C465.228 349.21 464.218 349.39 463.138 349.39C462.058 349.39 461.048 349.21 460.108 348.85C459.168 348.47 458.358 347.95 457.678 347.29C456.998 346.61 456.458 345.81 456.058 344.89C455.678 343.97 455.488 342.96 455.488 341.86C455.488 340.76 455.678 339.76 456.058 338.86C456.458 337.94 456.998 337.15 457.678 336.49C458.358 335.83 459.168 335.32 460.108 334.96C461.048 334.58 462.058 334.39 463.138 334.39C464.218 334.39 465.228 334.58 466.168 334.96C467.108 335.32 467.918 335.83 468.598 336.49C469.298 337.15 469.838 337.94 470.218 338.86C470.618 339.76 470.818 340.76 470.818 341.86ZM467.878 341.86C467.878 341.18 467.768 340.53 467.548 339.91C467.348 339.29 467.048 338.75 466.648 338.29C466.248 337.81 465.748 337.43 465.148 337.15C464.568 336.87 463.898 336.73 463.138 336.73C462.378 336.73 461.698 336.87 461.098 337.15C460.518 337.43 460.028 337.81 459.628 338.29C459.228 338.75 458.918 339.29 458.698 339.91C458.498 340.53 458.398 341.18 458.398 341.86C458.398 342.54 458.498 343.19 458.698 343.81C458.918 344.43 459.228 344.98 459.628 345.46C460.028 345.94 460.518 346.32 461.098 346.6C461.698 346.88 462.378 347.02 463.138 347.02C463.898 347.02 464.568 346.88 465.148 346.6C465.748 346.32 466.248 345.94 466.648 345.46C467.048 344.98 467.348 344.43 467.548 343.81C467.768 343.19 467.878 342.54 467.878 341.86ZM481.689 337.09H477.909V344.5C477.909 345.36 478.069 345.98 478.389 346.36C478.709 346.72 479.219 346.9 479.919 346.9C480.179 346.9 480.459 346.87 480.759 346.81C481.059 346.75 481.329 346.66 481.569 346.54L481.659 348.85C481.319 348.97 480.939 349.06 480.519 349.12C480.119 349.2 479.699 349.24 479.259 349.24C477.919 349.24 476.889 348.87 476.169 348.13C475.469 347.39 475.119 346.28 475.119 344.8V337.09H472.389V334.78H475.119V330.7H477.909V334.78H481.689V337.09ZM495.012 340.63C494.992 340.07 494.892 339.55 494.712 339.07C494.552 338.57 494.302 338.14 493.962 337.78C493.642 337.42 493.232 337.14 492.732 336.94C492.252 336.72 491.682 336.61 491.022 336.61C490.422 336.61 489.852 336.72 489.312 336.94C488.792 337.14 488.332 337.42 487.932 337.78C487.552 338.14 487.232 338.57 486.972 339.07C486.732 339.55 486.592 340.07 486.552 340.63H495.012ZM497.862 341.77C497.862 341.93 497.862 342.09 497.862 342.25C497.862 342.41 497.852 342.57 497.832 342.73H486.552C486.572 343.33 486.702 343.9 486.942 344.44C487.202 344.96 487.542 345.42 487.962 345.82C488.382 346.2 488.862 346.5 489.402 346.72C489.962 346.94 490.552 347.05 491.172 347.05C492.132 347.05 492.962 346.84 493.662 346.42C494.362 346 494.912 345.49 495.312 344.89L497.292 346.48C496.532 347.48 495.632 348.22 494.592 348.7C493.572 349.16 492.432 349.39 491.172 349.39C490.092 349.39 489.092 349.21 488.172 348.85C487.252 348.49 486.462 347.99 485.802 347.35C485.142 346.69 484.622 345.9 484.242 344.98C483.862 344.06 483.672 343.04 483.672 341.92C483.672 340.82 483.852 339.81 484.212 338.89C484.592 337.95 485.112 337.15 485.772 336.49C486.432 335.83 487.212 335.32 488.112 334.96C489.012 334.58 489.982 334.39 491.022 334.39C492.062 334.39 493.002 334.56 493.842 334.9C494.702 335.24 495.422 335.73 496.002 336.37C496.602 337.01 497.062 337.79 497.382 338.71C497.702 339.61 497.862 340.63 497.862 341.77Z" fill="white"/>
<path d="M566.38 378.285L553.842 365.747L562.787 360.58C563.486 360.177 563.893 359.409 563.834 358.604C563.776 357.799 563.263 357.098 562.514 356.799L522.628 340.889C521.846 340.577 520.954 340.761 520.358 341.356C519.763 341.951 519.579 342.844 519.891 343.626L535.799 383.516C536.098 384.266 536.799 384.779 537.604 384.837C538.409 384.895 539.177 384.489 539.58 383.789L544.746 374.845L557.283 387.383C557.678 387.778 558.214 388 558.773 388C559.331 388 559.867 387.778 560.262 387.383L566.38 381.264C567.203 380.441 567.203 379.107 566.38 378.285Z" fill="black"/>
<path d="M513.251 331.269C512.428 330.446 511.094 330.446 510.271 331.269C509.448 332.091 509.448 333.425 510.271 334.248L514.952 338.93C515.364 339.341 515.903 339.547 516.442 339.547C516.981 339.547 517.52 339.341 517.932 338.93C518.754 338.107 518.754 336.773 517.932 335.95L513.251 331.269Z" fill="black"/>
<path d="M514.837 345.833C514.837 344.67 513.894 343.727 512.73 343.727H506.11C504.946 343.727 504.003 344.67 504.003 345.833C504.003 346.997 504.946 347.94 506.11 347.94H512.73C513.894 347.94 514.837 346.997 514.837 345.833Z" fill="black"/>
<path d="M513.983 352.336L509.301 357.018C508.478 357.84 508.478 359.174 509.301 359.997C509.713 360.408 510.252 360.614 510.791 360.614C511.33 360.614 511.869 360.408 512.28 359.997L516.962 355.316C517.785 354.493 517.785 353.159 516.962 352.336C516.14 351.514 514.806 351.513 513.983 352.336Z" fill="black"/>
<path d="M524.835 335.835C525.999 335.835 526.942 334.891 526.942 333.728V327.107C526.942 325.943 525.999 325 524.835 325C523.672 325 522.728 325.943 522.728 327.107V333.728C522.728 334.891 523.672 335.835 524.835 335.835Z" fill="black"/>
<path d="M532.826 338.577C533.366 338.577 533.905 338.371 534.316 337.96L538.997 333.279C539.82 332.456 539.82 331.122 538.997 330.299C538.174 329.477 536.84 329.477 536.017 330.299L531.336 334.981C530.514 335.803 530.514 337.137 531.336 337.96C531.748 338.371 532.287 338.577 532.826 338.577Z" fill="black"/>
</svg>
