<svg width="673" height="398" viewBox="0 0 673 398" fill="none" xmlns="http://www.w3.org/2000/svg">
<g clip-path="url(#clip0)">
<rect width="673" height="398" fill="white"/>
<path d="M469 202.625C467.93 202.625 467.062 201.757 467.062 200.688C467.062 197.484 464.456 194.875 461.25 194.875H455.438C454.368 194.875 453.5 194.007 453.5 192.938C453.5 191.868 454.368 191 455.438 191H461.25C466.592 191 470.938 195.348 470.938 200.688C470.938 201.757 470.07 202.625 469 202.625Z" fill="black"/>
<path d="M469 202.625C467.93 202.625 467.062 201.757 467.062 200.688C467.062 195.348 471.408 191 476.75 191H482.562C483.632 191 484.5 191.868 484.5 192.938C484.5 194.007 483.632 194.875 482.562 194.875H476.75C473.544 194.875 470.938 197.484 470.938 200.688C470.938 201.757 470.07 202.625 469 202.625Z" fill="black"/>
<path d="M461.25 253H455.438C454.368 253 453.5 252.132 453.5 251.062C453.5 249.993 454.368 249.125 455.438 249.125H461.25C464.456 249.125 467.062 246.516 467.062 243.312C467.062 242.243 467.93 241.375 469 241.375C470.07 241.375 470.938 242.243 470.938 243.312C470.938 248.652 466.592 253 461.25 253Z" fill="black"/>
<path d="M482.562 253H476.75C471.408 253 467.062 248.652 467.062 243.312C467.062 242.243 467.93 241.375 469 241.375C470.07 241.375 470.938 242.243 470.938 243.312C470.938 246.516 473.544 249.125 476.75 249.125H482.562C483.632 249.125 484.5 249.993 484.5 251.062C484.5 252.132 483.632 253 482.562 253Z" fill="black"/>
<path d="M469 245.25C467.93 245.25 467.062 244.382 467.062 243.312V200.688C467.062 199.618 467.93 198.75 469 198.75C470.07 198.75 470.938 199.618 470.938 200.688V243.312C470.938 244.382 470.07 245.25 469 245.25Z" fill="black"/>
<path d="M34.744 28.016H42.76L58.552 53.456H58.648V28.016H64.696V62H57.016L40.888 35.744H40.792V62H34.744V28.016ZM88.1331 48.176C88.1331 47.44 88.0211 46.736 87.7971 46.064C87.6051 45.392 87.2851 44.8 86.8371 44.288C86.3891 43.776 85.8131 43.376 85.1091 43.088C84.4371 42.768 83.6371 42.608 82.7091 42.608C80.9811 42.608 79.5091 43.136 78.2931 44.192C77.1091 45.216 76.4531 46.544 76.3251 48.176H88.1331ZM93.8931 50.768C93.8931 51.024 93.8931 51.28 93.8931 51.536C93.8931 51.792 93.8771 52.048 93.8451 52.304H76.3251C76.3891 53.136 76.5971 53.904 76.9491 54.608C77.3331 55.28 77.8291 55.872 78.4371 56.384C79.0451 56.864 79.7331 57.248 80.5011 57.536C81.2691 57.824 82.0691 57.968 82.9011 57.968C84.3411 57.968 85.5571 57.712 86.5491 57.2C87.5411 56.656 88.3571 55.92 88.9971 54.992L92.8371 58.064C90.5651 61.136 87.2691 62.672 82.9491 62.672C81.1571 62.672 79.5091 62.4 78.0051 61.856C76.5011 61.28 75.1891 60.48 74.0691 59.456C72.9811 58.432 72.1171 57.184 71.4771 55.712C70.8691 54.208 70.5651 52.512 70.5651 50.624C70.5651 48.768 70.8691 47.088 71.4771 45.584C72.1171 44.048 72.9811 42.752 74.0691 41.696C75.1571 40.608 76.4371 39.776 77.9091 39.2C79.4131 38.592 81.0291 38.288 82.7571 38.288C84.3571 38.288 85.8291 38.56 87.1731 39.104C88.5491 39.616 89.7331 40.4 90.7251 41.456C91.7171 42.48 92.4851 43.776 93.0291 45.344C93.6051 46.88 93.8931 48.688 93.8931 50.768ZM96.2076 38.96H102.448L107.248 55.472H107.344L112.288 38.96H118.432L123.424 55.472H123.52L128.416 38.96H134.416L126.448 62H120.592L115.36 45.872H115.264L110.08 62H104.224L96.2076 38.96ZM150.338 28.016H161.426C163.378 28.016 165.138 28.192 166.706 28.544C168.274 28.896 169.618 29.472 170.738 30.272C171.858 31.072 172.722 32.096 173.33 33.344C173.938 34.592 174.242 36.096 174.242 37.856C174.242 39.744 173.89 41.328 173.186 42.608C172.482 43.888 171.522 44.928 170.306 45.728C169.122 46.496 167.73 47.056 166.13 47.408C164.53 47.76 162.834 47.936 161.042 47.936H156.386V62H150.338V28.016ZM160.61 42.848C161.602 42.848 162.546 42.784 163.442 42.656C164.338 42.496 165.138 42.24 165.842 41.888C166.546 41.504 167.106 40.992 167.522 40.352C167.938 39.712 168.146 38.88 168.146 37.856C168.146 36.864 167.938 36.064 167.522 35.456C167.106 34.816 166.546 34.32 165.842 33.968C165.17 33.616 164.386 33.392 163.49 33.296C162.626 33.168 161.73 33.104 160.802 33.104H156.386V42.848H160.61ZM174.862 50.384C174.862 48.56 175.182 46.912 175.822 45.44C176.494 43.936 177.39 42.656 178.51 41.6C179.63 40.544 180.958 39.728 182.494 39.152C184.03 38.576 185.662 38.288 187.39 38.288C189.118 38.288 190.75 38.576 192.286 39.152C193.822 39.728 195.15 40.544 196.27 41.6C197.39 42.656 198.27 43.936 198.91 45.44C199.582 46.912 199.918 48.56 199.918 50.384C199.918 52.208 199.582 53.872 198.91 55.376C198.27 56.88 197.39 58.176 196.27 59.264C195.15 60.32 193.822 61.152 192.286 61.76C190.75 62.368 189.118 62.672 187.39 62.672C185.662 62.672 184.03 62.368 182.494 61.76C180.958 61.152 179.63 60.32 178.51 59.264C177.39 58.176 176.494 56.88 175.822 55.376C175.182 53.872 174.862 52.208 174.862 50.384ZM180.718 50.384C180.718 51.28 180.846 52.176 181.102 53.072C181.39 53.968 181.806 54.768 182.35 55.472C182.894 56.176 183.582 56.752 184.414 57.2C185.246 57.648 186.238 57.872 187.39 57.872C188.542 57.872 189.534 57.648 190.366 57.2C191.198 56.752 191.886 56.176 192.43 55.472C192.974 54.768 193.374 53.968 193.63 53.072C193.918 52.176 194.062 51.28 194.062 50.384C194.062 49.488 193.918 48.608 193.63 47.744C193.374 46.848 192.974 46.048 192.43 45.344C191.886 44.64 191.198 44.08 190.366 43.664C189.534 43.216 188.542 42.992 187.39 42.992C186.238 42.992 185.246 43.216 184.414 43.664C183.582 44.08 182.894 44.64 182.35 45.344C181.806 46.048 181.39 46.848 181.102 47.744C180.846 48.608 180.718 49.488 180.718 50.384ZM218.127 45.104C217.615 44.432 216.911 43.856 216.015 43.376C215.119 42.864 214.143 42.608 213.087 42.608C212.159 42.608 211.311 42.8 210.543 43.184C209.775 43.568 209.391 44.208 209.391 45.104C209.391 46 209.807 46.64 210.639 47.024C211.503 47.376 212.751 47.744 214.383 48.128C215.247 48.32 216.111 48.576 216.975 48.896C217.871 49.216 218.671 49.648 219.375 50.192C220.111 50.704 220.703 51.36 221.151 52.16C221.599 52.928 221.823 53.872 221.823 54.992C221.823 56.4 221.551 57.6 221.007 58.592C220.495 59.552 219.791 60.336 218.895 60.944C218.031 61.552 217.007 61.984 215.823 62.24C214.671 62.528 213.471 62.672 212.223 62.672C210.431 62.672 208.687 62.352 206.991 61.712C205.295 61.04 203.887 60.096 202.767 58.88L206.559 55.328C207.199 56.16 208.031 56.848 209.055 57.392C210.079 57.936 211.215 58.208 212.463 58.208C212.879 58.208 213.295 58.16 213.711 58.064C214.159 57.968 214.559 57.824 214.911 57.632C215.295 57.408 215.599 57.12 215.823 56.768C216.047 56.416 216.159 55.984 216.159 55.472C216.159 54.512 215.711 53.824 214.815 53.408C213.951 52.992 212.639 52.576 210.879 52.16C210.015 51.968 209.167 51.728 208.335 51.44C207.535 51.12 206.815 50.72 206.175 50.24C205.535 49.728 205.023 49.104 204.639 48.368C204.255 47.632 204.063 46.72 204.063 45.632C204.063 44.352 204.319 43.248 204.831 42.32C205.375 41.392 206.079 40.64 206.943 40.064C207.807 39.456 208.783 39.008 209.871 38.72C210.959 38.432 212.079 38.288 213.231 38.288C214.895 38.288 216.511 38.576 218.079 39.152C219.679 39.728 220.943 40.608 221.871 41.792L218.127 45.104ZM223.519 43.568V38.96H227.551V32.288H233.215V38.96H238.975V43.568H233.215V54.272C233.215 55.296 233.391 56.144 233.743 56.816C234.127 57.488 234.959 57.824 236.239 57.824C236.623 57.824 237.039 57.792 237.487 57.728C237.935 57.632 238.335 57.504 238.687 57.344L238.879 61.856C238.367 62.048 237.759 62.192 237.055 62.288C236.351 62.416 235.679 62.48 235.039 62.48C233.503 62.48 232.255 62.272 231.295 61.856C230.335 61.408 229.567 60.816 228.991 60.08C228.447 59.312 228.063 58.448 227.839 57.488C227.647 56.496 227.551 55.44 227.551 54.32V43.568H223.519Z" fill="black"/>
<path d="M42.556 140H39.964V116.816H31.432V114.512H51.088V116.816H42.556V140ZM57.1219 137.372H57.1939L62.4139 123.152H65.0779L56.6899 144.356C56.1859 145.652 55.5379 146.684 54.7459 147.452C53.9779 148.244 52.8619 148.64 51.3979 148.64C50.6539 148.64 49.9219 148.568 49.2019 148.424L49.4539 146.192C50.0299 146.384 50.6299 146.48 51.2539 146.48C52.0939 146.48 52.7539 146.216 53.2339 145.688C53.7139 145.184 54.1339 144.452 54.4939 143.492L55.8619 139.964L48.6619 123.152H51.3979L57.1219 137.372ZM71.3521 148.64H68.9041V123.152H71.3521V126.068H71.4601C72.1561 124.964 73.0801 124.136 74.2321 123.584C75.4081 123.008 76.5961 122.72 77.7961 122.72C79.1161 122.72 80.3041 122.948 81.3601 123.404C82.4401 123.86 83.3521 124.484 84.0961 125.276C84.8641 126.068 85.4521 127.004 85.8601 128.084C86.2921 129.164 86.5081 130.328 86.5081 131.576C86.5081 132.824 86.2921 133.988 85.8601 135.068C85.4521 136.148 84.8641 137.084 84.0961 137.876C83.3521 138.668 82.4401 139.292 81.3601 139.748C80.3041 140.204 79.1161 140.432 77.7961 140.432C76.5961 140.432 75.4081 140.156 74.2321 139.604C73.0801 139.028 72.1561 138.212 71.4601 137.156H71.3521V148.64ZM83.9161 131.576C83.9161 130.64 83.7721 129.764 83.4841 128.948C83.1961 128.108 82.7761 127.388 82.2241 126.788C81.6961 126.164 81.0361 125.672 80.2441 125.312C79.4521 124.952 78.5521 124.772 77.5441 124.772C76.6081 124.772 75.7441 124.952 74.9521 125.312C74.1601 125.648 73.4761 126.128 72.9001 126.752C72.3241 127.352 71.8681 128.072 71.5321 128.912C71.2201 129.728 71.0641 130.616 71.0641 131.576C71.0641 132.536 71.2201 133.436 71.5321 134.276C71.8681 135.092 72.3241 135.8 72.9001 136.4C73.4761 137 74.1601 137.48 74.9521 137.84C75.7441 138.176 76.6081 138.344 77.5441 138.344C78.5521 138.344 79.4521 138.176 80.2441 137.84C81.0361 137.48 81.6961 137 82.2241 136.4C82.7761 135.776 83.1961 135.056 83.4841 134.24C83.7721 133.4 83.9161 132.512 83.9161 131.576ZM104.608 130.28C104.536 128.696 104.02 127.388 103.06 126.356C102.124 125.3 100.78 124.772 99.0276 124.772C98.2116 124.772 97.4556 124.928 96.7596 125.24C96.0636 125.528 95.4516 125.936 94.9236 126.464C94.3956 126.968 93.9756 127.556 93.6636 128.228C93.3516 128.876 93.1716 129.56 93.1236 130.28H104.608ZM107.092 131.072C107.092 131.24 107.092 131.42 107.092 131.612C107.092 131.804 107.08 132.008 107.056 132.224H93.0876C93.1116 133.064 93.2796 133.856 93.5916 134.6C93.9036 135.344 94.3356 135.992 94.8876 136.544C95.4396 137.096 96.0876 137.54 96.8316 137.876C97.5756 138.188 98.3796 138.344 99.2436 138.344C100.516 138.344 101.608 138.056 102.52 137.48C103.456 136.88 104.164 136.196 104.644 135.428L106.48 136.868C105.472 138.14 104.356 139.052 103.132 139.604C101.932 140.156 100.636 140.432 99.2436 140.432C97.9956 140.432 96.8316 140.216 95.7516 139.784C94.6956 139.328 93.7836 138.704 93.0156 137.912C92.2476 137.12 91.6356 136.184 91.1796 135.104C90.7476 134.024 90.5316 132.848 90.5316 131.576C90.5316 130.304 90.7476 129.128 91.1796 128.048C91.6116 126.968 92.2116 126.032 92.9796 125.24C93.7476 124.448 94.6476 123.836 95.6796 123.404C96.7116 122.948 97.8276 122.72 99.0276 122.72C100.348 122.72 101.512 122.948 102.52 123.404C103.528 123.836 104.368 124.436 105.04 125.204C105.712 125.948 106.216 126.824 106.552 127.832C106.912 128.84 107.092 129.92 107.092 131.072Z" fill="black"/>
<path d="M42.556 234H39.964V210.816H31.432V208.512H51.088V210.816H42.556V234ZM56.8334 234H54.3854V217.152H56.8334V234ZM57.3374 210.672C57.3374 211.176 57.1574 211.596 56.7974 211.932C56.4374 212.244 56.0414 212.4 55.6094 212.4C55.1774 212.4 54.7814 212.244 54.4214 211.932C54.0614 211.596 53.8814 211.176 53.8814 210.672C53.8814 210.168 54.0614 209.76 54.4214 209.448C54.7814 209.112 55.1774 208.944 55.6094 208.944C56.0414 208.944 56.4374 209.112 56.7974 209.448C57.1574 209.76 57.3374 210.168 57.3374 210.672ZM70.9454 219.204H66.1934V229.032C66.1934 229.656 66.2534 230.172 66.3734 230.58C66.4934 230.988 66.6614 231.312 66.8774 231.552C67.1174 231.768 67.3934 231.924 67.7054 232.02C68.0174 232.092 68.3534 232.128 68.7134 232.128C69.0494 232.128 69.3974 232.08 69.7574 231.984C70.1414 231.888 70.5014 231.756 70.8374 231.588L70.9454 233.712C70.5134 233.88 70.0574 234 69.5774 234.072C69.1214 234.168 68.6174 234.216 68.0654 234.216C67.6094 234.216 67.1294 234.156 66.6254 234.036C66.1214 233.916 65.6534 233.688 65.2214 233.352C64.7894 233.016 64.4294 232.56 64.1414 231.984C63.8774 231.408 63.7454 230.652 63.7454 229.716V219.204H60.2534V217.152H63.7454V212.4H66.1934V217.152H70.9454V219.204ZM77.2952 234H74.8472V206.784H77.2952V234ZM96.6975 224.28C96.6255 222.696 96.1095 221.388 95.1495 220.356C94.2135 219.3 92.8695 218.772 91.1175 218.772C90.3015 218.772 89.5455 218.928 88.8495 219.24C88.1535 219.528 87.5415 219.936 87.0135 220.464C86.4855 220.968 86.0655 221.556 85.7535 222.228C85.4415 222.876 85.2615 223.56 85.2135 224.28H96.6975ZM99.1815 225.072C99.1815 225.24 99.1815 225.42 99.1815 225.612C99.1815 225.804 99.1695 226.008 99.1455 226.224H85.1775C85.2015 227.064 85.3695 227.856 85.6815 228.6C85.9935 229.344 86.4255 229.992 86.9775 230.544C87.5295 231.096 88.1775 231.54 88.9215 231.876C89.6655 232.188 90.4695 232.344 91.3335 232.344C92.6055 232.344 93.6975 232.056 94.6095 231.48C95.5455 230.88 96.2535 230.196 96.7335 229.428L98.5695 230.868C97.5615 232.14 96.4455 233.052 95.2215 233.604C94.0215 234.156 92.7255 234.432 91.3335 234.432C90.0855 234.432 88.9215 234.216 87.8415 233.784C86.7855 233.328 85.8735 232.704 85.1055 231.912C84.3375 231.12 83.7255 230.184 83.2695 229.104C82.8375 228.024 82.6215 226.848 82.6215 225.576C82.6215 224.304 82.8375 223.128 83.2695 222.048C83.7015 220.968 84.3015 220.032 85.0695 219.24C85.8375 218.448 86.7375 217.836 87.7695 217.404C88.8015 216.948 89.9175 216.72 91.1175 216.72C92.4375 216.72 93.6015 216.948 94.6095 217.404C95.6175 217.836 96.4575 218.436 97.1295 219.204C97.8015 219.948 98.3055 220.824 98.6415 221.832C99.0015 222.84 99.1815 223.92 99.1815 225.072Z" fill="black"/>
<rect x="134" y="100" width="125" height="57" rx="28.5" fill="#F9AF20"/>
<path d="M163.55 133.74H163.61V116.76H166.58V138H162.83L151.61 120.66H151.55V138H148.58V116.76H152.45L163.55 133.74ZM186.004 130.86C186.004 131.96 185.804 132.97 185.404 133.89C185.024 134.81 184.484 135.61 183.784 136.29C183.104 136.95 182.294 137.47 181.354 137.85C180.414 138.21 179.404 138.39 178.324 138.39C177.244 138.39 176.234 138.21 175.294 137.85C174.354 137.47 173.544 136.95 172.864 136.29C172.184 135.61 171.644 134.81 171.244 133.89C170.864 132.97 170.674 131.96 170.674 130.86C170.674 129.76 170.864 128.76 171.244 127.86C171.644 126.94 172.184 126.15 172.864 125.49C173.544 124.83 174.354 124.32 175.294 123.96C176.234 123.58 177.244 123.39 178.324 123.39C179.404 123.39 180.414 123.58 181.354 123.96C182.294 124.32 183.104 124.83 183.784 125.49C184.484 126.15 185.024 126.94 185.404 127.86C185.804 128.76 186.004 129.76 186.004 130.86ZM183.064 130.86C183.064 130.18 182.954 129.53 182.734 128.91C182.534 128.29 182.234 127.75 181.834 127.29C181.434 126.81 180.934 126.43 180.334 126.15C179.754 125.87 179.084 125.73 178.324 125.73C177.564 125.73 176.884 125.87 176.284 126.15C175.704 126.43 175.214 126.81 174.814 127.29C174.414 127.75 174.104 128.29 173.884 128.91C173.684 129.53 173.584 130.18 173.584 130.86C173.584 131.54 173.684 132.19 173.884 132.81C174.104 133.43 174.414 133.98 174.814 134.46C175.214 134.94 175.704 135.32 176.284 135.6C176.884 135.88 177.564 136.02 178.324 136.02C179.084 136.02 179.754 135.88 180.334 135.6C180.934 135.32 181.434 134.94 181.834 134.46C182.234 133.98 182.534 133.43 182.734 132.81C182.954 132.19 183.064 131.54 183.064 130.86ZM196.874 126.09H193.094V133.5C193.094 134.36 193.254 134.98 193.574 135.36C193.894 135.72 194.404 135.9 195.104 135.9C195.364 135.9 195.644 135.87 195.944 135.81C196.244 135.75 196.514 135.66 196.754 135.54L196.844 137.85C196.504 137.97 196.124 138.06 195.704 138.12C195.304 138.2 194.884 138.24 194.444 138.24C193.104 138.24 192.074 137.87 191.354 137.13C190.654 136.39 190.304 135.28 190.304 133.8V126.09H187.574V123.78H190.304V119.7H193.094V123.78H196.874V126.09ZM202.637 138H199.817V123.78H202.637V138ZM203.117 118.65C203.117 119.17 202.927 119.6 202.547 119.94C202.187 120.28 201.747 120.45 201.227 120.45C200.707 120.45 200.267 120.28 199.907 119.94C199.547 119.58 199.367 119.15 199.367 118.65C199.367 118.13 199.547 117.7 199.907 117.36C200.267 117 200.707 116.82 201.227 116.82C201.747 116.82 202.187 117 202.547 117.36C202.927 117.7 203.117 118.13 203.117 118.65ZM221.951 130.86C221.951 131.96 221.751 132.97 221.351 133.89C220.971 134.81 220.431 135.61 219.731 136.29C219.051 136.95 218.241 137.47 217.301 137.85C216.361 138.21 215.351 138.39 214.271 138.39C213.191 138.39 212.181 138.21 211.241 137.85C210.301 137.47 209.491 136.95 208.811 136.29C208.131 135.61 207.591 134.81 207.191 133.89C206.811 132.97 206.621 131.96 206.621 130.86C206.621 129.76 206.811 128.76 207.191 127.86C207.591 126.94 208.131 126.15 208.811 125.49C209.491 124.83 210.301 124.32 211.241 123.96C212.181 123.58 213.191 123.39 214.271 123.39C215.351 123.39 216.361 123.58 217.301 123.96C218.241 124.32 219.051 124.83 219.731 125.49C220.431 126.15 220.971 126.94 221.351 127.86C221.751 128.76 221.951 129.76 221.951 130.86ZM219.011 130.86C219.011 130.18 218.901 129.53 218.681 128.91C218.481 128.29 218.181 127.75 217.781 127.29C217.381 126.81 216.881 126.43 216.281 126.15C215.701 125.87 215.031 125.73 214.271 125.73C213.511 125.73 212.831 125.87 212.231 126.15C211.651 126.43 211.161 126.81 210.761 127.29C210.361 127.75 210.051 128.29 209.831 128.91C209.631 129.53 209.531 130.18 209.531 130.86C209.531 131.54 209.631 132.19 209.831 132.81C210.051 133.43 210.361 133.98 210.761 134.46C211.161 134.94 211.651 135.32 212.231 135.6C212.831 135.88 213.511 136.02 214.271 136.02C215.031 136.02 215.701 135.88 216.281 135.6C216.881 135.32 217.381 134.94 217.781 134.46C218.181 133.98 218.481 133.43 218.681 132.81C218.901 132.19 219.011 131.54 219.011 130.86ZM228.412 123.78C228.452 124.14 228.482 124.55 228.502 125.01C228.522 125.45 228.532 125.82 228.532 126.12H228.622C228.802 125.74 229.042 125.39 229.342 125.07C229.662 124.73 230.022 124.44 230.422 124.2C230.822 123.94 231.262 123.74 231.742 123.6C232.222 123.46 232.722 123.39 233.242 123.39C234.162 123.39 234.952 123.55 235.612 123.87C236.272 124.17 236.822 124.58 237.262 125.1C237.702 125.62 238.022 126.23 238.222 126.93C238.442 127.63 238.552 128.38 238.552 129.18V138H235.732V130.11C235.732 129.53 235.682 128.98 235.582 128.46C235.502 127.94 235.342 127.48 235.102 127.08C234.862 126.68 234.532 126.36 234.112 126.12C233.692 125.88 233.152 125.76 232.492 125.76C231.372 125.76 230.452 126.19 229.732 127.05C229.032 127.89 228.682 129.02 228.682 130.44V138H225.862V126.84C225.862 126.46 225.852 125.97 225.832 125.37C225.812 124.77 225.782 124.24 225.742 123.78H228.412Z" fill="white"/>
<rect x="225" y="318" width="308" height="57" rx="28.5" fill="#2072F9"/>
<path d="M257.79 352.7C256.95 353.84 255.86 354.77 254.52 355.49C253.18 356.19 251.57 356.54 249.69 356.54C248.07 356.54 246.57 356.27 245.19 355.73C243.83 355.17 242.65 354.4 241.65 353.42C240.67 352.42 239.9 351.24 239.34 349.88C238.78 348.5 238.5 346.99 238.5 345.35C238.5 343.69 238.78 342.18 239.34 340.82C239.92 339.44 240.71 338.27 241.71 337.31C242.73 336.33 243.93 335.57 245.31 335.03C246.69 334.49 248.19 334.22 249.81 334.22C250.53 334.22 251.26 334.29 252 334.43C252.74 334.57 253.45 334.78 254.13 335.06C254.81 335.34 255.43 335.69 255.99 336.11C256.55 336.51 257.03 336.98 257.43 337.52L255.09 339.32C254.57 338.6 253.83 338.01 252.87 337.55C251.93 337.07 250.91 336.83 249.81 336.83C248.57 336.83 247.45 337.06 246.45 337.52C245.47 337.96 244.63 338.57 243.93 339.35C243.23 340.13 242.69 341.04 242.31 342.08C241.93 343.1 241.74 344.19 241.74 345.35C241.74 346.55 241.92 347.67 242.28 348.71C242.66 349.75 243.19 350.66 243.87 351.44C244.57 352.2 245.41 352.8 246.39 353.24C247.39 353.68 248.5 353.9 249.72 353.9C250.92 353.9 252.01 353.66 252.99 353.18C253.97 352.7 254.78 352 255.42 351.08L257.79 352.7ZM260.67 344.84C260.67 344.46 260.66 343.97 260.64 343.37C260.62 342.77 260.59 342.24 260.55 341.78H263.22C263.26 342.14 263.29 342.56 263.31 343.04C263.33 343.5 263.34 343.88 263.34 344.18H263.43C263.83 343.34 264.41 342.67 265.17 342.17C265.95 341.65 266.82 341.39 267.78 341.39C268.22 341.39 268.59 341.43 268.89 341.51L268.77 344.12C268.37 344.02 267.94 343.97 267.48 343.97C266.8 343.97 266.21 344.1 265.71 344.36C265.21 344.6 264.79 344.93 264.45 345.35C264.13 345.77 263.89 346.26 263.73 346.82C263.57 347.36 263.49 347.93 263.49 348.53V356H260.67V344.84ZM281.422 347.63C281.402 347.07 281.302 346.55 281.122 346.07C280.962 345.57 280.712 345.14 280.372 344.78C280.052 344.42 279.642 344.14 279.142 343.94C278.662 343.72 278.092 343.61 277.432 343.61C276.832 343.61 276.262 343.72 275.722 343.94C275.202 344.14 274.742 344.42 274.342 344.78C273.962 345.14 273.642 345.57 273.382 346.07C273.142 346.55 273.002 347.07 272.962 347.63H281.422ZM284.272 348.77C284.272 348.93 284.272 349.09 284.272 349.25C284.272 349.41 284.262 349.57 284.242 349.73H272.962C272.982 350.33 273.112 350.9 273.352 351.44C273.612 351.96 273.952 352.42 274.372 352.82C274.792 353.2 275.272 353.5 275.812 353.72C276.372 353.94 276.962 354.05 277.582 354.05C278.542 354.05 279.372 353.84 280.072 353.42C280.772 353 281.322 352.49 281.722 351.89L283.702 353.48C282.942 354.48 282.042 355.22 281.002 355.7C279.982 356.16 278.842 356.39 277.582 356.39C276.502 356.39 275.502 356.21 274.582 355.85C273.662 355.49 272.872 354.99 272.212 354.35C271.552 353.69 271.032 352.9 270.652 351.98C270.272 351.06 270.082 350.04 270.082 348.92C270.082 347.82 270.262 346.81 270.622 345.89C271.002 344.95 271.522 344.15 272.182 343.49C272.842 342.83 273.622 342.32 274.522 341.96C275.422 341.58 276.392 341.39 277.432 341.39C278.472 341.39 279.412 341.56 280.252 341.9C281.112 342.24 281.832 342.73 282.412 343.37C283.012 344.01 283.472 344.79 283.792 345.71C284.112 346.61 284.272 347.63 284.272 348.77ZM296.884 346.79C296.884 345.73 296.564 344.95 295.924 344.45C295.284 343.93 294.434 343.67 293.374 343.67C292.574 343.67 291.814 343.83 291.094 344.15C290.394 344.45 289.804 344.84 289.324 345.32L287.824 343.52C288.524 342.86 289.374 342.34 290.374 341.96C291.394 341.58 292.484 341.39 293.644 341.39C294.664 341.39 295.544 341.54 296.284 341.84C297.044 342.12 297.664 342.51 298.144 343.01C298.624 343.51 298.984 344.1 299.224 344.78C299.464 345.46 299.584 346.19 299.584 346.97V353.18C299.584 353.66 299.594 354.17 299.614 354.71C299.654 355.23 299.714 355.66 299.794 356H297.244C297.084 355.32 297.004 354.64 297.004 353.96H296.914C296.394 354.72 295.734 355.31 294.934 355.73C294.154 356.15 293.224 356.36 292.144 356.36C291.584 356.36 290.994 356.28 290.374 356.12C289.774 355.98 289.224 355.74 288.724 355.4C288.224 355.06 287.804 354.61 287.464 354.05C287.144 353.49 286.984 352.8 286.984 351.98C286.984 350.9 287.274 350.05 287.854 349.43C288.434 348.79 289.194 348.31 290.134 347.99C291.074 347.65 292.134 347.43 293.314 347.33C294.494 347.23 295.684 347.18 296.884 347.18V346.79ZM296.194 349.22C295.494 349.22 294.764 349.25 294.004 349.31C293.264 349.37 292.584 349.49 291.964 349.67C291.364 349.85 290.864 350.12 290.464 350.48C290.064 350.84 289.864 351.32 289.864 351.92C289.864 352.34 289.944 352.69 290.104 352.97C290.284 353.25 290.514 353.48 290.794 353.66C291.074 353.84 291.384 353.97 291.724 354.05C292.064 354.11 292.414 354.14 292.774 354.14C294.094 354.14 295.104 353.75 295.804 352.97C296.524 352.17 296.884 351.17 296.884 349.97V349.22H296.194ZM310.96 344.09H307.18V351.5C307.18 352.36 307.34 352.98 307.66 353.36C307.98 353.72 308.49 353.9 309.19 353.9C309.45 353.9 309.73 353.87 310.03 353.81C310.33 353.75 310.6 353.66 310.84 353.54L310.93 355.85C310.59 355.97 310.21 356.06 309.79 356.12C309.39 356.2 308.97 356.24 308.53 356.24C307.19 356.24 306.16 355.87 305.44 355.13C304.74 354.39 304.39 353.28 304.39 351.8V344.09H301.66V341.78H304.39V337.7H307.18V341.78H310.96V344.09ZM324.283 347.63C324.263 347.07 324.163 346.55 323.983 346.07C323.823 345.57 323.573 345.14 323.233 344.78C322.913 344.42 322.503 344.14 322.003 343.94C321.523 343.72 320.953 343.61 320.293 343.61C319.693 343.61 319.123 343.72 318.583 343.94C318.063 344.14 317.603 344.42 317.203 344.78C316.823 345.14 316.503 345.57 316.243 346.07C316.003 346.55 315.863 347.07 315.823 347.63H324.283ZM327.133 348.77C327.133 348.93 327.133 349.09 327.133 349.25C327.133 349.41 327.123 349.57 327.103 349.73H315.823C315.843 350.33 315.973 350.9 316.213 351.44C316.473 351.96 316.813 352.42 317.233 352.82C317.653 353.2 318.133 353.5 318.673 353.72C319.233 353.94 319.823 354.05 320.443 354.05C321.403 354.05 322.233 353.84 322.933 353.42C323.633 353 324.183 352.49 324.583 351.89L326.563 353.48C325.803 354.48 324.903 355.22 323.863 355.7C322.843 356.16 321.703 356.39 320.443 356.39C319.363 356.39 318.363 356.21 317.443 355.85C316.523 355.49 315.733 354.99 315.073 354.35C314.413 353.69 313.893 352.9 313.513 351.98C313.133 351.06 312.943 350.04 312.943 348.92C312.943 347.82 313.123 346.81 313.483 345.89C313.863 344.95 314.383 344.15 315.043 343.49C315.703 342.83 316.483 342.32 317.383 341.96C318.283 341.58 319.253 341.39 320.293 341.39C321.333 341.39 322.273 341.56 323.113 341.9C323.973 342.24 324.693 342.73 325.273 343.37C325.873 344.01 326.333 344.79 326.653 345.71C326.973 346.61 327.133 347.63 327.133 348.77ZM341.121 341.78C341.161 342.14 341.191 342.55 341.211 343.01C341.231 343.45 341.241 343.82 341.241 344.12H341.331C341.511 343.74 341.751 343.39 342.051 343.07C342.371 342.73 342.731 342.44 343.131 342.2C343.531 341.94 343.971 341.74 344.451 341.6C344.931 341.46 345.431 341.39 345.951 341.39C346.871 341.39 347.661 341.55 348.321 341.87C348.981 342.17 349.531 342.58 349.971 343.1C350.411 343.62 350.731 344.23 350.931 344.93C351.151 345.63 351.261 346.38 351.261 347.18V356H348.441V348.11C348.441 347.53 348.391 346.98 348.291 346.46C348.211 345.94 348.051 345.48 347.811 345.08C347.571 344.68 347.241 344.36 346.821 344.12C346.401 343.88 345.861 343.76 345.201 343.76C344.081 343.76 343.161 344.19 342.441 345.05C341.741 345.89 341.391 347.02 341.391 348.44V356H338.571V344.84C338.571 344.46 338.561 343.97 338.541 343.37C338.521 342.77 338.491 342.24 338.451 341.78H341.121ZM366.442 347.63C366.422 347.07 366.322 346.55 366.142 346.07C365.982 345.57 365.732 345.14 365.392 344.78C365.072 344.42 364.662 344.14 364.162 343.94C363.682 343.72 363.112 343.61 362.452 343.61C361.852 343.61 361.282 343.72 360.742 343.94C360.222 344.14 359.762 344.42 359.362 344.78C358.982 345.14 358.662 345.57 358.402 346.07C358.162 346.55 358.022 347.07 357.982 347.63H366.442ZM369.292 348.77C369.292 348.93 369.292 349.09 369.292 349.25C369.292 349.41 369.282 349.57 369.262 349.73H357.982C358.002 350.33 358.132 350.9 358.372 351.44C358.632 351.96 358.972 352.42 359.392 352.82C359.812 353.2 360.292 353.5 360.832 353.72C361.392 353.94 361.982 354.05 362.602 354.05C363.562 354.05 364.392 353.84 365.092 353.42C365.792 353 366.342 352.49 366.742 351.89L368.722 353.48C367.962 354.48 367.062 355.22 366.022 355.7C365.002 356.16 363.862 356.39 362.602 356.39C361.522 356.39 360.522 356.21 359.602 355.85C358.682 355.49 357.892 354.99 357.232 354.35C356.572 353.69 356.052 352.9 355.672 351.98C355.292 351.06 355.102 350.04 355.102 348.92C355.102 347.82 355.282 346.81 355.642 345.89C356.022 344.95 356.542 344.15 357.202 343.49C357.862 342.83 358.642 342.32 359.542 341.96C360.442 341.58 361.412 341.39 362.452 341.39C363.492 341.39 364.432 341.56 365.272 341.9C366.132 342.24 366.852 342.73 367.432 343.37C368.032 344.01 368.492 344.79 368.812 345.71C369.132 346.61 369.292 347.63 369.292 348.77ZM374.279 341.78L377.489 352.64H377.549L380.939 341.78H383.909L387.359 352.64H387.419L390.629 341.78H393.599L388.889 356H385.949L382.439 345.32H382.379L378.899 356H375.959L371.219 341.78H374.279ZM406.482 341.78C406.522 342.14 406.552 342.55 406.572 343.01C406.592 343.45 406.602 343.82 406.602 344.12H406.692C406.872 343.74 407.112 343.39 407.412 343.07C407.732 342.73 408.092 342.44 408.492 342.2C408.892 341.94 409.332 341.74 409.812 341.6C410.292 341.46 410.792 341.39 411.312 341.39C412.232 341.39 413.022 341.55 413.682 341.87C414.342 342.17 414.892 342.58 415.332 343.1C415.772 343.62 416.092 344.23 416.292 344.93C416.512 345.63 416.622 346.38 416.622 347.18V356H413.802V348.11C413.802 347.53 413.752 346.98 413.652 346.46C413.572 345.94 413.412 345.48 413.172 345.08C412.932 344.68 412.602 344.36 412.182 344.12C411.762 343.88 411.222 343.76 410.562 343.76C409.442 343.76 408.522 344.19 407.802 345.05C407.102 345.89 406.752 347.02 406.752 348.44V356H403.932V344.84C403.932 344.46 403.922 343.97 403.902 343.37C403.882 342.77 403.852 342.24 403.812 341.78H406.482ZM435.793 348.86C435.793 349.96 435.593 350.97 435.193 351.89C434.813 352.81 434.273 353.61 433.573 354.29C432.893 354.95 432.083 355.47 431.143 355.85C430.203 356.21 429.193 356.39 428.113 356.39C427.033 356.39 426.023 356.21 425.083 355.85C424.143 355.47 423.333 354.95 422.653 354.29C421.973 353.61 421.433 352.81 421.033 351.89C420.653 350.97 420.463 349.96 420.463 348.86C420.463 347.76 420.653 346.76 421.033 345.86C421.433 344.94 421.973 344.15 422.653 343.49C423.333 342.83 424.143 342.32 425.083 341.96C426.023 341.58 427.033 341.39 428.113 341.39C429.193 341.39 430.203 341.58 431.143 341.96C432.083 342.32 432.893 342.83 433.573 343.49C434.273 344.15 434.813 344.94 435.193 345.86C435.593 346.76 435.793 347.76 435.793 348.86ZM432.853 348.86C432.853 348.18 432.743 347.53 432.523 346.91C432.323 346.29 432.023 345.75 431.623 345.29C431.223 344.81 430.723 344.43 430.123 344.15C429.543 343.87 428.873 343.73 428.113 343.73C427.353 343.73 426.673 343.87 426.073 344.15C425.493 344.43 425.003 344.81 424.603 345.29C424.203 345.75 423.893 346.29 423.673 346.91C423.473 347.53 423.373 348.18 423.373 348.86C423.373 349.54 423.473 350.19 423.673 350.81C423.893 351.43 424.203 351.98 424.603 352.46C425.003 352.94 425.493 353.32 426.073 353.6C426.673 353.88 427.353 354.02 428.113 354.02C428.873 354.02 429.543 353.88 430.123 353.6C430.723 353.32 431.223 352.94 431.623 352.46C432.023 351.98 432.323 351.43 432.523 350.81C432.743 350.19 432.853 349.54 432.853 348.86ZM446.663 344.09H442.883V351.5C442.883 352.36 443.043 352.98 443.363 353.36C443.683 353.72 444.193 353.9 444.893 353.9C445.153 353.9 445.433 353.87 445.733 353.81C446.033 353.75 446.303 353.66 446.543 353.54L446.633 355.85C446.293 355.97 445.913 356.06 445.493 356.12C445.093 356.2 444.673 356.24 444.233 356.24C442.893 356.24 441.863 355.87 441.143 355.13C440.443 354.39 440.093 353.28 440.093 351.8V344.09H437.363V341.78H440.093V337.7H442.883V341.78H446.663V344.09ZM452.426 356H449.606V341.78H452.426V356ZM452.906 336.65C452.906 337.17 452.716 337.6 452.336 337.94C451.976 338.28 451.536 338.45 451.016 338.45C450.496 338.45 450.056 338.28 449.696 337.94C449.336 337.58 449.156 337.15 449.156 336.65C449.156 336.13 449.336 335.7 449.696 335.36C450.056 335 450.496 334.82 451.016 334.82C451.536 334.82 451.976 335 452.336 335.36C452.716 335.7 452.906 336.13 452.906 336.65ZM471.74 348.86C471.74 349.96 471.54 350.97 471.14 351.89C470.76 352.81 470.22 353.61 469.52 354.29C468.84 354.95 468.03 355.47 467.09 355.85C466.15 356.21 465.14 356.39 464.06 356.39C462.98 356.39 461.97 356.21 461.03 355.85C460.09 355.47 459.28 354.95 458.6 354.29C457.92 353.61 457.38 352.81 456.98 351.89C456.6 350.97 456.41 349.96 456.41 348.86C456.41 347.76 456.6 346.76 456.98 345.86C457.38 344.94 457.92 344.15 458.6 343.49C459.28 342.83 460.09 342.32 461.03 341.96C461.97 341.58 462.98 341.39 464.06 341.39C465.14 341.39 466.15 341.58 467.09 341.96C468.03 342.32 468.84 342.83 469.52 343.49C470.22 344.15 470.76 344.94 471.14 345.86C471.54 346.76 471.74 347.76 471.74 348.86ZM468.8 348.86C468.8 348.18 468.69 347.53 468.47 346.91C468.27 346.29 467.97 345.75 467.57 345.29C467.17 344.81 466.67 344.43 466.07 344.15C465.49 343.87 464.82 343.73 464.06 343.73C463.3 343.73 462.62 343.87 462.02 344.15C461.44 344.43 460.95 344.81 460.55 345.29C460.15 345.75 459.84 346.29 459.62 346.91C459.42 347.53 459.32 348.18 459.32 348.86C459.32 349.54 459.42 350.19 459.62 350.81C459.84 351.43 460.15 351.98 460.55 352.46C460.95 352.94 461.44 353.32 462.02 353.6C462.62 353.88 463.3 354.02 464.06 354.02C464.82 354.02 465.49 353.88 466.07 353.6C466.67 353.32 467.17 352.94 467.57 352.46C467.97 351.98 468.27 351.43 468.47 350.81C468.69 350.19 468.8 349.54 468.8 348.86ZM478.201 341.78C478.241 342.14 478.271 342.55 478.291 343.01C478.311 343.45 478.321 343.82 478.321 344.12H478.411C478.591 343.74 478.831 343.39 479.131 343.07C479.451 342.73 479.811 342.44 480.211 342.2C480.611 341.94 481.051 341.74 481.531 341.6C482.011 341.46 482.511 341.39 483.031 341.39C483.951 341.39 484.741 341.55 485.401 341.87C486.061 342.17 486.611 342.58 487.051 343.1C487.491 343.62 487.811 344.23 488.011 344.93C488.231 345.63 488.341 346.38 488.341 347.18V356H485.521V348.11C485.521 347.53 485.471 346.98 485.371 346.46C485.291 345.94 485.131 345.48 484.891 345.08C484.651 344.68 484.321 344.36 483.901 344.12C483.481 343.88 482.941 343.76 482.281 343.76C481.161 343.76 480.241 344.19 479.521 345.05C478.821 345.89 478.471 347.02 478.471 348.44V356H475.651V344.84C475.651 344.46 475.641 343.97 475.621 343.37C475.601 342.77 475.571 342.24 475.531 341.78H478.201Z" fill="white"/>
<path d="M154.19 227.68H154.25L159.23 210.76H162.5L167.45 227.68H167.51L172.19 210.76H175.34L169.1 232H166.01L160.85 214.93H160.79L155.63 232H152.54L146.3 210.76H149.51L154.19 227.68ZM191.394 224.86C191.394 225.96 191.194 226.97 190.794 227.89C190.414 228.81 189.874 229.61 189.174 230.29C188.494 230.95 187.684 231.47 186.744 231.85C185.804 232.21 184.794 232.39 183.714 232.39C182.634 232.39 181.624 232.21 180.684 231.85C179.744 231.47 178.934 230.95 178.254 230.29C177.574 229.61 177.034 228.81 176.634 227.89C176.254 226.97 176.064 225.96 176.064 224.86C176.064 223.76 176.254 222.76 176.634 221.86C177.034 220.94 177.574 220.15 178.254 219.49C178.934 218.83 179.744 218.32 180.684 217.96C181.624 217.58 182.634 217.39 183.714 217.39C184.794 217.39 185.804 217.58 186.744 217.96C187.684 218.32 188.494 218.83 189.174 219.49C189.874 220.15 190.414 220.94 190.794 221.86C191.194 222.76 191.394 223.76 191.394 224.86ZM188.454 224.86C188.454 224.18 188.344 223.53 188.124 222.91C187.924 222.29 187.624 221.75 187.224 221.29C186.824 220.81 186.324 220.43 185.724 220.15C185.144 219.87 184.474 219.73 183.714 219.73C182.954 219.73 182.274 219.87 181.674 220.15C181.094 220.43 180.604 220.81 180.204 221.29C179.804 221.75 179.494 222.29 179.274 222.91C179.074 223.53 178.974 224.18 178.974 224.86C178.974 225.54 179.074 226.19 179.274 226.81C179.494 227.43 179.804 227.98 180.204 228.46C180.604 228.94 181.094 229.32 181.674 229.6C182.274 229.88 182.954 230.02 183.714 230.02C184.474 230.02 185.144 229.88 185.724 229.6C186.324 229.32 186.824 228.94 187.224 228.46C187.624 227.98 187.924 227.43 188.124 226.81C188.344 226.19 188.454 225.54 188.454 224.86ZM205.325 232C205.285 231.64 205.255 231.24 205.235 230.8C205.215 230.34 205.205 229.96 205.205 229.66H205.145C204.785 230.42 204.175 231.07 203.315 231.61C202.475 232.13 201.535 232.39 200.495 232.39C199.575 232.39 198.775 232.24 198.095 231.94C197.435 231.64 196.885 231.23 196.445 230.71C196.025 230.17 195.705 229.55 195.485 228.85C195.285 228.15 195.185 227.4 195.185 226.6V217.78H198.005V225.64C198.005 226.22 198.045 226.78 198.125 227.32C198.225 227.84 198.395 228.3 198.635 228.7C198.875 229.1 199.205 229.42 199.625 229.66C200.045 229.9 200.585 230.02 201.245 230.02C202.385 230.02 203.305 229.6 204.005 228.76C204.705 227.9 205.055 226.76 205.055 225.34V217.78H207.875V228.94C207.875 229.32 207.885 229.81 207.905 230.41C207.925 231.01 207.955 231.54 207.995 232H205.325ZM215.646 232H212.826V209.32H215.646V232ZM231.899 229.75C231.359 230.61 230.619 231.27 229.679 231.73C228.759 232.17 227.789 232.39 226.769 232.39C225.669 232.39 224.679 232.2 223.799 231.82C222.919 231.42 222.169 230.88 221.549 230.2C220.929 229.52 220.449 228.72 220.109 227.8C219.769 226.88 219.599 225.9 219.599 224.86C219.599 223.82 219.769 222.85 220.109 221.95C220.449 221.03 220.929 220.23 221.549 219.55C222.189 218.87 222.949 218.34 223.829 217.96C224.709 217.58 225.679 217.39 226.739 217.39C227.899 217.39 228.909 217.64 229.769 218.14C230.629 218.62 231.309 219.21 231.809 219.91H231.869V209.32H234.689V232H231.959V229.75H231.899ZM222.539 224.86C222.539 225.52 222.639 226.16 222.839 226.78C223.039 227.4 223.339 227.95 223.739 228.43C224.139 228.91 224.629 229.3 225.209 229.6C225.789 229.88 226.469 230.02 227.249 230.02C227.969 230.02 228.619 229.88 229.199 229.6C229.799 229.32 230.309 228.95 230.729 228.49C231.149 228.01 231.469 227.46 231.689 226.84C231.929 226.22 232.049 225.57 232.049 224.89C232.049 224.21 231.929 223.56 231.689 222.94C231.469 222.32 231.149 221.77 230.729 221.29C230.309 220.81 229.799 220.43 229.199 220.15C228.619 219.87 227.969 219.73 227.249 219.73C226.469 219.73 225.789 219.87 225.209 220.15C224.629 220.43 224.139 220.81 223.739 221.29C223.339 221.77 223.039 222.32 222.839 222.94C222.639 223.56 222.539 224.2 222.539 224.86ZM242.152 217.78C242.192 218.14 242.222 218.55 242.242 219.01C242.262 219.45 242.272 219.82 242.272 220.12H242.362C242.542 219.74 242.782 219.39 243.082 219.07C243.402 218.73 243.762 218.44 244.162 218.2C244.562 217.94 245.002 217.74 245.482 217.6C245.962 217.46 246.462 217.39 246.982 217.39C247.902 217.39 248.692 217.55 249.352 217.87C250.012 218.17 250.562 218.58 251.002 219.1C251.442 219.62 251.762 220.23 251.962 220.93C252.182 221.63 252.292 222.38 252.292 223.18V232H249.472V224.11C249.472 223.53 249.422 222.98 249.322 222.46C249.242 221.94 249.082 221.48 248.842 221.08C248.602 220.68 248.272 220.36 247.852 220.12C247.432 219.88 246.892 219.76 246.232 219.76C245.112 219.76 244.192 220.19 243.472 221.05C242.772 221.89 242.422 223.02 242.422 224.44V232H239.602V220.84C239.602 220.46 239.592 219.97 239.572 219.37C239.552 218.77 239.522 218.24 239.482 217.78H242.152ZM258.263 218.26H255.893L257.963 210.76H260.753L258.263 218.26ZM271.406 220.09H267.626V227.5C267.626 228.36 267.786 228.98 268.106 229.36C268.426 229.72 268.936 229.9 269.636 229.9C269.896 229.9 270.176 229.87 270.476 229.81C270.776 229.75 271.046 229.66 271.286 229.54L271.376 231.85C271.036 231.97 270.656 232.06 270.236 232.12C269.836 232.2 269.416 232.24 268.976 232.24C267.636 232.24 266.606 231.87 265.886 231.13C265.186 230.39 264.836 229.28 264.836 227.8V220.09H262.106V217.78H264.836V213.7H267.626V217.78H271.406V220.09ZM284.669 232H281.849V217.78H284.669V232ZM285.149 212.65C285.149 213.17 284.959 213.6 284.579 213.94C284.219 214.28 283.779 214.45 283.259 214.45C282.739 214.45 282.299 214.28 281.939 213.94C281.579 213.58 281.399 213.15 281.399 212.65C281.399 212.13 281.579 211.7 281.939 211.36C282.299 211 282.739 210.82 283.259 210.82C283.779 210.82 284.219 211 284.579 211.36C284.959 211.7 285.149 212.13 285.149 212.65ZM296.542 220.09H292.762V227.5C292.762 228.36 292.922 228.98 293.242 229.36C293.562 229.72 294.072 229.9 294.772 229.9C295.032 229.9 295.312 229.87 295.612 229.81C295.912 229.75 296.182 229.66 296.422 229.54L296.512 231.85C296.172 231.97 295.792 232.06 295.372 232.12C294.972 232.2 294.552 232.24 294.112 232.24C292.772 232.24 291.742 231.87 291.022 231.13C290.322 230.39 289.972 229.28 289.972 227.8V220.09H287.242V217.78H289.972V213.7H292.762V217.78H296.542V220.09ZM309.745 229.75V232H307.015V209.32H309.835V219.91H309.925C310.405 219.21 311.075 218.62 311.935 218.14C312.795 217.64 313.815 217.39 314.995 217.39C316.055 217.39 317.015 217.58 317.875 217.96C318.755 218.34 319.505 218.87 320.125 219.55C320.765 220.23 321.255 221.03 321.595 221.95C321.935 222.85 322.105 223.82 322.105 224.86C322.105 225.9 321.935 226.88 321.595 227.8C321.255 228.72 320.775 229.52 320.155 230.2C319.535 230.88 318.785 231.42 317.905 231.82C317.025 232.2 316.035 232.39 314.935 232.39C313.915 232.39 312.945 232.17 312.025 231.73C311.105 231.27 310.365 230.61 309.805 229.75H309.745ZM319.195 224.86C319.195 224.2 319.095 223.56 318.895 222.94C318.695 222.32 318.395 221.77 317.995 221.29C317.595 220.81 317.095 220.43 316.495 220.15C315.915 219.87 315.235 219.73 314.455 219.73C313.735 219.73 313.075 219.87 312.475 220.15C311.895 220.43 311.395 220.81 310.975 221.29C310.555 221.77 310.225 222.32 309.985 222.94C309.765 223.56 309.655 224.21 309.655 224.89C309.655 225.57 309.765 226.22 309.985 226.84C310.225 227.46 310.555 228.01 310.975 228.49C311.395 228.95 311.895 229.32 312.475 229.6C313.075 229.88 313.735 230.02 314.455 230.02C315.235 230.02 315.915 229.88 316.495 229.6C317.095 229.3 317.595 228.91 317.995 228.43C318.395 227.95 318.695 227.4 318.895 226.78C319.095 226.16 319.195 225.52 319.195 224.86ZM336.438 223.63C336.418 223.07 336.318 222.55 336.138 222.07C335.978 221.57 335.728 221.14 335.388 220.78C335.068 220.42 334.658 220.14 334.158 219.94C333.678 219.72 333.108 219.61 332.448 219.61C331.848 219.61 331.278 219.72 330.738 219.94C330.218 220.14 329.758 220.42 329.358 220.78C328.978 221.14 328.658 221.57 328.398 222.07C328.158 222.55 328.018 223.07 327.978 223.63H336.438ZM339.288 224.77C339.288 224.93 339.288 225.09 339.288 225.25C339.288 225.41 339.278 225.57 339.258 225.73H327.978C327.998 226.33 328.128 226.9 328.368 227.44C328.628 227.96 328.968 228.42 329.388 228.82C329.808 229.2 330.288 229.5 330.828 229.72C331.388 229.94 331.978 230.05 332.598 230.05C333.558 230.05 334.388 229.84 335.088 229.42C335.788 229 336.338 228.49 336.738 227.89L338.718 229.48C337.958 230.48 337.058 231.22 336.018 231.7C334.998 232.16 333.858 232.39 332.598 232.39C331.518 232.39 330.518 232.21 329.598 231.85C328.678 231.49 327.888 230.99 327.228 230.35C326.568 229.69 326.048 228.9 325.668 227.98C325.288 227.06 325.098 226.04 325.098 224.92C325.098 223.82 325.278 222.81 325.638 221.89C326.018 220.95 326.538 220.15 327.198 219.49C327.858 218.83 328.638 218.32 329.538 217.96C330.438 217.58 331.408 217.39 332.448 217.39C333.488 217.39 334.428 217.56 335.268 217.9C336.128 218.24 336.848 218.73 337.428 219.37C338.028 220.01 338.488 220.79 338.808 221.71C339.128 222.61 339.288 223.63 339.288 224.77ZM353.515 229.75V232H350.785V209.32H353.605V219.91H353.695C354.175 219.21 354.845 218.62 355.705 218.14C356.565 217.64 357.585 217.39 358.765 217.39C359.825 217.39 360.785 217.58 361.645 217.96C362.525 218.34 363.275 218.87 363.895 219.55C364.535 220.23 365.025 221.03 365.365 221.95C365.705 222.85 365.875 223.82 365.875 224.86C365.875 225.9 365.705 226.88 365.365 227.8C365.025 228.72 364.545 229.52 363.925 230.2C363.305 230.88 362.555 231.42 361.675 231.82C360.795 232.2 359.805 232.39 358.705 232.39C357.685 232.39 356.715 232.17 355.795 231.73C354.875 231.27 354.135 230.61 353.575 229.75H353.515ZM362.965 224.86C362.965 224.2 362.865 223.56 362.665 222.94C362.465 222.32 362.165 221.77 361.765 221.29C361.365 220.81 360.865 220.43 360.265 220.15C359.685 219.87 359.005 219.73 358.225 219.73C357.505 219.73 356.845 219.87 356.245 220.15C355.665 220.43 355.165 220.81 354.745 221.29C354.325 221.77 353.995 222.32 353.755 222.94C353.535 223.56 353.425 224.21 353.425 224.89C353.425 225.57 353.535 226.22 353.755 226.84C353.995 227.46 354.325 228.01 354.745 228.49C355.165 228.95 355.665 229.32 356.245 229.6C356.845 229.88 357.505 230.02 358.225 230.02C359.005 230.02 359.685 229.88 360.265 229.6C360.865 229.3 361.365 228.91 361.765 228.43C362.165 227.95 362.465 227.4 362.665 226.78C362.865 226.16 362.965 225.52 362.965 224.86ZM380.207 223.63C380.187 223.07 380.087 222.55 379.907 222.07C379.747 221.57 379.497 221.14 379.157 220.78C378.837 220.42 378.427 220.14 377.927 219.94C377.447 219.72 376.877 219.61 376.217 219.61C375.617 219.61 375.047 219.72 374.507 219.94C373.987 220.14 373.527 220.42 373.127 220.78C372.747 221.14 372.427 221.57 372.167 222.07C371.927 222.55 371.787 223.07 371.747 223.63H380.207ZM383.057 224.77C383.057 224.93 383.057 225.09 383.057 225.25C383.057 225.41 383.047 225.57 383.027 225.73H371.747C371.767 226.33 371.897 226.9 372.137 227.44C372.397 227.96 372.737 228.42 373.157 228.82C373.577 229.2 374.057 229.5 374.597 229.72C375.157 229.94 375.747 230.05 376.367 230.05C377.327 230.05 378.157 229.84 378.857 229.42C379.557 229 380.107 228.49 380.507 227.89L382.487 229.48C381.727 230.48 380.827 231.22 379.787 231.7C378.767 232.16 377.627 232.39 376.367 232.39C375.287 232.39 374.287 232.21 373.367 231.85C372.447 231.49 371.657 230.99 370.997 230.35C370.337 229.69 369.817 228.9 369.437 227.98C369.057 227.06 368.867 226.04 368.867 224.92C368.867 223.82 369.047 222.81 369.407 221.89C369.787 220.95 370.307 220.15 370.967 219.49C371.627 218.83 372.407 218.32 373.307 217.96C374.207 217.58 375.177 217.39 376.217 217.39C377.257 217.39 378.197 217.56 379.037 217.9C379.897 218.24 380.617 218.73 381.197 219.37C381.797 220.01 382.257 220.79 382.577 221.71C382.897 222.61 383.057 223.63 383.057 224.77ZM393.954 220.09H390.174V227.5C390.174 228.36 390.334 228.98 390.654 229.36C390.974 229.72 391.484 229.9 392.184 229.9C392.444 229.9 392.724 229.87 393.024 229.81C393.324 229.75 393.594 229.66 393.834 229.54L393.924 231.85C393.584 231.97 393.204 232.06 392.784 232.12C392.384 232.2 391.964 232.24 391.524 232.24C390.184 232.24 389.154 231.87 388.434 231.13C387.734 230.39 387.384 229.28 387.384 227.8V220.09H384.654V217.78H387.384V213.7H390.174V217.78H393.954V220.09ZM403.388 220.09H399.608V227.5C399.608 228.36 399.768 228.98 400.088 229.36C400.408 229.72 400.918 229.9 401.618 229.9C401.878 229.9 402.158 229.87 402.458 229.81C402.758 229.75 403.028 229.66 403.268 229.54L403.358 231.85C403.018 231.97 402.638 232.06 402.218 232.12C401.818 232.2 401.398 232.24 400.958 232.24C399.618 232.24 398.588 231.87 397.868 231.13C397.168 230.39 396.818 229.28 396.818 227.8V220.09H394.088V217.78H396.818V213.7H399.608V217.78H403.388V220.09ZM416.711 223.63C416.691 223.07 416.591 222.55 416.411 222.07C416.251 221.57 416.001 221.14 415.661 220.78C415.341 220.42 414.931 220.14 414.431 219.94C413.951 219.72 413.381 219.61 412.721 219.61C412.121 219.61 411.551 219.72 411.011 219.94C410.491 220.14 410.031 220.42 409.631 220.78C409.251 221.14 408.931 221.57 408.671 222.07C408.431 222.55 408.291 223.07 408.251 223.63H416.711ZM419.561 224.77C419.561 224.93 419.561 225.09 419.561 225.25C419.561 225.41 419.551 225.57 419.531 225.73H408.251C408.271 226.33 408.401 226.9 408.641 227.44C408.901 227.96 409.241 228.42 409.661 228.82C410.081 229.2 410.561 229.5 411.101 229.72C411.661 229.94 412.251 230.05 412.871 230.05C413.831 230.05 414.661 229.84 415.361 229.42C416.061 229 416.611 228.49 417.011 227.89L418.991 229.48C418.231 230.48 417.331 231.22 416.291 231.7C415.271 232.16 414.131 232.39 412.871 232.39C411.791 232.39 410.791 232.21 409.871 231.85C408.951 231.49 408.161 230.99 407.501 230.35C406.841 229.69 406.321 228.9 405.941 227.98C405.561 227.06 405.371 226.04 405.371 224.92C405.371 223.82 405.551 222.81 405.911 221.89C406.291 220.95 406.811 220.15 407.471 219.49C408.131 218.83 408.911 218.32 409.811 217.96C410.711 217.58 411.681 217.39 412.721 217.39C413.761 217.39 414.701 217.56 415.541 217.9C416.401 218.24 417.121 218.73 417.701 219.37C418.301 220.01 418.761 220.79 419.081 221.71C419.401 222.61 419.561 223.63 419.561 224.77ZM423.498 220.84C423.498 220.46 423.488 219.97 423.468 219.37C423.448 218.77 423.418 218.24 423.378 217.78H426.048C426.088 218.14 426.118 218.56 426.138 219.04C426.158 219.5 426.168 219.88 426.168 220.18H426.258C426.658 219.34 427.238 218.67 427.998 218.17C428.778 217.65 429.648 217.39 430.608 217.39C431.048 217.39 431.418 217.43 431.718 217.51L431.598 220.12C431.198 220.02 430.768 219.97 430.308 219.97C429.628 219.97 429.038 220.1 428.538 220.36C428.038 220.6 427.618 220.93 427.278 221.35C426.958 221.77 426.718 222.26 426.558 222.82C426.398 223.36 426.318 223.93 426.318 224.53V232H423.498V220.84ZM444.718 232H441.898V217.78H444.718V232ZM445.198 212.65C445.198 213.17 445.008 213.6 444.628 213.94C444.268 214.28 443.828 214.45 443.308 214.45C442.788 214.45 442.348 214.28 441.988 213.94C441.628 213.58 441.448 213.15 441.448 212.65C441.448 212.13 441.628 211.7 441.988 211.36C442.348 211 442.788 210.82 443.308 210.82C443.828 210.82 444.268 211 444.628 211.36C445.008 211.7 445.198 212.13 445.198 212.65ZM456.321 220.09H453.021V232H450.201V220.09H447.381V217.78H450.201V214.81C450.201 213.97 450.291 213.2 450.471 212.5C450.671 211.78 450.981 211.16 451.401 210.64C451.841 210.12 452.391 209.71 453.051 209.41C453.731 209.11 454.551 208.96 455.511 208.96C456.191 208.96 456.781 209.03 457.281 209.17L456.951 211.6C456.731 211.54 456.511 211.49 456.291 211.45C456.071 211.41 455.821 211.39 455.541 211.39C455.001 211.39 454.561 211.49 454.221 211.69C453.901 211.87 453.651 212.12 453.471 212.44C453.291 212.76 453.171 213.13 453.111 213.55C453.051 213.95 453.021 214.37 453.021 214.81V217.78H456.321V220.09Z" fill="black"/>
<rect x="127.5" y="188.5" width="587" height="67" rx="8.5" stroke="#C1C1C1"/>
<path d="M559.38 388.285L546.842 375.747L555.787 370.58C556.486 370.177 556.893 369.409 556.834 368.604C556.776 367.799 556.263 367.098 555.514 366.799L515.628 350.889C514.846 350.577 513.954 350.761 513.358 351.356C512.763 351.951 512.579 352.844 512.891 353.626L528.799 393.516C529.098 394.266 529.799 394.779 530.604 394.837C531.409 394.895 532.177 394.489 532.58 393.789L537.746 384.845L550.283 397.383C550.678 397.778 551.214 398 551.773 398C552.331 398 552.867 397.778 553.262 397.383L559.38 391.264C560.203 390.441 560.203 389.107 559.38 388.285Z" fill="black"/>
<path d="M506.251 341.269C505.428 340.446 504.094 340.446 503.271 341.269C502.448 342.091 502.448 343.425 503.271 344.248L507.952 348.93C508.364 349.341 508.903 349.547 509.442 349.547C509.981 349.547 510.52 349.341 510.932 348.93C511.754 348.107 511.754 346.773 510.932 345.95L506.251 341.269Z" fill="black"/>
<path d="M507.837 355.833C507.837 354.67 506.894 353.727 505.73 353.727H499.11C497.946 353.727 497.003 354.67 497.003 355.833C497.003 356.997 497.946 357.94 499.11 357.94H505.73C506.894 357.94 507.837 356.997 507.837 355.833Z" fill="black"/>
<path d="M506.983 362.336L502.301 367.018C501.478 367.84 501.478 369.174 502.301 369.997C502.713 370.408 503.252 370.614 503.791 370.614C504.33 370.614 504.869 370.408 505.28 369.997L509.962 365.316C510.785 364.493 510.785 363.159 509.962 362.336C509.14 361.514 507.806 361.513 506.983 362.336Z" fill="black"/>
<path d="M517.835 345.835C518.999 345.835 519.942 344.891 519.942 343.728V337.107C519.942 335.943 518.999 335 517.835 335C516.672 335 515.728 335.943 515.728 337.107V343.728C515.728 344.891 516.672 345.835 517.835 345.835Z" fill="black"/>
<path d="M525.826 348.577C526.366 348.577 526.905 348.371 527.316 347.96L531.997 343.279C532.82 342.456 532.82 341.122 531.997 340.299C531.174 339.477 529.84 339.477 529.017 340.299L524.336 344.981C523.514 345.803 523.514 347.137 524.336 347.96C524.748 348.371 525.287 348.577 525.826 348.577Z" fill="black"/>
</g>
<defs>
<clipPath id="clip0">
<rect width="673" height="398" fill="white"/>
</clipPath>
</defs>
</svg>
