<svg width="673" height="496" viewBox="0 0 673 496" fill="none" xmlns="http://www.w3.org/2000/svg">
<g clip-path="url(#clip0)">
<rect width="673" height="496" fill="white"/>
<path d="M212 376.625C210.93 376.625 210.062 375.757 210.062 374.688C210.062 371.484 207.456 368.875 204.25 368.875H198.438C197.368 368.875 196.5 368.007 196.5 366.938C196.5 365.868 197.368 365 198.438 365H204.25C209.592 365 213.938 369.348 213.938 374.688C213.938 375.757 213.07 376.625 212 376.625Z" fill="black"/>
<path d="M212 376.625C210.93 376.625 210.062 375.757 210.062 374.688C210.062 369.348 214.408 365 219.75 365H225.562C226.632 365 227.5 365.868 227.5 366.938C227.5 368.007 226.632 368.875 225.562 368.875H219.75C216.544 368.875 213.938 371.484 213.938 374.688C213.938 375.757 213.07 376.625 212 376.625Z" fill="black"/>
<path d="M204.25 427H198.438C197.368 427 196.5 426.132 196.5 425.062C196.5 423.993 197.368 423.125 198.438 423.125H204.25C207.456 423.125 210.062 420.516 210.062 417.312C210.062 416.243 210.93 415.375 212 415.375C213.07 415.375 213.938 416.243 213.938 417.312C213.938 422.652 209.592 427 204.25 427Z" fill="black"/>
<path d="M225.562 427H219.75C214.408 427 210.062 422.652 210.062 417.312C210.062 416.243 210.93 415.375 212 415.375C213.07 415.375 213.938 416.243 213.938 417.312C213.938 420.516 216.544 423.125 219.75 423.125H225.562C226.632 423.125 227.5 423.993 227.5 425.062C227.5 426.132 226.632 427 225.562 427Z" fill="black"/>
<path d="M212 419.25C210.93 419.25 210.062 418.382 210.062 417.312V374.688C210.062 373.618 210.93 372.75 212 372.75C213.07 372.75 213.938 373.618 213.938 374.688V417.312C213.938 418.382 213.07 419.25 212 419.25Z" fill="black"/>
<path d="M28.744 29.016H36.76L52.552 54.456H52.648V29.016H58.696V63H51.016L34.888 36.744H34.792V63H28.744V29.016ZM82.1331 49.176C82.1331 48.44 82.0211 47.736 81.7971 47.064C81.6051 46.392 81.2851 45.8 80.8371 45.288C80.3891 44.776 79.8131 44.376 79.1091 44.088C78.4371 43.768 77.6371 43.608 76.7091 43.608C74.9811 43.608 73.5091 44.136 72.2931 45.192C71.1091 46.216 70.4531 47.544 70.3251 49.176H82.1331ZM87.8931 51.768C87.8931 52.024 87.8931 52.28 87.8931 52.536C87.8931 52.792 87.8771 53.048 87.8451 53.304H70.3251C70.3891 54.136 70.5971 54.904 70.9491 55.608C71.3331 56.28 71.8291 56.872 72.4371 57.384C73.0451 57.864 73.7331 58.248 74.5011 58.536C75.2691 58.824 76.0691 58.968 76.9011 58.968C78.3411 58.968 79.5571 58.712 80.5491 58.2C81.5411 57.656 82.3571 56.92 82.9971 55.992L86.8371 59.064C84.5651 62.136 81.2691 63.672 76.9491 63.672C75.1571 63.672 73.5091 63.4 72.0051 62.856C70.5011 62.28 69.1891 61.48 68.0691 60.456C66.9811 59.432 66.1171 58.184 65.4771 56.712C64.8691 55.208 64.5651 53.512 64.5651 51.624C64.5651 49.768 64.8691 48.088 65.4771 46.584C66.1171 45.048 66.9811 43.752 68.0691 42.696C69.1571 41.608 70.4371 40.776 71.9091 40.2C73.4131 39.592 75.0291 39.288 76.7571 39.288C78.3571 39.288 79.8291 39.56 81.1731 40.104C82.5491 40.616 83.7331 41.4 84.7251 42.456C85.7171 43.48 86.4851 44.776 87.0291 46.344C87.6051 47.88 87.8931 49.688 87.8931 51.768ZM90.2076 39.96H96.4476L101.248 56.472H101.344L106.288 39.96H112.432L117.424 56.472H117.52L122.416 39.96H128.416L120.448 63H114.592L109.36 46.872H109.264L104.08 63H98.2236L90.2076 39.96ZM144.338 29.016H155.426C157.378 29.016 159.138 29.192 160.706 29.544C162.274 29.896 163.618 30.472 164.738 31.272C165.858 32.072 166.722 33.096 167.33 34.344C167.938 35.592 168.242 37.096 168.242 38.856C168.242 40.744 167.89 42.328 167.186 43.608C166.482 44.888 165.522 45.928 164.306 46.728C163.122 47.496 161.73 48.056 160.13 48.408C158.53 48.76 156.834 48.936 155.042 48.936H150.386V63H144.338V29.016ZM154.61 43.848C155.602 43.848 156.546 43.784 157.442 43.656C158.338 43.496 159.138 43.24 159.842 42.888C160.546 42.504 161.106 41.992 161.522 41.352C161.938 40.712 162.146 39.88 162.146 38.856C162.146 37.864 161.938 37.064 161.522 36.456C161.106 35.816 160.546 35.32 159.842 34.968C159.17 34.616 158.386 34.392 157.49 34.296C156.626 34.168 155.73 34.104 154.802 34.104H150.386V43.848H154.61ZM168.862 51.384C168.862 49.56 169.182 47.912 169.822 46.44C170.494 44.936 171.39 43.656 172.51 42.6C173.63 41.544 174.958 40.728 176.494 40.152C178.03 39.576 179.662 39.288 181.39 39.288C183.118 39.288 184.75 39.576 186.286 40.152C187.822 40.728 189.15 41.544 190.27 42.6C191.39 43.656 192.27 44.936 192.91 46.44C193.582 47.912 193.918 49.56 193.918 51.384C193.918 53.208 193.582 54.872 192.91 56.376C192.27 57.88 191.39 59.176 190.27 60.264C189.15 61.32 187.822 62.152 186.286 62.76C184.75 63.368 183.118 63.672 181.39 63.672C179.662 63.672 178.03 63.368 176.494 62.76C174.958 62.152 173.63 61.32 172.51 60.264C171.39 59.176 170.494 57.88 169.822 56.376C169.182 54.872 168.862 53.208 168.862 51.384ZM174.718 51.384C174.718 52.28 174.846 53.176 175.102 54.072C175.39 54.968 175.806 55.768 176.35 56.472C176.894 57.176 177.582 57.752 178.414 58.2C179.246 58.648 180.238 58.872 181.39 58.872C182.542 58.872 183.534 58.648 184.366 58.2C185.198 57.752 185.886 57.176 186.43 56.472C186.974 55.768 187.374 54.968 187.63 54.072C187.918 53.176 188.062 52.28 188.062 51.384C188.062 50.488 187.918 49.608 187.63 48.744C187.374 47.848 186.974 47.048 186.43 46.344C185.886 45.64 185.198 45.08 184.366 44.664C183.534 44.216 182.542 43.992 181.39 43.992C180.238 43.992 179.246 44.216 178.414 44.664C177.582 45.08 176.894 45.64 176.35 46.344C175.806 47.048 175.39 47.848 175.102 48.744C174.846 49.608 174.718 50.488 174.718 51.384ZM212.127 46.104C211.615 45.432 210.911 44.856 210.015 44.376C209.119 43.864 208.143 43.608 207.087 43.608C206.159 43.608 205.311 43.8 204.543 44.184C203.775 44.568 203.391 45.208 203.391 46.104C203.391 47 203.807 47.64 204.639 48.024C205.503 48.376 206.751 48.744 208.383 49.128C209.247 49.32 210.111 49.576 210.975 49.896C211.871 50.216 212.671 50.648 213.375 51.192C214.111 51.704 214.703 52.36 215.151 53.16C215.599 53.928 215.823 54.872 215.823 55.992C215.823 57.4 215.551 58.6 215.007 59.592C214.495 60.552 213.791 61.336 212.895 61.944C212.031 62.552 211.007 62.984 209.823 63.24C208.671 63.528 207.471 63.672 206.223 63.672C204.431 63.672 202.687 63.352 200.991 62.712C199.295 62.04 197.887 61.096 196.767 59.88L200.559 56.328C201.199 57.16 202.031 57.848 203.055 58.392C204.079 58.936 205.215 59.208 206.463 59.208C206.879 59.208 207.295 59.16 207.711 59.064C208.159 58.968 208.559 58.824 208.911 58.632C209.295 58.408 209.599 58.12 209.823 57.768C210.047 57.416 210.159 56.984 210.159 56.472C210.159 55.512 209.711 54.824 208.815 54.408C207.951 53.992 206.639 53.576 204.879 53.16C204.015 52.968 203.167 52.728 202.335 52.44C201.535 52.12 200.815 51.72 200.175 51.24C199.535 50.728 199.023 50.104 198.639 49.368C198.255 48.632 198.063 47.72 198.063 46.632C198.063 45.352 198.319 44.248 198.831 43.32C199.375 42.392 200.079 41.64 200.943 41.064C201.807 40.456 202.783 40.008 203.871 39.72C204.959 39.432 206.079 39.288 207.231 39.288C208.895 39.288 210.511 39.576 212.079 40.152C213.679 40.728 214.943 41.608 215.871 42.792L212.127 46.104ZM217.519 44.568V39.96H221.551V33.288H227.215V39.96H232.975V44.568H227.215V55.272C227.215 56.296 227.391 57.144 227.743 57.816C228.127 58.488 228.959 58.824 230.239 58.824C230.623 58.824 231.039 58.792 231.487 58.728C231.935 58.632 232.335 58.504 232.687 58.344L232.879 62.856C232.367 63.048 231.759 63.192 231.055 63.288C230.351 63.416 229.679 63.48 229.039 63.48C227.503 63.48 226.255 63.272 225.295 62.856C224.335 62.408 223.567 61.816 222.991 61.08C222.447 60.312 222.063 59.448 221.839 58.488C221.647 57.496 221.551 56.44 221.551 55.32V44.568H217.519Z" fill="black"/>
<path d="M36.556 141H33.964V117.816H25.432V115.512H45.088V117.816H36.556V141ZM51.1219 138.372H51.1939L56.4139 124.152H59.0779L50.6899 145.356C50.1859 146.652 49.5379 147.684 48.7459 148.452C47.9779 149.244 46.8619 149.64 45.3979 149.64C44.6539 149.64 43.9219 149.568 43.2019 149.424L43.4539 147.192C44.0299 147.384 44.6299 147.48 45.2539 147.48C46.0939 147.48 46.7539 147.216 47.2339 146.688C47.7139 146.184 48.1339 145.452 48.4939 144.492L49.8619 140.964L42.6619 124.152H45.3979L51.1219 138.372ZM65.3521 149.64H62.9041V124.152H65.3521V127.068H65.4601C66.1561 125.964 67.0801 125.136 68.2321 124.584C69.4081 124.008 70.5961 123.72 71.7961 123.72C73.1161 123.72 74.3041 123.948 75.3601 124.404C76.4401 124.86 77.3521 125.484 78.0961 126.276C78.8641 127.068 79.4521 128.004 79.8601 129.084C80.2921 130.164 80.5081 131.328 80.5081 132.576C80.5081 133.824 80.2921 134.988 79.8601 136.068C79.4521 137.148 78.8641 138.084 78.0961 138.876C77.3521 139.668 76.4401 140.292 75.3601 140.748C74.3041 141.204 73.1161 141.432 71.7961 141.432C70.5961 141.432 69.4081 141.156 68.2321 140.604C67.0801 140.028 66.1561 139.212 65.4601 138.156H65.3521V149.64ZM77.9161 132.576C77.9161 131.64 77.7721 130.764 77.4841 129.948C77.1961 129.108 76.7761 128.388 76.2241 127.788C75.6961 127.164 75.0361 126.672 74.2441 126.312C73.4521 125.952 72.5521 125.772 71.5441 125.772C70.6081 125.772 69.7441 125.952 68.9521 126.312C68.1601 126.648 67.4761 127.128 66.9001 127.752C66.3241 128.352 65.8681 129.072 65.5321 129.912C65.2201 130.728 65.0641 131.616 65.0641 132.576C65.0641 133.536 65.2201 134.436 65.5321 135.276C65.8681 136.092 66.3241 136.8 66.9001 137.4C67.4761 138 68.1601 138.48 68.9521 138.84C69.7441 139.176 70.6081 139.344 71.5441 139.344C72.5521 139.344 73.4521 139.176 74.2441 138.84C75.0361 138.48 75.6961 138 76.2241 137.4C76.7761 136.776 77.1961 136.056 77.4841 135.24C77.7721 134.4 77.9161 133.512 77.9161 132.576ZM98.6076 131.28C98.5356 129.696 98.0196 128.388 97.0596 127.356C96.1236 126.3 94.7796 125.772 93.0276 125.772C92.2116 125.772 91.4556 125.928 90.7596 126.24C90.0636 126.528 89.4516 126.936 88.9236 127.464C88.3956 127.968 87.9756 128.556 87.6636 129.228C87.3516 129.876 87.1716 130.56 87.1236 131.28H98.6076ZM101.092 132.072C101.092 132.24 101.092 132.42 101.092 132.612C101.092 132.804 101.08 133.008 101.056 133.224H87.0876C87.1116 134.064 87.2796 134.856 87.5916 135.6C87.9036 136.344 88.3356 136.992 88.8876 137.544C89.4396 138.096 90.0876 138.54 90.8316 138.876C91.5756 139.188 92.3796 139.344 93.2436 139.344C94.5156 139.344 95.6076 139.056 96.5196 138.48C97.4556 137.88 98.1636 137.196 98.6436 136.428L100.48 137.868C99.4716 139.14 98.3556 140.052 97.1316 140.604C95.9316 141.156 94.6356 141.432 93.2436 141.432C91.9956 141.432 90.8316 141.216 89.7516 140.784C88.6956 140.328 87.7836 139.704 87.0156 138.912C86.2476 138.12 85.6356 137.184 85.1796 136.104C84.7476 135.024 84.5316 133.848 84.5316 132.576C84.5316 131.304 84.7476 130.128 85.1796 129.048C85.6116 127.968 86.2116 127.032 86.9796 126.24C87.7476 125.448 88.6476 124.836 89.6796 124.404C90.7116 123.948 91.8276 123.72 93.0276 123.72C94.3476 123.72 95.5116 123.948 96.5196 124.404C97.5276 124.836 98.3676 125.436 99.0396 126.204C99.7116 126.948 100.216 127.824 100.552 128.832C100.912 129.84 101.092 130.92 101.092 132.072Z" fill="black"/>
<path d="M36.556 235H33.964V211.816H25.432V209.512H45.088V211.816H36.556V235ZM50.8334 235H48.3854V218.152H50.8334V235ZM51.3374 211.672C51.3374 212.176 51.1574 212.596 50.7974 212.932C50.4374 213.244 50.0414 213.4 49.6094 213.4C49.1774 213.4 48.7814 213.244 48.4214 212.932C48.0614 212.596 47.8814 212.176 47.8814 211.672C47.8814 211.168 48.0614 210.76 48.4214 210.448C48.7814 210.112 49.1774 209.944 49.6094 209.944C50.0414 209.944 50.4374 210.112 50.7974 210.448C51.1574 210.76 51.3374 211.168 51.3374 211.672ZM64.9454 220.204H60.1934V230.032C60.1934 230.656 60.2534 231.172 60.3734 231.58C60.4934 231.988 60.6614 232.312 60.8774 232.552C61.1174 232.768 61.3934 232.924 61.7054 233.02C62.0174 233.092 62.3534 233.128 62.7134 233.128C63.0494 233.128 63.3974 233.08 63.7574 232.984C64.1414 232.888 64.5014 232.756 64.8374 232.588L64.9454 234.712C64.5134 234.88 64.0574 235 63.5774 235.072C63.1214 235.168 62.6174 235.216 62.0654 235.216C61.6094 235.216 61.1294 235.156 60.6254 235.036C60.1214 234.916 59.6534 234.688 59.2214 234.352C58.7894 234.016 58.4294 233.56 58.1414 232.984C57.8774 232.408 57.7454 231.652 57.7454 230.716V220.204H54.2534V218.152H57.7454V213.4H60.1934V218.152H64.9454V220.204ZM71.2952 235H68.8472V207.784H71.2952V235ZM90.6975 225.28C90.6255 223.696 90.1095 222.388 89.1495 221.356C88.2135 220.3 86.8695 219.772 85.1175 219.772C84.3015 219.772 83.5455 219.928 82.8495 220.24C82.1535 220.528 81.5415 220.936 81.0135 221.464C80.4855 221.968 80.0655 222.556 79.7535 223.228C79.4415 223.876 79.2615 224.56 79.2135 225.28H90.6975ZM93.1815 226.072C93.1815 226.24 93.1815 226.42 93.1815 226.612C93.1815 226.804 93.1695 227.008 93.1455 227.224H79.1775C79.2015 228.064 79.3695 228.856 79.6815 229.6C79.9935 230.344 80.4255 230.992 80.9775 231.544C81.5295 232.096 82.1775 232.54 82.9215 232.876C83.6655 233.188 84.4695 233.344 85.3335 233.344C86.6055 233.344 87.6975 233.056 88.6095 232.48C89.5455 231.88 90.2535 231.196 90.7335 230.428L92.5695 231.868C91.5615 233.14 90.4455 234.052 89.2215 234.604C88.0215 235.156 86.7255 235.432 85.3335 235.432C84.0855 235.432 82.9215 235.216 81.8415 234.784C80.7855 234.328 79.8735 233.704 79.1055 232.912C78.3375 232.12 77.7255 231.184 77.2695 230.104C76.8375 229.024 76.6215 227.848 76.6215 226.576C76.6215 225.304 76.8375 224.128 77.2695 223.048C77.7015 221.968 78.3015 221.032 79.0695 220.24C79.8375 219.448 80.7375 218.836 81.7695 218.404C82.8015 217.948 83.9175 217.72 85.1175 217.72C86.4375 217.72 87.6015 217.948 88.6095 218.404C89.6175 218.836 90.4575 219.436 91.1295 220.204C91.8015 220.948 92.3055 221.824 92.6415 222.832C93.0015 223.84 93.1815 224.92 93.1815 226.072Z" fill="black"/>
<path d="M49.84 324.896C49.408 325.544 48.88 326.156 48.256 326.732C47.656 327.308 46.948 327.812 46.132 328.244C45.34 328.676 44.452 329.012 43.468 329.252C42.508 329.516 41.452 329.648 40.3 329.648C38.38 329.648 36.604 329.312 34.972 328.64C33.34 327.968 31.936 327.044 30.76 325.868C29.584 324.668 28.66 323.252 27.988 321.62C27.34 319.988 27.016 318.2 27.016 316.256C27.016 314.312 27.352 312.524 28.024 310.892C28.696 309.26 29.62 307.856 30.796 306.68C31.996 305.48 33.4 304.544 35.008 303.872C36.64 303.2 38.404 302.864 40.3 302.864C41.236 302.864 42.148 302.96 43.036 303.152C43.948 303.344 44.8 303.62 45.592 303.98C46.384 304.316 47.104 304.736 47.752 305.24C48.4 305.72 48.94 306.272 49.372 306.896L47.212 308.48C46.948 308.072 46.588 307.664 46.132 307.256C45.7 306.848 45.184 306.488 44.584 306.176C43.984 305.864 43.324 305.612 42.604 305.42C41.908 305.228 41.152 305.132 40.336 305.132C38.68 305.132 37.192 305.432 35.872 306.032C34.576 306.632 33.472 307.448 32.56 308.48C31.648 309.488 30.952 310.664 30.472 312.008C29.992 313.352 29.752 314.768 29.752 316.256C29.752 317.744 29.992 319.16 30.472 320.504C30.976 321.848 31.684 323.036 32.596 324.068C33.508 325.076 34.612 325.88 35.908 326.48C37.228 327.08 38.704 327.38 40.336 327.38C41.8 327.38 43.192 327.08 44.512 326.48C45.832 325.88 46.936 324.92 47.824 323.6L49.84 324.896ZM70.4683 320.576C70.4683 321.848 70.2403 323.024 69.7843 324.104C69.3523 325.184 68.7403 326.12 67.9483 326.912C67.1563 327.704 66.2083 328.328 65.1043 328.784C64.0003 329.216 62.7883 329.432 61.4683 329.432C60.1723 329.432 58.9723 329.216 57.8683 328.784C56.7643 328.328 55.8163 327.704 55.0243 326.912C54.2323 326.12 53.6083 325.184 53.1523 324.104C52.7203 323.024 52.5043 321.848 52.5043 320.576C52.5043 319.304 52.7203 318.128 53.1523 317.048C53.6083 315.968 54.2323 315.032 55.0243 314.24C55.8163 313.448 56.7643 312.836 57.8683 312.404C58.9723 311.948 60.1723 311.72 61.4683 311.72C62.7883 311.72 64.0003 311.948 65.1043 312.404C66.2083 312.836 67.1563 313.448 67.9483 314.24C68.7403 315.032 69.3523 315.968 69.7843 317.048C70.2403 318.128 70.4683 319.304 70.4683 320.576ZM67.8763 320.576C67.8763 319.64 67.7203 318.764 67.4083 317.948C67.1203 317.108 66.7003 316.388 66.1483 315.788C65.5963 315.164 64.9243 314.672 64.1323 314.312C63.3403 313.952 62.4523 313.772 61.4683 313.772C60.4843 313.772 59.5963 313.952 58.8043 314.312C58.0363 314.672 57.3763 315.164 56.8243 315.788C56.2723 316.388 55.8403 317.108 55.5283 317.948C55.2403 318.764 55.0963 319.64 55.0963 320.576C55.0963 321.512 55.2403 322.4 55.5283 323.24C55.8403 324.056 56.2723 324.776 56.8243 325.4C57.3763 326 58.0363 326.48 58.8043 326.84C59.5963 327.176 60.4843 327.344 61.4683 327.344C62.4523 327.344 63.3403 327.176 64.1323 326.84C64.9243 326.48 65.5963 326 66.1483 325.4C66.7003 324.776 67.1203 324.056 67.4083 323.24C67.7203 322.4 67.8763 321.512 67.8763 320.576ZM77.9321 312.152C77.9801 312.608 78.0161 313.112 78.0401 313.664C78.0641 314.216 78.0761 314.672 78.0761 315.032H78.1481C78.6281 314.048 79.4081 313.256 80.4881 312.656C81.5681 312.032 82.7081 311.72 83.9081 311.72C86.0441 311.72 87.6401 312.356 88.6961 313.628C89.7761 314.9 90.3161 316.58 90.3161 318.668V329H87.8681V319.676C87.8681 318.788 87.7961 317.984 87.6521 317.264C87.5081 316.544 87.2561 315.932 86.8961 315.428C86.5601 314.9 86.0921 314.492 85.4921 314.204C84.9161 313.916 84.1841 313.772 83.2961 313.772C82.6481 313.772 82.0121 313.904 81.3881 314.168C80.7881 314.432 80.2481 314.84 79.7681 315.392C79.2881 315.92 78.9041 316.604 78.6161 317.444C78.3281 318.26 78.1841 319.232 78.1841 320.36V329H75.7361V315.86C75.7361 315.404 75.7241 314.816 75.7001 314.096C75.6761 313.376 75.6401 312.728 75.5921 312.152H77.9321ZM104.25 314.204H99.4981V324.032C99.4981 324.656 99.5581 325.172 99.6781 325.58C99.7981 325.988 99.9661 326.312 100.182 326.552C100.422 326.768 100.698 326.924 101.01 327.02C101.322 327.092 101.658 327.128 102.018 327.128C102.354 327.128 102.702 327.08 103.062 326.984C103.446 326.888 103.806 326.756 104.142 326.588L104.25 328.712C103.818 328.88 103.362 329 102.882 329.072C102.426 329.168 101.922 329.216 101.37 329.216C100.914 329.216 100.434 329.156 99.9301 329.036C99.4261 328.916 98.9581 328.688 98.5261 328.352C98.0941 328.016 97.7341 327.56 97.4461 326.984C97.1821 326.408 97.0501 325.652 97.0501 324.716V314.204H93.5581V312.152H97.0501V307.4H99.4981V312.152H104.25V314.204ZM120.932 319.28C120.86 317.696 120.344 316.388 119.384 315.356C118.448 314.3 117.104 313.772 115.352 313.772C114.536 313.772 113.78 313.928 113.084 314.24C112.388 314.528 111.776 314.936 111.248 315.464C110.72 315.968 110.3 316.556 109.988 317.228C109.676 317.876 109.496 318.56 109.448 319.28H120.932ZM123.416 320.072C123.416 320.24 123.416 320.42 123.416 320.612C123.416 320.804 123.404 321.008 123.38 321.224H109.412C109.436 322.064 109.604 322.856 109.916 323.6C110.228 324.344 110.66 324.992 111.212 325.544C111.764 326.096 112.412 326.54 113.156 326.876C113.9 327.188 114.704 327.344 115.568 327.344C116.84 327.344 117.932 327.056 118.844 326.48C119.78 325.88 120.488 325.196 120.968 324.428L122.804 325.868C121.796 327.14 120.68 328.052 119.456 328.604C118.256 329.156 116.96 329.432 115.568 329.432C114.32 329.432 113.156 329.216 112.076 328.784C111.02 328.328 110.108 327.704 109.34 326.912C108.572 326.12 107.96 325.184 107.504 324.104C107.072 323.024 106.856 321.848 106.856 320.576C106.856 319.304 107.072 318.128 107.504 317.048C107.936 315.968 108.536 315.032 109.304 314.24C110.072 313.448 110.972 312.836 112.004 312.404C113.036 311.948 114.152 311.72 115.352 311.72C116.672 311.72 117.836 311.948 118.844 312.404C119.852 312.836 120.692 313.436 121.364 314.204C122.036 314.948 122.54 315.824 122.876 316.832C123.236 317.84 123.416 318.92 123.416 320.072ZM130.877 312.152C130.925 312.608 130.961 313.112 130.985 313.664C131.009 314.216 131.021 314.672 131.021 315.032H131.093C131.573 314.048 132.353 313.256 133.433 312.656C134.513 312.032 135.653 311.72 136.853 311.72C138.989 311.72 140.585 312.356 141.641 313.628C142.721 314.9 143.261 316.58 143.261 318.668V329H140.813V319.676C140.813 318.788 140.741 317.984 140.597 317.264C140.453 316.544 140.201 315.932 139.841 315.428C139.505 314.9 139.037 314.492 138.437 314.204C137.861 313.916 137.129 313.772 136.241 313.772C135.593 313.772 134.957 313.904 134.333 314.168C133.733 314.432 133.193 314.84 132.713 315.392C132.233 315.92 131.849 316.604 131.561 317.444C131.273 318.26 131.129 319.232 131.129 320.36V329H128.681V315.86C128.681 315.404 128.669 314.816 128.645 314.096C128.621 313.376 128.585 312.728 128.537 312.152H130.877ZM157.195 314.204H152.443V324.032C152.443 324.656 152.503 325.172 152.623 325.58C152.743 325.988 152.911 326.312 153.127 326.552C153.367 326.768 153.643 326.924 153.955 327.02C154.267 327.092 154.603 327.128 154.963 327.128C155.299 327.128 155.647 327.08 156.007 326.984C156.391 326.888 156.751 326.756 157.087 326.588L157.195 328.712C156.763 328.88 156.307 329 155.827 329.072C155.371 329.168 154.867 329.216 154.315 329.216C153.859 329.216 153.379 329.156 152.875 329.036C152.371 328.916 151.903 328.688 151.471 328.352C151.039 328.016 150.679 327.56 150.391 326.984C150.127 326.408 149.995 325.652 149.995 324.716V314.204H146.503V312.152H149.995V307.4H152.443V312.152H157.195V314.204Z" fill="black"/>
<rect x="128" y="101" width="180" height="57" rx="28.5" fill="#2072F9"/>
<path d="M153.14 121.69C152.72 121.11 152.15 120.64 151.43 120.28C150.71 119.9 149.9 119.71 149 119.71C148.52 119.71 148.03 119.78 147.53 119.92C147.05 120.04 146.61 120.25 146.21 120.55C145.81 120.83 145.48 121.19 145.22 121.63C144.98 122.05 144.86 122.56 144.86 123.16C144.86 123.74 144.97 124.23 145.19 124.63C145.43 125.01 145.74 125.34 146.12 125.62C146.52 125.88 146.98 126.11 147.5 126.31C148.04 126.49 148.61 126.68 149.21 126.88C149.93 127.1 150.66 127.35 151.4 127.63C152.14 127.91 152.81 128.28 153.41 128.74C154.01 129.2 154.5 129.78 154.88 130.48C155.26 131.16 155.45 132.03 155.45 133.09C155.45 134.19 155.24 135.15 154.82 135.97C154.42 136.77 153.88 137.44 153.2 137.98C152.52 138.5 151.73 138.89 150.83 139.15C149.95 139.41 149.04 139.54 148.1 139.54C146.76 139.54 145.46 139.28 144.2 138.76C142.96 138.24 141.93 137.47 141.11 136.45L143.42 134.5C143.92 135.24 144.59 135.84 145.43 136.3C146.27 136.76 147.18 136.99 148.16 136.99C148.66 136.99 149.16 136.92 149.66 136.78C150.16 136.64 150.61 136.42 151.01 136.12C151.43 135.82 151.77 135.45 152.03 135.01C152.29 134.55 152.42 134 152.42 133.36C152.42 132.72 152.28 132.19 152 131.77C151.74 131.33 151.38 130.96 150.92 130.66C150.46 130.36 149.92 130.11 149.3 129.91C148.7 129.69 148.06 129.47 147.38 129.25C146.7 129.05 146.03 128.81 145.37 128.53C144.71 128.23 144.12 127.86 143.6 127.42C143.08 126.96 142.66 126.4 142.34 125.74C142.02 125.08 141.86 124.26 141.86 123.28C141.86 122.22 142.07 121.31 142.49 120.55C142.93 119.79 143.49 119.16 144.17 118.66C144.87 118.16 145.65 117.8 146.51 117.58C147.39 117.34 148.27 117.22 149.15 117.22C150.39 117.22 151.55 117.44 152.63 117.88C153.71 118.32 154.58 118.91 155.24 119.65L153.14 121.69ZM169.53 139C169.49 138.64 169.46 138.24 169.44 137.8C169.42 137.34 169.41 136.96 169.41 136.66H169.35C168.99 137.42 168.38 138.07 167.52 138.61C166.68 139.13 165.74 139.39 164.7 139.39C163.78 139.39 162.98 139.24 162.3 138.94C161.64 138.64 161.09 138.23 160.65 137.71C160.23 137.17 159.91 136.55 159.69 135.85C159.49 135.15 159.39 134.4 159.39 133.6V124.78H162.21V132.64C162.21 133.22 162.25 133.78 162.33 134.32C162.43 134.84 162.6 135.3 162.84 135.7C163.08 136.1 163.41 136.42 163.83 136.66C164.25 136.9 164.79 137.02 165.45 137.02C166.59 137.02 167.51 136.6 168.21 135.76C168.91 134.9 169.26 133.76 169.26 132.34V124.78H172.08V135.94C172.08 136.32 172.09 136.81 172.11 137.41C172.13 138.01 172.16 138.54 172.2 139H169.53ZM178.081 141.43C178.701 142.13 179.471 142.69 180.391 143.11C181.331 143.53 182.291 143.74 183.271 143.74C184.211 143.74 185.001 143.6 185.641 143.32C186.281 143.06 186.791 142.69 187.171 142.21C187.571 141.75 187.851 141.2 188.011 140.56C188.191 139.92 188.281 139.23 188.281 138.49V136.66H188.221C187.701 137.46 186.991 138.07 186.091 138.49C185.191 138.91 184.231 139.12 183.211 139.12C182.131 139.12 181.141 138.93 180.241 138.55C179.361 138.17 178.611 137.65 177.991 136.99C177.371 136.33 176.891 135.56 176.551 134.68C176.211 133.78 176.041 132.82 176.041 131.8C176.041 130.78 176.211 129.82 176.551 128.92C176.891 128.02 177.371 127.24 177.991 126.58C178.611 125.9 179.361 125.37 180.241 124.99C181.121 124.59 182.101 124.39 183.181 124.39C184.201 124.39 185.171 124.61 186.091 125.05C187.031 125.49 187.771 126.16 188.311 127.06H188.371V124.78H191.101V138.28C191.101 139.32 190.971 140.31 190.711 141.25C190.451 142.21 190.011 143.05 189.391 143.77C188.771 144.51 187.961 145.1 186.961 145.54C185.961 145.98 184.721 146.2 183.241 146.2C182.001 146.2 180.751 145.97 179.491 145.51C178.251 145.07 177.181 144.44 176.281 143.62L178.081 141.43ZM178.951 131.74C178.951 132.4 179.051 133.03 179.251 133.63C179.471 134.23 179.781 134.76 180.181 135.22C180.601 135.68 181.101 136.05 181.681 136.33C182.261 136.61 182.921 136.75 183.661 136.75C184.381 136.75 185.041 136.62 185.641 136.36C186.241 136.1 186.751 135.75 187.171 135.31C187.591 134.85 187.911 134.32 188.131 133.72C188.371 133.1 188.491 132.44 188.491 131.74C188.491 131.06 188.371 130.42 188.131 129.82C187.911 129.22 187.581 128.69 187.141 128.23C186.721 127.77 186.211 127.41 185.611 127.15C185.031 126.87 184.381 126.73 183.661 126.73C182.921 126.73 182.261 126.87 181.681 127.15C181.101 127.41 180.601 127.77 180.181 128.23C179.781 128.67 179.471 129.2 179.251 129.82C179.051 130.42 178.951 131.06 178.951 131.74ZM197.036 141.43C197.656 142.13 198.426 142.69 199.346 143.11C200.286 143.53 201.246 143.74 202.226 143.74C203.166 143.74 203.956 143.6 204.596 143.32C205.236 143.06 205.746 142.69 206.126 142.21C206.526 141.75 206.806 141.2 206.966 140.56C207.146 139.92 207.236 139.23 207.236 138.49V136.66H207.176C206.656 137.46 205.946 138.07 205.046 138.49C204.146 138.91 203.186 139.12 202.166 139.12C201.086 139.12 200.096 138.93 199.196 138.55C198.316 138.17 197.566 137.65 196.946 136.99C196.326 136.33 195.846 135.56 195.506 134.68C195.166 133.78 194.996 132.82 194.996 131.8C194.996 130.78 195.166 129.82 195.506 128.92C195.846 128.02 196.326 127.24 196.946 126.58C197.566 125.9 198.316 125.37 199.196 124.99C200.076 124.59 201.056 124.39 202.136 124.39C203.156 124.39 204.126 124.61 205.046 125.05C205.986 125.49 206.726 126.16 207.266 127.06H207.326V124.78H210.056V138.28C210.056 139.32 209.926 140.31 209.666 141.25C209.406 142.21 208.966 143.05 208.346 143.77C207.726 144.51 206.916 145.1 205.916 145.54C204.916 145.98 203.676 146.2 202.196 146.2C200.956 146.2 199.706 145.97 198.446 145.51C197.206 145.07 196.136 144.44 195.236 143.62L197.036 141.43ZM197.906 131.74C197.906 132.4 198.006 133.03 198.206 133.63C198.426 134.23 198.736 134.76 199.136 135.22C199.556 135.68 200.056 136.05 200.636 136.33C201.216 136.61 201.876 136.75 202.616 136.75C203.336 136.75 203.996 136.62 204.596 136.36C205.196 136.1 205.706 135.75 206.126 135.31C206.546 134.85 206.866 134.32 207.086 133.72C207.326 133.1 207.446 132.44 207.446 131.74C207.446 131.06 207.326 130.42 207.086 129.82C206.866 129.22 206.536 128.69 206.096 128.23C205.676 127.77 205.166 127.41 204.566 127.15C203.986 126.87 203.336 126.73 202.616 126.73C201.876 126.73 201.216 126.87 200.636 127.15C200.056 127.41 199.556 127.77 199.136 128.23C198.736 128.67 198.426 129.2 198.206 129.82C198.006 130.42 197.906 131.06 197.906 131.74ZM225.291 130.63C225.271 130.07 225.171 129.55 224.991 129.07C224.831 128.57 224.581 128.14 224.241 127.78C223.921 127.42 223.511 127.14 223.011 126.94C222.531 126.72 221.961 126.61 221.301 126.61C220.701 126.61 220.131 126.72 219.591 126.94C219.071 127.14 218.611 127.42 218.211 127.78C217.831 128.14 217.511 128.57 217.251 129.07C217.011 129.55 216.871 130.07 216.831 130.63H225.291ZM228.141 131.77C228.141 131.93 228.141 132.09 228.141 132.25C228.141 132.41 228.131 132.57 228.111 132.73H216.831C216.851 133.33 216.981 133.9 217.221 134.44C217.481 134.96 217.821 135.42 218.241 135.82C218.661 136.2 219.141 136.5 219.681 136.72C220.241 136.94 220.831 137.05 221.451 137.05C222.411 137.05 223.241 136.84 223.941 136.42C224.641 136 225.191 135.49 225.591 134.89L227.571 136.48C226.811 137.48 225.911 138.22 224.871 138.7C223.851 139.16 222.711 139.39 221.451 139.39C220.371 139.39 219.371 139.21 218.451 138.85C217.531 138.49 216.741 137.99 216.081 137.35C215.421 136.69 214.901 135.9 214.521 134.98C214.141 134.06 213.951 133.04 213.951 131.92C213.951 130.82 214.131 129.81 214.491 128.89C214.871 127.95 215.391 127.15 216.051 126.49C216.711 125.83 217.491 125.32 218.391 124.96C219.291 124.58 220.261 124.39 221.301 124.39C222.341 124.39 223.281 124.56 224.121 124.9C224.981 125.24 225.701 125.73 226.281 126.37C226.881 127.01 227.341 127.79 227.661 128.71C227.981 129.61 228.141 130.63 228.141 131.77ZM239.758 128.38C239.438 127.86 238.988 127.44 238.408 127.12C237.828 126.78 237.178 126.61 236.458 126.61C236.138 126.61 235.818 126.65 235.498 126.73C235.178 126.79 234.888 126.9 234.628 127.06C234.388 127.2 234.188 127.39 234.028 127.63C233.888 127.85 233.818 128.13 233.818 128.47C233.818 129.07 234.088 129.52 234.628 129.82C235.168 130.1 235.978 130.36 237.058 130.6C237.738 130.76 238.368 130.95 238.948 131.17C239.528 131.39 240.028 131.67 240.448 132.01C240.888 132.33 241.228 132.72 241.468 133.18C241.708 133.64 241.828 134.18 241.828 134.8C241.828 135.64 241.668 136.35 241.348 136.93C241.028 137.51 240.598 137.99 240.058 138.37C239.538 138.73 238.938 138.99 238.258 139.15C237.578 139.31 236.878 139.39 236.158 139.39C235.078 139.39 234.018 139.18 232.978 138.76C231.958 138.34 231.108 137.7 230.428 136.84L232.438 135.13C232.818 135.69 233.338 136.16 233.998 136.54C234.678 136.92 235.418 137.11 236.218 137.11C236.578 137.11 236.918 137.08 237.238 137.02C237.578 136.94 237.878 136.82 238.138 136.66C238.418 136.5 238.638 136.29 238.798 136.03C238.958 135.77 239.038 135.44 239.038 135.04C239.038 134.38 238.718 133.89 238.078 133.57C237.458 133.25 236.538 132.95 235.318 132.67C234.838 132.55 234.348 132.41 233.848 132.25C233.368 132.07 232.928 131.83 232.528 131.53C232.128 131.23 231.798 130.86 231.538 130.42C231.298 129.96 231.178 129.4 231.178 128.74C231.178 127.98 231.328 127.33 231.628 126.79C231.948 126.23 232.358 125.78 232.858 125.44C233.358 125.08 233.928 124.82 234.568 124.66C235.208 124.48 235.868 124.39 236.548 124.39C237.568 124.39 238.548 124.59 239.488 124.99C240.448 125.39 241.188 125.97 241.708 126.73L239.758 128.38ZM252.369 127.09H248.589V134.5C248.589 135.36 248.749 135.98 249.069 136.36C249.389 136.72 249.899 136.9 250.599 136.9C250.859 136.9 251.139 136.87 251.439 136.81C251.739 136.75 252.009 136.66 252.249 136.54L252.339 138.85C251.999 138.97 251.619 139.06 251.199 139.12C250.799 139.2 250.379 139.24 249.939 139.24C248.599 139.24 247.569 138.87 246.849 138.13C246.149 137.39 245.799 136.28 245.799 134.8V127.09H243.069V124.78H245.799V120.7H248.589V124.78H252.369V127.09ZM258.132 139H255.312V124.78H258.132V139ZM258.612 119.65C258.612 120.17 258.422 120.6 258.042 120.94C257.682 121.28 257.242 121.45 256.722 121.45C256.202 121.45 255.762 121.28 255.402 120.94C255.042 120.58 254.862 120.15 254.862 119.65C254.862 119.13 255.042 118.7 255.402 118.36C255.762 118 256.202 117.82 256.722 117.82C257.242 117.82 257.682 118 258.042 118.36C258.422 118.7 258.612 119.13 258.612 119.65ZM277.445 131.86C277.445 132.96 277.245 133.97 276.845 134.89C276.465 135.81 275.925 136.61 275.225 137.29C274.545 137.95 273.735 138.47 272.795 138.85C271.855 139.21 270.845 139.39 269.765 139.39C268.685 139.39 267.675 139.21 266.735 138.85C265.795 138.47 264.985 137.95 264.305 137.29C263.625 136.61 263.085 135.81 262.685 134.89C262.305 133.97 262.115 132.96 262.115 131.86C262.115 130.76 262.305 129.76 262.685 128.86C263.085 127.94 263.625 127.15 264.305 126.49C264.985 125.83 265.795 125.32 266.735 124.96C267.675 124.58 268.685 124.39 269.765 124.39C270.845 124.39 271.855 124.58 272.795 124.96C273.735 125.32 274.545 125.83 275.225 126.49C275.925 127.15 276.465 127.94 276.845 128.86C277.245 129.76 277.445 130.76 277.445 131.86ZM274.505 131.86C274.505 131.18 274.395 130.53 274.175 129.91C273.975 129.29 273.675 128.75 273.275 128.29C272.875 127.81 272.375 127.43 271.775 127.15C271.195 126.87 270.525 126.73 269.765 126.73C269.005 126.73 268.325 126.87 267.725 127.15C267.145 127.43 266.655 127.81 266.255 128.29C265.855 128.75 265.545 129.29 265.325 129.91C265.125 130.53 265.025 131.18 265.025 131.86C265.025 132.54 265.125 133.19 265.325 133.81C265.545 134.43 265.855 134.98 266.255 135.46C266.655 135.94 267.145 136.32 267.725 136.6C268.325 136.88 269.005 137.02 269.765 137.02C270.525 137.02 271.195 136.88 271.775 136.6C272.375 136.32 272.875 135.94 273.275 135.46C273.675 134.98 273.975 134.43 274.175 133.81C274.395 133.19 274.505 132.54 274.505 131.86ZM283.906 124.78C283.946 125.14 283.976 125.55 283.996 126.01C284.016 126.45 284.026 126.82 284.026 127.12H284.116C284.296 126.74 284.536 126.39 284.836 126.07C285.156 125.73 285.516 125.44 285.916 125.2C286.316 124.94 286.756 124.74 287.236 124.6C287.716 124.46 288.216 124.39 288.736 124.39C289.656 124.39 290.446 124.55 291.106 124.87C291.766 125.17 292.316 125.58 292.756 126.1C293.196 126.62 293.516 127.23 293.716 127.93C293.936 128.63 294.046 129.38 294.046 130.18V139H291.226V131.11C291.226 130.53 291.176 129.98 291.076 129.46C290.996 128.94 290.836 128.48 290.596 128.08C290.356 127.68 290.026 127.36 289.606 127.12C289.186 126.88 288.646 126.76 287.986 126.76C286.866 126.76 285.946 127.19 285.226 128.05C284.526 128.89 284.176 130.02 284.176 131.44V139H281.356V127.84C281.356 127.46 281.346 126.97 281.326 126.37C281.306 125.77 281.276 125.24 281.236 124.78H283.906Z" fill="white"/>
<path d="M148.19 228.68H148.25L153.23 211.76H156.5L161.45 228.68H161.51L166.19 211.76H169.34L163.1 233H160.01L154.85 215.93H154.79L149.63 233H146.54L140.3 211.76H143.51L148.19 228.68ZM181.404 224.63C181.384 224.07 181.284 223.55 181.104 223.07C180.944 222.57 180.694 222.14 180.354 221.78C180.034 221.42 179.624 221.14 179.124 220.94C178.644 220.72 178.074 220.61 177.414 220.61C176.814 220.61 176.244 220.72 175.704 220.94C175.184 221.14 174.724 221.42 174.324 221.78C173.944 222.14 173.624 222.57 173.364 223.07C173.124 223.55 172.984 224.07 172.944 224.63H181.404ZM184.254 225.77C184.254 225.93 184.254 226.09 184.254 226.25C184.254 226.41 184.244 226.57 184.224 226.73H172.944C172.964 227.33 173.094 227.9 173.334 228.44C173.594 228.96 173.934 229.42 174.354 229.82C174.774 230.2 175.254 230.5 175.794 230.72C176.354 230.94 176.944 231.05 177.564 231.05C178.524 231.05 179.354 230.84 180.054 230.42C180.754 230 181.304 229.49 181.704 228.89L183.684 230.48C182.924 231.48 182.024 232.22 180.984 232.7C179.964 233.16 178.824 233.39 177.564 233.39C176.484 233.39 175.484 233.21 174.564 232.85C173.644 232.49 172.854 231.99 172.194 231.35C171.534 230.69 171.014 229.9 170.634 228.98C170.254 228.06 170.064 227.04 170.064 225.92C170.064 224.82 170.244 223.81 170.604 222.89C170.984 221.95 171.504 221.15 172.164 220.49C172.824 219.83 173.604 219.32 174.504 218.96C175.404 218.58 176.374 218.39 177.414 218.39C178.454 218.39 179.394 218.56 180.234 218.9C181.094 219.24 181.814 219.73 182.394 220.37C182.994 221.01 183.454 221.79 183.774 222.71C184.094 223.61 184.254 224.63 184.254 225.77ZM203.372 222.38C203.052 221.86 202.602 221.44 202.022 221.12C201.442 220.78 200.792 220.61 200.072 220.61C199.752 220.61 199.432 220.65 199.112 220.73C198.792 220.79 198.502 220.9 198.242 221.06C198.002 221.2 197.802 221.39 197.642 221.63C197.502 221.85 197.432 222.13 197.432 222.47C197.432 223.07 197.702 223.52 198.242 223.82C198.782 224.1 199.592 224.36 200.672 224.6C201.352 224.76 201.982 224.95 202.562 225.17C203.142 225.39 203.642 225.67 204.062 226.01C204.502 226.33 204.842 226.72 205.082 227.18C205.322 227.64 205.442 228.18 205.442 228.8C205.442 229.64 205.282 230.35 204.962 230.93C204.642 231.51 204.212 231.99 203.672 232.37C203.152 232.73 202.552 232.99 201.872 233.15C201.192 233.31 200.492 233.39 199.772 233.39C198.692 233.39 197.632 233.18 196.592 232.76C195.572 232.34 194.722 231.7 194.042 230.84L196.052 229.13C196.432 229.69 196.952 230.16 197.612 230.54C198.292 230.92 199.032 231.11 199.832 231.11C200.192 231.11 200.532 231.08 200.852 231.02C201.192 230.94 201.492 230.82 201.752 230.66C202.032 230.5 202.252 230.29 202.412 230.03C202.572 229.77 202.652 229.44 202.652 229.04C202.652 228.38 202.332 227.89 201.692 227.57C201.072 227.25 200.152 226.95 198.932 226.67C198.452 226.55 197.962 226.41 197.462 226.25C196.982 226.07 196.542 225.83 196.142 225.53C195.742 225.23 195.412 224.86 195.152 224.42C194.912 223.96 194.792 223.4 194.792 222.74C194.792 221.98 194.942 221.33 195.242 220.79C195.562 220.23 195.972 219.78 196.472 219.44C196.972 219.08 197.542 218.82 198.182 218.66C198.822 218.48 199.482 218.39 200.162 218.39C201.182 218.39 202.162 218.59 203.102 218.99C204.062 219.39 204.802 219.97 205.322 220.73L203.372 222.38ZM211.962 220.94C212.302 220.24 212.882 219.64 213.702 219.14C214.522 218.64 215.442 218.39 216.462 218.39C217.382 218.39 218.172 218.55 218.832 218.87C219.492 219.17 220.042 219.58 220.482 220.1C220.922 220.62 221.242 221.23 221.442 221.93C221.662 222.63 221.772 223.38 221.772 224.18V233H218.952V225.14C218.952 224.56 218.902 224.01 218.802 223.49C218.722 222.97 218.562 222.51 218.322 222.11C218.082 221.71 217.752 221.39 217.332 221.15C216.932 220.91 216.402 220.79 215.742 220.79C214.622 220.79 213.702 221.22 212.982 222.08C212.262 222.92 211.902 224.05 211.902 225.47V233H209.082V210.32H211.902V220.94H211.962ZM240.941 225.86C240.941 226.96 240.741 227.97 240.341 228.89C239.961 229.81 239.421 230.61 238.721 231.29C238.041 231.95 237.231 232.47 236.291 232.85C235.351 233.21 234.341 233.39 233.261 233.39C232.181 233.39 231.171 233.21 230.231 232.85C229.291 232.47 228.481 231.95 227.801 231.29C227.121 230.61 226.581 229.81 226.181 228.89C225.801 227.97 225.611 226.96 225.611 225.86C225.611 224.76 225.801 223.76 226.181 222.86C226.581 221.94 227.121 221.15 227.801 220.49C228.481 219.83 229.291 219.32 230.231 218.96C231.171 218.58 232.181 218.39 233.261 218.39C234.341 218.39 235.351 218.58 236.291 218.96C237.231 219.32 238.041 219.83 238.721 220.49C239.421 221.15 239.961 221.94 240.341 222.86C240.741 223.76 240.941 224.76 240.941 225.86ZM238.001 225.86C238.001 225.18 237.891 224.53 237.671 223.91C237.471 223.29 237.171 222.75 236.771 222.29C236.371 221.81 235.871 221.43 235.271 221.15C234.691 220.87 234.021 220.73 233.261 220.73C232.501 220.73 231.821 220.87 231.221 221.15C230.641 221.43 230.151 221.81 229.751 222.29C229.351 222.75 229.041 223.29 228.821 223.91C228.621 224.53 228.521 225.18 228.521 225.86C228.521 226.54 228.621 227.19 228.821 227.81C229.041 228.43 229.351 228.98 229.751 229.46C230.151 229.94 230.641 230.32 231.221 230.6C231.821 230.88 232.501 231.02 233.261 231.02C234.021 231.02 234.691 230.88 235.271 230.6C235.871 230.32 236.371 229.94 236.771 229.46C237.171 228.98 237.471 228.43 237.671 227.81C237.891 227.19 238.001 226.54 238.001 225.86ZM254.872 233C254.832 232.64 254.802 232.24 254.782 231.8C254.762 231.34 254.752 230.96 254.752 230.66H254.692C254.332 231.42 253.722 232.07 252.862 232.61C252.022 233.13 251.082 233.39 250.042 233.39C249.122 233.39 248.322 233.24 247.642 232.94C246.982 232.64 246.432 232.23 245.992 231.71C245.572 231.17 245.252 230.55 245.032 229.85C244.832 229.15 244.732 228.4 244.732 227.6V218.78H247.552V226.64C247.552 227.22 247.592 227.78 247.672 228.32C247.772 228.84 247.942 229.3 248.182 229.7C248.422 230.1 248.752 230.42 249.172 230.66C249.592 230.9 250.132 231.02 250.792 231.02C251.932 231.02 252.852 230.6 253.552 229.76C254.252 228.9 254.602 227.76 254.602 226.34V218.78H257.422V229.94C257.422 230.32 257.432 230.81 257.452 231.41C257.472 232.01 257.502 232.54 257.542 233H254.872ZM265.193 233H262.373V210.32H265.193V233ZM281.446 230.75C280.906 231.61 280.166 232.27 279.226 232.73C278.306 233.17 277.336 233.39 276.316 233.39C275.216 233.39 274.226 233.2 273.346 232.82C272.466 232.42 271.716 231.88 271.096 231.2C270.476 230.52 269.996 229.72 269.656 228.8C269.316 227.88 269.146 226.9 269.146 225.86C269.146 224.82 269.316 223.85 269.656 222.95C269.996 222.03 270.476 221.23 271.096 220.55C271.736 219.87 272.496 219.34 273.376 218.96C274.256 218.58 275.226 218.39 276.286 218.39C277.446 218.39 278.456 218.64 279.316 219.14C280.176 219.62 280.856 220.21 281.356 220.91H281.416V210.32H284.236V233H281.506V230.75H281.446ZM272.086 225.86C272.086 226.52 272.186 227.16 272.386 227.78C272.586 228.4 272.886 228.95 273.286 229.43C273.686 229.91 274.176 230.3 274.756 230.6C275.336 230.88 276.016 231.02 276.796 231.02C277.516 231.02 278.166 230.88 278.746 230.6C279.346 230.32 279.856 229.95 280.276 229.49C280.696 229.01 281.016 228.46 281.236 227.84C281.476 227.22 281.596 226.57 281.596 225.89C281.596 225.21 281.476 224.56 281.236 223.94C281.016 223.32 280.696 222.77 280.276 222.29C279.856 221.81 279.346 221.43 278.746 221.15C278.166 220.87 277.516 220.73 276.796 220.73C276.016 220.73 275.336 220.87 274.756 221.15C274.176 221.43 273.686 221.81 273.286 222.29C272.886 222.77 272.586 223.32 272.386 223.94C272.186 224.56 272.086 225.2 272.086 225.86ZM299.439 230.75V233H296.709V210.32H299.529V220.91H299.619C300.099 220.21 300.769 219.62 301.629 219.14C302.489 218.64 303.509 218.39 304.689 218.39C305.749 218.39 306.709 218.58 307.569 218.96C308.449 219.34 309.199 219.87 309.819 220.55C310.459 221.23 310.949 222.03 311.289 222.95C311.629 223.85 311.799 224.82 311.799 225.86C311.799 226.9 311.629 227.88 311.289 228.8C310.949 229.72 310.469 230.52 309.849 231.2C309.229 231.88 308.479 232.42 307.599 232.82C306.719 233.2 305.729 233.39 304.629 233.39C303.609 233.39 302.639 233.17 301.719 232.73C300.799 232.27 300.059 231.61 299.499 230.75H299.439ZM308.889 225.86C308.889 225.2 308.789 224.56 308.589 223.94C308.389 223.32 308.089 222.77 307.689 222.29C307.289 221.81 306.789 221.43 306.189 221.15C305.609 220.87 304.929 220.73 304.149 220.73C303.429 220.73 302.769 220.87 302.169 221.15C301.589 221.43 301.089 221.81 300.669 222.29C300.249 222.77 299.919 223.32 299.679 223.94C299.459 224.56 299.349 225.21 299.349 225.89C299.349 226.57 299.459 227.22 299.679 227.84C299.919 228.46 300.249 229.01 300.669 229.49C301.089 229.95 301.589 230.32 302.169 230.6C302.769 230.88 303.429 231.02 304.149 231.02C304.929 231.02 305.609 230.88 306.189 230.6C306.789 230.3 307.289 229.91 307.689 229.43C308.089 228.95 308.389 228.4 308.589 227.78C308.789 227.16 308.889 226.52 308.889 225.86ZM326.131 224.63C326.111 224.07 326.011 223.55 325.831 223.07C325.671 222.57 325.421 222.14 325.081 221.78C324.761 221.42 324.351 221.14 323.851 220.94C323.371 220.72 322.801 220.61 322.141 220.61C321.541 220.61 320.971 220.72 320.431 220.94C319.911 221.14 319.451 221.42 319.051 221.78C318.671 222.14 318.351 222.57 318.091 223.07C317.851 223.55 317.711 224.07 317.671 224.63H326.131ZM328.981 225.77C328.981 225.93 328.981 226.09 328.981 226.25C328.981 226.41 328.971 226.57 328.951 226.73H317.671C317.691 227.33 317.821 227.9 318.061 228.44C318.321 228.96 318.661 229.42 319.081 229.82C319.501 230.2 319.981 230.5 320.521 230.72C321.081 230.94 321.671 231.05 322.291 231.05C323.251 231.05 324.081 230.84 324.781 230.42C325.481 230 326.031 229.49 326.431 228.89L328.411 230.48C327.651 231.48 326.751 232.22 325.711 232.7C324.691 233.16 323.551 233.39 322.291 233.39C321.211 233.39 320.211 233.21 319.291 232.85C318.371 232.49 317.581 231.99 316.921 231.35C316.261 230.69 315.741 229.9 315.361 228.98C314.981 228.06 314.791 227.04 314.791 225.92C314.791 224.82 314.971 223.81 315.331 222.89C315.711 221.95 316.231 221.15 316.891 220.49C317.551 219.83 318.331 219.32 319.231 218.96C320.131 218.58 321.101 218.39 322.141 218.39C323.181 218.39 324.121 218.56 324.961 218.9C325.821 219.24 326.541 219.73 327.121 220.37C327.721 221.01 328.181 221.79 328.501 222.71C328.821 223.61 328.981 224.63 328.981 225.77ZM351.758 230.75C351.218 231.61 350.478 232.27 349.538 232.73C348.618 233.17 347.648 233.39 346.628 233.39C345.528 233.39 344.538 233.2 343.658 232.82C342.778 232.42 342.028 231.88 341.408 231.2C340.788 230.52 340.308 229.72 339.968 228.8C339.628 227.88 339.458 226.9 339.458 225.86C339.458 224.82 339.628 223.85 339.968 222.95C340.308 222.03 340.788 221.23 341.408 220.55C342.048 219.87 342.808 219.34 343.688 218.96C344.568 218.58 345.538 218.39 346.598 218.39C347.758 218.39 348.768 218.64 349.628 219.14C350.488 219.62 351.168 220.21 351.668 220.91H351.728V210.32H354.548V233H351.818V230.75H351.758ZM342.398 225.86C342.398 226.52 342.498 227.16 342.698 227.78C342.898 228.4 343.198 228.95 343.598 229.43C343.998 229.91 344.488 230.3 345.068 230.6C345.648 230.88 346.328 231.02 347.108 231.02C347.828 231.02 348.478 230.88 349.058 230.6C349.658 230.32 350.168 229.95 350.588 229.49C351.008 229.01 351.328 228.46 351.548 227.84C351.788 227.22 351.908 226.57 351.908 225.89C351.908 225.21 351.788 224.56 351.548 223.94C351.328 223.32 351.008 222.77 350.588 222.29C350.168 221.81 349.658 221.43 349.058 221.15C348.478 220.87 347.828 220.73 347.108 220.73C346.328 220.73 345.648 220.87 345.068 221.15C344.488 221.43 343.998 221.81 343.598 222.29C343.198 222.77 342.898 223.32 342.698 223.94C342.498 224.56 342.398 225.2 342.398 225.86ZM373.861 225.86C373.861 226.96 373.661 227.97 373.261 228.89C372.881 229.81 372.341 230.61 371.641 231.29C370.961 231.95 370.151 232.47 369.211 232.85C368.271 233.21 367.261 233.39 366.181 233.39C365.101 233.39 364.091 233.21 363.151 232.85C362.211 232.47 361.401 231.95 360.721 231.29C360.041 230.61 359.501 229.81 359.101 228.89C358.721 227.97 358.531 226.96 358.531 225.86C358.531 224.76 358.721 223.76 359.101 222.86C359.501 221.94 360.041 221.15 360.721 220.49C361.401 219.83 362.211 219.32 363.151 218.96C364.091 218.58 365.101 218.39 366.181 218.39C367.261 218.39 368.271 218.58 369.211 218.96C370.151 219.32 370.961 219.83 371.641 220.49C372.341 221.15 372.881 221.94 373.261 222.86C373.661 223.76 373.861 224.76 373.861 225.86ZM370.921 225.86C370.921 225.18 370.811 224.53 370.591 223.91C370.391 223.29 370.091 222.75 369.691 222.29C369.291 221.81 368.791 221.43 368.191 221.15C367.611 220.87 366.941 220.73 366.181 220.73C365.421 220.73 364.741 220.87 364.141 221.15C363.561 221.43 363.071 221.81 362.671 222.29C362.271 222.75 361.961 223.29 361.741 223.91C361.541 224.53 361.441 225.18 361.441 225.86C361.441 226.54 361.541 227.19 361.741 227.81C361.961 228.43 362.271 228.98 362.671 229.46C363.071 229.94 363.561 230.32 364.141 230.6C364.741 230.88 365.421 231.02 366.181 231.02C366.941 231.02 367.611 230.88 368.191 230.6C368.791 230.32 369.291 229.94 369.691 229.46C370.091 228.98 370.391 228.43 370.591 227.81C370.811 227.19 370.921 226.54 370.921 225.86ZM380.622 233H377.802V218.78H380.622V233ZM381.102 213.65C381.102 214.17 380.912 214.6 380.532 214.94C380.172 215.28 379.732 215.45 379.212 215.45C378.692 215.45 378.252 215.28 377.892 214.94C377.532 214.58 377.352 214.15 377.352 213.65C377.352 213.13 377.532 212.7 377.892 212.36C378.252 212 378.692 211.82 379.212 211.82C379.732 211.82 380.172 212 380.532 212.36C380.912 212.7 381.102 213.13 381.102 213.65ZM388.085 218.78C388.125 219.14 388.155 219.55 388.175 220.01C388.195 220.45 388.205 220.82 388.205 221.12H388.295C388.475 220.74 388.715 220.39 389.015 220.07C389.335 219.73 389.695 219.44 390.095 219.2C390.495 218.94 390.935 218.74 391.415 218.6C391.895 218.46 392.395 218.39 392.915 218.39C393.835 218.39 394.625 218.55 395.285 218.87C395.945 219.17 396.495 219.58 396.935 220.1C397.375 220.62 397.695 221.23 397.895 221.93C398.115 222.63 398.225 223.38 398.225 224.18V233H395.405V225.11C395.405 224.53 395.355 223.98 395.255 223.46C395.175 222.94 395.015 222.48 394.775 222.08C394.535 221.68 394.205 221.36 393.785 221.12C393.365 220.88 392.825 220.76 392.165 220.76C391.045 220.76 390.125 221.19 389.405 222.05C388.705 222.89 388.355 224.02 388.355 225.44V233H385.535V221.84C385.535 221.46 385.525 220.97 385.505 220.37C385.485 219.77 385.455 219.24 385.415 218.78H388.085ZM404.106 235.43C404.726 236.13 405.496 236.69 406.416 237.11C407.356 237.53 408.316 237.74 409.296 237.74C410.236 237.74 411.026 237.6 411.666 237.32C412.306 237.06 412.816 236.69 413.196 236.21C413.596 235.75 413.876 235.2 414.036 234.56C414.216 233.92 414.306 233.23 414.306 232.49V230.66H414.246C413.726 231.46 413.016 232.07 412.116 232.49C411.216 232.91 410.256 233.12 409.236 233.12C408.156 233.12 407.166 232.93 406.266 232.55C405.386 232.17 404.636 231.65 404.016 230.99C403.396 230.33 402.916 229.56 402.576 228.68C402.236 227.78 402.066 226.82 402.066 225.8C402.066 224.78 402.236 223.82 402.576 222.92C402.916 222.02 403.396 221.24 404.016 220.58C404.636 219.9 405.386 219.37 406.266 218.99C407.146 218.59 408.126 218.39 409.206 218.39C410.226 218.39 411.196 218.61 412.116 219.05C413.056 219.49 413.796 220.16 414.336 221.06H414.396V218.78H417.126V232.28C417.126 233.32 416.996 234.31 416.736 235.25C416.476 236.21 416.036 237.05 415.416 237.77C414.796 238.51 413.986 239.1 412.986 239.54C411.986 239.98 410.746 240.2 409.266 240.2C408.026 240.2 406.776 239.97 405.516 239.51C404.276 239.07 403.206 238.44 402.306 237.62L404.106 235.43ZM404.976 225.74C404.976 226.4 405.076 227.03 405.276 227.63C405.496 228.23 405.806 228.76 406.206 229.22C406.626 229.68 407.126 230.05 407.706 230.33C408.286 230.61 408.946 230.75 409.686 230.75C410.406 230.75 411.066 230.62 411.666 230.36C412.266 230.1 412.776 229.75 413.196 229.31C413.616 228.85 413.936 228.32 414.156 227.72C414.396 227.1 414.516 226.44 414.516 225.74C414.516 225.06 414.396 224.42 414.156 223.82C413.936 223.22 413.606 222.69 413.166 222.23C412.746 221.77 412.236 221.41 411.636 221.15C411.056 220.87 410.406 220.73 409.686 220.73C408.946 220.73 408.286 220.87 407.706 221.15C407.126 221.41 406.626 221.77 406.206 222.23C405.806 222.67 405.496 223.2 405.276 223.82C405.076 224.42 404.976 225.06 404.976 225.74ZM432.211 221.12C432.571 220.36 433.141 219.72 433.921 219.2C434.721 218.66 435.661 218.39 436.741 218.39C437.701 218.39 438.561 218.61 439.321 219.05C440.101 219.49 440.711 220.22 441.151 221.24C441.631 220.32 442.301 219.62 443.161 219.14C444.021 218.64 444.961 218.39 445.981 218.39C446.901 218.39 447.691 218.55 448.351 218.87C449.011 219.17 449.561 219.58 450.001 220.1C450.441 220.62 450.761 221.23 450.961 221.93C451.181 222.63 451.291 223.38 451.291 224.18V233H448.471V225.11C448.471 224.53 448.421 223.98 448.321 223.46C448.221 222.94 448.051 222.48 447.811 222.08C447.571 221.68 447.251 221.36 446.851 221.12C446.451 220.88 445.941 220.76 445.321 220.76C444.681 220.76 444.131 220.9 443.671 221.18C443.211 221.44 442.831 221.79 442.531 222.23C442.251 222.65 442.041 223.13 441.901 223.67C441.781 224.21 441.721 224.76 441.721 225.32V233H438.901V224.54C438.901 223.98 438.851 223.47 438.751 223.01C438.651 222.55 438.481 222.16 438.241 221.84C438.001 221.5 437.691 221.24 437.311 221.06C436.931 220.86 436.461 220.76 435.901 220.76C434.861 220.76 433.991 221.19 433.291 222.05C432.611 222.89 432.271 224.02 432.271 225.44V233H429.451V221.84C429.451 221.46 429.441 220.97 429.421 220.37C429.401 219.77 429.371 219.24 429.331 218.78H432.001C432.041 219.14 432.071 219.55 432.091 220.01C432.111 220.45 432.121 220.82 432.121 221.12H432.211ZM470.453 225.86C470.453 226.96 470.253 227.97 469.853 228.89C469.473 229.81 468.933 230.61 468.233 231.29C467.553 231.95 466.743 232.47 465.803 232.85C464.863 233.21 463.853 233.39 462.773 233.39C461.693 233.39 460.683 233.21 459.743 232.85C458.803 232.47 457.993 231.95 457.313 231.29C456.633 230.61 456.093 229.81 455.693 228.89C455.313 227.97 455.123 226.96 455.123 225.86C455.123 224.76 455.313 223.76 455.693 222.86C456.093 221.94 456.633 221.15 457.313 220.49C457.993 219.83 458.803 219.32 459.743 218.96C460.683 218.58 461.693 218.39 462.773 218.39C463.853 218.39 464.863 218.58 465.803 218.96C466.743 219.32 467.553 219.83 468.233 220.49C468.933 221.15 469.473 221.94 469.853 222.86C470.253 223.76 470.453 224.76 470.453 225.86ZM467.513 225.86C467.513 225.18 467.403 224.53 467.183 223.91C466.983 223.29 466.683 222.75 466.283 222.29C465.883 221.81 465.383 221.43 464.783 221.15C464.203 220.87 463.533 220.73 462.773 220.73C462.013 220.73 461.333 220.87 460.733 221.15C460.153 221.43 459.663 221.81 459.263 222.29C458.863 222.75 458.553 223.29 458.333 223.91C458.133 224.53 458.033 225.18 458.033 225.86C458.033 226.54 458.133 227.19 458.333 227.81C458.553 228.43 458.863 228.98 459.263 229.46C459.663 229.94 460.153 230.32 460.733 230.6C461.333 230.88 462.013 231.02 462.773 231.02C463.533 231.02 464.203 230.88 464.783 230.6C465.383 230.32 465.883 229.94 466.283 229.46C466.683 228.98 466.983 228.43 467.183 227.81C467.403 227.19 467.513 226.54 467.513 225.86ZM474.364 221.84C474.364 221.46 474.354 220.97 474.334 220.37C474.314 219.77 474.284 219.24 474.244 218.78H476.914C476.954 219.14 476.984 219.56 477.004 220.04C477.024 220.5 477.034 220.88 477.034 221.18H477.124C477.524 220.34 478.104 219.67 478.864 219.17C479.644 218.65 480.514 218.39 481.474 218.39C481.914 218.39 482.284 218.43 482.584 218.51L482.464 221.12C482.064 221.02 481.634 220.97 481.174 220.97C480.494 220.97 479.904 221.1 479.404 221.36C478.904 221.6 478.484 221.93 478.144 222.35C477.824 222.77 477.584 223.26 477.424 223.82C477.264 224.36 477.184 224.93 477.184 225.53V233H474.364V221.84ZM495.115 224.63C495.095 224.07 494.995 223.55 494.815 223.07C494.655 222.57 494.405 222.14 494.065 221.78C493.745 221.42 493.335 221.14 492.835 220.94C492.355 220.72 491.785 220.61 491.125 220.61C490.525 220.61 489.955 220.72 489.415 220.94C488.895 221.14 488.435 221.42 488.035 221.78C487.655 222.14 487.335 222.57 487.075 223.07C486.835 223.55 486.695 224.07 486.655 224.63H495.115ZM497.965 225.77C497.965 225.93 497.965 226.09 497.965 226.25C497.965 226.41 497.955 226.57 497.935 226.73H486.655C486.675 227.33 486.805 227.9 487.045 228.44C487.305 228.96 487.645 229.42 488.065 229.82C488.485 230.2 488.965 230.5 489.505 230.72C490.065 230.94 490.655 231.05 491.275 231.05C492.235 231.05 493.065 230.84 493.765 230.42C494.465 230 495.015 229.49 495.415 228.89L497.395 230.48C496.635 231.48 495.735 232.22 494.695 232.7C493.675 233.16 492.535 233.39 491.275 233.39C490.195 233.39 489.195 233.21 488.275 232.85C487.355 232.49 486.565 231.99 485.905 231.35C485.245 230.69 484.725 229.9 484.345 228.98C483.965 228.06 483.775 227.04 483.775 225.92C483.775 224.82 483.955 223.81 484.315 222.89C484.695 221.95 485.215 221.15 485.875 220.49C486.535 219.83 487.315 219.32 488.215 218.96C489.115 218.58 490.085 218.39 491.125 218.39C492.165 218.39 493.105 218.56 493.945 218.9C494.805 219.24 495.525 219.73 496.105 220.37C496.705 221.01 497.165 221.79 497.485 222.71C497.805 223.61 497.965 224.63 497.965 225.77ZM512.253 233H509.433V218.78H512.253V233ZM512.733 213.65C512.733 214.17 512.543 214.6 512.163 214.94C511.803 215.28 511.363 215.45 510.843 215.45C510.323 215.45 509.883 215.28 509.523 214.94C509.163 214.58 508.983 214.15 508.983 213.65C508.983 213.13 509.163 212.7 509.523 212.36C509.883 212 510.323 211.82 510.843 211.82C511.363 211.82 511.803 212 512.163 212.36C512.543 212.7 512.733 213.13 512.733 213.65ZM519.716 218.78C519.756 219.14 519.786 219.55 519.806 220.01C519.826 220.45 519.836 220.82 519.836 221.12H519.926C520.106 220.74 520.346 220.39 520.646 220.07C520.966 219.73 521.326 219.44 521.726 219.2C522.126 218.94 522.566 218.74 523.046 218.6C523.526 218.46 524.026 218.39 524.546 218.39C525.466 218.39 526.256 218.55 526.916 218.87C527.576 219.17 528.126 219.58 528.566 220.1C529.006 220.62 529.326 221.23 529.526 221.93C529.746 222.63 529.856 223.38 529.856 224.18V233H527.036V225.11C527.036 224.53 526.986 223.98 526.886 223.46C526.806 222.94 526.646 222.48 526.406 222.08C526.166 221.68 525.836 221.36 525.416 221.12C524.996 220.88 524.456 220.76 523.796 220.76C522.676 220.76 521.756 221.19 521.036 222.05C520.336 222.89 519.986 224.02 519.986 225.44V233H517.166V221.84C517.166 221.46 517.156 220.97 517.136 220.37C517.116 219.77 517.086 219.24 517.046 218.78H519.716ZM540.477 226.88H533.517V224.48H540.477V226.88ZM547.027 230.75V233H544.297V210.32H547.117V220.91H547.207C547.687 220.21 548.357 219.62 549.217 219.14C550.077 218.64 551.097 218.39 552.277 218.39C553.337 218.39 554.297 218.58 555.157 218.96C556.037 219.34 556.787 219.87 557.407 220.55C558.047 221.23 558.537 222.03 558.877 222.95C559.217 223.85 559.387 224.82 559.387 225.86C559.387 226.9 559.217 227.88 558.877 228.8C558.537 229.72 558.057 230.52 557.437 231.2C556.817 231.88 556.067 232.42 555.187 232.82C554.307 233.2 553.317 233.39 552.217 233.39C551.197 233.39 550.227 233.17 549.307 232.73C548.387 232.27 547.647 231.61 547.087 230.75H547.027ZM556.477 225.86C556.477 225.2 556.377 224.56 556.177 223.94C555.977 223.32 555.677 222.77 555.277 222.29C554.877 221.81 554.377 221.43 553.777 221.15C553.197 220.87 552.517 220.73 551.737 220.73C551.017 220.73 550.357 220.87 549.757 221.15C549.177 221.43 548.677 221.81 548.257 222.29C547.837 222.77 547.507 223.32 547.267 223.94C547.047 224.56 546.937 225.21 546.937 225.89C546.937 226.57 547.047 227.22 547.267 227.84C547.507 228.46 547.837 229.01 548.257 229.49C548.677 229.95 549.177 230.32 549.757 230.6C550.357 230.88 551.017 231.02 551.737 231.02C552.517 231.02 553.197 230.88 553.777 230.6C554.377 230.3 554.877 229.91 555.277 229.43C555.677 228.95 555.977 228.4 556.177 227.78C556.377 227.16 556.477 226.52 556.477 225.86ZM577.709 225.86C577.709 226.96 577.509 227.97 577.109 228.89C576.729 229.81 576.189 230.61 575.489 231.29C574.809 231.95 573.999 232.47 573.059 232.85C572.119 233.21 571.109 233.39 570.029 233.39C568.949 233.39 567.939 233.21 566.999 232.85C566.059 232.47 565.249 231.95 564.569 231.29C563.889 230.61 563.349 229.81 562.949 228.89C562.569 227.97 562.379 226.96 562.379 225.86C562.379 224.76 562.569 223.76 562.949 222.86C563.349 221.94 563.889 221.15 564.569 220.49C565.249 219.83 566.059 219.32 566.999 218.96C567.939 218.58 568.949 218.39 570.029 218.39C571.109 218.39 572.119 218.58 573.059 218.96C573.999 219.32 574.809 219.83 575.489 220.49C576.189 221.15 576.729 221.94 577.109 222.86C577.509 223.76 577.709 224.76 577.709 225.86ZM574.769 225.86C574.769 225.18 574.659 224.53 574.439 223.91C574.239 223.29 573.939 222.75 573.539 222.29C573.139 221.81 572.639 221.43 572.039 221.15C571.459 220.87 570.789 220.73 570.029 220.73C569.269 220.73 568.589 220.87 567.989 221.15C567.409 221.43 566.919 221.81 566.519 222.29C566.119 222.75 565.809 223.29 565.589 223.91C565.389 224.53 565.289 225.18 565.289 225.86C565.289 226.54 565.389 227.19 565.589 227.81C565.809 228.43 566.119 228.98 566.519 229.46C566.919 229.94 567.409 230.32 567.989 230.6C568.589 230.88 569.269 231.02 570.029 231.02C570.789 231.02 571.459 230.88 572.039 230.6C572.639 230.32 573.139 229.94 573.539 229.46C573.939 228.98 574.239 228.43 574.439 227.81C574.659 227.19 574.769 226.54 574.769 225.86ZM591.639 233C591.599 232.64 591.569 232.24 591.549 231.8C591.529 231.34 591.519 230.96 591.519 230.66H591.459C591.099 231.42 590.489 232.07 589.629 232.61C588.789 233.13 587.849 233.39 586.809 233.39C585.889 233.39 585.089 233.24 584.409 232.94C583.749 232.64 583.199 232.23 582.759 231.71C582.339 231.17 582.019 230.55 581.799 229.85C581.599 229.15 581.499 228.4 581.499 227.6V218.78H584.319V226.64C584.319 227.22 584.359 227.78 584.439 228.32C584.539 228.84 584.709 229.3 584.949 229.7C585.189 230.1 585.519 230.42 585.939 230.66C586.359 230.9 586.899 231.02 587.559 231.02C588.699 231.02 589.619 230.6 590.319 229.76C591.019 228.9 591.369 227.76 591.369 226.34V218.78H594.189V229.94C594.189 230.32 594.199 230.81 594.219 231.41C594.239 232.01 594.269 232.54 594.309 233H591.639ZM601.63 218.78C601.67 219.14 601.7 219.55 601.72 220.01C601.74 220.45 601.75 220.82 601.75 221.12H601.84C602.02 220.74 602.26 220.39 602.56 220.07C602.88 219.73 603.24 219.44 603.64 219.2C604.04 218.94 604.48 218.74 604.96 218.6C605.44 218.46 605.94 218.39 606.46 218.39C607.38 218.39 608.17 218.55 608.83 218.87C609.49 219.17 610.04 219.58 610.48 220.1C610.92 220.62 611.24 221.23 611.44 221.93C611.66 222.63 611.77 223.38 611.77 224.18V233H608.95V225.11C608.95 224.53 608.9 223.98 608.8 223.46C608.72 222.94 608.56 222.48 608.32 222.08C608.08 221.68 607.75 221.36 607.33 221.12C606.91 220.88 606.37 220.76 605.71 220.76C604.59 220.76 603.67 221.19 602.95 222.05C602.25 222.89 601.9 224.02 601.9 225.44V233H599.08V221.84C599.08 221.46 599.07 220.97 599.05 220.37C599.03 219.77 599 219.24 598.96 218.78H601.63ZM627.881 230.75C627.341 231.61 626.601 232.27 625.661 232.73C624.741 233.17 623.771 233.39 622.751 233.39C621.651 233.39 620.661 233.2 619.781 232.82C618.901 232.42 618.151 231.88 617.531 231.2C616.911 230.52 616.431 229.72 616.091 228.8C615.751 227.88 615.581 226.9 615.581 225.86C615.581 224.82 615.751 223.85 616.091 222.95C616.431 222.03 616.911 221.23 617.531 220.55C618.171 219.87 618.931 219.34 619.811 218.96C620.691 218.58 621.661 218.39 622.721 218.39C623.881 218.39 624.891 218.64 625.751 219.14C626.611 219.62 627.291 220.21 627.791 220.91H627.851V210.32H630.671V233H627.941V230.75H627.881ZM618.521 225.86C618.521 226.52 618.621 227.16 618.821 227.78C619.021 228.4 619.321 228.95 619.721 229.43C620.121 229.91 620.611 230.3 621.191 230.6C621.771 230.88 622.451 231.02 623.231 231.02C623.951 231.02 624.601 230.88 625.181 230.6C625.781 230.32 626.291 229.95 626.711 229.49C627.131 229.01 627.451 228.46 627.671 227.84C627.911 227.22 628.031 226.57 628.031 225.89C628.031 225.21 627.911 224.56 627.671 223.94C627.451 223.32 627.131 222.77 626.711 222.29C626.291 221.81 625.781 221.43 625.181 221.15C624.601 220.87 623.951 220.73 623.231 220.73C622.451 220.73 621.771 220.87 621.191 221.15C620.611 221.43 620.121 221.81 619.721 222.29C619.321 222.77 619.021 223.32 618.821 223.94C618.621 224.56 618.521 225.2 618.521 225.86ZM650.764 222.38C650.444 221.86 649.994 221.44 649.414 221.12C648.834 220.78 648.184 220.61 647.464 220.61C647.144 220.61 646.824 220.65 646.504 220.73C646.184 220.79 645.894 220.9 645.634 221.06C645.394 221.2 645.194 221.39 645.034 221.63C644.894 221.85 644.824 222.13 644.824 222.47C644.824 223.07 645.094 223.52 645.634 223.82C646.174 224.1 646.984 224.36 648.064 224.6C648.744 224.76 649.374 224.95 649.954 225.17C650.534 225.39 651.034 225.67 651.454 226.01C651.894 226.33 652.234 226.72 652.474 227.18C652.714 227.64 652.834 228.18 652.834 228.8C652.834 229.64 652.674 230.35 652.354 230.93C652.034 231.51 651.604 231.99 651.064 232.37C650.544 232.73 649.944 232.99 649.264 233.15C648.584 233.31 647.884 233.39 647.164 233.39C646.084 233.39 645.024 233.18 643.984 232.76C642.964 232.34 642.114 231.7 641.434 230.84L643.444 229.13C643.824 229.69 644.344 230.16 645.004 230.54C645.684 230.92 646.424 231.11 647.224 231.11C647.584 231.11 647.924 231.08 648.244 231.02C648.584 230.94 648.884 230.82 649.144 230.66C649.424 230.5 649.644 230.29 649.804 230.03C649.964 229.77 650.044 229.44 650.044 229.04C650.044 228.38 649.724 227.89 649.084 227.57C648.464 227.25 647.544 226.95 646.324 226.67C645.844 226.55 645.354 226.41 644.854 226.25C644.374 226.07 643.934 225.83 643.534 225.53C643.134 225.23 642.804 224.86 642.544 224.42C642.304 223.96 642.184 223.4 642.184 222.74C642.184 221.98 642.334 221.33 642.634 220.79C642.954 220.23 643.364 219.78 643.864 219.44C644.364 219.08 644.934 218.82 645.574 218.66C646.214 218.48 646.874 218.39 647.554 218.39C648.574 218.39 649.554 218.59 650.494 218.99C651.454 219.39 652.194 219.97 652.714 220.73L650.764 222.38ZM665.264 223.79C665.264 222.73 664.944 221.95 664.304 221.45C663.664 220.93 662.814 220.67 661.754 220.67C660.954 220.67 660.194 220.83 659.474 221.15C658.774 221.45 658.184 221.84 657.704 222.32L656.204 220.52C656.904 219.86 657.754 219.34 658.754 218.96C659.774 218.58 660.864 218.39 662.024 218.39C663.044 218.39 663.924 218.54 664.664 218.84C665.424 219.12 666.044 219.51 666.524 220.01C667.004 220.51 667.364 221.1 667.604 221.78C667.844 222.46 667.964 223.19 667.964 223.97V230.18C667.964 230.66 667.974 231.17 667.994 231.71C668.034 232.23 668.094 232.66 668.174 233H665.624C665.464 232.32 665.384 231.64 665.384 230.96H665.294C664.774 231.72 664.114 232.31 663.314 232.73C662.534 233.15 661.604 233.36 660.524 233.36C659.964 233.36 659.374 233.28 658.754 233.12C658.154 232.98 657.604 232.74 657.104 232.4C656.604 232.06 656.184 231.61 655.844 231.05C655.524 230.49 655.364 229.8 655.364 228.98C655.364 227.9 655.654 227.05 656.234 226.43C656.814 225.79 657.574 225.31 658.514 224.99C659.454 224.65 660.514 224.43 661.694 224.33C662.874 224.23 664.064 224.18 665.264 224.18V223.79ZM664.574 226.22C663.874 226.22 663.144 226.25 662.384 226.31C661.644 226.37 660.964 226.49 660.344 226.67C659.744 226.85 659.244 227.12 658.844 227.48C658.444 227.84 658.244 228.32 658.244 228.92C658.244 229.34 658.324 229.69 658.484 229.97C658.664 230.25 658.894 230.48 659.174 230.66C659.454 230.84 659.764 230.97 660.104 231.05C660.444 231.11 660.794 231.14 661.154 231.14C662.474 231.14 663.484 230.75 664.184 229.97C664.904 229.17 665.264 228.17 665.264 226.97V226.22H664.574ZM675.554 233H672.734V210.32H675.554V233ZM690.877 224.63C690.857 224.07 690.757 223.55 690.577 223.07C690.417 222.57 690.167 222.14 689.827 221.78C689.507 221.42 689.097 221.14 688.597 220.94C688.117 220.72 687.547 220.61 686.887 220.61C686.287 220.61 685.717 220.72 685.177 220.94C684.657 221.14 684.197 221.42 683.797 221.78C683.417 222.14 683.097 222.57 682.837 223.07C682.597 223.55 682.457 224.07 682.417 224.63H690.877ZM693.727 225.77C693.727 225.93 693.727 226.09 693.727 226.25C693.727 226.41 693.717 226.57 693.697 226.73H682.417C682.437 227.33 682.567 227.9 682.807 228.44C683.067 228.96 683.407 229.42 683.827 229.82C684.247 230.2 684.727 230.5 685.267 230.72C685.827 230.94 686.417 231.05 687.037 231.05C687.997 231.05 688.827 230.84 689.527 230.42C690.227 230 690.777 229.49 691.177 228.89L693.157 230.48C692.397 231.48 691.497 232.22 690.457 232.7C689.437 233.16 688.297 233.39 687.037 233.39C685.957 233.39 684.957 233.21 684.037 232.85C683.117 232.49 682.327 231.99 681.667 231.35C681.007 230.69 680.487 229.9 680.107 228.98C679.727 228.06 679.537 227.04 679.537 225.92C679.537 224.82 679.717 223.81 680.077 222.89C680.457 221.95 680.977 221.15 681.637 220.49C682.297 219.83 683.077 219.32 683.977 218.96C684.877 218.58 685.847 218.39 686.887 218.39C687.927 218.39 688.867 218.56 689.707 218.9C690.567 219.24 691.287 219.73 691.867 220.37C692.467 221.01 692.927 221.79 693.247 222.71C693.567 223.61 693.727 224.63 693.727 225.77ZM705.344 222.38C705.024 221.86 704.574 221.44 703.994 221.12C703.414 220.78 702.764 220.61 702.044 220.61C701.724 220.61 701.404 220.65 701.084 220.73C700.764 220.79 700.474 220.9 700.214 221.06C699.974 221.2 699.774 221.39 699.614 221.63C699.474 221.85 699.404 222.13 699.404 222.47C699.404 223.07 699.674 223.52 700.214 223.82C700.754 224.1 701.564 224.36 702.644 224.6C703.324 224.76 703.954 224.95 704.534 225.17C705.114 225.39 705.614 225.67 706.034 226.01C706.474 226.33 706.814 226.72 707.054 227.18C707.294 227.64 707.414 228.18 707.414 228.8C707.414 229.64 707.254 230.35 706.934 230.93C706.614 231.51 706.184 231.99 705.644 232.37C705.124 232.73 704.524 232.99 703.844 233.15C703.164 233.31 702.464 233.39 701.744 233.39C700.664 233.39 699.604 233.18 698.564 232.76C697.544 232.34 696.694 231.7 696.014 230.84L698.024 229.13C698.404 229.69 698.924 230.16 699.584 230.54C700.264 230.92 701.004 231.11 701.804 231.11C702.164 231.11 702.504 231.08 702.824 231.02C703.164 230.94 703.464 230.82 703.724 230.66C704.004 230.5 704.224 230.29 704.384 230.03C704.544 229.77 704.624 229.44 704.624 229.04C704.624 228.38 704.304 227.89 703.664 227.57C703.044 227.25 702.124 226.95 700.904 226.67C700.424 226.55 699.934 226.41 699.434 226.25C698.954 226.07 698.514 225.83 698.114 225.53C697.714 225.23 697.384 224.86 697.124 224.42C696.884 223.96 696.764 223.4 696.764 222.74C696.764 221.98 696.914 221.33 697.214 220.79C697.534 220.23 697.944 219.78 698.444 219.44C698.944 219.08 699.514 218.82 700.154 218.66C700.794 218.48 701.454 218.39 702.134 218.39C703.154 218.39 704.134 218.59 705.074 218.99C706.034 219.39 706.774 219.97 707.294 220.73L705.344 222.38Z" fill="black"/>
<path d="M67 394.35C67 395.99 66.71 397.5 66.13 398.88C65.57 400.24 64.79 401.42 63.79 402.42C62.79 403.4 61.6 404.17 60.22 404.73C58.84 405.27 57.34 405.54 55.72 405.54C54.1 405.54 52.6 405.27 51.22 404.73C49.86 404.17 48.68 403.4 47.68 402.42C46.68 401.42 45.9 400.24 45.34 398.88C44.78 397.5 44.5 395.99 44.5 394.35C44.5 392.69 44.78 391.18 45.34 389.82C45.9 388.44 46.68 387.27 47.68 386.31C48.68 385.33 49.86 384.57 51.22 384.03C52.6 383.49 54.1 383.22 55.72 383.22C57.34 383.22 58.84 383.49 60.22 384.03C61.6 384.57 62.79 385.33 63.79 386.31C64.79 387.27 65.57 388.44 66.13 389.82C66.71 391.18 67 392.69 67 394.35ZM63.79 394.35C63.79 393.19 63.6 392.1 63.22 391.08C62.84 390.04 62.3 389.13 61.6 388.35C60.9 387.57 60.05 386.96 59.05 386.52C58.07 386.06 56.96 385.83 55.72 385.83C54.5 385.83 53.39 386.06 52.39 386.52C51.41 386.96 50.57 387.57 49.87 388.35C49.19 389.13 48.66 390.04 48.28 391.08C47.9 392.1 47.71 393.19 47.71 394.35C47.71 395.53 47.9 396.64 48.28 397.68C48.66 398.72 49.2 399.63 49.9 400.41C50.6 401.17 51.44 401.77 52.42 402.21C53.4 402.65 54.5 402.87 55.72 402.87C56.94 402.87 58.05 402.65 59.05 402.21C60.05 401.77 60.9 401.17 61.6 400.41C62.3 399.63 62.84 398.72 63.22 397.68C63.6 396.64 63.79 395.53 63.79 394.35ZM80.909 405C80.869 404.64 80.839 404.24 80.819 403.8C80.799 403.34 80.789 402.96 80.789 402.66H80.729C80.369 403.42 79.759 404.07 78.899 404.61C78.059 405.13 77.119 405.39 76.079 405.39C75.159 405.39 74.359 405.24 73.679 404.94C73.019 404.64 72.469 404.23 72.029 403.71C71.609 403.17 71.289 402.55 71.069 401.85C70.869 401.15 70.769 400.4 70.769 399.6V390.78H73.589V398.64C73.589 399.22 73.629 399.78 73.709 400.32C73.809 400.84 73.979 401.3 74.219 401.7C74.459 402.1 74.789 402.42 75.209 402.66C75.629 402.9 76.169 403.02 76.829 403.02C77.969 403.02 78.889 402.6 79.589 401.76C80.289 400.9 80.639 399.76 80.639 398.34V390.78H83.459V401.94C83.459 402.32 83.469 402.81 83.489 403.41C83.509 404.01 83.539 404.54 83.579 405H80.909ZM88.3499 393.84C88.3499 393.46 88.3399 392.97 88.3199 392.37C88.2999 391.77 88.2699 391.24 88.2299 390.78H90.8999C90.9399 391.14 90.9699 391.56 90.9899 392.04C91.0099 392.5 91.0199 392.88 91.0199 393.18H91.1099C91.5099 392.34 92.0899 391.67 92.8499 391.17C93.6299 390.65 94.4999 390.39 95.4599 390.39C95.8999 390.39 96.2699 390.43 96.5699 390.51L96.4499 393.12C96.0499 393.02 95.6199 392.97 95.1599 392.97C94.4799 392.97 93.8899 393.1 93.3899 393.36C92.8899 393.6 92.4699 393.93 92.1299 394.35C91.8099 394.77 91.5699 395.26 91.4099 395.82C91.2499 396.36 91.1699 396.93 91.1699 397.53V405H88.3499V393.84ZM109.539 412.2H106.719V390.78H109.479V393H109.569C110.029 392.24 110.699 391.62 111.579 391.14C112.479 390.64 113.519 390.39 114.699 390.39C115.759 390.39 116.719 390.58 117.579 390.96C118.459 391.34 119.209 391.87 119.829 392.55C120.469 393.23 120.959 394.03 121.299 394.95C121.639 395.85 121.809 396.82 121.809 397.86C121.809 398.9 121.639 399.88 121.299 400.8C120.959 401.72 120.479 402.52 119.859 403.2C119.239 403.88 118.489 404.42 117.609 404.82C116.729 405.2 115.739 405.39 114.639 405.39C113.619 405.39 112.659 405.17 111.759 404.73C110.859 404.29 110.149 403.67 109.629 402.87H109.539V412.2ZM118.899 397.86C118.899 397.2 118.799 396.56 118.599 395.94C118.399 395.32 118.099 394.77 117.699 394.29C117.299 393.81 116.799 393.43 116.199 393.15C115.619 392.87 114.939 392.73 114.159 392.73C113.439 392.73 112.779 392.87 112.179 393.15C111.599 393.43 111.099 393.81 110.679 394.29C110.259 394.77 109.929 395.32 109.689 395.94C109.469 396.56 109.359 397.21 109.359 397.89C109.359 398.57 109.469 399.22 109.689 399.84C109.929 400.46 110.259 401.01 110.679 401.49C111.099 401.95 111.599 402.32 112.179 402.6C112.779 402.88 113.439 403.02 114.159 403.02C114.939 403.02 115.619 402.88 116.199 402.6C116.799 402.3 117.299 401.91 117.699 401.43C118.099 400.95 118.399 400.4 118.599 399.78C118.799 399.16 118.899 398.52 118.899 397.86ZM125.733 393.84C125.733 393.46 125.723 392.97 125.703 392.37C125.683 391.77 125.653 391.24 125.613 390.78H128.283C128.323 391.14 128.353 391.56 128.373 392.04C128.393 392.5 128.403 392.88 128.403 393.18H128.493C128.893 392.34 129.473 391.67 130.233 391.17C131.013 390.65 131.883 390.39 132.843 390.39C133.283 390.39 133.653 390.43 133.953 390.51L133.833 393.12C133.433 393.02 133.003 392.97 132.543 392.97C131.863 392.97 131.273 393.1 130.773 393.36C130.273 393.6 129.853 393.93 129.513 394.35C129.193 394.77 128.953 395.26 128.793 395.82C128.633 396.36 128.553 396.93 128.553 397.53V405H125.733V393.84ZM150.475 397.86C150.475 398.96 150.275 399.97 149.875 400.89C149.495 401.81 148.955 402.61 148.255 403.29C147.575 403.95 146.765 404.47 145.825 404.85C144.885 405.21 143.875 405.39 142.795 405.39C141.715 405.39 140.705 405.21 139.765 404.85C138.825 404.47 138.015 403.95 137.335 403.29C136.655 402.61 136.115 401.81 135.715 400.89C135.335 399.97 135.145 398.96 135.145 397.86C135.145 396.76 135.335 395.76 135.715 394.86C136.115 393.94 136.655 393.15 137.335 392.49C138.015 391.83 138.825 391.32 139.765 390.96C140.705 390.58 141.715 390.39 142.795 390.39C143.875 390.39 144.885 390.58 145.825 390.96C146.765 391.32 147.575 391.83 148.255 392.49C148.955 393.15 149.495 393.94 149.875 394.86C150.275 395.76 150.475 396.76 150.475 397.86ZM147.535 397.86C147.535 397.18 147.425 396.53 147.205 395.91C147.005 395.29 146.705 394.75 146.305 394.29C145.905 393.81 145.405 393.43 144.805 393.15C144.225 392.87 143.555 392.73 142.795 392.73C142.035 392.73 141.355 392.87 140.755 393.15C140.175 393.43 139.685 393.81 139.285 394.29C138.885 394.75 138.575 395.29 138.355 395.91C138.155 396.53 138.055 397.18 138.055 397.86C138.055 398.54 138.155 399.19 138.355 399.81C138.575 400.43 138.885 400.98 139.285 401.46C139.685 401.94 140.175 402.32 140.755 402.6C141.355 402.88 142.035 403.02 142.795 403.02C143.555 403.02 144.225 402.88 144.805 402.6C145.405 402.32 145.905 401.94 146.305 401.46C146.705 400.98 147.005 400.43 147.205 399.81C147.425 399.19 147.535 398.54 147.535 397.86ZM165.725 402.75C165.185 403.61 164.445 404.27 163.505 404.73C162.585 405.17 161.615 405.39 160.595 405.39C159.495 405.39 158.505 405.2 157.625 404.82C156.745 404.42 155.995 403.88 155.375 403.2C154.755 402.52 154.275 401.72 153.935 400.8C153.595 399.88 153.425 398.9 153.425 397.86C153.425 396.82 153.595 395.85 153.935 394.95C154.275 394.03 154.755 393.23 155.375 392.55C156.015 391.87 156.775 391.34 157.655 390.96C158.535 390.58 159.505 390.39 160.565 390.39C161.725 390.39 162.735 390.64 163.595 391.14C164.455 391.62 165.135 392.21 165.635 392.91H165.695V382.32H168.515V405H165.785V402.75H165.725ZM156.365 397.86C156.365 398.52 156.465 399.16 156.665 399.78C156.865 400.4 157.165 400.95 157.565 401.43C157.965 401.91 158.455 402.3 159.035 402.6C159.615 402.88 160.295 403.02 161.075 403.02C161.795 403.02 162.445 402.88 163.025 402.6C163.625 402.32 164.135 401.95 164.555 401.49C164.975 401.01 165.295 400.46 165.515 399.84C165.755 399.22 165.875 398.57 165.875 397.89C165.875 397.21 165.755 396.56 165.515 395.94C165.295 395.32 164.975 394.77 164.555 394.29C164.135 393.81 163.625 393.43 163.025 393.15C162.445 392.87 161.795 392.73 161.075 392.73C160.295 392.73 159.615 392.87 159.035 393.15C158.455 393.43 157.965 393.81 157.565 394.29C157.165 394.77 156.865 395.32 156.665 395.94C156.465 396.56 156.365 397.2 156.365 397.86ZM183.448 405C183.408 404.64 183.378 404.24 183.358 403.8C183.338 403.34 183.328 402.96 183.328 402.66H183.268C182.908 403.42 182.298 404.07 181.438 404.61C180.598 405.13 179.658 405.39 178.618 405.39C177.698 405.39 176.898 405.24 176.218 404.94C175.558 404.64 175.008 404.23 174.568 403.71C174.148 403.17 173.828 402.55 173.608 401.85C173.408 401.15 173.308 400.4 173.308 399.6V390.78H176.128V398.64C176.128 399.22 176.168 399.78 176.248 400.32C176.348 400.84 176.518 401.3 176.758 401.7C176.998 402.1 177.328 402.42 177.748 402.66C178.168 402.9 178.708 403.02 179.368 403.02C180.508 403.02 181.428 402.6 182.128 401.76C182.828 400.9 183.178 399.76 183.178 398.34V390.78H185.998V401.94C185.998 402.32 186.008 402.81 186.028 403.41C186.048 404.01 186.078 404.54 186.118 405H183.448ZM200.849 394.38C200.549 393.92 200.099 393.54 199.499 393.24C198.899 392.92 198.259 392.76 197.579 392.76C196.839 392.76 196.179 392.9 195.599 393.18C195.039 393.46 194.559 393.84 194.159 394.32C193.759 394.78 193.449 395.32 193.229 395.94C193.029 396.56 192.929 397.21 192.929 397.89C192.929 398.57 193.029 399.22 193.229 399.84C193.449 400.46 193.759 401.01 194.159 401.49C194.559 401.95 195.049 402.32 195.629 402.6C196.209 402.88 196.869 403.02 197.609 403.02C198.329 403.02 198.979 402.88 199.559 402.6C200.159 402.32 200.649 401.94 201.029 401.46L202.919 403.17C202.319 403.87 201.569 404.42 200.669 404.82C199.769 405.2 198.749 405.39 197.609 405.39C196.509 405.39 195.489 405.21 194.549 404.85C193.629 404.49 192.829 403.99 192.149 403.35C191.469 402.69 190.929 401.9 190.529 400.98C190.149 400.06 189.959 399.03 189.959 397.89C189.959 396.77 190.149 395.75 190.529 394.83C190.909 393.91 191.439 393.12 192.119 392.46C192.799 391.8 193.599 391.29 194.519 390.93C195.459 390.57 196.469 390.39 197.549 390.39C198.549 390.39 199.539 390.59 200.519 390.99C201.519 391.39 202.309 391.97 202.889 392.73L200.849 394.38Z" fill="black"/>
<rect x="121.5" y="189.5" width="587" height="67" rx="8.5" stroke="#C1C1C1"/>
<rect x="25.5" y="351.5" width="662" height="180" rx="8.5" stroke="#C1C1C1"/>
</g>
<defs>
<clipPath id="clip0">
<rect width="673" height="496" fill="white"/>
</clipPath>
</defs>
</svg>
