<svg width="673" height="398" viewBox="0 0 673 398" fill="none" xmlns="http://www.w3.org/2000/svg">
<rect width="673" height="398" fill="white"/>
<rect x="249" y="64" width="180" height="57" rx="28.5" fill="#00C64D"/>
<path d="M296.55 102H293.58V80.76H296.55V102ZM317.925 92.79C317.925 91.73 317.605 90.95 316.965 90.45C316.325 89.93 315.475 89.67 314.415 89.67C313.615 89.67 312.855 89.83 312.135 90.15C311.435 90.45 310.845 90.84 310.365 91.32L308.865 89.52C309.565 88.86 310.415 88.34 311.415 87.96C312.435 87.58 313.525 87.39 314.685 87.39C315.705 87.39 316.585 87.54 317.325 87.84C318.085 88.12 318.705 88.51 319.185 89.01C319.665 89.51 320.025 90.1 320.265 90.78C320.505 91.46 320.625 92.19 320.625 92.97V99.18C320.625 99.66 320.635 100.17 320.655 100.71C320.695 101.23 320.755 101.66 320.835 102H318.285C318.125 101.32 318.045 100.64 318.045 99.96H317.955C317.435 100.72 316.775 101.31 315.975 101.73C315.195 102.15 314.265 102.36 313.185 102.36C312.625 102.36 312.035 102.28 311.415 102.12C310.815 101.98 310.265 101.74 309.765 101.4C309.265 101.06 308.845 100.61 308.505 100.05C308.185 99.49 308.025 98.8 308.025 97.98C308.025 96.9 308.315 96.05 308.895 95.43C309.475 94.79 310.235 94.31 311.175 93.99C312.115 93.65 313.175 93.43 314.355 93.33C315.535 93.23 316.725 93.18 317.925 93.18V92.79ZM317.235 95.22C316.535 95.22 315.805 95.25 315.045 95.31C314.305 95.37 313.625 95.49 313.005 95.67C312.405 95.85 311.905 96.12 311.505 96.48C311.105 96.84 310.905 97.32 310.905 97.92C310.905 98.34 310.985 98.69 311.145 98.97C311.325 99.25 311.555 99.48 311.835 99.66C312.115 99.84 312.425 99.97 312.765 100.05C313.105 100.11 313.455 100.14 313.815 100.14C315.135 100.14 316.145 99.75 316.845 98.97C317.565 98.17 317.925 97.17 317.925 95.97V95.22H317.235ZM326.444 104.43C327.064 105.13 327.834 105.69 328.754 106.11C329.694 106.53 330.654 106.74 331.634 106.74C332.574 106.74 333.364 106.6 334.004 106.32C334.644 106.06 335.154 105.69 335.534 105.21C335.934 104.75 336.214 104.2 336.374 103.56C336.554 102.92 336.644 102.23 336.644 101.49V99.66H336.584C336.064 100.46 335.354 101.07 334.454 101.49C333.554 101.91 332.594 102.12 331.574 102.12C330.494 102.12 329.504 101.93 328.604 101.55C327.724 101.17 326.974 100.65 326.354 99.99C325.734 99.33 325.254 98.56 324.914 97.68C324.574 96.78 324.404 95.82 324.404 94.8C324.404 93.78 324.574 92.82 324.914 91.92C325.254 91.02 325.734 90.24 326.354 89.58C326.974 88.9 327.724 88.37 328.604 87.99C329.484 87.59 330.464 87.39 331.544 87.39C332.564 87.39 333.534 87.61 334.454 88.05C335.394 88.49 336.134 89.16 336.674 90.06H336.734V87.78H339.464V101.28C339.464 102.32 339.334 103.31 339.074 104.25C338.814 105.21 338.374 106.05 337.754 106.77C337.134 107.51 336.324 108.1 335.324 108.54C334.324 108.98 333.084 109.2 331.604 109.2C330.364 109.2 329.114 108.97 327.854 108.51C326.614 108.07 325.544 107.44 324.644 106.62L326.444 104.43ZM327.314 94.74C327.314 95.4 327.414 96.03 327.614 96.63C327.834 97.23 328.144 97.76 328.544 98.22C328.964 98.68 329.464 99.05 330.044 99.33C330.624 99.61 331.284 99.75 332.024 99.75C332.744 99.75 333.404 99.62 334.004 99.36C334.604 99.1 335.114 98.75 335.534 98.31C335.954 97.85 336.274 97.32 336.494 96.72C336.734 96.1 336.854 95.44 336.854 94.74C336.854 94.06 336.734 93.42 336.494 92.82C336.274 92.22 335.944 91.69 335.504 91.23C335.084 90.77 334.574 90.41 333.974 90.15C333.394 89.87 332.744 89.73 332.024 89.73C331.284 89.73 330.624 89.87 330.044 90.15C329.464 90.41 328.964 90.77 328.544 91.23C328.144 91.67 327.834 92.2 327.614 92.82C327.414 93.42 327.314 94.06 327.314 94.74ZM344.289 90.84C344.289 90.46 344.279 89.97 344.259 89.37C344.239 88.77 344.209 88.24 344.169 87.78H346.839C346.879 88.14 346.909 88.56 346.929 89.04C346.949 89.5 346.959 89.88 346.959 90.18H347.049C347.449 89.34 348.029 88.67 348.789 88.17C349.569 87.65 350.439 87.39 351.399 87.39C351.839 87.39 352.209 87.43 352.509 87.51L352.389 90.12C351.989 90.02 351.559 89.97 351.099 89.97C350.419 89.97 349.829 90.1 349.329 90.36C348.829 90.6 348.409 90.93 348.069 91.35C347.749 91.77 347.509 92.26 347.349 92.82C347.189 93.36 347.109 93.93 347.109 94.53V102H344.289V90.84ZM365.041 93.63C365.021 93.07 364.921 92.55 364.741 92.07C364.581 91.57 364.331 91.14 363.991 90.78C363.671 90.42 363.261 90.14 362.761 89.94C362.281 89.72 361.711 89.61 361.051 89.61C360.451 89.61 359.881 89.72 359.341 89.94C358.821 90.14 358.361 90.42 357.961 90.78C357.581 91.14 357.261 91.57 357.001 92.07C356.761 92.55 356.621 93.07 356.581 93.63H365.041ZM367.891 94.77C367.891 94.93 367.891 95.09 367.891 95.25C367.891 95.41 367.881 95.57 367.861 95.73H356.581C356.601 96.33 356.731 96.9 356.971 97.44C357.231 97.96 357.571 98.42 357.991 98.82C358.411 99.2 358.891 99.5 359.431 99.72C359.991 99.94 360.581 100.05 361.201 100.05C362.161 100.05 362.991 99.84 363.691 99.42C364.391 99 364.941 98.49 365.341 97.89L367.321 99.48C366.561 100.48 365.661 101.22 364.621 101.7C363.601 102.16 362.461 102.39 361.201 102.39C360.121 102.39 359.121 102.21 358.201 101.85C357.281 101.49 356.491 100.99 355.831 100.35C355.171 99.69 354.651 98.9 354.271 97.98C353.891 97.06 353.701 96.04 353.701 94.92C353.701 93.82 353.881 92.81 354.241 91.89C354.621 90.95 355.141 90.15 355.801 89.49C356.461 88.83 357.241 88.32 358.141 87.96C359.041 87.58 360.011 87.39 361.051 87.39C362.091 87.39 363.031 87.56 363.871 87.9C364.731 88.24 365.451 88.73 366.031 89.37C366.631 90.01 367.091 90.79 367.411 91.71C367.731 92.61 367.891 93.63 367.891 94.77ZM382.238 93.63C382.218 93.07 382.118 92.55 381.938 92.07C381.778 91.57 381.528 91.14 381.188 90.78C380.868 90.42 380.458 90.14 379.958 89.94C379.478 89.72 378.908 89.61 378.248 89.61C377.648 89.61 377.078 89.72 376.538 89.94C376.018 90.14 375.558 90.42 375.158 90.78C374.778 91.14 374.458 91.57 374.198 92.07C373.958 92.55 373.818 93.07 373.778 93.63H382.238ZM385.088 94.77C385.088 94.93 385.088 95.09 385.088 95.25C385.088 95.41 385.078 95.57 385.058 95.73H373.778C373.798 96.33 373.928 96.9 374.168 97.44C374.428 97.96 374.768 98.42 375.188 98.82C375.608 99.2 376.088 99.5 376.628 99.72C377.188 99.94 377.778 100.05 378.398 100.05C379.358 100.05 380.188 99.84 380.888 99.42C381.588 99 382.138 98.49 382.538 97.89L384.518 99.48C383.758 100.48 382.858 101.22 381.818 101.7C380.798 102.16 379.658 102.39 378.398 102.39C377.318 102.39 376.318 102.21 375.398 101.85C374.478 101.49 373.688 100.99 373.028 100.35C372.368 99.69 371.848 98.9 371.468 97.98C371.088 97.06 370.898 96.04 370.898 94.92C370.898 93.82 371.078 92.81 371.438 91.89C371.818 90.95 372.338 90.15 372.998 89.49C373.658 88.83 374.438 88.32 375.338 87.96C376.238 87.58 377.208 87.39 378.248 87.39C379.288 87.39 380.228 87.56 381.068 87.9C381.928 88.24 382.648 88.73 383.228 89.37C383.828 90.01 384.288 90.79 384.608 91.71C384.928 92.61 385.088 93.63 385.088 94.77Z" fill="white"/>
<rect x="197" y="273" width="288" height="57" rx="28.5" fill="#6E7C97"/>
<path d="M227.45 311H224.15L233.36 289.76H236.06L245.18 311H241.82L239.66 305.78H229.58L227.45 311ZM230.63 303.17H238.58L234.62 293.21L230.63 303.17ZM259.098 308.75C258.558 309.61 257.818 310.27 256.878 310.73C255.958 311.17 254.988 311.39 253.968 311.39C252.868 311.39 251.878 311.2 250.998 310.82C250.118 310.42 249.368 309.88 248.748 309.2C248.128 308.52 247.648 307.72 247.308 306.8C246.968 305.88 246.798 304.9 246.798 303.86C246.798 302.82 246.968 301.85 247.308 300.95C247.648 300.03 248.128 299.23 248.748 298.55C249.388 297.87 250.148 297.34 251.028 296.96C251.908 296.58 252.878 296.39 253.938 296.39C255.098 296.39 256.108 296.64 256.968 297.14C257.828 297.62 258.508 298.21 259.008 298.91H259.068V288.32H261.888V311H259.158V308.75H259.098ZM249.738 303.86C249.738 304.52 249.838 305.16 250.038 305.78C250.238 306.4 250.538 306.95 250.938 307.43C251.338 307.91 251.828 308.3 252.408 308.6C252.988 308.88 253.668 309.02 254.448 309.02C255.168 309.02 255.818 308.88 256.398 308.6C256.998 308.32 257.508 307.95 257.928 307.49C258.348 307.01 258.668 306.46 258.888 305.84C259.128 305.22 259.248 304.57 259.248 303.89C259.248 303.21 259.128 302.56 258.888 301.94C258.668 301.32 258.348 300.77 257.928 300.29C257.508 299.81 256.998 299.43 256.398 299.15C255.818 298.87 255.168 298.73 254.448 298.73C253.668 298.73 252.988 298.87 252.408 299.15C251.828 299.43 251.338 299.81 250.938 300.29C250.538 300.77 250.238 301.32 250.038 301.94C249.838 302.56 249.738 303.2 249.738 303.86ZM278.141 308.75C277.601 309.61 276.861 310.27 275.921 310.73C275.001 311.17 274.031 311.39 273.011 311.39C271.911 311.39 270.921 311.2 270.041 310.82C269.161 310.42 268.411 309.88 267.791 309.2C267.171 308.52 266.691 307.72 266.351 306.8C266.011 305.88 265.841 304.9 265.841 303.86C265.841 302.82 266.011 301.85 266.351 300.95C266.691 300.03 267.171 299.23 267.791 298.55C268.431 297.87 269.191 297.34 270.071 296.96C270.951 296.58 271.921 296.39 272.981 296.39C274.141 296.39 275.151 296.64 276.011 297.14C276.871 297.62 277.551 298.21 278.051 298.91H278.111V288.32H280.931V311H278.201V308.75H278.141ZM268.781 303.86C268.781 304.52 268.881 305.16 269.081 305.78C269.281 306.4 269.581 306.95 269.981 307.43C270.381 307.91 270.871 308.3 271.451 308.6C272.031 308.88 272.711 309.02 273.491 309.02C274.211 309.02 274.861 308.88 275.441 308.6C276.041 308.32 276.551 307.95 276.971 307.49C277.391 307.01 277.711 306.46 277.931 305.84C278.171 305.22 278.291 304.57 278.291 303.89C278.291 303.21 278.171 302.56 277.931 301.94C277.711 301.32 277.391 300.77 276.971 300.29C276.551 299.81 276.041 299.43 275.441 299.15C274.861 298.87 274.211 298.73 273.491 298.73C272.711 298.73 272.031 298.87 271.451 299.15C270.871 299.43 270.381 299.81 269.981 300.29C269.581 300.77 269.281 301.32 269.081 301.94C268.881 302.56 268.781 303.2 268.781 303.86ZM302.194 301.79C302.194 300.73 301.874 299.95 301.234 299.45C300.594 298.93 299.744 298.67 298.684 298.67C297.884 298.67 297.124 298.83 296.404 299.15C295.704 299.45 295.114 299.84 294.634 300.32L293.134 298.52C293.834 297.86 294.684 297.34 295.684 296.96C296.704 296.58 297.794 296.39 298.954 296.39C299.974 296.39 300.854 296.54 301.594 296.84C302.354 297.12 302.974 297.51 303.454 298.01C303.934 298.51 304.294 299.1 304.534 299.78C304.774 300.46 304.894 301.19 304.894 301.97V308.18C304.894 308.66 304.904 309.17 304.924 309.71C304.964 310.23 305.024 310.66 305.104 311H302.554C302.394 310.32 302.314 309.64 302.314 308.96H302.224C301.704 309.72 301.044 310.31 300.244 310.73C299.464 311.15 298.534 311.36 297.454 311.36C296.894 311.36 296.304 311.28 295.684 311.12C295.084 310.98 294.534 310.74 294.034 310.4C293.534 310.06 293.114 309.61 292.774 309.05C292.454 308.49 292.294 307.8 292.294 306.98C292.294 305.9 292.584 305.05 293.164 304.43C293.744 303.79 294.504 303.31 295.444 302.99C296.384 302.65 297.444 302.43 298.624 302.33C299.804 302.23 300.994 302.18 302.194 302.18V301.79ZM301.504 304.22C300.804 304.22 300.074 304.25 299.314 304.31C298.574 304.37 297.894 304.49 297.274 304.67C296.674 304.85 296.174 305.12 295.774 305.48C295.374 305.84 295.174 306.32 295.174 306.92C295.174 307.34 295.254 307.69 295.414 307.97C295.594 308.25 295.824 308.48 296.104 308.66C296.384 308.84 296.694 308.97 297.034 309.05C297.374 309.11 297.724 309.14 298.084 309.14C299.404 309.14 300.414 308.75 301.114 307.97C301.834 307.17 302.194 306.17 302.194 304.97V304.22H301.504ZM317.104 299.84C317.104 299.46 317.094 298.97 317.074 298.37C317.054 297.77 317.024 297.24 316.984 296.78H319.654C319.694 297.14 319.724 297.56 319.744 298.04C319.764 298.5 319.774 298.88 319.774 299.18H319.864C320.264 298.34 320.844 297.67 321.604 297.17C322.384 296.65 323.254 296.39 324.214 296.39C324.654 296.39 325.024 296.43 325.324 296.51L325.204 299.12C324.804 299.02 324.374 298.97 323.914 298.97C323.234 298.97 322.644 299.1 322.144 299.36C321.644 299.6 321.224 299.93 320.884 300.35C320.564 300.77 320.324 301.26 320.164 301.82C320.004 302.36 319.924 302.93 319.924 303.53V311H317.104V299.84ZM337.856 302.63C337.836 302.07 337.736 301.55 337.556 301.07C337.396 300.57 337.146 300.14 336.806 299.78C336.486 299.42 336.076 299.14 335.576 298.94C335.096 298.72 334.526 298.61 333.866 298.61C333.266 298.61 332.696 298.72 332.156 298.94C331.636 299.14 331.176 299.42 330.776 299.78C330.396 300.14 330.076 300.57 329.816 301.07C329.576 301.55 329.436 302.07 329.396 302.63H337.856ZM340.706 303.77C340.706 303.93 340.706 304.09 340.706 304.25C340.706 304.41 340.696 304.57 340.676 304.73H329.396C329.416 305.33 329.546 305.9 329.786 306.44C330.046 306.96 330.386 307.42 330.806 307.82C331.226 308.2 331.706 308.5 332.246 308.72C332.806 308.94 333.396 309.05 334.016 309.05C334.976 309.05 335.806 308.84 336.506 308.42C337.206 308 337.756 307.49 338.156 306.89L340.136 308.48C339.376 309.48 338.476 310.22 337.436 310.7C336.416 311.16 335.276 311.39 334.016 311.39C332.936 311.39 331.936 311.21 331.016 310.85C330.096 310.49 329.306 309.99 328.646 309.35C327.986 308.69 327.466 307.9 327.086 306.98C326.706 306.06 326.516 305.04 326.516 303.92C326.516 302.82 326.696 301.81 327.056 300.89C327.436 299.95 327.956 299.15 328.616 298.49C329.276 297.83 330.056 297.32 330.956 296.96C331.856 296.58 332.826 296.39 333.866 296.39C334.906 296.39 335.846 296.56 336.686 296.9C337.546 297.24 338.266 297.73 338.846 298.37C339.446 299.01 339.906 299.79 340.226 300.71C340.546 301.61 340.706 302.63 340.706 303.77ZM352.323 300.38C352.003 299.86 351.553 299.44 350.973 299.12C350.393 298.78 349.743 298.61 349.023 298.61C348.703 298.61 348.383 298.65 348.063 298.73C347.743 298.79 347.453 298.9 347.193 299.06C346.953 299.2 346.753 299.39 346.593 299.63C346.453 299.85 346.383 300.13 346.383 300.47C346.383 301.07 346.653 301.52 347.193 301.82C347.733 302.1 348.543 302.36 349.623 302.6C350.303 302.76 350.933 302.95 351.513 303.17C352.093 303.39 352.593 303.67 353.013 304.01C353.453 304.33 353.793 304.72 354.033 305.18C354.273 305.64 354.393 306.18 354.393 306.8C354.393 307.64 354.233 308.35 353.913 308.93C353.593 309.51 353.163 309.99 352.623 310.37C352.103 310.73 351.503 310.99 350.823 311.15C350.143 311.31 349.443 311.39 348.723 311.39C347.643 311.39 346.583 311.18 345.543 310.76C344.523 310.34 343.673 309.7 342.993 308.84L345.003 307.13C345.383 307.69 345.903 308.16 346.563 308.54C347.243 308.92 347.983 309.11 348.783 309.11C349.143 309.11 349.483 309.08 349.803 309.02C350.143 308.94 350.443 308.82 350.703 308.66C350.983 308.5 351.203 308.29 351.363 308.03C351.523 307.77 351.603 307.44 351.603 307.04C351.603 306.38 351.283 305.89 350.643 305.57C350.023 305.25 349.103 304.95 347.883 304.67C347.403 304.55 346.913 304.41 346.413 304.25C345.933 304.07 345.493 303.83 345.093 303.53C344.693 303.23 344.363 302.86 344.103 302.42C343.863 301.96 343.743 301.4 343.743 300.74C343.743 299.98 343.893 299.33 344.193 298.79C344.513 298.23 344.923 297.78 345.423 297.44C345.923 297.08 346.493 296.82 347.133 296.66C347.773 296.48 348.433 296.39 349.113 296.39C350.133 296.39 351.113 296.59 352.053 296.99C353.013 297.39 353.753 297.97 354.273 298.73L352.323 300.38ZM360.793 318.2H357.973V296.78H360.733V299H360.823C361.283 298.24 361.953 297.62 362.833 297.14C363.733 296.64 364.773 296.39 365.953 296.39C367.013 296.39 367.973 296.58 368.833 296.96C369.713 297.34 370.463 297.87 371.083 298.55C371.723 299.23 372.213 300.03 372.553 300.95C372.893 301.85 373.063 302.82 373.063 303.86C373.063 304.9 372.893 305.88 372.553 306.8C372.213 307.72 371.733 308.52 371.113 309.2C370.493 309.88 369.743 310.42 368.863 310.82C367.983 311.2 366.993 311.39 365.893 311.39C364.873 311.39 363.913 311.17 363.013 310.73C362.113 310.29 361.403 309.67 360.883 308.87H360.793V318.2ZM370.153 303.86C370.153 303.2 370.053 302.56 369.853 301.94C369.653 301.32 369.353 300.77 368.953 300.29C368.553 299.81 368.053 299.43 367.453 299.15C366.873 298.87 366.193 298.73 365.413 298.73C364.693 298.73 364.033 298.87 363.433 299.15C362.853 299.43 362.353 299.81 361.933 300.29C361.513 300.77 361.183 301.32 360.943 301.94C360.723 302.56 360.613 303.21 360.613 303.89C360.613 304.57 360.723 305.22 360.943 305.84C361.183 306.46 361.513 307.01 361.933 307.49C362.353 307.95 362.853 308.32 363.433 308.6C364.033 308.88 364.693 309.02 365.413 309.02C366.193 309.02 366.873 308.88 367.453 308.6C368.053 308.3 368.553 307.91 368.953 307.43C369.353 306.95 369.653 306.4 369.853 305.78C370.053 305.16 370.153 304.52 370.153 303.86ZM391.387 303.86C391.387 304.96 391.187 305.97 390.787 306.89C390.407 307.81 389.867 308.61 389.167 309.29C388.487 309.95 387.677 310.47 386.737 310.85C385.797 311.21 384.787 311.39 383.707 311.39C382.627 311.39 381.617 311.21 380.677 310.85C379.737 310.47 378.927 309.95 378.247 309.29C377.567 308.61 377.027 307.81 376.627 306.89C376.247 305.97 376.057 304.96 376.057 303.86C376.057 302.76 376.247 301.76 376.627 300.86C377.027 299.94 377.567 299.15 378.247 298.49C378.927 297.83 379.737 297.32 380.677 296.96C381.617 296.58 382.627 296.39 383.707 296.39C384.787 296.39 385.797 296.58 386.737 296.96C387.677 297.32 388.487 297.83 389.167 298.49C389.867 299.15 390.407 299.94 390.787 300.86C391.187 301.76 391.387 302.76 391.387 303.86ZM388.447 303.86C388.447 303.18 388.337 302.53 388.117 301.91C387.917 301.29 387.617 300.75 387.217 300.29C386.817 299.81 386.317 299.43 385.717 299.15C385.137 298.87 384.467 298.73 383.707 298.73C382.947 298.73 382.267 298.87 381.667 299.15C381.087 299.43 380.597 299.81 380.197 300.29C379.797 300.75 379.487 301.29 379.267 301.91C379.067 302.53 378.967 303.18 378.967 303.86C378.967 304.54 379.067 305.19 379.267 305.81C379.487 306.43 379.797 306.98 380.197 307.46C380.597 307.94 381.087 308.32 381.667 308.6C382.267 308.88 382.947 309.02 383.707 309.02C384.467 309.02 385.137 308.88 385.717 308.6C386.317 308.32 386.817 307.94 387.217 307.46C387.617 306.98 387.917 306.43 388.117 305.81C388.337 305.19 388.447 304.54 388.447 303.86ZM397.847 296.78C397.887 297.14 397.917 297.55 397.937 298.01C397.957 298.45 397.967 298.82 397.967 299.12H398.057C398.237 298.74 398.477 298.39 398.777 298.07C399.097 297.73 399.457 297.44 399.857 297.2C400.257 296.94 400.697 296.74 401.177 296.6C401.657 296.46 402.157 296.39 402.677 296.39C403.597 296.39 404.387 296.55 405.047 296.87C405.707 297.17 406.257 297.58 406.697 298.1C407.137 298.62 407.457 299.23 407.657 299.93C407.877 300.63 407.987 301.38 407.987 302.18V311H405.167V303.11C405.167 302.53 405.117 301.98 405.017 301.46C404.937 300.94 404.777 300.48 404.537 300.08C404.297 299.68 403.967 299.36 403.547 299.12C403.127 298.88 402.587 298.76 401.927 298.76C400.807 298.76 399.887 299.19 399.167 300.05C398.467 300.89 398.117 302.02 398.117 303.44V311H395.297V299.84C395.297 299.46 395.287 298.97 395.267 298.37C395.247 297.77 395.217 297.24 395.177 296.78H397.847ZM420.438 300.38C420.118 299.86 419.668 299.44 419.088 299.12C418.508 298.78 417.858 298.61 417.138 298.61C416.818 298.61 416.498 298.65 416.178 298.73C415.858 298.79 415.568 298.9 415.308 299.06C415.068 299.2 414.868 299.39 414.708 299.63C414.568 299.85 414.498 300.13 414.498 300.47C414.498 301.07 414.768 301.52 415.308 301.82C415.848 302.1 416.658 302.36 417.738 302.6C418.418 302.76 419.048 302.95 419.628 303.17C420.208 303.39 420.708 303.67 421.128 304.01C421.568 304.33 421.908 304.72 422.148 305.18C422.388 305.64 422.508 306.18 422.508 306.8C422.508 307.64 422.348 308.35 422.028 308.93C421.708 309.51 421.278 309.99 420.738 310.37C420.218 310.73 419.618 310.99 418.938 311.15C418.258 311.31 417.558 311.39 416.838 311.39C415.758 311.39 414.698 311.18 413.658 310.76C412.638 310.34 411.788 309.7 411.108 308.84L413.118 307.13C413.498 307.69 414.018 308.16 414.678 308.54C415.358 308.92 416.098 309.11 416.898 309.11C417.258 309.11 417.598 309.08 417.918 309.02C418.258 308.94 418.558 308.82 418.818 308.66C419.098 308.5 419.318 308.29 419.478 308.03C419.638 307.77 419.718 307.44 419.718 307.04C419.718 306.38 419.398 305.89 418.758 305.57C418.138 305.25 417.218 304.95 415.998 304.67C415.518 304.55 415.028 304.41 414.528 304.25C414.048 304.07 413.608 303.83 413.208 303.53C412.808 303.23 412.478 302.86 412.218 302.42C411.978 301.96 411.858 301.4 411.858 300.74C411.858 299.98 412.008 299.33 412.308 298.79C412.628 298.23 413.038 297.78 413.538 297.44C414.038 297.08 414.608 296.82 415.248 296.66C415.888 296.48 416.548 296.39 417.228 296.39C418.248 296.39 419.228 296.59 420.168 296.99C421.128 297.39 421.868 297.97 422.388 298.73L420.438 300.38ZM436.498 302.63C436.478 302.07 436.378 301.55 436.198 301.07C436.038 300.57 435.788 300.14 435.448 299.78C435.128 299.42 434.718 299.14 434.218 298.94C433.738 298.72 433.168 298.61 432.508 298.61C431.908 298.61 431.338 298.72 430.798 298.94C430.278 299.14 429.818 299.42 429.418 299.78C429.038 300.14 428.718 300.57 428.458 301.07C428.218 301.55 428.078 302.07 428.038 302.63H436.498ZM439.348 303.77C439.348 303.93 439.348 304.09 439.348 304.25C439.348 304.41 439.338 304.57 439.318 304.73H428.038C428.058 305.33 428.188 305.9 428.428 306.44C428.688 306.96 429.028 307.42 429.448 307.82C429.868 308.2 430.348 308.5 430.888 308.72C431.448 308.94 432.038 309.05 432.658 309.05C433.618 309.05 434.448 308.84 435.148 308.42C435.848 308 436.398 307.49 436.798 306.89L438.778 308.48C438.018 309.48 437.118 310.22 436.078 310.7C435.058 311.16 433.918 311.39 432.658 311.39C431.578 311.39 430.578 311.21 429.658 310.85C428.738 310.49 427.948 309.99 427.288 309.35C426.628 308.69 426.108 307.9 425.728 306.98C425.348 306.06 425.158 305.04 425.158 303.92C425.158 302.82 425.338 301.81 425.698 300.89C426.078 299.95 426.598 299.15 427.258 298.49C427.918 297.83 428.698 297.32 429.598 296.96C430.498 296.58 431.468 296.39 432.508 296.39C433.548 296.39 434.488 296.56 435.328 296.9C436.188 297.24 436.908 297.73 437.488 298.37C438.088 299.01 438.548 299.79 438.868 300.71C439.188 301.61 439.348 302.63 439.348 303.77Z" fill="white"/>
<rect x="449.5" y="62.5" width="183" height="60" rx="30" stroke="#D93D4B" stroke-width="3"/>
<path d="M478.55 102H475.58V80.76H478.55V102ZM502.415 99.75C501.875 100.61 501.135 101.27 500.195 101.73C499.275 102.17 498.305 102.39 497.285 102.39C496.185 102.39 495.195 102.2 494.315 101.82C493.435 101.42 492.685 100.88 492.065 100.2C491.445 99.52 490.965 98.72 490.625 97.8C490.285 96.88 490.115 95.9 490.115 94.86C490.115 93.82 490.285 92.85 490.625 91.95C490.965 91.03 491.445 90.23 492.065 89.55C492.705 88.87 493.465 88.34 494.345 87.96C495.225 87.58 496.195 87.39 497.255 87.39C498.415 87.39 499.425 87.64 500.285 88.14C501.145 88.62 501.825 89.21 502.325 89.91H502.385V79.32H505.205V102H502.475V99.75H502.415ZM493.055 94.86C493.055 95.52 493.155 96.16 493.355 96.78C493.555 97.4 493.855 97.95 494.255 98.43C494.655 98.91 495.145 99.3 495.725 99.6C496.305 99.88 496.985 100.02 497.765 100.02C498.485 100.02 499.135 99.88 499.715 99.6C500.315 99.32 500.825 98.95 501.245 98.49C501.665 98.01 501.985 97.46 502.205 96.84C502.445 96.22 502.565 95.57 502.565 94.89C502.565 94.21 502.445 93.56 502.205 92.94C501.985 92.32 501.665 91.77 501.245 91.29C500.825 90.81 500.315 90.43 499.715 90.15C499.135 89.87 498.485 89.73 497.765 89.73C496.985 89.73 496.305 89.87 495.725 90.15C495.145 90.43 494.655 90.81 494.255 91.29C493.855 91.77 493.555 92.32 493.355 92.94C493.155 93.56 493.055 94.2 493.055 94.86ZM512.968 102H510.148V87.78H512.968V102ZM513.448 82.65C513.448 83.17 513.258 83.6 512.878 83.94C512.518 84.28 512.078 84.45 511.558 84.45C511.038 84.45 510.598 84.28 510.238 83.94C509.878 83.58 509.698 83.15 509.698 82.65C509.698 82.13 509.878 81.7 510.238 81.36C510.598 81 511.038 80.82 511.558 80.82C512.078 80.82 512.518 81 512.878 81.36C513.258 81.7 513.448 82.13 513.448 82.65ZM525.561 91.38C525.241 90.86 524.791 90.44 524.211 90.12C523.631 89.78 522.981 89.61 522.261 89.61C521.941 89.61 521.621 89.65 521.301 89.73C520.981 89.79 520.691 89.9 520.431 90.06C520.191 90.2 519.991 90.39 519.831 90.63C519.691 90.85 519.621 91.13 519.621 91.47C519.621 92.07 519.891 92.52 520.431 92.82C520.971 93.1 521.781 93.36 522.861 93.6C523.541 93.76 524.171 93.95 524.751 94.17C525.331 94.39 525.831 94.67 526.251 95.01C526.691 95.33 527.031 95.72 527.271 96.18C527.511 96.64 527.631 97.18 527.631 97.8C527.631 98.64 527.471 99.35 527.151 99.93C526.831 100.51 526.401 100.99 525.861 101.37C525.341 101.73 524.741 101.99 524.061 102.15C523.381 102.31 522.681 102.39 521.961 102.39C520.881 102.39 519.821 102.18 518.781 101.76C517.761 101.34 516.911 100.7 516.231 99.84L518.241 98.13C518.621 98.69 519.141 99.16 519.801 99.54C520.481 99.92 521.221 100.11 522.021 100.11C522.381 100.11 522.721 100.08 523.041 100.02C523.381 99.94 523.681 99.82 523.941 99.66C524.221 99.5 524.441 99.29 524.601 99.03C524.761 98.77 524.841 98.44 524.841 98.04C524.841 97.38 524.521 96.89 523.881 96.57C523.261 96.25 522.341 95.95 521.121 95.67C520.641 95.55 520.151 95.41 519.651 95.25C519.171 95.07 518.731 94.83 518.331 94.53C517.931 94.23 517.601 93.86 517.341 93.42C517.101 92.96 516.981 92.4 516.981 91.74C516.981 90.98 517.131 90.33 517.431 89.79C517.751 89.23 518.161 88.78 518.661 88.44C519.161 88.08 519.731 87.82 520.371 87.66C521.011 87.48 521.671 87.39 522.351 87.39C523.371 87.39 524.351 87.59 525.291 87.99C526.251 88.39 526.991 88.97 527.511 89.73L525.561 91.38ZM540.061 92.79C540.061 91.73 539.741 90.95 539.101 90.45C538.461 89.93 537.611 89.67 536.551 89.67C535.751 89.67 534.991 89.83 534.271 90.15C533.571 90.45 532.981 90.84 532.501 91.32L531.001 89.52C531.701 88.86 532.551 88.34 533.551 87.96C534.571 87.58 535.661 87.39 536.821 87.39C537.841 87.39 538.721 87.54 539.461 87.84C540.221 88.12 540.841 88.51 541.321 89.01C541.801 89.51 542.161 90.1 542.401 90.78C542.641 91.46 542.761 92.19 542.761 92.97V99.18C542.761 99.66 542.771 100.17 542.791 100.71C542.831 101.23 542.891 101.66 542.971 102H540.421C540.261 101.32 540.181 100.64 540.181 99.96H540.091C539.571 100.72 538.911 101.31 538.111 101.73C537.331 102.15 536.401 102.36 535.321 102.36C534.761 102.36 534.171 102.28 533.551 102.12C532.951 101.98 532.401 101.74 531.901 101.4C531.401 101.06 530.981 100.61 530.641 100.05C530.321 99.49 530.161 98.8 530.161 97.98C530.161 96.9 530.451 96.05 531.031 95.43C531.611 94.79 532.371 94.31 533.311 93.99C534.251 93.65 535.311 93.43 536.491 93.33C537.671 93.23 538.861 93.18 540.061 93.18V92.79ZM539.371 95.22C538.671 95.22 537.941 95.25 537.181 95.31C536.441 95.37 535.761 95.49 535.141 95.67C534.541 95.85 534.041 96.12 533.641 96.48C533.241 96.84 533.041 97.32 533.041 97.92C533.041 98.34 533.121 98.69 533.281 98.97C533.461 99.25 533.691 99.48 533.971 99.66C534.251 99.84 534.561 99.97 534.901 100.05C535.241 100.11 535.591 100.14 535.951 100.14C537.271 100.14 538.281 99.75 538.981 98.97C539.701 98.17 540.061 97.17 540.061 95.97V95.22H539.371ZM548.581 104.43C549.201 105.13 549.971 105.69 550.891 106.11C551.831 106.53 552.791 106.74 553.771 106.74C554.711 106.74 555.501 106.6 556.141 106.32C556.781 106.06 557.291 105.69 557.671 105.21C558.071 104.75 558.351 104.2 558.511 103.56C558.691 102.92 558.781 102.23 558.781 101.49V99.66H558.721C558.201 100.46 557.491 101.07 556.591 101.49C555.691 101.91 554.731 102.12 553.711 102.12C552.631 102.12 551.641 101.93 550.741 101.55C549.861 101.17 549.111 100.65 548.491 99.99C547.871 99.33 547.391 98.56 547.051 97.68C546.711 96.78 546.541 95.82 546.541 94.8C546.541 93.78 546.711 92.82 547.051 91.92C547.391 91.02 547.871 90.24 548.491 89.58C549.111 88.9 549.861 88.37 550.741 87.99C551.621 87.59 552.601 87.39 553.681 87.39C554.701 87.39 555.671 87.61 556.591 88.05C557.531 88.49 558.271 89.16 558.811 90.06H558.871V87.78H561.601V101.28C561.601 102.32 561.471 103.31 561.211 104.25C560.951 105.21 560.511 106.05 559.891 106.77C559.271 107.51 558.461 108.1 557.461 108.54C556.461 108.98 555.221 109.2 553.741 109.2C552.501 109.2 551.251 108.97 549.991 108.51C548.751 108.07 547.681 107.44 546.781 106.62L548.581 104.43ZM549.451 94.74C549.451 95.4 549.551 96.03 549.751 96.63C549.971 97.23 550.281 97.76 550.681 98.22C551.101 98.68 551.601 99.05 552.181 99.33C552.761 99.61 553.421 99.75 554.161 99.75C554.881 99.75 555.541 99.62 556.141 99.36C556.741 99.1 557.251 98.75 557.671 98.31C558.091 97.85 558.411 97.32 558.631 96.72C558.871 96.1 558.991 95.44 558.991 94.74C558.991 94.06 558.871 93.42 558.631 92.82C558.411 92.22 558.081 91.69 557.641 91.23C557.221 90.77 556.711 90.41 556.111 90.15C555.531 89.87 554.881 89.73 554.161 89.73C553.421 89.73 552.761 89.87 552.181 90.15C551.601 90.41 551.101 90.77 550.681 91.23C550.281 91.67 549.971 92.2 549.751 92.82C549.551 93.42 549.451 94.06 549.451 94.74ZM566.426 90.84C566.426 90.46 566.416 89.97 566.396 89.37C566.376 88.77 566.346 88.24 566.306 87.78H568.976C569.016 88.14 569.046 88.56 569.066 89.04C569.086 89.5 569.096 89.88 569.096 90.18H569.186C569.586 89.34 570.166 88.67 570.926 88.17C571.706 87.65 572.576 87.39 573.536 87.39C573.976 87.39 574.346 87.43 574.646 87.51L574.526 90.12C574.126 90.02 573.696 89.97 573.236 89.97C572.556 89.97 571.966 90.1 571.466 90.36C570.966 90.6 570.546 90.93 570.206 91.35C569.886 91.77 569.646 92.26 569.486 92.82C569.326 93.36 569.246 93.93 569.246 94.53V102H566.426V90.84ZM587.178 93.63C587.158 93.07 587.058 92.55 586.878 92.07C586.718 91.57 586.468 91.14 586.128 90.78C585.808 90.42 585.398 90.14 584.898 89.94C584.418 89.72 583.848 89.61 583.188 89.61C582.588 89.61 582.018 89.72 581.478 89.94C580.958 90.14 580.498 90.42 580.098 90.78C579.718 91.14 579.398 91.57 579.138 92.07C578.898 92.55 578.758 93.07 578.718 93.63H587.178ZM590.028 94.77C590.028 94.93 590.028 95.09 590.028 95.25C590.028 95.41 590.018 95.57 589.998 95.73H578.718C578.738 96.33 578.868 96.9 579.108 97.44C579.368 97.96 579.708 98.42 580.128 98.82C580.548 99.2 581.028 99.5 581.568 99.72C582.128 99.94 582.718 100.05 583.338 100.05C584.298 100.05 585.128 99.84 585.828 99.42C586.528 99 587.078 98.49 587.478 97.89L589.458 99.48C588.698 100.48 587.798 101.22 586.758 101.7C585.738 102.16 584.598 102.39 583.338 102.39C582.258 102.39 581.258 102.21 580.338 101.85C579.418 101.49 578.628 100.99 577.968 100.35C577.308 99.69 576.788 98.9 576.408 97.98C576.028 97.06 575.838 96.04 575.838 94.92C575.838 93.82 576.018 92.81 576.378 91.89C576.758 90.95 577.278 90.15 577.938 89.49C578.598 88.83 579.378 88.32 580.278 87.96C581.178 87.58 582.148 87.39 583.188 87.39C584.228 87.39 585.168 87.56 586.008 87.9C586.868 88.24 587.588 88.73 588.168 89.37C588.768 90.01 589.228 90.79 589.548 91.71C589.868 92.61 590.028 93.63 590.028 94.77ZM604.375 93.63C604.355 93.07 604.255 92.55 604.075 92.07C603.915 91.57 603.665 91.14 603.325 90.78C603.005 90.42 602.595 90.14 602.095 89.94C601.615 89.72 601.045 89.61 600.385 89.61C599.785 89.61 599.215 89.72 598.675 89.94C598.155 90.14 597.695 90.42 597.295 90.78C596.915 91.14 596.595 91.57 596.335 92.07C596.095 92.55 595.955 93.07 595.915 93.63H604.375ZM607.225 94.77C607.225 94.93 607.225 95.09 607.225 95.25C607.225 95.41 607.215 95.57 607.195 95.73H595.915C595.935 96.33 596.065 96.9 596.305 97.44C596.565 97.96 596.905 98.42 597.325 98.82C597.745 99.2 598.225 99.5 598.765 99.72C599.325 99.94 599.915 100.05 600.535 100.05C601.495 100.05 602.325 99.84 603.025 99.42C603.725 99 604.275 98.49 604.675 97.89L606.655 99.48C605.895 100.48 604.995 101.22 603.955 101.7C602.935 102.16 601.795 102.39 600.535 102.39C599.455 102.39 598.455 102.21 597.535 101.85C596.615 101.49 595.825 100.99 595.165 100.35C594.505 99.69 593.985 98.9 593.605 97.98C593.225 97.06 593.035 96.04 593.035 94.92C593.035 93.82 593.215 92.81 593.575 91.89C593.955 90.95 594.475 90.15 595.135 89.49C595.795 88.83 596.575 88.32 597.475 87.96C598.375 87.58 599.345 87.39 600.385 87.39C601.425 87.39 602.365 87.56 603.205 87.9C604.065 88.24 604.785 88.73 605.365 89.37C605.965 90.01 606.425 90.79 606.745 91.71C607.065 92.61 607.225 93.63 607.225 94.77Z" fill="#D93D4B"/>
<rect x="41.5" y="62.5" width="183" height="60" rx="30" stroke="#2072F9" stroke-width="3"/>
<path d="M80.66 102H66.8V99.21L75.26 90.81C75.9 90.15 76.45 89.46 76.91 88.74C77.37 88.02 77.6 87.21 77.6 86.31C77.6 85.75 77.5 85.25 77.3 84.81C77.1 84.35 76.83 83.96 76.49 83.64C76.15 83.32 75.75 83.08 75.29 82.92C74.83 82.74 74.34 82.65 73.82 82.65C72.74 82.65 71.85 83 71.15 83.7C70.45 84.38 70.01 85.26 69.83 86.34L66.98 85.86C67.1 85.06 67.35 84.32 67.73 83.64C68.13 82.94 68.63 82.34 69.23 81.84C69.83 81.32 70.52 80.92 71.3 80.64C72.1 80.36 72.95 80.22 73.85 80.22C74.73 80.22 75.57 80.35 76.37 80.61C77.19 80.87 77.91 81.25 78.53 81.75C79.15 82.25 79.64 82.88 80 83.64C80.38 84.4 80.57 85.27 80.57 86.25C80.57 86.93 80.48 87.56 80.3 88.14C80.12 88.72 79.87 89.27 79.55 89.79C79.25 90.31 78.89 90.81 78.47 91.29C78.05 91.75 77.61 92.21 77.15 92.67L70.25 99.39H80.66V102ZM89.2318 89.7H90.1618C90.7618 89.7 91.3418 89.65 91.9018 89.55C92.4818 89.43 92.9918 89.24 93.4318 88.98C93.8718 88.7 94.2218 88.33 94.4818 87.87C94.7618 87.41 94.9018 86.84 94.9018 86.16C94.9018 85.62 94.8018 85.14 94.6018 84.72C94.4018 84.28 94.1218 83.91 93.7618 83.61C93.4218 83.31 93.0218 83.08 92.5618 82.92C92.1218 82.74 91.6518 82.65 91.1518 82.65C90.2518 82.65 89.4818 82.88 88.8418 83.34C88.2218 83.8 87.7518 84.44 87.4318 85.26L84.7918 84.33C85.3118 83.05 86.1418 82.05 87.2818 81.33C88.4418 80.59 89.7718 80.22 91.2718 80.22C92.1518 80.22 92.9818 80.35 93.7618 80.61C94.5618 80.85 95.2618 81.21 95.8618 81.69C96.4618 82.17 96.9318 82.77 97.2718 83.49C97.6318 84.21 97.8118 85.04 97.8118 85.98C97.8118 86.58 97.7118 87.14 97.5118 87.66C97.3318 88.18 97.0718 88.65 96.7318 89.07C96.4118 89.49 96.0218 89.85 95.5618 90.15C95.1018 90.45 94.6018 90.67 94.0618 90.81V90.87C94.6818 90.99 95.2518 91.2 95.7718 91.5C96.3118 91.8 96.7718 92.18 97.1518 92.64C97.5318 93.08 97.8318 93.59 98.0518 94.17C98.2718 94.75 98.3818 95.38 98.3818 96.06C98.3818 97.12 98.1818 98.06 97.7818 98.88C97.3818 99.68 96.8518 100.35 96.1918 100.89C95.5318 101.43 94.7718 101.84 93.9118 102.12C93.0518 102.4 92.1718 102.54 91.2718 102.54C89.5918 102.54 88.1118 102.16 86.8318 101.4C85.5518 100.64 84.6218 99.46 84.0418 97.86L86.7418 96.96C87.0618 97.88 87.6018 98.63 88.3618 99.21C89.1418 99.79 90.0918 100.08 91.2118 100.08C91.7518 100.08 92.2718 100 92.7718 99.84C93.2918 99.66 93.7518 99.4 94.1518 99.06C94.5518 98.72 94.8718 98.3 95.1118 97.8C95.3518 97.3 95.4718 96.71 95.4718 96.03C95.4718 95.29 95.3118 94.67 94.9918 94.17C94.6718 93.67 94.2518 93.27 93.7318 92.97C93.2318 92.65 92.6618 92.43 92.0218 92.31C91.3818 92.17 90.7518 92.1 90.1318 92.1H89.2318V89.7ZM116.134 83.4L107.614 102H104.284L113.134 83.34H102.604V80.76H116.134V83.4ZM135.128 98.16H135.218L141.608 80.76H144.818L136.478 102H133.718L125.438 80.76H128.738L135.128 98.16ZM149.499 102H146.679V87.78H149.499V102ZM149.979 82.65C149.979 83.17 149.789 83.6 149.409 83.94C149.049 84.28 148.609 84.45 148.089 84.45C147.569 84.45 147.129 84.28 146.769 83.94C146.409 83.58 146.229 83.15 146.229 82.65C146.229 82.13 146.409 81.7 146.769 81.36C147.129 81 147.569 80.82 148.089 80.82C148.609 80.82 149.049 81 149.409 81.36C149.789 81.7 149.979 82.13 149.979 82.65ZM164.822 93.63C164.802 93.07 164.702 92.55 164.522 92.07C164.362 91.57 164.112 91.14 163.772 90.78C163.452 90.42 163.042 90.14 162.542 89.94C162.062 89.72 161.492 89.61 160.832 89.61C160.232 89.61 159.662 89.72 159.122 89.94C158.602 90.14 158.142 90.42 157.742 90.78C157.362 91.14 157.042 91.57 156.782 92.07C156.542 92.55 156.402 93.07 156.362 93.63H164.822ZM167.672 94.77C167.672 94.93 167.672 95.09 167.672 95.25C167.672 95.41 167.662 95.57 167.642 95.73H156.362C156.382 96.33 156.512 96.9 156.752 97.44C157.012 97.96 157.352 98.42 157.772 98.82C158.192 99.2 158.672 99.5 159.212 99.72C159.772 99.94 160.362 100.05 160.982 100.05C161.942 100.05 162.772 99.84 163.472 99.42C164.172 99 164.722 98.49 165.122 97.89L167.102 99.48C166.342 100.48 165.442 101.22 164.402 101.7C163.382 102.16 162.242 102.39 160.982 102.39C159.902 102.39 158.902 102.21 157.982 101.85C157.062 101.49 156.272 100.99 155.612 100.35C154.952 99.69 154.432 98.9 154.052 97.98C153.672 97.06 153.482 96.04 153.482 94.92C153.482 93.82 153.662 92.81 154.022 91.89C154.402 90.95 154.922 90.15 155.582 89.49C156.242 88.83 157.022 88.32 157.922 87.96C158.822 87.58 159.792 87.39 160.832 87.39C161.872 87.39 162.812 87.56 163.652 87.9C164.512 88.24 165.232 88.73 165.812 89.37C166.412 90.01 166.872 90.79 167.192 91.71C167.512 92.61 167.672 93.63 167.672 94.77ZM172.66 87.78L175.87 98.64H175.93L179.32 87.78H182.29L185.74 98.64H185.8L189.01 87.78H191.98L187.27 102H184.33L180.82 91.32H180.76L177.28 102H174.34L169.6 87.78H172.66ZM202.493 91.38C202.173 90.86 201.723 90.44 201.143 90.12C200.563 89.78 199.913 89.61 199.193 89.61C198.873 89.61 198.553 89.65 198.233 89.73C197.913 89.79 197.623 89.9 197.363 90.06C197.123 90.2 196.923 90.39 196.763 90.63C196.623 90.85 196.553 91.13 196.553 91.47C196.553 92.07 196.823 92.52 197.363 92.82C197.903 93.1 198.713 93.36 199.793 93.6C200.473 93.76 201.103 93.95 201.683 94.17C202.263 94.39 202.763 94.67 203.183 95.01C203.623 95.33 203.963 95.72 204.203 96.18C204.443 96.64 204.563 97.18 204.563 97.8C204.563 98.64 204.403 99.35 204.083 99.93C203.763 100.51 203.333 100.99 202.793 101.37C202.273 101.73 201.673 101.99 200.993 102.15C200.313 102.31 199.613 102.39 198.893 102.39C197.813 102.39 196.753 102.18 195.713 101.76C194.693 101.34 193.843 100.7 193.163 99.84L195.173 98.13C195.553 98.69 196.073 99.16 196.733 99.54C197.413 99.92 198.153 100.11 198.953 100.11C199.313 100.11 199.653 100.08 199.973 100.02C200.313 99.94 200.613 99.82 200.873 99.66C201.153 99.5 201.373 99.29 201.533 99.03C201.693 98.77 201.773 98.44 201.773 98.04C201.773 97.38 201.453 96.89 200.813 96.57C200.193 96.25 199.273 95.95 198.053 95.67C197.573 95.55 197.083 95.41 196.583 95.25C196.103 95.07 195.663 94.83 195.263 94.53C194.863 94.23 194.533 93.86 194.273 93.42C194.033 92.96 193.913 92.4 193.913 91.74C193.913 90.98 194.063 90.33 194.363 89.79C194.683 89.23 195.093 88.78 195.593 88.44C196.093 88.08 196.663 87.82 197.303 87.66C197.943 87.48 198.603 87.39 199.283 87.39C200.303 87.39 201.283 87.59 202.223 87.99C203.183 88.39 203.923 88.97 204.443 89.73L202.493 91.38Z" fill="#2072F9"/>
<path d="M510.38 343.285L497.843 330.747L506.787 325.58C507.486 325.177 507.893 324.409 507.835 323.604C507.777 322.799 507.264 322.098 506.514 321.799L466.629 305.889C465.847 305.577 464.954 305.761 464.358 306.356C463.763 306.951 463.579 307.844 463.891 308.626L479.799 348.516C480.098 349.266 480.799 349.779 481.604 349.837C482.41 349.895 483.177 349.489 483.58 348.789L488.746 339.845L501.283 352.383C501.678 352.778 502.214 353 502.773 353C503.332 353 503.868 352.778 504.263 352.383L510.38 346.264C511.203 345.441 511.203 344.107 510.38 343.285Z" fill="black"/>
<path d="M457.251 296.269C456.428 295.446 455.094 295.446 454.271 296.269C453.449 297.091 453.449 298.425 454.271 299.248L458.952 303.93C459.364 304.341 459.903 304.547 460.442 304.547C460.981 304.547 461.52 304.341 461.932 303.93C462.754 303.107 462.754 301.773 461.932 300.95L457.251 296.269Z" fill="black"/>
<path d="M458.837 310.833C458.837 309.67 457.894 308.727 456.73 308.727H450.11C448.946 308.727 448.003 309.67 448.003 310.833C448.003 311.997 448.946 312.94 450.11 312.94H456.73C457.894 312.94 458.837 311.997 458.837 310.833Z" fill="black"/>
<path d="M457.983 317.336L453.301 322.018C452.479 322.84 452.479 324.174 453.301 324.997C453.713 325.408 454.252 325.614 454.791 325.614C455.33 325.614 455.869 325.408 456.281 324.997L460.962 320.316C461.785 319.493 461.785 318.159 460.962 317.336C460.14 316.514 458.806 316.513 457.983 317.336Z" fill="black"/>
<path d="M468.835 300.835C469.999 300.835 470.942 299.891 470.942 298.728V292.107C470.942 290.943 469.999 290 468.835 290C467.672 290 466.728 290.943 466.728 292.107V298.728C466.728 299.891 467.672 300.835 468.835 300.835Z" fill="black"/>
<path d="M476.826 303.577C477.366 303.577 477.905 303.371 478.316 302.96L482.997 298.279C483.82 297.456 483.82 296.122 482.997 295.299C482.174 294.477 480.84 294.477 480.017 295.299L475.336 299.981C474.514 300.803 474.514 302.137 475.336 302.96C475.748 303.371 476.287 303.577 476.826 303.577Z" fill="black"/>
<path d="M63.976 226H61.384V200.512H68.872C70.12 200.512 71.272 200.632 72.328 200.872C73.408 201.112 74.332 201.508 75.1 202.06C75.892 202.588 76.504 203.284 76.936 204.148C77.368 205.012 77.584 206.068 77.584 207.316C77.584 208.252 77.416 209.104 77.08 209.872C76.744 210.64 76.288 211.312 75.712 211.888C75.136 212.44 74.452 212.884 73.66 213.22C72.868 213.556 72.004 213.772 71.068 213.868L78.52 226H75.352L68.296 214.084H63.976V226ZM63.976 211.852H68.476C70.564 211.852 72.172 211.48 73.3 210.736C74.428 209.968 74.992 208.828 74.992 207.316C74.992 206.476 74.836 205.768 74.524 205.192C74.212 204.616 73.78 204.148 73.228 203.788C72.676 203.428 72.004 203.164 71.212 202.996C70.42 202.828 69.544 202.744 68.584 202.744H63.976V211.852ZM92.9889 215.128C92.9889 213.664 92.6049 212.572 91.8369 211.852C91.0689 211.132 89.9529 210.772 88.4889 210.772C87.4809 210.772 86.5449 210.952 85.6809 211.312C84.8169 211.672 84.0849 212.152 83.4849 212.752L82.1169 211.132C82.8129 210.436 83.7249 209.86 84.8529 209.404C86.0049 208.948 87.3009 208.72 88.7409 208.72C89.6529 208.72 90.5049 208.852 91.2969 209.116C92.0889 209.356 92.7849 209.728 93.3849 210.232C93.9849 210.736 94.4529 211.372 94.7889 212.14C95.1249 212.908 95.2929 213.808 95.2929 214.84V222.22C95.2929 222.868 95.3169 223.54 95.3649 224.236C95.4129 224.932 95.4849 225.52 95.5809 226H93.3849C93.3129 225.592 93.2529 225.148 93.2049 224.668C93.1569 224.188 93.1329 223.72 93.1329 223.264H93.0609C92.2929 224.392 91.4169 225.208 90.4329 225.712C89.4729 226.192 88.3089 226.432 86.9409 226.432C86.2929 226.432 85.6209 226.336 84.9249 226.144C84.2529 225.976 83.6289 225.688 83.0529 225.28C82.5009 224.872 82.0329 224.344 81.6489 223.696C81.2889 223.048 81.1089 222.256 81.1089 221.32C81.1089 220.024 81.4329 219.004 82.0809 218.26C82.7529 217.492 83.6409 216.928 84.7449 216.568C85.8489 216.184 87.1089 215.944 88.5249 215.848C89.9649 215.728 91.4529 215.668 92.9889 215.668V215.128ZM92.2689 217.576C91.2609 217.576 90.2409 217.624 89.2089 217.72C88.2009 217.792 87.2769 217.96 86.4369 218.224C85.6209 218.464 84.9489 218.824 84.4209 219.304C83.8929 219.784 83.6289 220.42 83.6289 221.212C83.6289 221.812 83.7369 222.316 83.9529 222.724C84.1929 223.132 84.5049 223.468 84.8889 223.732C85.2729 223.972 85.6929 224.152 86.1489 224.272C86.6289 224.368 87.1089 224.416 87.5889 224.416C88.4529 224.416 89.2209 224.272 89.8929 223.984C90.5649 223.672 91.1289 223.264 91.5849 222.76C92.0409 222.232 92.3889 221.632 92.6289 220.96C92.8689 220.288 92.9889 219.58 92.9889 218.836V217.576H92.2689ZM104.083 226H101.635V209.152H104.083V226ZM104.587 202.672C104.587 203.176 104.407 203.596 104.047 203.932C103.687 204.244 103.291 204.4 102.859 204.4C102.427 204.4 102.031 204.244 101.671 203.932C101.311 203.596 101.131 203.176 101.131 202.672C101.131 202.168 101.311 201.76 101.671 201.448C102.031 201.112 102.427 200.944 102.859 200.944C103.291 200.944 103.687 201.112 104.047 201.448C104.407 201.76 104.587 202.168 104.587 202.672ZM119.563 213.148C119.203 212.452 118.651 211.888 117.907 211.456C117.187 211 116.359 210.772 115.423 210.772C114.991 210.772 114.559 210.82 114.127 210.916C113.695 211.012 113.311 211.168 112.975 211.384C112.639 211.6 112.363 211.876 112.147 212.212C111.955 212.548 111.859 212.944 111.859 213.4C111.859 214.192 112.183 214.804 112.831 215.236C113.479 215.644 114.499 215.992 115.891 216.28C117.883 216.688 119.347 217.288 120.283 218.08C121.243 218.848 121.723 219.892 121.723 221.212C121.723 222.172 121.531 222.988 121.147 223.66C120.787 224.308 120.307 224.848 119.707 225.28C119.107 225.688 118.423 225.976 117.655 226.144C116.911 226.336 116.155 226.432 115.387 226.432C114.115 226.432 112.879 226.168 111.679 225.64C110.479 225.112 109.495 224.284 108.727 223.156L110.671 221.716C111.103 222.46 111.739 223.084 112.579 223.588C113.419 224.092 114.343 224.344 115.351 224.344C115.879 224.344 116.383 224.296 116.863 224.2C117.343 224.104 117.763 223.936 118.123 223.696C118.483 223.456 118.771 223.156 118.987 222.796C119.203 222.412 119.311 221.944 119.311 221.392C119.311 220.504 118.879 219.844 118.015 219.412C117.175 218.956 115.951 218.536 114.343 218.152C113.839 218.032 113.299 217.888 112.723 217.72C112.171 217.528 111.655 217.264 111.175 216.928C110.695 216.568 110.299 216.124 109.987 215.596C109.675 215.068 109.519 214.408 109.519 213.616C109.519 212.752 109.687 212.02 110.023 211.42C110.359 210.796 110.803 210.292 111.355 209.908C111.931 209.5 112.579 209.2 113.299 209.008C114.019 208.816 114.763 208.72 115.531 208.72C116.707 208.72 117.847 208.984 118.951 209.512C120.055 210.04 120.883 210.784 121.435 211.744L119.563 213.148ZM139.447 216.28C139.375 214.696 138.859 213.388 137.899 212.356C136.963 211.3 135.619 210.772 133.867 210.772C133.051 210.772 132.295 210.928 131.599 211.24C130.903 211.528 130.291 211.936 129.763 212.464C129.235 212.968 128.815 213.556 128.503 214.228C128.191 214.876 128.011 215.56 127.963 216.28H139.447ZM141.931 217.072C141.931 217.24 141.931 217.42 141.931 217.612C141.931 217.804 141.919 218.008 141.895 218.224H127.927C127.951 219.064 128.119 219.856 128.431 220.6C128.743 221.344 129.175 221.992 129.727 222.544C130.279 223.096 130.927 223.54 131.671 223.876C132.415 224.188 133.219 224.344 134.083 224.344C135.355 224.344 136.447 224.056 137.359 223.48C138.295 222.88 139.003 222.196 139.483 221.428L141.319 222.868C140.311 224.14 139.195 225.052 137.971 225.604C136.771 226.156 135.475 226.432 134.083 226.432C132.835 226.432 131.671 226.216 130.591 225.784C129.535 225.328 128.623 224.704 127.855 223.912C127.087 223.12 126.475 222.184 126.019 221.104C125.587 220.024 125.371 218.848 125.371 217.576C125.371 216.304 125.587 215.128 126.019 214.048C126.451 212.968 127.051 212.032 127.819 211.24C128.587 210.448 129.487 209.836 130.519 209.404C131.551 208.948 132.667 208.72 133.867 208.72C135.187 208.72 136.351 208.948 137.359 209.404C138.367 209.836 139.207 210.436 139.879 211.204C140.551 211.948 141.055 212.824 141.391 213.832C141.751 214.84 141.931 215.92 141.931 217.072ZM166.817 215.128C166.817 213.664 166.433 212.572 165.665 211.852C164.897 211.132 163.781 210.772 162.317 210.772C161.309 210.772 160.373 210.952 159.509 211.312C158.645 211.672 157.913 212.152 157.313 212.752L155.945 211.132C156.641 210.436 157.553 209.86 158.681 209.404C159.833 208.948 161.129 208.72 162.569 208.72C163.481 208.72 164.333 208.852 165.125 209.116C165.917 209.356 166.613 209.728 167.213 210.232C167.813 210.736 168.281 211.372 168.617 212.14C168.953 212.908 169.121 213.808 169.121 214.84V222.22C169.121 222.868 169.145 223.54 169.193 224.236C169.241 224.932 169.313 225.52 169.409 226H167.213C167.141 225.592 167.081 225.148 167.033 224.668C166.985 224.188 166.961 223.72 166.961 223.264H166.889C166.121 224.392 165.245 225.208 164.261 225.712C163.301 226.192 162.137 226.432 160.769 226.432C160.121 226.432 159.449 226.336 158.753 226.144C158.081 225.976 157.457 225.688 156.881 225.28C156.329 224.872 155.861 224.344 155.477 223.696C155.117 223.048 154.937 222.256 154.937 221.32C154.937 220.024 155.261 219.004 155.909 218.26C156.581 217.492 157.469 216.928 158.573 216.568C159.677 216.184 160.937 215.944 162.353 215.848C163.793 215.728 165.281 215.668 166.817 215.668V215.128ZM166.097 217.576C165.089 217.576 164.069 217.624 163.037 217.72C162.029 217.792 161.105 217.96 160.265 218.224C159.449 218.464 158.777 218.824 158.249 219.304C157.721 219.784 157.457 220.42 157.457 221.212C157.457 221.812 157.565 222.316 157.781 222.724C158.021 223.132 158.333 223.468 158.717 223.732C159.101 223.972 159.521 224.152 159.977 224.272C160.457 224.368 160.937 224.416 161.417 224.416C162.281 224.416 163.049 224.272 163.721 223.984C164.393 223.672 164.957 223.264 165.413 222.76C165.869 222.232 166.217 221.632 166.457 220.96C166.697 220.288 166.817 219.58 166.817 218.836V217.576H166.097ZM198.288 223.156C197.568 224.236 196.632 225.052 195.48 225.604C194.328 226.156 193.14 226.432 191.916 226.432C190.596 226.432 189.396 226.204 188.316 225.748C187.26 225.292 186.348 224.668 185.58 223.876C184.836 223.084 184.248 222.148 183.816 221.068C183.408 219.988 183.204 218.824 183.204 217.576C183.204 216.328 183.408 215.164 183.816 214.084C184.248 213.004 184.836 212.068 185.58 211.276C186.348 210.484 187.26 209.86 188.316 209.404C189.396 208.948 190.596 208.72 191.916 208.72C193.14 208.72 194.328 209.008 195.48 209.584C196.632 210.136 197.568 210.964 198.288 212.068H198.36V198.784H200.808V226H198.36V223.156H198.288ZM185.796 217.576C185.796 218.512 185.94 219.4 186.228 220.24C186.516 221.056 186.924 221.776 187.452 222.4C188.004 223 188.676 223.48 189.468 223.84C190.26 224.176 191.16 224.344 192.168 224.344C193.104 224.344 193.968 224.176 194.76 223.84C195.552 223.48 196.236 223 196.812 222.4C197.388 221.8 197.832 221.092 198.144 220.276C198.48 219.436 198.648 218.536 198.648 217.576C198.648 216.616 198.48 215.728 198.144 214.912C197.832 214.072 197.388 213.352 196.812 212.752C196.236 212.128 195.552 211.648 194.76 211.312C193.968 210.952 193.104 210.772 192.168 210.772C191.16 210.772 190.26 210.952 189.468 211.312C188.676 211.672 188.004 212.164 187.452 212.788C186.924 213.388 186.516 214.108 186.228 214.948C185.94 215.764 185.796 216.64 185.796 217.576ZM209.833 226H207.385V209.152H209.833V226ZM210.337 202.672C210.337 203.176 210.157 203.596 209.797 203.932C209.437 204.244 209.041 204.4 208.609 204.4C208.177 204.4 207.781 204.244 207.421 203.932C207.061 203.596 206.881 203.176 206.881 202.672C206.881 202.168 207.061 201.76 207.421 201.448C207.781 201.112 208.177 200.944 208.609 200.944C209.041 200.944 209.437 201.112 209.797 201.448C210.157 201.76 210.337 202.168 210.337 202.672ZM225.313 213.148C224.953 212.452 224.401 211.888 223.657 211.456C222.937 211 222.109 210.772 221.173 210.772C220.741 210.772 220.309 210.82 219.877 210.916C219.445 211.012 219.061 211.168 218.725 211.384C218.389 211.6 218.113 211.876 217.897 212.212C217.705 212.548 217.609 212.944 217.609 213.4C217.609 214.192 217.933 214.804 218.581 215.236C219.229 215.644 220.249 215.992 221.641 216.28C223.633 216.688 225.097 217.288 226.033 218.08C226.993 218.848 227.473 219.892 227.473 221.212C227.473 222.172 227.281 222.988 226.897 223.66C226.537 224.308 226.057 224.848 225.457 225.28C224.857 225.688 224.173 225.976 223.405 226.144C222.661 226.336 221.905 226.432 221.137 226.432C219.865 226.432 218.629 226.168 217.429 225.64C216.229 225.112 215.245 224.284 214.477 223.156L216.421 221.716C216.853 222.46 217.489 223.084 218.329 223.588C219.169 224.092 220.093 224.344 221.101 224.344C221.629 224.344 222.133 224.296 222.613 224.2C223.093 224.104 223.513 223.936 223.873 223.696C224.233 223.456 224.521 223.156 224.737 222.796C224.953 222.412 225.061 221.944 225.061 221.392C225.061 220.504 224.629 219.844 223.765 219.412C222.925 218.956 221.701 218.536 220.093 218.152C219.589 218.032 219.049 217.888 218.473 217.72C217.921 217.528 217.405 217.264 216.925 216.928C216.445 216.568 216.049 216.124 215.737 215.596C215.425 215.068 215.269 214.408 215.269 213.616C215.269 212.752 215.437 212.02 215.773 211.42C216.109 210.796 216.553 210.292 217.105 209.908C217.681 209.5 218.329 209.2 219.049 209.008C219.769 208.816 220.513 208.72 221.281 208.72C222.457 208.72 223.597 208.984 224.701 209.512C225.805 210.04 226.633 210.784 227.185 211.744L225.313 213.148ZM244.477 213.004C244.069 212.356 243.469 211.828 242.677 211.42C241.909 210.988 241.069 210.772 240.157 210.772C239.173 210.772 238.285 210.952 237.493 211.312C236.701 211.648 236.017 212.128 235.441 212.752C234.889 213.352 234.457 214.072 234.145 214.912C233.857 215.728 233.713 216.616 233.713 217.576C233.713 218.536 233.857 219.424 234.145 220.24C234.457 221.056 234.889 221.776 235.441 222.4C235.993 223 236.665 223.48 237.457 223.84C238.249 224.176 239.137 224.344 240.121 224.344C241.201 224.344 242.113 224.14 242.857 223.732C243.601 223.324 244.213 222.796 244.693 222.148L246.529 223.516C245.809 224.404 244.921 225.112 243.865 225.64C242.833 226.168 241.585 226.432 240.121 226.432C238.753 226.432 237.517 226.216 236.413 225.784C235.309 225.328 234.361 224.704 233.569 223.912C232.801 223.12 232.201 222.184 231.769 221.104C231.337 220.024 231.121 218.848 231.121 217.576C231.121 216.304 231.337 215.128 231.769 214.048C232.201 212.968 232.801 212.032 233.569 211.24C234.361 210.448 235.309 209.836 236.413 209.404C237.517 208.948 238.753 208.72 240.121 208.72C241.249 208.72 242.389 208.972 243.541 209.476C244.717 209.956 245.665 210.676 246.385 211.636L244.477 213.004ZM262.585 226C262.537 225.544 262.501 225.04 262.477 224.488C262.453 223.936 262.441 223.48 262.441 223.12H262.369C261.889 224.104 261.109 224.908 260.029 225.532C258.949 226.132 257.809 226.432 256.609 226.432C254.473 226.432 252.865 225.796 251.785 224.524C250.729 223.252 250.201 221.572 250.201 219.484V209.152H252.649V218.476C252.649 219.364 252.721 220.168 252.865 220.888C253.009 221.608 253.249 222.232 253.585 222.76C253.945 223.264 254.413 223.66 254.989 223.948C255.589 224.236 256.333 224.38 257.221 224.38C257.869 224.38 258.493 224.248 259.093 223.984C259.717 223.72 260.269 223.324 260.749 222.796C261.229 222.244 261.613 221.56 261.901 220.744C262.189 219.904 262.333 218.92 262.333 217.792V209.152H264.781V222.292C264.781 222.748 264.793 223.336 264.817 224.056C264.841 224.776 264.877 225.424 264.925 226H262.585ZM280.227 213.148C279.867 212.452 279.315 211.888 278.571 211.456C277.851 211 277.023 210.772 276.087 210.772C275.655 210.772 275.223 210.82 274.791 210.916C274.359 211.012 273.975 211.168 273.639 211.384C273.303 211.6 273.027 211.876 272.811 212.212C272.619 212.548 272.523 212.944 272.523 213.4C272.523 214.192 272.847 214.804 273.495 215.236C274.143 215.644 275.163 215.992 276.555 216.28C278.547 216.688 280.011 217.288 280.947 218.08C281.907 218.848 282.387 219.892 282.387 221.212C282.387 222.172 282.195 222.988 281.811 223.66C281.451 224.308 280.971 224.848 280.371 225.28C279.771 225.688 279.087 225.976 278.319 226.144C277.575 226.336 276.819 226.432 276.051 226.432C274.779 226.432 273.543 226.168 272.343 225.64C271.143 225.112 270.159 224.284 269.391 223.156L271.335 221.716C271.767 222.46 272.403 223.084 273.243 223.588C274.083 224.092 275.007 224.344 276.015 224.344C276.543 224.344 277.047 224.296 277.527 224.2C278.007 224.104 278.427 223.936 278.787 223.696C279.147 223.456 279.435 223.156 279.651 222.796C279.867 222.412 279.975 221.944 279.975 221.392C279.975 220.504 279.543 219.844 278.679 219.412C277.839 218.956 276.615 218.536 275.007 218.152C274.503 218.032 273.963 217.888 273.387 217.72C272.835 217.528 272.319 217.264 271.839 216.928C271.359 216.568 270.963 216.124 270.651 215.596C270.339 215.068 270.183 214.408 270.183 213.616C270.183 212.752 270.351 212.02 270.687 211.42C271.023 210.796 271.467 210.292 272.019 209.908C272.595 209.5 273.243 209.2 273.963 209.008C274.683 208.816 275.427 208.72 276.195 208.72C277.371 208.72 278.511 208.984 279.615 209.512C280.719 210.04 281.547 210.784 282.099 211.744L280.227 213.148ZM296.224 213.148C295.864 212.452 295.312 211.888 294.568 211.456C293.848 211 293.02 210.772 292.084 210.772C291.652 210.772 291.22 210.82 290.788 210.916C290.356 211.012 289.972 211.168 289.636 211.384C289.3 211.6 289.024 211.876 288.808 212.212C288.616 212.548 288.52 212.944 288.52 213.4C288.52 214.192 288.844 214.804 289.492 215.236C290.14 215.644 291.16 215.992 292.552 216.28C294.544 216.688 296.008 217.288 296.944 218.08C297.904 218.848 298.384 219.892 298.384 221.212C298.384 222.172 298.192 222.988 297.808 223.66C297.448 224.308 296.968 224.848 296.368 225.28C295.768 225.688 295.084 225.976 294.316 226.144C293.572 226.336 292.816 226.432 292.048 226.432C290.776 226.432 289.54 226.168 288.34 225.64C287.14 225.112 286.156 224.284 285.388 223.156L287.332 221.716C287.764 222.46 288.4 223.084 289.24 223.588C290.08 224.092 291.004 224.344 292.012 224.344C292.54 224.344 293.044 224.296 293.524 224.2C294.004 224.104 294.424 223.936 294.784 223.696C295.144 223.456 295.432 223.156 295.648 222.796C295.864 222.412 295.972 221.944 295.972 221.392C295.972 220.504 295.54 219.844 294.676 219.412C293.836 218.956 292.612 218.536 291.004 218.152C290.5 218.032 289.96 217.888 289.384 217.72C288.832 217.528 288.316 217.264 287.836 216.928C287.356 216.568 286.96 216.124 286.648 215.596C286.336 215.068 286.18 214.408 286.18 213.616C286.18 212.752 286.348 212.02 286.684 211.42C287.02 210.796 287.464 210.292 288.016 209.908C288.592 209.5 289.24 209.2 289.96 209.008C290.68 208.816 291.424 208.72 292.192 208.72C293.368 208.72 294.508 208.984 295.612 209.512C296.716 210.04 297.544 210.784 298.096 211.744L296.224 213.148ZM312.22 213.148C311.86 212.452 311.308 211.888 310.564 211.456C309.844 211 309.016 210.772 308.08 210.772C307.648 210.772 307.216 210.82 306.784 210.916C306.352 211.012 305.968 211.168 305.632 211.384C305.296 211.6 305.02 211.876 304.804 212.212C304.612 212.548 304.516 212.944 304.516 213.4C304.516 214.192 304.84 214.804 305.488 215.236C306.136 215.644 307.156 215.992 308.548 216.28C310.54 216.688 312.004 217.288 312.94 218.08C313.9 218.848 314.38 219.892 314.38 221.212C314.38 222.172 314.188 222.988 313.804 223.66C313.444 224.308 312.964 224.848 312.364 225.28C311.764 225.688 311.08 225.976 310.312 226.144C309.568 226.336 308.812 226.432 308.044 226.432C306.772 226.432 305.536 226.168 304.336 225.64C303.136 225.112 302.152 224.284 301.384 223.156L303.328 221.716C303.76 222.46 304.396 223.084 305.236 223.588C306.076 224.092 307 224.344 308.008 224.344C308.536 224.344 309.04 224.296 309.52 224.2C310 224.104 310.42 223.936 310.78 223.696C311.14 223.456 311.428 223.156 311.644 222.796C311.86 222.412 311.968 221.944 311.968 221.392C311.968 220.504 311.536 219.844 310.672 219.412C309.832 218.956 308.608 218.536 307 218.152C306.496 218.032 305.956 217.888 305.38 217.72C304.828 217.528 304.312 217.264 303.832 216.928C303.352 216.568 302.956 216.124 302.644 215.596C302.332 215.068 302.176 214.408 302.176 213.616C302.176 212.752 302.344 212.02 302.68 211.42C303.016 210.796 303.46 210.292 304.012 209.908C304.588 209.5 305.236 209.2 305.956 209.008C306.676 208.816 307.42 208.72 308.188 208.72C309.364 208.72 310.504 208.984 311.608 209.512C312.712 210.04 313.54 210.784 314.092 211.744L312.22 213.148ZM321.736 226H319.288V209.152H321.736V226ZM322.24 202.672C322.24 203.176 322.06 203.596 321.7 203.932C321.34 204.244 320.944 204.4 320.512 204.4C320.08 204.4 319.684 204.244 319.324 203.932C318.964 203.596 318.784 203.176 318.784 202.672C318.784 202.168 318.964 201.76 319.324 201.448C319.684 201.112 320.08 200.944 320.512 200.944C320.944 200.944 321.34 201.112 321.7 201.448C322.06 201.76 322.24 202.168 322.24 202.672ZM344.992 217.576C344.992 218.848 344.764 220.024 344.308 221.104C343.876 222.184 343.264 223.12 342.472 223.912C341.68 224.704 340.732 225.328 339.628 225.784C338.524 226.216 337.312 226.432 335.992 226.432C334.696 226.432 333.496 226.216 332.392 225.784C331.288 225.328 330.34 224.704 329.548 223.912C328.756 223.12 328.132 222.184 327.676 221.104C327.244 220.024 327.028 218.848 327.028 217.576C327.028 216.304 327.244 215.128 327.676 214.048C328.132 212.968 328.756 212.032 329.548 211.24C330.34 210.448 331.288 209.836 332.392 209.404C333.496 208.948 334.696 208.72 335.992 208.72C337.312 208.72 338.524 208.948 339.628 209.404C340.732 209.836 341.68 210.448 342.472 211.24C343.264 212.032 343.876 212.968 344.308 214.048C344.764 215.128 344.992 216.304 344.992 217.576ZM342.4 217.576C342.4 216.64 342.244 215.764 341.932 214.948C341.644 214.108 341.224 213.388 340.672 212.788C340.12 212.164 339.448 211.672 338.656 211.312C337.864 210.952 336.976 210.772 335.992 210.772C335.008 210.772 334.12 210.952 333.328 211.312C332.56 211.672 331.9 212.164 331.348 212.788C330.796 213.388 330.364 214.108 330.052 214.948C329.764 215.764 329.62 216.64 329.62 217.576C329.62 218.512 329.764 219.4 330.052 220.24C330.364 221.056 330.796 221.776 331.348 222.4C331.9 223 332.56 223.48 333.328 223.84C334.12 224.176 335.008 224.344 335.992 224.344C336.976 224.344 337.864 224.176 338.656 223.84C339.448 223.48 340.12 223 340.672 222.4C341.224 221.776 341.644 221.056 341.932 220.24C342.244 219.4 342.4 218.512 342.4 217.576ZM352.456 209.152C352.504 209.608 352.54 210.112 352.564 210.664C352.588 211.216 352.6 211.672 352.6 212.032H352.672C353.152 211.048 353.932 210.256 355.012 209.656C356.092 209.032 357.232 208.72 358.432 208.72C360.568 208.72 362.164 209.356 363.22 210.628C364.3 211.9 364.84 213.58 364.84 215.668V226H362.392V216.676C362.392 215.788 362.32 214.984 362.176 214.264C362.032 213.544 361.78 212.932 361.42 212.428C361.084 211.9 360.616 211.492 360.016 211.204C359.44 210.916 358.708 210.772 357.82 210.772C357.172 210.772 356.536 210.904 355.912 211.168C355.312 211.432 354.772 211.84 354.292 212.392C353.812 212.92 353.428 213.604 353.14 214.444C352.852 215.26 352.708 216.232 352.708 217.36V226H350.26V212.86C350.26 212.404 350.248 211.816 350.224 211.096C350.2 210.376 350.164 209.728 350.116 209.152H352.456ZM390.798 215.128C390.798 213.664 390.414 212.572 389.646 211.852C388.878 211.132 387.762 210.772 386.298 210.772C385.29 210.772 384.354 210.952 383.49 211.312C382.626 211.672 381.894 212.152 381.294 212.752L379.926 211.132C380.622 210.436 381.534 209.86 382.662 209.404C383.814 208.948 385.11 208.72 386.55 208.72C387.462 208.72 388.314 208.852 389.106 209.116C389.898 209.356 390.594 209.728 391.194 210.232C391.794 210.736 392.262 211.372 392.598 212.14C392.934 212.908 393.102 213.808 393.102 214.84V222.22C393.102 222.868 393.126 223.54 393.174 224.236C393.222 224.932 393.294 225.52 393.39 226H391.194C391.122 225.592 391.062 225.148 391.014 224.668C390.966 224.188 390.942 223.72 390.942 223.264H390.87C390.102 224.392 389.226 225.208 388.242 225.712C387.282 226.192 386.118 226.432 384.75 226.432C384.102 226.432 383.43 226.336 382.734 226.144C382.062 225.976 381.438 225.688 380.862 225.28C380.31 224.872 379.842 224.344 379.458 223.696C379.098 223.048 378.918 222.256 378.918 221.32C378.918 220.024 379.242 219.004 379.89 218.26C380.562 217.492 381.45 216.928 382.554 216.568C383.658 216.184 384.918 215.944 386.334 215.848C387.774 215.728 389.262 215.668 390.798 215.668V215.128ZM390.078 217.576C389.07 217.576 388.05 217.624 387.018 217.72C386.01 217.792 385.086 217.96 384.246 218.224C383.43 218.464 382.758 218.824 382.229 219.304C381.701 219.784 381.438 220.42 381.438 221.212C381.438 221.812 381.546 222.316 381.762 222.724C382.002 223.132 382.314 223.468 382.698 223.732C383.082 223.972 383.502 224.152 383.958 224.272C384.438 224.368 384.918 224.416 385.398 224.416C386.262 224.416 387.03 224.272 387.702 223.984C388.374 223.672 388.938 223.264 389.394 222.76C389.85 222.232 390.198 221.632 390.438 220.96C390.678 220.288 390.798 219.58 390.798 218.836V217.576H390.078ZM401.928 223.156V226H399.48V198.784H401.928V212.068H402C402.72 210.964 403.656 210.136 404.808 209.584C405.96 209.008 407.148 208.72 408.372 208.72C409.692 208.72 410.88 208.948 411.936 209.404C413.016 209.86 413.928 210.484 414.672 211.276C415.44 212.068 416.028 213.004 416.436 214.084C416.868 215.164 417.084 216.328 417.084 217.576C417.084 218.824 416.868 219.988 416.436 221.068C416.028 222.148 415.44 223.084 414.672 223.876C413.928 224.668 413.016 225.292 411.936 225.748C410.88 226.204 409.692 226.432 408.372 226.432C407.148 226.432 405.96 226.156 404.808 225.604C403.656 225.052 402.72 224.236 402 223.156H401.928ZM414.492 217.576C414.492 216.64 414.348 215.764 414.06 214.948C413.772 214.108 413.352 213.388 412.8 212.788C412.272 212.164 411.612 211.672 410.82 211.312C410.028 210.952 409.128 210.772 408.12 210.772C407.184 210.772 406.32 210.952 405.528 211.312C404.736 211.648 404.052 212.128 403.476 212.752C402.9 213.352 402.444 214.072 402.108 214.912C401.796 215.728 401.64 216.616 401.64 217.576C401.64 218.536 401.796 219.436 402.108 220.276C402.444 221.092 402.9 221.8 403.476 222.4C404.052 223 404.736 223.48 405.528 223.84C406.32 224.176 407.184 224.344 408.12 224.344C409.128 224.344 410.028 224.176 410.82 223.84C411.612 223.48 412.272 223 412.8 222.4C413.352 221.776 413.772 221.056 414.06 220.24C414.348 219.4 414.492 218.512 414.492 217.576ZM439.07 217.576C439.07 218.848 438.842 220.024 438.386 221.104C437.954 222.184 437.342 223.12 436.55 223.912C435.758 224.704 434.81 225.328 433.706 225.784C432.602 226.216 431.39 226.432 430.07 226.432C428.774 226.432 427.574 226.216 426.47 225.784C425.366 225.328 424.418 224.704 423.626 223.912C422.834 223.12 422.21 222.184 421.754 221.104C421.322 220.024 421.106 218.848 421.106 217.576C421.106 216.304 421.322 215.128 421.754 214.048C422.21 212.968 422.834 212.032 423.626 211.24C424.418 210.448 425.366 209.836 426.47 209.404C427.574 208.948 428.774 208.72 430.07 208.72C431.39 208.72 432.602 208.948 433.706 209.404C434.81 209.836 435.758 210.448 436.55 211.24C437.342 212.032 437.954 212.968 438.386 214.048C438.842 215.128 439.07 216.304 439.07 217.576ZM436.478 217.576C436.478 216.64 436.322 215.764 436.01 214.948C435.722 214.108 435.302 213.388 434.75 212.788C434.198 212.164 433.526 211.672 432.734 211.312C431.942 210.952 431.054 210.772 430.07 210.772C429.086 210.772 428.198 210.952 427.406 211.312C426.638 211.672 425.978 212.164 425.426 212.788C424.874 213.388 424.442 214.108 424.13 214.948C423.842 215.764 423.698 216.64 423.698 217.576C423.698 218.512 423.842 219.4 424.13 220.24C424.442 221.056 424.874 221.776 425.426 222.4C425.978 223 426.638 223.48 427.406 223.84C428.198 224.176 429.086 224.344 430.07 224.344C431.054 224.344 431.942 224.176 432.734 223.84C433.526 223.48 434.198 223 434.75 222.4C435.302 221.776 435.722 221.056 436.01 220.24C436.322 219.4 436.478 218.512 436.478 217.576ZM456.578 226C456.53 225.544 456.494 225.04 456.47 224.488C456.446 223.936 456.434 223.48 456.434 223.12H456.362C455.882 224.104 455.102 224.908 454.022 225.532C452.942 226.132 451.802 226.432 450.602 226.432C448.466 226.432 446.858 225.796 445.778 224.524C444.722 223.252 444.194 221.572 444.194 219.484V209.152H446.642V218.476C446.642 219.364 446.714 220.168 446.858 220.888C447.002 221.608 447.242 222.232 447.578 222.76C447.938 223.264 448.406 223.66 448.982 223.948C449.582 224.236 450.326 224.38 451.214 224.38C451.862 224.38 452.486 224.248 453.086 223.984C453.71 223.72 454.262 223.324 454.742 222.796C455.222 222.244 455.606 221.56 455.894 220.744C456.182 219.904 456.326 218.92 456.326 217.792V209.152H458.774V222.292C458.774 222.748 458.786 223.336 458.81 224.056C458.834 224.776 458.87 225.424 458.918 226H456.578ZM472.852 211.204H468.1V221.032C468.1 221.656 468.16 222.172 468.28 222.58C468.4 222.988 468.568 223.312 468.784 223.552C469.024 223.768 469.3 223.924 469.612 224.02C469.924 224.092 470.26 224.128 470.62 224.128C470.956 224.128 471.304 224.08 471.664 223.984C472.048 223.888 472.408 223.756 472.744 223.588L472.852 225.712C472.42 225.88 471.964 226 471.484 226.072C471.028 226.168 470.524 226.216 469.972 226.216C469.516 226.216 469.036 226.156 468.532 226.036C468.028 225.916 467.56 225.688 467.128 225.352C466.696 225.016 466.336 224.56 466.048 223.984C465.784 223.408 465.652 222.652 465.652 221.716V211.204H462.16V209.152H465.652V204.4H468.1V209.152H472.852V211.204ZM493.277 211.204H488.525V221.032C488.525 221.656 488.585 222.172 488.705 222.58C488.825 222.988 488.993 223.312 489.209 223.552C489.449 223.768 489.725 223.924 490.037 224.02C490.349 224.092 490.685 224.128 491.045 224.128C491.381 224.128 491.729 224.08 492.089 223.984C492.473 223.888 492.833 223.756 493.169 223.588L493.277 225.712C492.845 225.88 492.389 226 491.909 226.072C491.453 226.168 490.949 226.216 490.397 226.216C489.941 226.216 489.461 226.156 488.957 226.036C488.453 225.916 487.985 225.688 487.553 225.352C487.121 225.016 486.761 224.56 486.473 223.984C486.209 223.408 486.077 222.652 486.077 221.716V211.204H482.585V209.152H486.077V204.4H488.525V209.152H493.277V211.204ZM499.699 211.924C500.155 210.94 500.911 210.16 501.967 209.584C503.023 209.008 504.151 208.72 505.351 208.72C507.487 208.72 509.083 209.356 510.139 210.628C511.219 211.9 511.759 213.58 511.759 215.668V226H509.311V216.676C509.311 215.788 509.239 214.984 509.095 214.264C508.951 213.544 508.699 212.932 508.339 212.428C508.003 211.9 507.535 211.492 506.935 211.204C506.359 210.916 505.627 210.772 504.739 210.772C504.091 210.772 503.455 210.904 502.831 211.168C502.231 211.432 501.691 211.84 501.211 212.392C500.731 212.92 500.347 213.604 500.059 214.444C499.771 215.26 499.627 216.232 499.627 217.36V226H497.179V198.784H499.627V211.924H499.699ZM520.579 226H518.131V209.152H520.579V226ZM521.083 202.672C521.083 203.176 520.903 203.596 520.543 203.932C520.183 204.244 519.787 204.4 519.355 204.4C518.923 204.4 518.527 204.244 518.167 203.932C517.807 203.596 517.627 203.176 517.627 202.672C517.627 202.168 517.807 201.76 518.167 201.448C518.527 201.112 518.923 200.944 519.355 200.944C519.787 200.944 520.183 201.112 520.543 201.448C520.903 201.76 521.083 202.168 521.083 202.672ZM536.059 213.148C535.699 212.452 535.147 211.888 534.403 211.456C533.683 211 532.855 210.772 531.919 210.772C531.487 210.772 531.055 210.82 530.623 210.916C530.191 211.012 529.807 211.168 529.471 211.384C529.135 211.6 528.859 211.876 528.643 212.212C528.451 212.548 528.355 212.944 528.355 213.4C528.355 214.192 528.679 214.804 529.327 215.236C529.975 215.644 530.995 215.992 532.387 216.28C534.379 216.688 535.843 217.288 536.779 218.08C537.739 218.848 538.219 219.892 538.219 221.212C538.219 222.172 538.027 222.988 537.643 223.66C537.283 224.308 536.803 224.848 536.203 225.28C535.603 225.688 534.919 225.976 534.151 226.144C533.407 226.336 532.651 226.432 531.883 226.432C530.611 226.432 529.375 226.168 528.175 225.64C526.975 225.112 525.991 224.284 525.223 223.156L527.167 221.716C527.599 222.46 528.235 223.084 529.075 223.588C529.915 224.092 530.839 224.344 531.847 224.344C532.375 224.344 532.879 224.296 533.359 224.2C533.839 224.104 534.259 223.936 534.619 223.696C534.979 223.456 535.267 223.156 535.483 222.796C535.699 222.412 535.807 221.944 535.807 221.392C535.807 220.504 535.375 219.844 534.511 219.412C533.671 218.956 532.447 218.536 530.839 218.152C530.335 218.032 529.795 217.888 529.219 217.72C528.667 217.528 528.151 217.264 527.671 216.928C527.191 216.568 526.795 216.124 526.483 215.596C526.171 215.068 526.015 214.408 526.015 213.616C526.015 212.752 526.183 212.02 526.519 211.42C526.855 210.796 527.299 210.292 527.851 209.908C528.427 209.5 529.075 209.2 529.795 209.008C530.515 208.816 531.259 208.72 532.027 208.72C533.203 208.72 534.343 208.984 535.447 209.512C536.551 210.04 537.379 210.784 537.931 211.744L536.059 213.148ZM554.54 234.64H552.092V209.152H554.54V212.068H554.648C555.344 210.964 556.268 210.136 557.42 209.584C558.596 209.008 559.784 208.72 560.984 208.72C562.304 208.72 563.492 208.948 564.548 209.404C565.628 209.86 566.54 210.484 567.284 211.276C568.052 212.068 568.64 213.004 569.048 214.084C569.48 215.164 569.696 216.328 569.696 217.576C569.696 218.824 569.48 219.988 569.048 221.068C568.64 222.148 568.052 223.084 567.284 223.876C566.54 224.668 565.628 225.292 564.548 225.748C563.492 226.204 562.304 226.432 560.984 226.432C559.784 226.432 558.596 226.156 557.42 225.604C556.268 225.028 555.344 224.212 554.648 223.156H554.54V234.64ZM567.104 217.576C567.104 216.64 566.96 215.764 566.672 214.948C566.384 214.108 565.964 213.388 565.412 212.788C564.884 212.164 564.224 211.672 563.432 211.312C562.64 210.952 561.74 210.772 560.732 210.772C559.796 210.772 558.932 210.952 558.14 211.312C557.348 211.648 556.664 212.128 556.088 212.752C555.512 213.352 555.056 214.072 554.72 214.912C554.408 215.728 554.252 216.616 554.252 217.576C554.252 218.536 554.408 219.436 554.72 220.276C555.056 221.092 555.512 221.8 556.088 222.4C556.664 223 557.348 223.48 558.14 223.84C558.932 224.176 559.796 224.344 560.732 224.344C561.74 224.344 562.64 224.176 563.432 223.84C564.224 223.48 564.884 223 565.412 222.4C565.964 221.776 566.384 221.056 566.672 220.24C566.96 219.4 567.104 218.512 567.104 217.576ZM591.683 217.576C591.683 218.848 591.455 220.024 590.999 221.104C590.567 222.184 589.955 223.12 589.163 223.912C588.371 224.704 587.423 225.328 586.319 225.784C585.215 226.216 584.003 226.432 582.683 226.432C581.387 226.432 580.187 226.216 579.083 225.784C577.979 225.328 577.031 224.704 576.239 223.912C575.447 223.12 574.823 222.184 574.367 221.104C573.935 220.024 573.719 218.848 573.719 217.576C573.719 216.304 573.935 215.128 574.367 214.048C574.823 212.968 575.447 212.032 576.239 211.24C577.031 210.448 577.979 209.836 579.083 209.404C580.187 208.948 581.387 208.72 582.683 208.72C584.003 208.72 585.215 208.948 586.319 209.404C587.423 209.836 588.371 210.448 589.163 211.24C589.955 212.032 590.567 212.968 590.999 214.048C591.455 215.128 591.683 216.304 591.683 217.576ZM589.091 217.576C589.091 216.64 588.935 215.764 588.623 214.948C588.335 214.108 587.915 213.388 587.363 212.788C586.811 212.164 586.139 211.672 585.347 211.312C584.555 210.952 583.667 210.772 582.683 210.772C581.699 210.772 580.811 210.952 580.019 211.312C579.251 211.672 578.591 212.164 578.039 212.788C577.487 213.388 577.055 214.108 576.743 214.948C576.455 215.764 576.311 216.64 576.311 217.576C576.311 218.512 576.455 219.4 576.743 220.24C577.055 221.056 577.487 221.776 578.039 222.4C578.591 223 579.251 223.48 580.019 223.84C580.811 224.176 581.699 224.344 582.683 224.344C583.667 224.344 584.555 224.176 585.347 223.84C586.139 223.48 586.811 223 587.363 222.4C587.915 221.776 588.335 221.056 588.623 220.24C588.935 219.4 589.091 218.512 589.091 217.576ZM605.915 213.148C605.555 212.452 605.003 211.888 604.259 211.456C603.539 211 602.711 210.772 601.775 210.772C601.343 210.772 600.911 210.82 600.479 210.916C600.047 211.012 599.663 211.168 599.327 211.384C598.991 211.6 598.715 211.876 598.499 212.212C598.307 212.548 598.211 212.944 598.211 213.4C598.211 214.192 598.535 214.804 599.183 215.236C599.831 215.644 600.851 215.992 602.243 216.28C604.235 216.688 605.699 217.288 606.635 218.08C607.595 218.848 608.075 219.892 608.075 221.212C608.075 222.172 607.883 222.988 607.499 223.66C607.139 224.308 606.659 224.848 606.059 225.28C605.459 225.688 604.775 225.976 604.007 226.144C603.263 226.336 602.507 226.432 601.739 226.432C600.467 226.432 599.231 226.168 598.031 225.64C596.831 225.112 595.847 224.284 595.079 223.156L597.023 221.716C597.455 222.46 598.091 223.084 598.931 223.588C599.771 224.092 600.695 224.344 601.703 224.344C602.231 224.344 602.735 224.296 603.215 224.2C603.695 224.104 604.115 223.936 604.475 223.696C604.835 223.456 605.123 223.156 605.339 222.796C605.555 222.412 605.663 221.944 605.663 221.392C605.663 220.504 605.231 219.844 604.367 219.412C603.527 218.956 602.303 218.536 600.695 218.152C600.191 218.032 599.651 217.888 599.075 217.72C598.523 217.528 598.007 217.264 597.527 216.928C597.047 216.568 596.651 216.124 596.339 215.596C596.027 215.068 595.871 214.408 595.871 213.616C595.871 212.752 596.039 212.02 596.375 211.42C596.711 210.796 597.155 210.292 597.707 209.908C598.283 209.5 598.931 209.2 599.651 209.008C600.371 208.816 601.115 208.72 601.883 208.72C603.059 208.72 604.199 208.984 605.303 209.512C606.407 210.04 607.235 210.784 607.787 211.744L605.915 213.148ZM620.543 211.204H615.791V221.032C615.791 221.656 615.851 222.172 615.971 222.58C616.091 222.988 616.259 223.312 616.475 223.552C616.715 223.768 616.991 223.924 617.303 224.02C617.615 224.092 617.951 224.128 618.311 224.128C618.647 224.128 618.995 224.08 619.355 223.984C619.739 223.888 620.099 223.756 620.435 223.588L620.543 225.712C620.111 225.88 619.655 226 619.175 226.072C618.719 226.168 618.215 226.216 617.663 226.216C617.207 226.216 616.727 226.156 616.223 226.036C615.719 225.916 615.251 225.688 614.819 225.352C614.387 225.016 614.027 224.56 613.739 223.984C613.475 223.408 613.343 222.652 613.343 221.716V211.204H609.851V209.152H613.343V204.4H615.791V209.152H620.543V211.204ZM627.757 224.272C627.757 224.776 627.577 225.232 627.217 225.64C626.857 226.024 626.389 226.216 625.813 226.216C625.237 226.216 624.769 226.024 624.409 225.64C624.049 225.232 623.869 224.776 623.869 224.272C623.869 223.768 624.049 223.324 624.409 222.94C624.769 222.532 625.237 222.328 625.813 222.328C626.389 222.328 626.857 222.532 627.217 222.94C627.577 223.324 627.757 223.768 627.757 224.272Z" fill="black"/>
</svg>
